<svg width="38" height="38" viewBox="0 0 38 38" fill="none" xmlns="http://www.w3.org/2000/svg">
<g clip-path="url(#clip0_161_116)">
<path d="M13.2377 1.24973C9.44096 2.56687 6.16661 5.06685 3.89566 8.38246C1.6247 11.6981 0.476846 15.6545 0.620685 19.6707C0.764524 23.6869 2.19248 27.5511 4.6948 30.6958C7.19713 33.8404 10.6419 36.0998 14.5232 37.1419C17.6699 37.9539 20.9666 37.9895 24.1301 37.2458C26.9959 36.6021 29.6454 35.2252 31.8192 33.2499C34.0816 31.1312 35.7238 28.436 36.5691 25.454C37.488 22.2111 37.6515 18.8008 37.0471 15.4849H19.3771V22.8147H29.6104C29.4059 23.9838 28.9676 25.0996 28.3218 26.0953C27.676 27.091 26.836 27.9462 25.852 28.6097C24.6024 29.4363 23.1937 29.9925 21.7165 30.2425C20.2349 30.518 18.7153 30.518 17.2337 30.2425C15.7321 29.9321 14.3115 29.3123 13.0626 28.4227C11.0562 27.0024 9.5496 24.9847 8.7579 22.6574C7.95282 20.2865 7.95282 17.7162 8.7579 15.3454C9.32145 13.6835 10.2531 12.1704 11.4832 10.919C12.891 9.46054 14.6732 8.41807 16.6345 7.9059C18.5957 7.39372 20.6601 7.43165 22.6012 8.01551C24.1175 8.48099 25.5042 9.29426 26.6506 10.3905C27.8044 9.2426 28.9563 8.09171 30.1062 6.93786C30.6999 6.31739 31.3471 5.72661 31.932 5.09129C30.1821 3.46286 28.128 2.19574 25.8876 1.36254C21.8076 -0.118893 17.3435 -0.158705 13.2377 1.24973Z" fill="white"/>
<path d="M13.2376 1.24995C17.343 -0.15944 21.8072 -0.120676 25.8875 1.3598C28.1283 2.19866 30.1814 3.47188 31.9289 5.10636C31.3351 5.74167 30.7087 6.33542 30.1031 6.95292C28.9512 8.10282 27.8003 9.24876 26.6504 10.3907C25.504 9.29449 24.1174 8.48121 22.6011 8.01573C20.6606 7.42982 18.5963 7.38971 16.6345 7.89978C14.6728 8.40986 12.8894 9.45042 11.4801 10.9073C10.25 12.1587 9.31835 13.6718 8.7548 15.3337L2.60059 10.5689C4.80342 6.20053 8.6175 2.85909 13.2376 1.24995Z" fill="#E33629"/>
<path d="M0.967726 15.2892C1.29851 13.6498 1.84767 12.0622 2.60054 10.5688L8.75476 15.3456C7.94968 17.7164 7.94968 20.2867 8.75476 22.6576C6.70434 24.2409 4.65293 25.8322 2.60054 27.4313C0.715829 23.6798 0.141026 19.4053 0.967726 15.2892Z" fill="#F8BD00"/>
<path d="M19.3771 15.4819H37.0471C37.6515 18.7978 37.488 22.2081 36.5691 25.451C35.7237 28.433 34.0815 31.1283 31.8191 33.2469C29.833 31.6972 27.838 30.1594 25.8519 28.6097C26.8366 27.9456 27.677 27.0894 28.3228 26.0926C28.9686 25.0958 29.4066 23.9789 29.6103 22.8088H19.3771C19.3741 20.3685 19.3771 17.9252 19.3771 15.4819Z" fill="#587DBD"/>
<path d="M2.59766 27.4312C4.65005 25.8479 6.70146 24.2566 8.75187 22.6575C9.54515 24.9856 11.0539 27.0034 13.0625 28.4228C14.3153 29.3083 15.7389 29.923 17.2425 30.2278C18.7241 30.5033 20.2437 30.5033 21.7253 30.2278C23.2025 29.9777 24.6112 29.4216 25.8608 28.595C27.8469 30.1447 29.8419 31.6825 31.828 33.2322C29.6545 35.2085 27.005 36.5865 24.1389 37.2311C20.9754 37.9748 17.6787 37.9391 14.532 37.1272C12.0433 36.4627 9.71872 35.2913 7.70391 33.6864C5.57134 31.9933 3.82955 29.8596 2.59766 27.4312Z" fill="#319F43"/>
</g>
<defs>
<clipPath id="clip0_161_116">
<rect width="38" height="38" fill="white"/>
</clipPath>
</defs>
</svg>
