<svg viewBox="0 0 6.4625 11.825" fill="none" xmlns="http://www.w3.org/2000/svg" xmlns:xlink="http://www.w3.org/1999/xlink" x="0" y="0"><path id="Vector_2" opacity="0.5" d="M0.688,11.8245c-0.184,0 -0.344,-0.062 -0.482,-0.188c-0.137,-0.125 -0.206,-0.292 -0.206,-0.499v-10.45c0,-0.206 0.069,-0.372 0.206,-0.498c0.138,-0.125 0.298,-0.189 0.482,-0.19c0.045,0 0.206,0.069 0.481,0.207l4.984,4.984c0.115,0.115 0.195,0.229 0.241,0.344c0.046,0.114 0.069,0.24 0.069,0.378c0,0.137 -0.023,0.264 -0.069,0.378c-0.046,0.115 -0.126,0.229 -0.241,0.344l-4.984,4.984c-0.069,0.069 -0.143,0.121 -0.223,0.156c-0.08,0.034 -0.166,0.051 -0.258,0.05z" fill="black"/></svg>