<svg viewBox="0 0 23.9719 22.4841" fill="none" xmlns="http://www.w3.org/2000/svg" xmlns:xlink="http://www.w3.org/1999/xlink" x="0" y="0"><path id="Icon" d="M11.9822,5.752c0,-1.1654 -0.44,-2.2826 -1.24,-3.1064c-0.8,-0.8237 -1.88,-1.2865 -3.01,-1.2865h-6.37v16.4719h7.44c0.84,0 1.65,0.347 2.25,0.965c0.6,0.617 0.93,1.455 0.93,2.329M11.9822,5.752v15.373M11.9822,5.752c0,-1.1654 0.45,-2.2826 1.25,-3.1064c0.8,-0.8237 1.88,-1.2865 3,-1.2865h6.38v16.4719h-7.44c-0.84,0 -1.65,0.347 -2.25,0.965c-0.6,0.617 -0.94,1.455 -0.94,2.329" stroke="#F0EAD8" stroke-width="2.71818" stroke-linecap="round" stroke-linejoin="round"/></svg>