<svg viewBox="0 0 28.3636 28.3636" fill="none" xmlns="http://www.w3.org/2000/svg" xmlns:xlink="http://www.w3.org/1999/xlink" x="0" y="0"><path id="Icon_3" d="M21.2723,7.0918h0.013M7.7353,1.2888h12.893c3.56,0 6.446,2.887 6.446,6.443v12.9c0,3.56 -2.886,6.44 -6.446,6.44h-12.893c-3.56,0 -6.446,-2.88 -6.446,-6.44v-12.9c0,-3.556 2.886,-6.443 6.446,-6.443zM19.3393,13.3718c0.159,1.07 -0.025,2.17 -0.524,3.13c-0.5,0.96 -1.29,1.74 -2.259,2.23c-0.969,0.49 -2.067,0.66 -3.138,0.49c-1.071,-0.18 -2.06,-0.68 -2.827,-1.45c-0.767,-0.77 -1.273,-1.76 -1.445,-2.83c-0.173,-1.07 -0.003,-2.17 0.485,-3.13c0.488,-0.97 1.268,-1.76 2.231,-2.26c0.963,-0.5 2.059,-0.69 3.132,-0.53c1.094,0.17 2.108,0.68 2.89,1.46c0.782,0.78 1.292,1.79 1.455,2.89z" stroke="#1E1E1E" stroke-width="2.57851" stroke-linecap="round" stroke-linejoin="round"/></svg>