<svg viewBox="0 0 28.3636 27.0744" fill="none" xmlns="http://www.w3.org/2000/svg" xmlns:xlink="http://www.w3.org/1999/xlink" x="0" y="0"><g id="Icon_2">
<path d="M19.3386,9.0218c2.052,0 4.019,0.82 5.47,2.27c1.451,1.45 2.266,3.42 2.266,5.47v9.02h-5.157v-9.02c0,-0.69 -0.272,-1.34 -0.756,-1.82c-0.483,-0.49 -1.139,-0.76 -1.823,-0.76c-0.684,0 -1.34,0.27 -1.823,0.76c-0.484,0.48 -0.755,1.13 -0.755,1.82v9.02h-5.157v-9.02c0,-2.05 0.815,-4.02 2.265,-5.47c1.451,-1.45 3.419,-2.27 5.47,-2.27z" stroke="#1E1E1E" stroke-width="2.57851" stroke-linecap="round" stroke-linejoin="round"/>
<path d="M6.4466,10.3118h-5.157v15.47h5.157z" stroke="#1E1E1E" stroke-width="2.57851" stroke-linecap="round" stroke-linejoin="round"/>
<path d="M3.8676,6.4458c1.424,0 2.579,-1.154 2.579,-2.578c0,-1.424 -1.155,-2.579 -2.579,-2.579c-1.424,0 -2.578,1.155 -2.578,2.579c0,1.424 1.154,2.578 2.578,2.578z" stroke="#1E1E1E" stroke-width="2.57851" stroke-linecap="round" stroke-linejoin="round"/>
</g></svg>