<svg width="497" height="383" viewBox="0 0 497 383" fill="none" xmlns="http://www.w3.org/2000/svg">
<g opacity="0.7" filter="url(#filter0_f_158_71)">
<path fill-rule="evenodd" clip-rule="evenodd" d="M147.971 154.787C167.647 151.64 188.148 151.637 209.263 163.24C230.256 174.776 248.078 199.777 267.407 220.419C291.035 245.65 321.781 260.505 335.813 298.381C349.763 336.037 341.905 375.045 337.869 410.617C334.087 443.96 328.349 476.951 313.181 497.881C298.563 518.052 275.305 517.823 254.896 525.112C233.689 532.686 214.511 556.015 190.647 541.643C166.724 527.235 155.561 479.885 134.864 452.824C112.446 423.514 78.9787 414.957 64.5033 376.716C50.2052 338.945 58.4972 299.332 63.433 264.123C67.9725 231.742 76.3755 201.969 91.797 182.024C106.375 163.169 127.161 158.115 147.971 154.787Z" fill="#706C39"/>
</g>
<defs>
<filter id="filter0_f_158_71" x="-96.4806" y="0" width="593.23" height="699.228" filterUnits="userSpaceOnUse" color-interpolation-filters="sRGB">
<feFlood flood-opacity="0" result="BackgroundImageFix"/>
<feBlend mode="normal" in="SourceGraphic" in2="BackgroundImageFix" result="shape"/>
<feGaussianBlur stdDeviation="76.5" result="effect1_foregroundBlur_158_71"/>
</filter>
</defs>
</svg>
