<svg width="457" height="809" viewBox="0 0 457 809" fill="none" xmlns="http://www.w3.org/2000/svg">
<g opacity="0.7" filter="url(#filter0_f_158_72)">
<path fill-rule="evenodd" clip-rule="evenodd" d="M270.3 260.875C299.562 294.558 298.286 343.58 302.045 387.415C305.409 426.629 305.358 466.209 290.995 502.156C277.218 536.637 249.17 561.262 222.438 586.649C195.061 612.648 169.512 643.105 132.646 652.536C95.0608 662.151 56.5636 643.601 17.5202 639.072C-33.0351 633.209 -98.6108 661.802 -131.57 621.892C-165.124 581.262 -120.032 521.621 -122.28 469.79C-124.019 429.675 -148.481 392.214 -143.244 352.67C-137.557 309.721 -118.399 270.34 -91.4809 237.207C-61.8699 200.759 -28.5991 158.451 18.6476 153.401C65.9362 148.345 104.661 192.454 149.204 211.477C190.011 228.905 240.998 227.144 270.3 260.875Z" fill="#3A2D0F"/>
</g>
<defs>
<filter id="filter0_f_158_72" x="-297.03" y="0" width="753.899" height="808.263" filterUnits="userSpaceOnUse" color-interpolation-filters="sRGB">
<feFlood flood-opacity="0" result="BackgroundImageFix"/>
<feBlend mode="normal" in="SourceGraphic" in2="BackgroundImageFix" result="shape"/>
<feGaussianBlur stdDeviation="76.5" result="effect1_foregroundBlur_158_72"/>
</filter>
</defs>
</svg>
