<svg width="525" height="571" viewBox="0 0 525 571" fill="none" xmlns="http://www.w3.org/2000/svg">
<g opacity="0.7" filter="url(#filter0_f_158_73)">
<path fill-rule="evenodd" clip-rule="evenodd" d="M136.011 -70.9959C174.616 -71.4818 200.871 -29.0084 229.898 -1.56207C254.255 21.4677 270.808 50.2895 292.112 76.6028C318.951 109.752 369.075 129.879 371.863 173.78C374.602 216.928 335.815 251.321 304.961 278.956C279.174 302.053 239.212 294.773 212.46 316.555C179.941 343.034 175.648 406.321 136.011 416.523C98.8152 426.096 65.7104 386.946 35.1229 362.198C7.16881 339.581 -15.1471 311.373 -33.5471 279.335C-52.3969 246.514 -69.4722 212.187 -73.0891 173.78C-76.9128 133.176 -76.9022 88.1056 -54.6658 55.0778C-32.7079 22.4637 11.5182 21.8537 43.3817 0.785881C76.3581 -21.0178 97.3314 -70.5089 136.011 -70.9959Z" fill="#867A47"/>
</g>
<defs>
<filter id="filter0_f_158_73" x="-228" y="-224" width="753" height="795" filterUnits="userSpaceOnUse" color-interpolation-filters="sRGB">
<feFlood flood-opacity="0" result="BackgroundImageFix"/>
<feBlend mode="normal" in="SourceGraphic" in2="BackgroundImageFix" result="shape"/>
<feGaussianBlur stdDeviation="76.5" result="effect1_foregroundBlur_158_73"/>
</filter>
</defs>
</svg>
