<svg width="14" height="20" viewBox="0 0 14 20" fill="none" xmlns="http://www.w3.org/2000/svg">
<path d="M7 0.75C8.6576 0.75 10.2468 1.40895 11.4189 2.58105C12.591 3.75316 13.25 5.3424 13.25 7C13.25 8.16075 12.8587 9.51758 12.2217 10.9395C11.5891 12.3514 10.7387 13.773 9.87793 15.0488C9.01859 16.3225 8.15829 17.4377 7.51172 18.2344C7.32063 18.4698 7.14745 18.6765 7 18.8516C6.85255 18.6765 6.67937 18.4698 6.48828 18.2344C5.84171 17.4377 4.98141 16.3225 4.12207 15.0488C3.26127 13.773 2.41089 12.3514 1.77832 10.9395C1.14132 9.51758 0.75 8.16075 0.75 7C0.75 5.3424 1.40895 3.75316 2.58105 2.58105C3.75316 1.40895 5.3424 0.75 7 0.75ZM7 3.75C6.13805 3.75 5.31164 4.09266 4.70215 4.70215C4.09266 5.31164 3.75 6.13805 3.75 7C3.75 7.86195 4.09265 8.68836 4.70215 9.29785C5.31164 9.90734 6.13805 10.25 7 10.25C7.4268 10.25 7.84983 10.1663 8.24414 10.0029C8.63835 9.8396 8.99612 9.59958 9.29785 9.29785C9.59958 8.99612 9.8396 8.63835 10.0029 8.24414C10.1663 7.84983 10.25 7.4268 10.25 7C10.25 6.13805 9.90734 5.31164 9.29785 4.70215C8.68836 4.09265 7.86195 3.75 7 3.75Z" stroke="#393939" stroke-width="1.5"/>
</svg>
