<svg width="280" height="40" viewBox="0 0 280 40" fill="none" xmlns="http://www.w3.org/2000/svg">
<path d="M26.293 23V15.9541H30.4727V16.5547H26.957V19.2061H30.1895V19.7969H26.957V23H26.293ZM35.9277 23V15.9541H36.5918V23H35.9277ZM42.3984 23V15.9541H43.0625V22.3994H46.5928V23H42.3984ZM52.917 23V16.5547H50.5537V15.9541H55.9443V16.5547H53.5811V23H52.917ZM61.2773 23V15.9541H65.5303V16.5547H61.9414V19.0938H65.3545V19.6895H61.9414V22.3994H65.5303V23H61.2773ZM71.1172 23V15.9541H73.6367C74.0957 15.9541 74.4928 16.0387 74.8281 16.208C75.1667 16.3773 75.4287 16.6149 75.6143 16.9209C75.7998 17.2269 75.8926 17.5898 75.8926 18.0098V18.0195C75.8926 18.5143 75.7575 18.9391 75.4873 19.2939C75.2204 19.6455 74.8509 19.8831 74.3789 20.0068L76.0879 23H75.3115L73.6904 20.1094C73.6709 20.1126 73.6481 20.1143 73.6221 20.1143C73.5993 20.1143 73.5749 20.1143 73.5488 20.1143H71.7812V23H71.1172ZM71.7812 19.5234H73.583C74.0973 19.5234 74.4961 19.3932 74.7793 19.1328C75.0658 18.8724 75.209 18.5078 75.209 18.0391V18.0293C75.209 17.5671 75.0625 17.2057 74.7695 16.9453C74.4766 16.6816 74.0729 16.5498 73.5586 16.5498H71.7812V19.5234Z" fill="black" fill-opacity="0.6"/>
<path d="M259 22.5L254 17.5L249 22.5" stroke="black" stroke-opacity="0.6" stroke-width="2" stroke-linecap="round" stroke-linejoin="round"/>
</svg>
