<svg width="280" height="40" viewBox="0 0 280 40" fill="none" xmlns="http://www.w3.org/2000/svg">
<path d="M44 29L37 24L30 29V13C30 12.4696 30.2107 11.9609 30.5858 11.5858C30.9609 11.2107 31.4696 11 32 11H42C42.5304 11 43.0391 11.2107 43.4142 11.5858C43.7893 11.9609 44 12.4696 44 13V29Z" stroke="#1E1E1E" stroke-width="1.75" stroke-linecap="round" stroke-linejoin="round"/>
<path d="M72.557 25V21.444L69.155 15.2H70.863L73.215 19.638H73.425L75.777 15.2H77.485L74.083 21.444V25H72.557ZM80.7228 25.196C80.0321 25.196 79.4161 25.056 78.8748 24.776C78.3428 24.4867 77.9228 24.076 77.6148 23.544C77.3068 23.012 77.1528 22.382 77.1528 21.654V21.444C77.1528 20.716 77.3068 20.0907 77.6148 19.568C77.9228 19.036 78.3428 18.6253 78.8748 18.336C79.4161 18.0467 80.0321 17.902 80.7228 17.902C81.4135 17.902 82.0295 18.0467 82.5708 18.336C83.1121 18.6253 83.5368 19.036 83.8448 19.568C84.1528 20.0907 84.3068 20.716 84.3068 21.444V21.654C84.3068 22.382 84.1528 23.012 83.8448 23.544C83.5368 24.076 83.1121 24.4867 82.5708 24.776C82.0295 25.056 81.4135 25.196 80.7228 25.196ZM80.7228 23.908C81.3575 23.908 81.8708 23.7073 82.2628 23.306C82.6641 22.8953 82.8648 22.3307 82.8648 21.612V21.486C82.8648 20.7673 82.6688 20.2073 82.2768 19.806C81.8848 19.3953 81.3668 19.19 80.7228 19.19C80.0975 19.19 79.5841 19.3953 79.1828 19.806C78.7908 20.2073 78.5948 20.7673 78.5948 21.486V21.612C78.5948 22.3307 78.7908 22.8953 79.1828 23.306C79.5841 23.7073 80.0975 23.908 80.7228 23.908ZM88.7481 25.126C88.2254 25.126 87.7588 25.0093 87.3481 24.776C86.9374 24.5427 86.6154 24.2113 86.3821 23.782C86.1488 23.3527 86.0321 22.8393 86.0321 22.242V18.098H87.4741V22.144C87.4741 22.7413 87.6234 23.1847 87.9221 23.474C88.2208 23.754 88.6361 23.894 89.1681 23.894C89.7561 23.894 90.2274 23.698 90.5821 23.306C90.9461 22.9047 91.1281 22.3307 91.1281 21.584V18.098H92.5701V25H91.1561V23.964H90.9321C90.8014 24.244 90.5681 24.51 90.2321 24.762C89.8961 25.0047 89.4014 25.126 88.7481 25.126ZM94.7017 25V18.098H96.1157V18.91H96.3397C96.4517 18.6207 96.629 18.4107 96.8717 18.28C97.1237 18.14 97.4317 18.07 97.7957 18.07H98.6217V19.372H97.7397C97.273 19.372 96.8904 19.5027 96.5917 19.764C96.293 20.016 96.1437 20.408 96.1437 20.94V25H94.7017ZM106.974 25.196C106.237 25.196 105.583 25.0653 105.014 24.804C104.445 24.5427 103.997 24.16 103.67 23.656C103.353 23.1427 103.194 22.522 103.194 21.794V21.444H104.692V21.794C104.692 22.4847 104.897 23.0027 105.308 23.348C105.728 23.6933 106.283 23.866 106.974 23.866C107.674 23.866 108.201 23.7213 108.556 23.432C108.911 23.1333 109.088 22.7507 109.088 22.284C109.088 21.976 109.004 21.724 108.836 21.528C108.668 21.332 108.43 21.178 108.122 21.066C107.814 20.9447 107.445 20.8327 107.016 20.73L106.498 20.604C105.873 20.4547 105.327 20.2727 104.86 20.058C104.403 19.834 104.048 19.54 103.796 19.176C103.544 18.812 103.418 18.3453 103.418 17.776C103.418 17.1973 103.558 16.7027 103.838 16.292C104.127 15.8813 104.524 15.564 105.028 15.34C105.532 15.116 106.125 15.004 106.806 15.004C107.487 15.004 108.094 15.1207 108.626 15.354C109.167 15.5873 109.592 15.9327 109.9 16.39C110.208 16.8473 110.362 17.4213 110.362 18.112V18.616H108.864V18.112C108.864 17.692 108.775 17.3513 108.598 17.09C108.43 16.8287 108.192 16.6373 107.884 16.516C107.576 16.3947 107.217 16.334 106.806 16.334C106.209 16.334 105.742 16.46 105.406 16.712C105.079 16.9547 104.916 17.2953 104.916 17.734C104.916 18.0327 104.986 18.28 105.126 18.476C105.275 18.6627 105.49 18.8167 105.77 18.938C106.05 19.0593 106.4 19.1667 106.82 19.26L107.338 19.386C107.973 19.526 108.533 19.708 109.018 19.932C109.503 20.1467 109.886 20.4407 110.166 20.814C110.446 21.1873 110.586 21.668 110.586 22.256C110.586 22.844 110.437 23.3573 110.138 23.796C109.849 24.2347 109.433 24.58 108.892 24.832C108.351 25.0747 107.711 25.196 106.974 25.196ZM114.357 25.196C113.863 25.196 113.419 25.112 113.027 24.944C112.645 24.776 112.337 24.5287 112.103 24.202C111.879 23.8753 111.767 23.4787 111.767 23.012C111.767 22.536 111.879 22.144 112.103 21.836C112.337 21.5187 112.649 21.2807 113.041 21.122C113.443 20.9633 113.895 20.884 114.399 20.884H116.499V20.436C116.499 20.0347 116.378 19.7127 116.135 19.47C115.893 19.2273 115.519 19.106 115.015 19.106C114.521 19.106 114.143 19.2227 113.881 19.456C113.62 19.6893 113.447 19.9927 113.363 20.366L112.019 19.932C112.131 19.5587 112.309 19.2227 112.551 18.924C112.803 18.616 113.135 18.3687 113.545 18.182C113.956 17.9953 114.451 17.902 115.029 17.902C115.925 17.902 116.63 18.1307 117.143 18.588C117.657 19.0453 117.913 19.694 117.913 20.534V23.376C117.913 23.656 118.044 23.796 118.305 23.796H118.893V25H117.815C117.489 25 117.223 24.916 117.017 24.748C116.812 24.58 116.709 24.3513 116.709 24.062V24.02H116.499C116.425 24.16 116.313 24.3233 116.163 24.51C116.014 24.6967 115.795 24.86 115.505 25C115.216 25.1307 114.833 25.196 114.357 25.196ZM114.567 24.006C115.146 24.006 115.613 23.8427 115.967 23.516C116.322 23.18 116.499 22.7227 116.499 22.144V22.004H114.483C114.101 22.004 113.793 22.088 113.559 22.256C113.326 22.4147 113.209 22.6527 113.209 22.97C113.209 23.2873 113.331 23.5393 113.573 23.726C113.816 23.9127 114.147 24.006 114.567 24.006ZM121.509 25L119.185 18.098H120.711L122.545 23.936H122.769L124.603 18.098H126.129L123.805 25H121.509ZM130.446 25.196C129.746 25.196 129.134 25.0513 128.612 24.762C128.089 24.4633 127.678 24.048 127.38 23.516C127.09 22.9747 126.946 22.3493 126.946 21.64V21.472C126.946 20.7533 127.09 20.128 127.38 19.596C127.669 19.0547 128.07 18.6393 128.584 18.35C129.106 18.0513 129.708 17.902 130.39 17.902C131.052 17.902 131.631 18.0513 132.126 18.35C132.63 18.6393 133.022 19.0453 133.302 19.568C133.582 20.0907 133.722 20.702 133.722 21.402V21.948H128.416C128.434 22.5547 128.635 23.04 129.018 23.404C129.41 23.7587 129.895 23.936 130.474 23.936C131.015 23.936 131.421 23.8147 131.692 23.572C131.972 23.3293 132.186 23.0493 132.336 22.732L133.526 23.348C133.395 23.6093 133.204 23.8847 132.952 24.174C132.709 24.4633 132.387 24.706 131.986 24.902C131.584 25.098 131.071 25.196 130.446 25.196ZM128.43 20.842H132.252C132.214 20.3193 132.028 19.9133 131.692 19.624C131.356 19.3253 130.917 19.176 130.376 19.176C129.834 19.176 129.391 19.3253 129.046 19.624C128.71 19.9133 128.504 20.3193 128.43 20.842ZM138.314 25.196C137.744 25.196 137.217 25.056 136.732 24.776C136.246 24.496 135.854 24.0947 135.556 23.572C135.266 23.04 135.122 22.4007 135.122 21.654V21.444C135.122 20.7067 135.266 20.072 135.556 19.54C135.845 19.008 136.232 18.602 136.718 18.322C137.203 18.042 137.735 17.902 138.314 17.902C138.762 17.902 139.135 17.958 139.434 18.07C139.742 18.182 139.994 18.3267 140.19 18.504C140.386 18.672 140.535 18.8493 140.638 19.036H140.862V15.2H142.304V25H140.89V24.02H140.666C140.488 24.3187 140.218 24.5893 139.854 24.832C139.499 25.0747 138.986 25.196 138.314 25.196ZM138.72 23.936C139.345 23.936 139.858 23.7353 140.26 23.334C140.67 22.9327 140.876 22.3587 140.876 21.612V21.486C140.876 20.7487 140.675 20.1793 140.274 19.778C139.872 19.3767 139.354 19.176 138.72 19.176C138.104 19.176 137.59 19.3767 137.18 19.778C136.778 20.1793 136.578 20.7487 136.578 21.486V21.612C136.578 22.3587 136.778 22.9327 137.18 23.334C137.59 23.7353 138.104 23.936 138.72 23.936ZM151.593 25.196C150.398 25.196 149.451 24.86 148.751 24.188C148.051 23.5067 147.701 22.5267 147.701 21.248V18.952C147.701 17.6733 148.051 16.698 148.751 16.026C149.451 15.3447 150.398 15.004 151.593 15.004C152.769 15.004 153.674 15.3307 154.309 15.984C154.953 16.6373 155.275 17.5287 155.275 18.658V18.742H153.777V18.616C153.777 17.9533 153.595 17.412 153.231 16.992C152.876 16.572 152.33 16.362 151.593 16.362C150.846 16.362 150.263 16.5907 149.843 17.048C149.423 17.496 149.213 18.1213 149.213 18.924V21.276C149.213 22.0693 149.423 22.6947 149.843 23.152C150.263 23.6093 150.846 23.838 151.593 23.838C152.33 23.838 152.876 23.628 153.231 23.208C153.595 22.7787 153.777 22.2373 153.777 21.584V21.346H155.275V21.542C155.275 22.6713 154.953 23.5627 154.309 24.216C153.674 24.8693 152.769 25.196 151.593 25.196ZM160.225 25.196C159.534 25.196 158.918 25.056 158.377 24.776C157.845 24.4867 157.425 24.076 157.117 23.544C156.809 23.012 156.655 22.382 156.655 21.654V21.444C156.655 20.716 156.809 20.0907 157.117 19.568C157.425 19.036 157.845 18.6253 158.377 18.336C158.918 18.0467 159.534 17.902 160.225 17.902C160.915 17.902 161.531 18.0467 162.073 18.336C162.614 18.6253 163.039 19.036 163.347 19.568C163.655 20.0907 163.809 20.716 163.809 21.444V21.654C163.809 22.382 163.655 23.012 163.347 23.544C163.039 24.076 162.614 24.4867 162.073 24.776C161.531 25.056 160.915 25.196 160.225 25.196ZM160.225 23.908C160.859 23.908 161.373 23.7073 161.765 23.306C162.166 22.8953 162.367 22.3307 162.367 21.612V21.486C162.367 20.7673 162.171 20.2073 161.779 19.806C161.387 19.3953 160.869 19.19 160.225 19.19C159.599 19.19 159.086 19.3953 158.685 19.806C158.293 20.2073 158.097 20.7673 158.097 21.486V21.612C158.097 22.3307 158.293 22.8953 158.685 23.306C159.086 23.7073 159.599 23.908 160.225 23.908ZM165.604 25V18.098H167.018V18.91H167.242C167.373 18.6673 167.583 18.4527 167.872 18.266C168.161 18.0793 168.553 17.986 169.048 17.986C169.561 17.986 169.972 18.0933 170.28 18.308C170.597 18.5133 170.835 18.7793 170.994 19.106H171.218C171.377 18.7887 171.605 18.5227 171.904 18.308C172.212 18.0933 172.646 17.986 173.206 17.986C173.654 17.986 174.051 18.0793 174.396 18.266C174.741 18.4433 175.017 18.714 175.222 19.078C175.427 19.4327 175.53 19.876 175.53 20.408V25H174.088V20.52C174.088 20.1 173.971 19.778 173.738 19.554C173.514 19.3207 173.192 19.204 172.772 19.204C172.324 19.204 171.965 19.3487 171.694 19.638C171.423 19.9273 171.288 20.3427 171.288 20.884V25H169.846V20.52C169.846 20.1 169.729 19.778 169.496 19.554C169.272 19.3207 168.95 19.204 168.53 19.204C168.082 19.204 167.723 19.3487 167.452 19.638C167.181 19.9273 167.046 20.3427 167.046 20.884V25H165.604ZM177.608 27.8V18.098H179.022V19.092H179.246C179.423 18.784 179.689 18.5087 180.044 18.266C180.408 18.0233 180.926 17.902 181.598 17.902C182.177 17.902 182.704 18.042 183.18 18.322C183.665 18.602 184.053 19.008 184.342 19.54C184.641 20.0627 184.79 20.6973 184.79 21.444V21.654C184.79 22.4007 184.645 23.04 184.356 23.572C184.067 24.0947 183.679 24.496 183.194 24.776C182.709 25.056 182.177 25.196 181.598 25.196C181.15 25.196 180.772 25.14 180.464 25.028C180.156 24.916 179.909 24.776 179.722 24.608C179.535 24.4307 179.386 24.2487 179.274 24.062H179.05V27.8H177.608ZM181.178 23.936C181.813 23.936 182.331 23.7353 182.732 23.334C183.133 22.9327 183.334 22.3587 183.334 21.612V21.486C183.334 20.7487 183.129 20.1793 182.718 19.778C182.317 19.3767 181.803 19.176 181.178 19.176C180.562 19.176 180.049 19.3767 179.638 19.778C179.237 20.1793 179.036 20.7487 179.036 21.486V21.612C179.036 22.3587 179.237 22.9327 179.638 23.334C180.049 23.7353 180.562 23.936 181.178 23.936ZM189.741 25.196C189.041 25.196 188.429 25.0513 187.907 24.762C187.384 24.4633 186.973 24.048 186.675 23.516C186.385 22.9747 186.241 22.3493 186.241 21.64V21.472C186.241 20.7533 186.385 20.128 186.675 19.596C186.964 19.0547 187.365 18.6393 187.879 18.35C188.401 18.0513 189.003 17.902 189.685 17.902C190.347 17.902 190.926 18.0513 191.421 18.35C191.925 18.6393 192.317 19.0453 192.597 19.568C192.877 20.0907 193.017 20.702 193.017 21.402V21.948H187.711C187.729 22.5547 187.93 23.04 188.313 23.404C188.705 23.7587 189.19 23.936 189.769 23.936C190.31 23.936 190.716 23.8147 190.987 23.572C191.267 23.3293 191.481 23.0493 191.631 22.732L192.821 23.348C192.69 23.6093 192.499 23.8847 192.247 24.174C192.004 24.4633 191.682 24.706 191.281 24.902C190.879 25.098 190.366 25.196 189.741 25.196ZM187.725 20.842H191.547C191.509 20.3193 191.323 19.9133 190.987 19.624C190.651 19.3253 190.212 19.176 189.671 19.176C189.129 19.176 188.686 19.3253 188.341 19.624C188.005 19.9133 187.799 20.3193 187.725 20.842ZM197.083 25C196.663 25 196.327 24.874 196.075 24.622C195.832 24.37 195.711 24.034 195.711 23.614V19.316H193.807V18.098H195.711V15.816H197.153V18.098H199.211V19.316H197.153V23.362C197.153 23.642 197.283 23.782 197.545 23.782H198.987V25H197.083ZM200.905 25V18.098H202.347V25H200.905ZM201.633 17.16C201.353 17.16 201.115 17.0713 200.919 16.894C200.732 16.7073 200.639 16.4693 200.639 16.18C200.639 15.8907 200.732 15.6573 200.919 15.48C201.115 15.2933 201.353 15.2 201.633 15.2C201.922 15.2 202.16 15.2933 202.347 15.48C202.533 15.6573 202.627 15.8907 202.627 16.18C202.627 16.4693 202.533 16.7073 202.347 16.894C202.16 17.0713 201.922 17.16 201.633 17.16ZM207.077 25C206.657 25 206.321 24.874 206.069 24.622C205.826 24.37 205.705 24.034 205.705 23.614V19.316H203.801V18.098H205.705V15.816H207.147V18.098H209.205V19.316H207.147V23.362C207.147 23.642 207.278 23.782 207.539 23.782H208.981V25H207.077ZM210.899 25V18.098H212.341V25H210.899ZM211.627 17.16C211.347 17.16 211.109 17.0713 210.913 16.894C210.726 16.7073 210.633 16.4693 210.633 16.18C210.633 15.8907 210.726 15.6573 210.913 15.48C211.109 15.2933 211.347 15.2 211.627 15.2C211.916 15.2 212.154 15.2933 212.341 15.48C212.528 15.6573 212.621 15.8907 212.621 16.18C212.621 16.4693 212.528 16.7073 212.341 16.894C212.154 17.0713 211.916 17.16 211.627 17.16ZM217.715 25.196C217.024 25.196 216.408 25.056 215.867 24.776C215.335 24.4867 214.915 24.076 214.607 23.544C214.299 23.012 214.145 22.382 214.145 21.654V21.444C214.145 20.716 214.299 20.0907 214.607 19.568C214.915 19.036 215.335 18.6253 215.867 18.336C216.408 18.0467 217.024 17.902 217.715 17.902C218.406 17.902 219.022 18.0467 219.563 18.336C220.104 18.6253 220.529 19.036 220.837 19.568C221.145 20.0907 221.299 20.716 221.299 21.444V21.654C221.299 22.382 221.145 23.012 220.837 23.544C220.529 24.076 220.104 24.4867 219.563 24.776C219.022 25.056 218.406 25.196 217.715 25.196ZM217.715 23.908C218.35 23.908 218.863 23.7073 219.255 23.306C219.656 22.8953 219.857 22.3307 219.857 21.612V21.486C219.857 20.7673 219.661 20.2073 219.269 19.806C218.877 19.3953 218.359 19.19 217.715 19.19C217.09 19.19 216.576 19.3953 216.175 19.806C215.783 20.2073 215.587 20.7673 215.587 21.486V21.612C215.587 22.3307 215.783 22.8953 216.175 23.306C216.576 23.7073 217.09 23.908 217.715 23.908ZM223.094 25V18.098H224.508V19.134H224.732C224.863 18.854 225.096 18.5927 225.432 18.35C225.768 18.1073 226.268 17.986 226.93 17.986C227.453 17.986 227.915 18.1027 228.316 18.336C228.727 18.5693 229.049 18.9007 229.282 19.33C229.516 19.75 229.632 20.2587 229.632 20.856V25H228.19V20.968C228.19 20.3707 228.041 19.932 227.742 19.652C227.444 19.3627 227.033 19.218 226.51 19.218C225.913 19.218 225.432 19.414 225.068 19.806C224.714 20.198 224.536 20.7673 224.536 21.514V25H223.094ZM234.536 25.196C233.658 25.196 232.93 25 232.352 24.608C231.773 24.216 231.418 23.6233 231.288 22.83L232.632 22.508C232.706 22.8907 232.832 23.194 233.01 23.418C233.187 23.642 233.406 23.8007 233.668 23.894C233.938 23.9873 234.228 24.034 234.536 24.034C234.993 24.034 235.343 23.9453 235.586 23.768C235.838 23.5907 235.964 23.362 235.964 23.082C235.964 22.802 235.847 22.5967 235.614 22.466C235.38 22.3353 235.035 22.228 234.578 22.144L234.102 22.06C233.635 21.976 233.21 21.8547 232.828 21.696C232.445 21.5373 232.142 21.318 231.918 21.038C231.694 20.758 231.582 20.3987 231.582 19.96C231.582 19.3067 231.824 18.8027 232.31 18.448C232.795 18.084 233.439 17.902 234.242 17.902C235.016 17.902 235.651 18.0793 236.146 18.434C236.65 18.7793 236.976 19.2507 237.126 19.848L235.782 20.226C235.698 19.806 235.52 19.512 235.25 19.344C234.979 19.1667 234.643 19.078 234.242 19.078C233.85 19.078 233.542 19.1527 233.318 19.302C233.094 19.442 232.982 19.6427 232.982 19.904C232.982 20.184 233.089 20.3893 233.304 20.52C233.528 20.6507 233.826 20.7487 234.2 20.814L234.69 20.898C235.184 20.982 235.637 21.0987 236.048 21.248C236.458 21.3973 236.78 21.612 237.014 21.892C237.256 22.172 237.378 22.5453 237.378 23.012C237.378 23.7027 237.121 24.2393 236.608 24.622C236.094 25.0047 235.404 25.196 234.536 25.196Z" fill="black"/>
</svg>
