<svg width="280" height="40" viewBox="0 0 280 40" fill="none" xmlns="http://www.w3.org/2000/svg">
<path d="M44 27H30V16H44M41 9V11H33V9H31V11H30C28.89 11 28 11.89 28 13V27C28 27.5304 28.2107 28.0391 28.5858 28.4142C28.9609 28.7893 29.4696 29 30 29H44C44.5304 29 45.0391 28.7893 45.4142 28.4142C45.7893 28.0391 46 27.5304 46 27V13C46 12.4696 45.7893 11.9609 45.4142 11.5858C45.0391 11.2107 44.5304 11 44 11H43V9M42 20H37V25H42V20Z" fill="black"/>
<path d="M72.7914 25V21.444L69.3894 15.2H71.0974L73.4494 19.638H73.6594L76.0114 15.2H77.7194L74.3174 21.444V25H72.7914ZM80.9572 25.196C80.2665 25.196 79.6505 25.056 79.1092 24.776C78.5772 24.4867 78.1572 24.076 77.8492 23.544C77.5412 23.012 77.3872 22.382 77.3872 21.654V21.444C77.3872 20.716 77.5412 20.0907 77.8492 19.568C78.1572 19.036 78.5772 18.6253 79.1092 18.336C79.6505 18.0467 80.2665 17.902 80.9572 17.902C81.6478 17.902 82.2638 18.0467 82.8052 18.336C83.3465 18.6253 83.7712 19.036 84.0792 19.568C84.3872 20.0907 84.5412 20.716 84.5412 21.444V21.654C84.5412 22.382 84.3872 23.012 84.0792 23.544C83.7712 24.076 83.3465 24.4867 82.8052 24.776C82.2638 25.056 81.6478 25.196 80.9572 25.196ZM80.9572 23.908C81.5918 23.908 82.1052 23.7073 82.4972 23.306C82.8985 22.8953 83.0992 22.3307 83.0992 21.612V21.486C83.0992 20.7673 82.9032 20.2073 82.5112 19.806C82.1192 19.3953 81.6012 19.19 80.9572 19.19C80.3318 19.19 79.8185 19.3953 79.4172 19.806C79.0252 20.2073 78.8292 20.7673 78.8292 21.486V21.612C78.8292 22.3307 79.0252 22.8953 79.4172 23.306C79.8185 23.7073 80.3318 23.908 80.9572 23.908ZM88.9825 25.126C88.4598 25.126 87.9931 25.0093 87.5825 24.776C87.1718 24.5427 86.8498 24.2113 86.6165 23.782C86.3831 23.3527 86.2665 22.8393 86.2665 22.242V18.098H87.7085V22.144C87.7085 22.7413 87.8578 23.1847 88.1565 23.474C88.4551 23.754 88.8705 23.894 89.4025 23.894C89.9905 23.894 90.4618 23.698 90.8165 23.306C91.1805 22.9047 91.3625 22.3307 91.3625 21.584V18.098H92.8045V25H91.3905V23.964H91.1665C91.0358 24.244 90.8025 24.51 90.4665 24.762C90.1305 25.0047 89.6358 25.126 88.9825 25.126ZM94.9361 25V18.098H96.3501V18.91H96.5741C96.6861 18.6207 96.8634 18.4107 97.1061 18.28C97.3581 18.14 97.6661 18.07 98.0301 18.07H98.8561V19.372H97.9741C97.5074 19.372 97.1247 19.5027 96.8261 19.764C96.5274 20.016 96.3781 20.408 96.3781 20.94V25H94.9361ZM107.516 25.196C106.322 25.196 105.374 24.86 104.674 24.188C103.974 23.5067 103.624 22.5267 103.624 21.248V18.952C103.624 17.6733 103.974 16.698 104.674 16.026C105.374 15.3447 106.322 15.004 107.516 15.004C108.692 15.004 109.598 15.3307 110.232 15.984C110.876 16.6373 111.198 17.5287 111.198 18.658V18.742H109.7V18.616C109.7 17.9533 109.518 17.412 109.154 16.992C108.8 16.572 108.254 16.362 107.516 16.362C106.77 16.362 106.186 16.5907 105.766 17.048C105.346 17.496 105.136 18.1213 105.136 18.924V21.276C105.136 22.0693 105.346 22.6947 105.766 23.152C106.186 23.6093 106.77 23.838 107.516 23.838C108.254 23.838 108.8 23.628 109.154 23.208C109.518 22.7787 109.7 22.2373 109.7 21.584V21.346H111.198V21.542C111.198 22.6713 110.876 23.5627 110.232 24.216C109.598 24.8693 108.692 25.196 107.516 25.196ZM115.057 25.196C114.562 25.196 114.119 25.112 113.727 24.944C113.344 24.776 113.036 24.5287 112.803 24.202C112.579 23.8753 112.467 23.4787 112.467 23.012C112.467 22.536 112.579 22.144 112.803 21.836C113.036 21.5187 113.349 21.2807 113.741 21.122C114.142 20.9633 114.595 20.884 115.099 20.884H117.199V20.436C117.199 20.0347 117.077 19.7127 116.835 19.47C116.592 19.2273 116.219 19.106 115.715 19.106C115.22 19.106 114.842 19.2227 114.581 19.456C114.319 19.6893 114.147 19.9927 114.063 20.366L112.719 19.932C112.831 19.5587 113.008 19.2227 113.251 18.924C113.503 18.616 113.834 18.3687 114.245 18.182C114.655 17.9953 115.15 17.902 115.729 17.902C116.625 17.902 117.329 18.1307 117.843 18.588C118.356 19.0453 118.613 19.694 118.613 20.534V23.376C118.613 23.656 118.743 23.796 119.005 23.796H119.593V25H118.515C118.188 25 117.922 24.916 117.717 24.748C117.511 24.58 117.409 24.3513 117.409 24.062V24.02H117.199C117.124 24.16 117.012 24.3233 116.863 24.51C116.713 24.6967 116.494 24.86 116.205 25C115.915 25.1307 115.533 25.196 115.057 25.196ZM115.267 24.006C115.845 24.006 116.312 23.8427 116.667 23.516C117.021 23.18 117.199 22.7227 117.199 22.144V22.004H115.183C114.8 22.004 114.492 22.088 114.259 22.256C114.025 22.4147 113.909 22.6527 113.909 22.97C113.909 23.2873 114.03 23.5393 114.273 23.726C114.515 23.9127 114.847 24.006 115.267 24.006ZM120.995 25V15.2H122.437V25H120.995ZM127.741 25.196C127.041 25.196 126.429 25.0513 125.907 24.762C125.384 24.4633 124.973 24.048 124.675 23.516C124.385 22.9747 124.241 22.3493 124.241 21.64V21.472C124.241 20.7533 124.385 20.128 124.675 19.596C124.964 19.0547 125.365 18.6393 125.879 18.35C126.401 18.0513 127.003 17.902 127.685 17.902C128.347 17.902 128.926 18.0513 129.421 18.35C129.925 18.6393 130.317 19.0453 130.597 19.568C130.877 20.0907 131.017 20.702 131.017 21.402V21.948H125.711C125.729 22.5547 125.93 23.04 126.313 23.404C126.705 23.7587 127.19 23.936 127.769 23.936C128.31 23.936 128.716 23.8147 128.987 23.572C129.267 23.3293 129.481 23.0493 129.631 22.732L130.821 23.348C130.69 23.6093 130.499 23.8847 130.247 24.174C130.004 24.4633 129.682 24.706 129.281 24.902C128.879 25.098 128.366 25.196 127.741 25.196ZM125.725 20.842H129.547C129.509 20.3193 129.323 19.9133 128.987 19.624C128.651 19.3253 128.212 19.176 127.671 19.176C127.129 19.176 126.686 19.3253 126.341 19.624C126.005 19.9133 125.799 20.3193 125.725 20.842ZM132.752 25V18.098H134.166V19.134H134.39C134.521 18.854 134.754 18.5927 135.09 18.35C135.426 18.1073 135.926 17.986 136.588 17.986C137.111 17.986 137.573 18.1027 137.974 18.336C138.385 18.5693 138.707 18.9007 138.94 19.33C139.174 19.75 139.29 20.2587 139.29 20.856V25H137.848V20.968C137.848 20.3707 137.699 19.932 137.4 19.652C137.102 19.3627 136.691 19.218 136.168 19.218C135.571 19.218 135.09 19.414 134.726 19.806C134.372 20.198 134.194 20.7673 134.194 21.514V25H132.752ZM144.222 25.196C143.652 25.196 143.125 25.056 142.64 24.776C142.154 24.496 141.762 24.0947 141.464 23.572C141.174 23.04 141.03 22.4007 141.03 21.654V21.444C141.03 20.7067 141.174 20.072 141.464 19.54C141.753 19.008 142.14 18.602 142.626 18.322C143.111 18.042 143.643 17.902 144.222 17.902C144.67 17.902 145.043 17.958 145.342 18.07C145.65 18.182 145.902 18.3267 146.098 18.504C146.294 18.672 146.443 18.8493 146.546 19.036H146.77V15.2H148.212V25H146.798V24.02H146.574C146.396 24.3187 146.126 24.5893 145.762 24.832C145.407 25.0747 144.894 25.196 144.222 25.196ZM144.628 23.936C145.253 23.936 145.766 23.7353 146.168 23.334C146.578 22.9327 146.784 22.3587 146.784 21.612V21.486C146.784 20.7487 146.583 20.1793 146.182 19.778C145.78 19.3767 145.262 19.176 144.628 19.176C144.012 19.176 143.498 19.3767 143.088 19.778C142.686 20.1793 142.486 20.7487 142.486 21.486V21.612C142.486 22.3587 142.686 22.9327 143.088 23.334C143.498 23.7353 144.012 23.936 144.628 23.936ZM152.477 25.196C151.982 25.196 151.539 25.112 151.147 24.944C150.764 24.776 150.456 24.5287 150.223 24.202C149.999 23.8753 149.887 23.4787 149.887 23.012C149.887 22.536 149.999 22.144 150.223 21.836C150.456 21.5187 150.769 21.2807 151.161 21.122C151.562 20.9633 152.015 20.884 152.519 20.884H154.619V20.436C154.619 20.0347 154.497 19.7127 154.255 19.47C154.012 19.2273 153.639 19.106 153.135 19.106C152.64 19.106 152.262 19.2227 152.001 19.456C151.739 19.6893 151.567 19.9927 151.483 20.366L150.139 19.932C150.251 19.5587 150.428 19.2227 150.671 18.924C150.923 18.616 151.254 18.3687 151.665 18.182C152.075 17.9953 152.57 17.902 153.149 17.902C154.045 17.902 154.749 18.1307 155.263 18.588C155.776 19.0453 156.033 19.694 156.033 20.534V23.376C156.033 23.656 156.163 23.796 156.425 23.796H157.013V25H155.935C155.608 25 155.342 24.916 155.137 24.748C154.931 24.58 154.829 24.3513 154.829 24.062V24.02H154.619C154.544 24.16 154.432 24.3233 154.283 24.51C154.133 24.6967 153.914 24.86 153.625 25C153.335 25.1307 152.953 25.196 152.477 25.196ZM152.687 24.006C153.265 24.006 153.732 23.8427 154.087 23.516C154.441 23.18 154.619 22.7227 154.619 22.144V22.004H152.603C152.22 22.004 151.912 22.088 151.679 22.256C151.445 22.4147 151.329 22.6527 151.329 22.97C151.329 23.2873 151.45 23.5393 151.693 23.726C151.935 23.9127 152.267 24.006 152.687 24.006ZM158.415 25V18.098H159.829V18.91H160.053C160.165 18.6207 160.342 18.4107 160.585 18.28C160.837 18.14 161.145 18.07 161.509 18.07H162.335V19.372H161.453C160.986 19.372 160.603 19.5027 160.305 19.764C160.006 20.016 159.857 20.408 159.857 20.94V25H158.415Z" fill="black"/>
</svg>
