<svg width="280" height="40" viewBox="0 0 280 40" fill="none" xmlns="http://www.w3.org/2000/svg">
<path fill-rule="evenodd" clip-rule="evenodd" d="M47.452 10.949C47.5104 10.7544 47.5151 10.5476 47.4654 10.3506C47.4158 10.1536 47.3137 9.97367 47.17 9.82999C47.0263 9.68632 46.8464 9.58424 46.6494 9.53459C46.4524 9.48494 46.2456 9.48958 46.051 9.54801L27.301 15.173C27.0938 15.2354 26.9089 15.3562 26.7686 15.521C26.6283 15.6858 26.5385 15.8876 26.51 16.1021C26.4815 16.3167 26.5155 16.5349 26.6079 16.7306C26.7003 16.9263 26.8472 17.0912 27.031 17.2055L33.928 21.485L31.3315 24.08C31.224 24.1837 31.1382 24.3078 31.0792 24.4451C31.0202 24.5823 30.9891 24.7299 30.9877 24.8793C30.9863 25.0286 31.0147 25.1768 31.0712 25.3151C31.1277 25.4534 31.2112 25.579 31.3168 25.6847C31.4224 25.7904 31.5479 25.874 31.6862 25.9306C31.8244 25.9872 31.9725 26.0158 32.1219 26.0145C32.2713 26.0133 32.4189 25.9823 32.5562 25.9235C32.6935 25.8646 32.8177 25.7789 32.9215 25.6715L35.518 23.0765L39.796 29.969C39.9103 30.1528 40.0752 30.2997 40.2709 30.3921C40.4666 30.4845 40.6848 30.5185 40.8994 30.49C41.1139 30.4615 41.3157 30.3717 41.4805 30.2314C41.6453 30.0911 41.7661 29.9062 41.8285 29.699L47.452 10.949ZM37.1515 21.44L40.39 26.66L44.0155 14.576L37.1515 21.44ZM42.424 12.9845L30.34 16.61L35.56 19.85L42.424 12.9845Z" fill="black"/>
<path d="M70.2866 25V15.2H73.1286L75.2706 23.992H75.4946L77.6366 15.2H80.4786V25H79.0086V16.264H78.7846L76.6566 25H74.1086L71.9806 16.264H71.7566V25H70.2866ZM85.729 25.196C85.029 25.196 84.4176 25.0513 83.895 24.762C83.3723 24.4633 82.9616 24.048 82.663 23.516C82.3736 22.9747 82.229 22.3493 82.229 21.64V21.472C82.229 20.7533 82.3736 20.128 82.663 19.596C82.9523 19.0547 83.3536 18.6393 83.867 18.35C84.3896 18.0513 84.9916 17.902 85.673 17.902C86.3356 17.902 86.9143 18.0513 87.409 18.35C87.913 18.6393 88.305 19.0453 88.585 19.568C88.865 20.0907 89.005 20.702 89.005 21.402V21.948H83.699C83.7176 22.5547 83.9183 23.04 84.301 23.404C84.693 23.7587 85.1783 23.936 85.757 23.936C86.2983 23.936 86.7043 23.8147 86.975 23.572C87.255 23.3293 87.4696 23.0493 87.619 22.732L88.809 23.348C88.6783 23.6093 88.487 23.8847 88.235 24.174C87.9923 24.4633 87.6703 24.706 87.269 24.902C86.8676 25.098 86.3543 25.196 85.729 25.196ZM83.713 20.842H87.535C87.4976 20.3193 87.311 19.9133 86.975 19.624C86.639 19.3253 86.2003 19.176 85.659 19.176C85.1176 19.176 84.6743 19.3253 84.329 19.624C83.993 19.9133 83.7876 20.3193 83.713 20.842ZM93.5688 25.196C92.6914 25.196 91.9634 25 91.3848 24.608C90.8061 24.216 90.4514 23.6233 90.3208 22.83L91.6648 22.508C91.7394 22.8907 91.8654 23.194 92.0428 23.418C92.2201 23.642 92.4394 23.8007 92.7008 23.894C92.9714 23.9873 93.2608 24.034 93.5688 24.034C94.0261 24.034 94.3761 23.9453 94.6188 23.768C94.8708 23.5907 94.9968 23.362 94.9968 23.082C94.9968 22.802 94.8801 22.5967 94.6468 22.466C94.4134 22.3353 94.0681 22.228 93.6108 22.144L93.1348 22.06C92.6681 21.976 92.2434 21.8547 91.8608 21.696C91.4781 21.5373 91.1748 21.318 90.9508 21.038C90.7268 20.758 90.6148 20.3987 90.6148 19.96C90.6148 19.3067 90.8574 18.8027 91.3428 18.448C91.8281 18.084 92.4721 17.902 93.2748 17.902C94.0494 17.902 94.6841 18.0793 95.1788 18.434C95.6828 18.7793 96.0094 19.2507 96.1588 19.848L94.8148 20.226C94.7308 19.806 94.5534 19.512 94.2828 19.344C94.0121 19.1667 93.6761 19.078 93.2748 19.078C92.8828 19.078 92.5748 19.1527 92.3508 19.302C92.1268 19.442 92.0148 19.6427 92.0148 19.904C92.0148 20.184 92.1221 20.3893 92.3368 20.52C92.5608 20.6507 92.8594 20.7487 93.2328 20.814L93.7228 20.898C94.2174 20.982 94.6701 21.0987 95.0808 21.248C95.4914 21.3973 95.8134 21.612 96.0468 21.892C96.2894 22.172 96.4108 22.5453 96.4108 23.012C96.4108 23.7027 96.1541 24.2393 95.6408 24.622C95.1274 25.0047 94.4368 25.196 93.5688 25.196ZM100.924 25.196C100.047 25.196 99.3189 25 98.7402 24.608C98.1616 24.216 97.8069 23.6233 97.6762 22.83L99.0202 22.508C99.0949 22.8907 99.2209 23.194 99.3982 23.418C99.5756 23.642 99.7949 23.8007 100.056 23.894C100.327 23.9873 100.616 24.034 100.924 24.034C101.382 24.034 101.732 23.9453 101.974 23.768C102.226 23.5907 102.352 23.362 102.352 23.082C102.352 22.802 102.236 22.5967 102.002 22.466C101.769 22.3353 101.424 22.228 100.966 22.144L100.49 22.06C100.024 21.976 99.5989 21.8547 99.2162 21.696C98.8336 21.5373 98.5302 21.318 98.3062 21.038C98.0822 20.758 97.9702 20.3987 97.9702 19.96C97.9702 19.3067 98.2129 18.8027 98.6982 18.448C99.1836 18.084 99.8276 17.902 100.63 17.902C101.405 17.902 102.04 18.0793 102.534 18.434C103.038 18.7793 103.365 19.2507 103.514 19.848L102.17 20.226C102.086 19.806 101.909 19.512 101.638 19.344C101.368 19.1667 101.032 19.078 100.63 19.078C100.238 19.078 99.9302 19.1527 99.7062 19.302C99.4822 19.442 99.3702 19.6427 99.3702 19.904C99.3702 20.184 99.4776 20.3893 99.6922 20.52C99.9162 20.6507 100.215 20.7487 100.588 20.814L101.078 20.898C101.573 20.982 102.026 21.0987 102.436 21.248C102.847 21.3973 103.169 21.612 103.402 21.892C103.645 22.172 103.766 22.5453 103.766 23.012C103.766 23.7027 103.51 24.2393 102.996 24.622C102.483 25.0047 101.792 25.196 100.924 25.196ZM107.539 25.196C107.044 25.196 106.601 25.112 106.209 24.944C105.826 24.776 105.518 24.5287 105.285 24.202C105.061 23.8753 104.949 23.4787 104.949 23.012C104.949 22.536 105.061 22.144 105.285 21.836C105.518 21.5187 105.831 21.2807 106.223 21.122C106.624 20.9633 107.077 20.884 107.581 20.884H109.681V20.436C109.681 20.0347 109.56 19.7127 109.317 19.47C109.074 19.2273 108.701 19.106 108.197 19.106C107.702 19.106 107.324 19.2227 107.063 19.456C106.802 19.6893 106.629 19.9927 106.545 20.366L105.201 19.932C105.313 19.5587 105.49 19.2227 105.733 18.924C105.985 18.616 106.316 18.3687 106.727 18.182C107.138 17.9953 107.632 17.902 108.211 17.902C109.107 17.902 109.812 18.1307 110.325 18.588C110.838 19.0453 111.095 19.694 111.095 20.534V23.376C111.095 23.656 111.226 23.796 111.487 23.796H112.075V25H110.997C110.67 25 110.404 24.916 110.199 24.748C109.994 24.58 109.891 24.3513 109.891 24.062V24.02H109.681C109.606 24.16 109.494 24.3233 109.345 24.51C109.196 24.6967 108.976 24.86 108.687 25C108.398 25.1307 108.015 25.196 107.539 25.196ZM107.749 24.006C108.328 24.006 108.794 23.8427 109.149 23.516C109.504 23.18 109.681 22.7227 109.681 22.144V22.004H107.665C107.282 22.004 106.974 22.088 106.741 22.256C106.508 22.4147 106.391 22.6527 106.391 22.97C106.391 23.2873 106.512 23.5393 106.755 23.726C106.998 23.9127 107.329 24.006 107.749 24.006ZM112.977 21.584V21.374C112.977 20.646 113.122 20.0253 113.411 19.512C113.71 18.9987 114.102 18.602 114.587 18.322C115.072 18.042 115.604 17.902 116.183 17.902C116.855 17.902 117.368 18.028 117.723 18.28C118.087 18.532 118.353 18.8027 118.521 19.092H118.745V18.098H120.145V26.414C120.145 26.834 120.019 27.17 119.767 27.422C119.524 27.674 119.188 27.8 118.759 27.8H114.111V26.54H118.311C118.582 26.54 118.717 26.4 118.717 26.12V23.922H118.493C118.39 24.09 118.246 24.2627 118.059 24.44C117.872 24.6173 117.625 24.762 117.317 24.874C117.018 24.986 116.64 25.042 116.183 25.042C115.604 25.042 115.068 24.9067 114.573 24.636C114.088 24.356 113.7 23.9593 113.411 23.446C113.122 22.9233 112.977 22.3027 112.977 21.584ZM116.575 23.782C117.2 23.782 117.714 23.586 118.115 23.194C118.526 22.7927 118.731 22.242 118.731 21.542V21.416C118.731 20.6973 118.53 20.1467 118.129 19.764C117.728 19.372 117.21 19.176 116.575 19.176C115.959 19.176 115.446 19.372 115.035 19.764C114.634 20.1467 114.433 20.6973 114.433 21.416V21.542C114.433 22.242 114.634 22.7927 115.035 23.194C115.446 23.586 115.959 23.782 116.575 23.782ZM125.432 25.196C124.732 25.196 124.121 25.0513 123.598 24.762C123.075 24.4633 122.665 24.048 122.366 23.516C122.077 22.9747 121.932 22.3493 121.932 21.64V21.472C121.932 20.7533 122.077 20.128 122.366 19.596C122.655 19.0547 123.057 18.6393 123.57 18.35C124.093 18.0513 124.695 17.902 125.376 17.902C126.039 17.902 126.617 18.0513 127.112 18.35C127.616 18.6393 128.008 19.0453 128.288 19.568C128.568 20.0907 128.708 20.702 128.708 21.402V21.948H123.402C123.421 22.5547 123.621 23.04 124.004 23.404C124.396 23.7587 124.881 23.936 125.46 23.936C126.001 23.936 126.407 23.8147 126.678 23.572C126.958 23.3293 127.173 23.0493 127.322 22.732L128.512 23.348C128.381 23.6093 128.19 23.8847 127.938 24.174C127.695 24.4633 127.373 24.706 126.972 24.902C126.571 25.098 126.057 25.196 125.432 25.196ZM123.416 20.842H127.238C127.201 20.3193 127.014 19.9133 126.678 19.624C126.342 19.3253 125.903 19.176 125.362 19.176C124.821 19.176 124.377 19.3253 124.032 19.624C123.696 19.9133 123.491 20.3193 123.416 20.842ZM133.272 25.196C132.395 25.196 131.667 25 131.088 24.608C130.509 24.216 130.155 23.6233 130.024 22.83L131.368 22.508C131.443 22.8907 131.569 23.194 131.746 23.418C131.923 23.642 132.143 23.8007 132.404 23.894C132.675 23.9873 132.964 24.034 133.272 24.034C133.729 24.034 134.079 23.9453 134.322 23.768C134.574 23.5907 134.7 23.362 134.7 23.082C134.7 22.802 134.583 22.5967 134.35 22.466C134.117 22.3353 133.771 22.228 133.314 22.144L132.838 22.06C132.371 21.976 131.947 21.8547 131.564 21.696C131.181 21.5373 130.878 21.318 130.654 21.038C130.43 20.758 130.318 20.3987 130.318 19.96C130.318 19.3067 130.561 18.8027 131.046 18.448C131.531 18.084 132.175 17.902 132.978 17.902C133.753 17.902 134.387 18.0793 134.882 18.434C135.386 18.7793 135.713 19.2507 135.862 19.848L134.518 20.226C134.434 19.806 134.257 19.512 133.986 19.344C133.715 19.1667 133.379 19.078 132.978 19.078C132.586 19.078 132.278 19.1527 132.054 19.302C131.83 19.442 131.718 19.6427 131.718 19.904C131.718 20.184 131.825 20.3893 132.04 20.52C132.264 20.6507 132.563 20.7487 132.936 20.814L133.426 20.898C133.921 20.982 134.373 21.0987 134.784 21.248C135.195 21.3973 135.517 21.612 135.75 21.892C135.993 22.172 136.114 22.5453 136.114 23.012C136.114 23.7027 135.857 24.2393 135.344 24.622C134.831 25.0047 134.14 25.196 133.272 25.196Z" fill="black"/>
</svg>
