<svg width="280" height="40" viewBox="0 0 280 40" fill="none" xmlns="http://www.w3.org/2000/svg">
<path d="M46.1875 25.5077H27.8125C27.7094 25.5077 27.625 25.5921 27.625 25.6952V27.0077C27.625 27.1108 27.7094 27.1952 27.8125 27.1952H46.1875C46.2906 27.1952 46.375 27.1108 46.375 27.0077V25.6952C46.375 25.5921 46.2906 25.5077 46.1875 25.5077ZM28.8836 22.5733L29.8141 23.4991C29.8867 23.5718 30.0062 23.5718 30.0789 23.4991L35.5797 18.0171L37.8672 20.2975C38.0081 20.4372 38.1985 20.5155 38.3969 20.5155C38.5953 20.5155 38.7856 20.4372 38.9266 20.2975L45.1188 14.1288C45.1914 14.0561 45.1914 13.9366 45.1188 13.8639L44.1883 12.9358C44.153 12.9009 44.1055 12.8813 44.0559 12.8813C44.0063 12.8813 43.9587 12.9009 43.9234 12.9358L38.3992 18.4436L36.1094 16.1632C35.9684 16.0235 35.7781 15.9452 35.5797 15.9452C35.3813 15.9452 35.1909 16.0235 35.05 16.1632L28.8836 22.3085C28.8661 22.3258 28.8521 22.3464 28.8426 22.3691C28.8331 22.3919 28.8282 22.4163 28.8282 22.4409C28.8282 22.4655 28.8331 22.4899 28.8426 22.5127C28.8521 22.5354 28.8661 22.556 28.8836 22.5733Z" fill="black"/>
<path d="M70.4527 25V15.2H74.3447C74.942 15.2 75.474 15.3213 75.9407 15.564C76.4167 15.7973 76.7853 16.1333 77.0467 16.572C77.3173 17.0013 77.4527 17.5193 77.4527 18.126V18.308C77.4527 18.9147 77.3127 19.4373 77.0327 19.876C76.762 20.3147 76.3933 20.6507 75.9267 20.884C75.46 21.1173 74.9327 21.234 74.3447 21.234H71.9647V25H70.4527ZM71.9647 19.862H74.1907C74.7227 19.862 75.1473 19.722 75.4647 19.442C75.782 19.162 75.9407 18.7793 75.9407 18.294V18.154C75.9407 17.6593 75.782 17.272 75.4647 16.992C75.1473 16.712 74.7227 16.572 74.1907 16.572H71.9647V19.862ZM81.9728 25.196C81.2821 25.196 80.6661 25.056 80.1248 24.776C79.5928 24.4867 79.1728 24.076 78.8648 23.544C78.5568 23.012 78.4028 22.382 78.4028 21.654V21.444C78.4028 20.716 78.5568 20.0907 78.8648 19.568C79.1728 19.036 79.5928 18.6253 80.1248 18.336C80.6661 18.0467 81.2821 17.902 81.9728 17.902C82.6635 17.902 83.2795 18.0467 83.8208 18.336C84.3621 18.6253 84.7868 19.036 85.0948 19.568C85.4028 20.0907 85.5568 20.716 85.5568 21.444V21.654C85.5568 22.382 85.4028 23.012 85.0948 23.544C84.7868 24.076 84.3621 24.4867 83.8208 24.776C83.2795 25.056 82.6635 25.196 81.9728 25.196ZM81.9728 23.908C82.6075 23.908 83.1208 23.7073 83.5128 23.306C83.9141 22.8953 84.1148 22.3307 84.1148 21.612V21.486C84.1148 20.7673 83.9188 20.2073 83.5268 19.806C83.1348 19.3953 82.6168 19.19 81.9728 19.19C81.3475 19.19 80.8341 19.3953 80.4328 19.806C80.0408 20.2073 79.8448 20.7673 79.8448 21.486V21.612C79.8448 22.3307 80.0408 22.8953 80.4328 23.306C80.8341 23.7073 81.3475 23.908 81.9728 23.908ZM87.3521 27.8V18.098H88.7661V19.092H88.9901C89.1674 18.784 89.4334 18.5087 89.7881 18.266C90.1521 18.0233 90.6701 17.902 91.3421 17.902C91.9208 17.902 92.4481 18.042 92.9241 18.322C93.4094 18.602 93.7968 19.008 94.0861 19.54C94.3848 20.0627 94.5341 20.6973 94.5341 21.444V21.654C94.5341 22.4007 94.3894 23.04 94.1001 23.572C93.8108 24.0947 93.4234 24.496 92.9381 24.776C92.4528 25.056 91.9208 25.196 91.3421 25.196C90.8941 25.196 90.5161 25.14 90.2081 25.028C89.9001 24.916 89.6528 24.776 89.4661 24.608C89.2794 24.4307 89.1301 24.2487 89.0181 24.062H88.7941V27.8H87.3521ZM90.9221 23.936C91.5568 23.936 92.0748 23.7353 92.4761 23.334C92.8774 22.9327 93.0781 22.3587 93.0781 21.612V21.486C93.0781 20.7487 92.8728 20.1793 92.4621 19.778C92.0608 19.3767 91.5474 19.176 90.9221 19.176C90.3061 19.176 89.7928 19.3767 89.3821 19.778C88.9808 20.1793 88.7801 20.7487 88.7801 21.486V21.612C88.7801 22.3587 88.9808 22.9327 89.3821 23.334C89.7928 23.7353 90.3061 23.936 90.9221 23.936ZM98.9668 25.126C98.4442 25.126 97.9775 25.0093 97.5668 24.776C97.1562 24.5427 96.8342 24.2113 96.6008 23.782C96.3675 23.3527 96.2508 22.8393 96.2508 22.242V18.098H97.6928V22.144C97.6928 22.7413 97.8422 23.1847 98.1408 23.474C98.4395 23.754 98.8548 23.894 99.3868 23.894C99.9748 23.894 100.446 23.698 100.801 23.306C101.165 22.9047 101.347 22.3307 101.347 21.584V18.098H102.789V25H101.375V23.964H101.151C101.02 24.244 100.787 24.51 100.451 24.762C100.115 25.0047 99.6202 25.126 98.9668 25.126ZM104.92 25V15.2H106.362V25H104.92ZM110.644 25.196C110.15 25.196 109.706 25.112 109.314 24.944C108.932 24.776 108.624 24.5287 108.39 24.202C108.166 23.8753 108.054 23.4787 108.054 23.012C108.054 22.536 108.166 22.144 108.39 21.836C108.624 21.5187 108.936 21.2807 109.328 21.122C109.73 20.9633 110.182 20.884 110.686 20.884H112.786V20.436C112.786 20.0347 112.665 19.7127 112.422 19.47C112.18 19.2273 111.806 19.106 111.302 19.106C110.808 19.106 110.43 19.2227 110.168 19.456C109.907 19.6893 109.734 19.9927 109.65 20.366L108.306 19.932C108.418 19.5587 108.596 19.2227 108.838 18.924C109.09 18.616 109.422 18.3687 109.832 18.182C110.243 17.9953 110.738 17.902 111.316 17.902C112.212 17.902 112.917 18.1307 113.43 18.588C113.944 19.0453 114.2 19.694 114.2 20.534V23.376C114.2 23.656 114.331 23.796 114.592 23.796H115.18V25H114.102C113.776 25 113.51 24.916 113.304 24.748C113.099 24.58 112.996 24.3513 112.996 24.062V24.02H112.786C112.712 24.16 112.6 24.3233 112.45 24.51C112.301 24.6967 112.082 24.86 111.792 25C111.503 25.1307 111.12 25.196 110.644 25.196ZM110.854 24.006C111.433 24.006 111.9 23.8427 112.254 23.516C112.609 23.18 112.786 22.7227 112.786 22.144V22.004H110.77C110.388 22.004 110.08 22.088 109.846 22.256C109.613 22.4147 109.496 22.6527 109.496 22.97C109.496 23.2873 109.618 23.5393 109.86 23.726C110.103 23.9127 110.434 24.006 110.854 24.006ZM116.583 25V18.098H117.997V18.91H118.221C118.333 18.6207 118.51 18.4107 118.753 18.28C119.005 18.14 119.313 18.07 119.677 18.07H120.503V19.372H119.621C119.154 19.372 118.771 19.5027 118.473 19.764C118.174 20.016 118.025 20.408 118.025 20.94V25H116.583ZM129.163 25.196C127.968 25.196 127.021 24.86 126.321 24.188C125.621 23.5067 125.271 22.5267 125.271 21.248V18.952C125.271 17.6733 125.621 16.698 126.321 16.026C127.021 15.3447 127.968 15.004 129.163 15.004C130.339 15.004 131.244 15.3307 131.879 15.984C132.523 16.6373 132.845 17.5287 132.845 18.658V18.742H131.347V18.616C131.347 17.9533 131.165 17.412 130.801 16.992C130.446 16.572 129.9 16.362 129.163 16.362C128.416 16.362 127.833 16.5907 127.413 17.048C126.993 17.496 126.783 18.1213 126.783 18.924V21.276C126.783 22.0693 126.993 22.6947 127.413 23.152C127.833 23.6093 128.416 23.838 129.163 23.838C129.9 23.838 130.446 23.628 130.801 23.208C131.165 22.7787 131.347 22.2373 131.347 21.584V21.346H132.845V21.542C132.845 22.6713 132.523 23.5627 131.879 24.216C131.244 24.8693 130.339 25.196 129.163 25.196ZM137.795 25.196C137.104 25.196 136.488 25.056 135.947 24.776C135.415 24.4867 134.995 24.076 134.687 23.544C134.379 23.012 134.225 22.382 134.225 21.654V21.444C134.225 20.716 134.379 20.0907 134.687 19.568C134.995 19.036 135.415 18.6253 135.947 18.336C136.488 18.0467 137.104 17.902 137.795 17.902C138.486 17.902 139.102 18.0467 139.643 18.336C140.184 18.6253 140.609 19.036 140.917 19.568C141.225 20.0907 141.379 20.716 141.379 21.444V21.654C141.379 22.382 141.225 23.012 140.917 23.544C140.609 24.076 140.184 24.4867 139.643 24.776C139.102 25.056 138.486 25.196 137.795 25.196ZM137.795 23.908C138.43 23.908 138.943 23.7073 139.335 23.306C139.736 22.8953 139.937 22.3307 139.937 21.612V21.486C139.937 20.7673 139.741 20.2073 139.349 19.806C138.957 19.3953 138.439 19.19 137.795 19.19C137.17 19.19 136.656 19.3953 136.255 19.806C135.863 20.2073 135.667 20.7673 135.667 21.486V21.612C135.667 22.3307 135.863 22.8953 136.255 23.306C136.656 23.7073 137.17 23.908 137.795 23.908ZM143.174 25V18.098H144.588V18.91H144.812C144.943 18.6673 145.153 18.4527 145.442 18.266C145.732 18.0793 146.124 17.986 146.618 17.986C147.132 17.986 147.542 18.0933 147.85 18.308C148.168 18.5133 148.406 18.7793 148.564 19.106H148.788C148.947 18.7887 149.176 18.5227 149.474 18.308C149.782 18.0933 150.216 17.986 150.776 17.986C151.224 17.986 151.621 18.0793 151.966 18.266C152.312 18.4433 152.587 18.714 152.792 19.078C152.998 19.4327 153.1 19.876 153.1 20.408V25H151.658V20.52C151.658 20.1 151.542 19.778 151.308 19.554C151.084 19.3207 150.762 19.204 150.342 19.204C149.894 19.204 149.535 19.3487 149.264 19.638C148.994 19.9273 148.858 20.3427 148.858 20.884V25H147.416V20.52C147.416 20.1 147.3 19.778 147.066 19.554C146.842 19.3207 146.52 19.204 146.1 19.204C145.652 19.204 145.293 19.3487 145.022 19.638C144.752 19.9273 144.616 20.3427 144.616 20.884V25H143.174ZM155.178 27.8V18.098H156.592V19.092H156.816C156.994 18.784 157.26 18.5087 157.614 18.266C157.978 18.0233 158.496 17.902 159.168 17.902C159.747 17.902 160.274 18.042 160.75 18.322C161.236 18.602 161.623 19.008 161.912 19.54C162.211 20.0627 162.36 20.6973 162.36 21.444V21.654C162.36 22.4007 162.216 23.04 161.926 23.572C161.637 24.0947 161.25 24.496 160.764 24.776C160.279 25.056 159.747 25.196 159.168 25.196C158.72 25.196 158.342 25.14 158.034 25.028C157.726 24.916 157.479 24.776 157.292 24.608C157.106 24.4307 156.956 24.2487 156.844 24.062H156.62V27.8H155.178ZM158.748 23.936C159.383 23.936 159.901 23.7353 160.302 23.334C160.704 22.9327 160.904 22.3587 160.904 21.612V21.486C160.904 20.7487 160.699 20.1793 160.288 19.778C159.887 19.3767 159.374 19.176 158.748 19.176C158.132 19.176 157.619 19.3767 157.208 19.778C156.807 20.1793 156.606 20.7487 156.606 21.486V21.612C156.606 22.3587 156.807 22.9327 157.208 23.334C157.619 23.7353 158.132 23.936 158.748 23.936ZM167.311 25.196C166.611 25.196 166 25.0513 165.477 24.762C164.954 24.4633 164.544 24.048 164.245 23.516C163.956 22.9747 163.811 22.3493 163.811 21.64V21.472C163.811 20.7533 163.956 20.128 164.245 19.596C164.534 19.0547 164.936 18.6393 165.449 18.35C165.972 18.0513 166.574 17.902 167.255 17.902C167.918 17.902 168.496 18.0513 168.991 18.35C169.495 18.6393 169.887 19.0453 170.167 19.568C170.447 20.0907 170.587 20.702 170.587 21.402V21.948H165.281C165.3 22.5547 165.5 23.04 165.883 23.404C166.275 23.7587 166.76 23.936 167.339 23.936C167.88 23.936 168.286 23.8147 168.557 23.572C168.837 23.3293 169.052 23.0493 169.201 22.732L170.391 23.348C170.26 23.6093 170.069 23.8847 169.817 24.174C169.574 24.4633 169.252 24.706 168.851 24.902C168.45 25.098 167.936 25.196 167.311 25.196ZM165.295 20.842H169.117C169.08 20.3193 168.893 19.9133 168.557 19.624C168.221 19.3253 167.782 19.176 167.241 19.176C166.7 19.176 166.256 19.3253 165.911 19.624C165.575 19.9133 165.37 20.3193 165.295 20.842ZM174.653 25C174.233 25 173.897 24.874 173.645 24.622C173.402 24.37 173.281 24.034 173.281 23.614V19.316H171.377V18.098H173.281V15.816H174.723V18.098H176.781V19.316H174.723V23.362C174.723 23.642 174.854 23.782 175.115 23.782H176.557V25H174.653ZM178.475 25V18.098H179.917V25H178.475ZM179.203 17.16C178.923 17.16 178.685 17.0713 178.489 16.894C178.302 16.7073 178.209 16.4693 178.209 16.18C178.209 15.8907 178.302 15.6573 178.489 15.48C178.685 15.2933 178.923 15.2 179.203 15.2C179.492 15.2 179.73 15.2933 179.917 15.48C180.104 15.6573 180.197 15.8907 180.197 16.18C180.197 16.4693 180.104 16.7073 179.917 16.894C179.73 17.0713 179.492 17.16 179.203 17.16ZM184.647 25C184.227 25 183.891 24.874 183.639 24.622C183.396 24.37 183.275 24.034 183.275 23.614V19.316H181.371V18.098H183.275V15.816H184.717V18.098H186.775V19.316H184.717V23.362C184.717 23.642 184.848 23.782 185.109 23.782H186.551V25H184.647ZM188.469 25V18.098H189.911V25H188.469ZM189.197 17.16C188.917 17.16 188.679 17.0713 188.483 16.894C188.297 16.7073 188.203 16.4693 188.203 16.18C188.203 15.8907 188.297 15.6573 188.483 15.48C188.679 15.2933 188.917 15.2 189.197 15.2C189.487 15.2 189.725 15.2933 189.911 15.48C190.098 15.6573 190.191 15.8907 190.191 16.18C190.191 16.4693 190.098 16.7073 189.911 16.894C189.725 17.0713 189.487 17.16 189.197 17.16ZM195.285 25.196C194.595 25.196 193.979 25.056 193.437 24.776C192.905 24.4867 192.485 24.076 192.177 23.544C191.869 23.012 191.715 22.382 191.715 21.654V21.444C191.715 20.716 191.869 20.0907 192.177 19.568C192.485 19.036 192.905 18.6253 193.437 18.336C193.979 18.0467 194.595 17.902 195.285 17.902C195.976 17.902 196.592 18.0467 197.133 18.336C197.675 18.6253 198.099 19.036 198.407 19.568C198.715 20.0907 198.869 20.716 198.869 21.444V21.654C198.869 22.382 198.715 23.012 198.407 23.544C198.099 24.076 197.675 24.4867 197.133 24.776C196.592 25.056 195.976 25.196 195.285 25.196ZM195.285 23.908C195.92 23.908 196.433 23.7073 196.825 23.306C197.227 22.8953 197.427 22.3307 197.427 21.612V21.486C197.427 20.7673 197.231 20.2073 196.839 19.806C196.447 19.3953 195.929 19.19 195.285 19.19C194.66 19.19 194.147 19.3953 193.745 19.806C193.353 20.2073 193.157 20.7673 193.157 21.486V21.612C193.157 22.3307 193.353 22.8953 193.745 23.306C194.147 23.7073 194.66 23.908 195.285 23.908ZM200.665 25V18.098H202.079V19.134H202.303C202.433 18.854 202.667 18.5927 203.003 18.35C203.339 18.1073 203.838 17.986 204.501 17.986C205.023 17.986 205.485 18.1027 205.887 18.336C206.297 18.5693 206.619 18.9007 206.853 19.33C207.086 19.75 207.203 20.2587 207.203 20.856V25H205.761V20.968C205.761 20.3707 205.611 19.932 205.313 19.652C205.014 19.3627 204.603 19.218 204.081 19.218C203.483 19.218 203.003 19.414 202.639 19.806C202.284 20.198 202.107 20.7673 202.107 21.514V25H200.665ZM212.106 25.196C211.229 25.196 210.501 25 209.922 24.608C209.343 24.216 208.989 23.6233 208.858 22.83L210.202 22.508C210.277 22.8907 210.403 23.194 210.58 23.418C210.757 23.642 210.977 23.8007 211.238 23.894C211.509 23.9873 211.798 24.034 212.106 24.034C212.563 24.034 212.913 23.9453 213.156 23.768C213.408 23.5907 213.534 23.362 213.534 23.082C213.534 22.802 213.417 22.5967 213.184 22.466C212.951 22.3353 212.605 22.228 212.148 22.144L211.672 22.06C211.205 21.976 210.781 21.8547 210.398 21.696C210.015 21.5373 209.712 21.318 209.488 21.038C209.264 20.758 209.152 20.3987 209.152 19.96C209.152 19.3067 209.395 18.8027 209.88 18.448C210.365 18.084 211.009 17.902 211.812 17.902C212.587 17.902 213.221 18.0793 213.716 18.434C214.22 18.7793 214.547 19.2507 214.696 19.848L213.352 20.226C213.268 19.806 213.091 19.512 212.82 19.344C212.549 19.1667 212.213 19.078 211.812 19.078C211.42 19.078 211.112 19.1527 210.888 19.302C210.664 19.442 210.552 19.6427 210.552 19.904C210.552 20.184 210.659 20.3893 210.874 20.52C211.098 20.6507 211.397 20.7487 211.77 20.814L212.26 20.898C212.755 20.982 213.207 21.0987 213.618 21.248C214.029 21.3973 214.351 21.612 214.584 21.892C214.827 22.172 214.948 22.5453 214.948 23.012C214.948 23.7027 214.691 24.2393 214.178 24.622C213.665 25.0047 212.974 25.196 212.106 25.196Z" fill="black"/>
</svg>
