<svg width="280" height="40" viewBox="0 0 280 40" fill="none" xmlns="http://www.w3.org/2000/svg">
<path d="M48.5762 23L46.6377 15.9541H47.3311L48.874 21.9648H48.9229L50.6172 15.9541H51.2764L52.9756 21.9648H53.0195L54.5674 15.9541H55.2559L53.3174 23H52.7021L50.9736 17.1113H50.9248L49.1963 23H48.5762ZM60.6279 23V15.9541H61.292V23H60.6279ZM67.0986 23V15.9541H67.7578L72.0352 22.0527L71.5762 21.8086H71.9277V15.9541H72.582V23H71.9424L67.6455 16.8965L68.1094 17.1406H67.7578V23H67.0986ZM78.3936 23V15.9541H80.9131C81.3721 15.9541 81.7692 16.0387 82.1045 16.208C82.443 16.3773 82.7051 16.6149 82.8906 16.9209C83.0762 17.2269 83.1689 17.5898 83.1689 18.0098V18.0195C83.1689 18.5143 83.0339 18.9391 82.7637 19.2939C82.4967 19.6455 82.1273 19.8831 81.6553 20.0068L83.3643 23H82.5879L80.9668 20.1094C80.9473 20.1126 80.9245 20.1143 80.8984 20.1143C80.8757 20.1143 80.8512 20.1143 80.8252 20.1143H79.0576V23H78.3936ZM79.0576 19.5234H80.8594C81.3737 19.5234 81.7725 19.3932 82.0557 19.1328C82.3421 18.8724 82.4854 18.5078 82.4854 18.0391V18.0293C82.4854 17.5671 82.3389 17.2057 82.0459 16.9453C81.7529 16.6816 81.3493 16.5498 80.835 16.5498H79.0576V19.5234ZM88.248 23L90.8848 15.9541H91.3975V16.8281H91.1826L88.9463 23H88.248ZM89.3857 20.8369L89.5908 20.2656H92.8428L93.0479 20.8369H89.3857ZM93.4775 23L91.2412 16.8281V15.9541H91.5439L94.1807 23H93.4775ZM100.529 23V16.5547H98.166V15.9541H103.557V16.5547H101.193V23H100.529ZM108.89 23V15.9541H113.143V16.5547H109.554V19.0938H112.967V19.6895H109.554V22.3994H113.143V23H108.89Z" fill="black" fill-opacity="0.6"/>
<path d="M259 22.5L254 17.5L249 22.5" stroke="black" stroke-opacity="0.6" stroke-width="2" stroke-linecap="round" stroke-linejoin="round"/>
</svg>
