<svg width="280" height="40" viewBox="0 0 280 40" fill="none" xmlns="http://www.w3.org/2000/svg">
<path d="M47.3135 20.3438V19.748H49.3252C49.8688 19.748 50.2936 19.6064 50.5996 19.3232C50.9089 19.04 51.0635 18.6494 51.0635 18.1514V18.1416C51.0635 17.6436 50.9089 17.2546 50.5996 16.9746C50.2936 16.6914 49.8688 16.5498 49.3252 16.5498H47.3135V15.9541H49.4766C49.9258 15.9541 50.3197 16.0452 50.6582 16.2275C50.9967 16.4066 51.262 16.6605 51.4541 16.9893C51.6462 17.318 51.7422 17.7005 51.7422 18.1367V18.1465C51.7422 18.5827 51.6462 18.9668 51.4541 19.2988C51.262 19.6276 50.9967 19.8848 50.6582 20.0703C50.3197 20.2526 49.9258 20.3438 49.4766 20.3438H47.3135ZM46.9814 23V15.9541H47.6455V23H46.9814ZM57.1924 23V15.9541H59.7119C60.1709 15.9541 60.568 16.0387 60.9033 16.208C61.2419 16.3773 61.5039 16.6149 61.6895 16.9209C61.875 17.2269 61.9678 17.5898 61.9678 18.0098V18.0195C61.9678 18.5143 61.8327 18.9391 61.5625 19.2939C61.2956 19.6455 60.9261 19.8831 60.4541 20.0068L62.1631 23H61.3867L59.7656 20.1094C59.7461 20.1126 59.7233 20.1143 59.6973 20.1143C59.6745 20.1143 59.6501 20.1143 59.624 20.1143H57.8564V23H57.1924ZM57.8564 19.5234H59.6582C60.1725 19.5234 60.5713 19.3932 60.8545 19.1328C61.141 18.8724 61.2842 18.5078 61.2842 18.0391V18.0293C61.2842 17.5671 61.1377 17.2057 60.8447 16.9453C60.5518 16.6816 60.1481 16.5498 59.6338 16.5498H57.8564V19.5234ZM67.5889 23V15.9541H68.2529V23H67.5889ZM73.8301 23V22.5166L78.0488 16.6133V16.5547H73.9717V15.9541H78.9082V16.4375L74.7041 22.3408V22.3994H78.9619V23H73.8301ZM84.5439 23V15.9541H88.7969V16.5547H85.208V19.0938H88.6211V19.6895H85.208V22.3994H88.7969V23H84.5439ZM102.969 23V16.5547H100.605V15.9541H105.996V16.5547H103.633V23H102.969ZM113.316 23V19.9531L110.787 15.9541H111.549L113.619 19.2744H113.678L115.743 15.9541H116.505L113.98 19.9531V23H113.316ZM122.106 20.3438V19.748H124.118C124.662 19.748 125.087 19.6064 125.393 19.3232C125.702 19.04 125.856 18.6494 125.856 18.1514V18.1416C125.856 17.6436 125.702 17.2546 125.393 16.9746C125.087 16.6914 124.662 16.5498 124.118 16.5498H122.106V15.9541H124.27C124.719 15.9541 125.113 16.0452 125.451 16.2275C125.79 16.4066 126.055 16.6605 126.247 16.9893C126.439 17.318 126.535 17.7005 126.535 18.1367V18.1465C126.535 18.5827 126.439 18.9668 126.247 19.2988C126.055 19.6276 125.79 19.8848 125.451 20.0703C125.113 20.2526 124.719 20.3438 124.27 20.3438H122.106ZM121.774 23V15.9541H122.438V23H121.774ZM131.985 23V15.9541H136.238V16.5547H132.649V19.0938H136.062V19.6895H132.649V22.3994H136.238V23H131.985Z" fill="black" fill-opacity="0.6"/>
<path d="M259 22.5L254 17.5L249 22.5" stroke="black" stroke-opacity="0.6" stroke-width="2" stroke-linecap="round" stroke-linejoin="round"/>
</svg>
