<svg width="280" height="40" viewBox="0 0 280 40" fill="none" xmlns="http://www.w3.org/2000/svg">
<path d="M49.8203 23.1465C49.1823 23.1465 48.6305 22.9984 48.165 22.7021C47.7028 22.4027 47.3447 21.9795 47.0908 21.4326C46.8402 20.8857 46.7148 20.2363 46.7148 19.4844V19.4746C46.7148 18.7227 46.8402 18.0732 47.0908 17.5264C47.3447 16.9762 47.7028 16.5531 48.165 16.2568C48.6305 15.9574 49.1807 15.8076 49.8154 15.8076C50.3005 15.8076 50.7432 15.9069 51.1436 16.1055C51.5472 16.304 51.8792 16.5758 52.1396 16.9209C52.4001 17.266 52.5628 17.6598 52.6279 18.1025L52.623 18.1074L51.9541 18.1123V18.1025C51.8825 17.7705 51.7458 17.4792 51.5439 17.2285C51.3421 16.9779 51.0915 16.7809 50.792 16.6377C50.4958 16.4945 50.1702 16.4229 49.8154 16.4229C49.3239 16.4229 48.8958 16.5482 48.5312 16.7988C48.1699 17.0495 47.89 17.4027 47.6914 17.8584C47.4961 18.3141 47.3984 18.8529 47.3984 19.4746V19.4844C47.3984 20.1029 47.4961 20.64 47.6914 21.0957C47.89 21.5514 48.1699 21.9046 48.5312 22.1553C48.8958 22.4059 49.3255 22.5312 49.8203 22.5312C50.1849 22.5312 50.5153 22.4678 50.8115 22.3408C51.111 22.2139 51.36 22.0365 51.5586 21.8086C51.7572 21.5775 51.8874 21.3073 51.9492 20.998L51.959 20.9883H52.6279V20.998C52.5596 21.4277 52.3968 21.8037 52.1396 22.126C51.8857 22.4482 51.5602 22.6989 51.1631 22.8779C50.766 23.057 50.3184 23.1465 49.8203 23.1465ZM61.0176 23.1465C60.3535 23.1465 59.7839 22.9967 59.3086 22.6973C58.8333 22.3978 58.4671 21.9746 58.21 21.4277C57.9528 20.8776 57.8242 20.2282 57.8242 19.4795V19.4697C57.8242 18.7178 57.9528 18.0684 58.21 17.5215C58.4704 16.9746 58.8382 16.5531 59.3135 16.2568C59.792 15.9574 60.36 15.8076 61.0176 15.8076C61.6751 15.8076 62.2415 15.9574 62.7168 16.2568C63.1953 16.5531 63.5632 16.9762 63.8203 17.5264C64.0775 18.0732 64.2061 18.721 64.2061 19.4697V19.4795C64.2061 20.2282 64.0775 20.876 63.8203 21.4229C63.5632 21.9697 63.1953 22.3945 62.7168 22.6973C62.2415 22.9967 61.6751 23.1465 61.0176 23.1465ZM61.0176 22.5312C61.5319 22.5312 61.9762 22.4059 62.3506 22.1553C62.7249 21.9014 63.0146 21.5465 63.2197 21.0908C63.4248 20.6318 63.5273 20.0947 63.5273 19.4795V19.4697C63.5273 18.848 63.4248 18.3092 63.2197 17.8535C63.0146 17.3978 62.7249 17.0462 62.3506 16.7988C61.9762 16.5482 61.5319 16.4229 61.0176 16.4229C60.5033 16.4229 60.0573 16.5482 59.6797 16.7988C59.3053 17.0462 59.0156 17.3978 58.8105 17.8535C58.6055 18.3092 58.5029 18.848 58.5029 19.4697V19.4795C58.5029 20.0947 58.6038 20.6318 58.8057 21.0908C59.0075 21.5465 59.2956 21.9014 59.6699 22.1553C60.0475 22.4059 60.4967 22.5312 61.0176 22.5312ZM69.7393 23V15.9541H70.501L73.0986 22.126H73.1621L75.7598 15.9541H76.5215V23H75.9014V17.248H75.5645L76.3359 16.1055L73.4209 23H72.8398L69.9297 16.1055L70.6963 17.248H70.3594V23H69.7393ZM82.6699 20.3438V19.748H84.6816C85.2253 19.748 85.6501 19.6064 85.9561 19.3232C86.2653 19.04 86.4199 18.6494 86.4199 18.1514V18.1416C86.4199 17.6436 86.2653 17.2546 85.9561 16.9746C85.6501 16.6914 85.2253 16.5498 84.6816 16.5498H82.6699V15.9541H84.833C85.2822 15.9541 85.6761 16.0452 86.0146 16.2275C86.3532 16.4066 86.6185 16.6605 86.8105 16.9893C87.0026 17.318 87.0986 17.7005 87.0986 18.1367V18.1465C87.0986 18.5827 87.0026 18.9668 86.8105 19.2988C86.6185 19.6276 86.3532 19.8848 86.0146 20.0703C85.6761 20.2526 85.2822 20.3438 84.833 20.3438H82.6699ZM82.3379 23V15.9541H83.002V23H82.3379ZM92.5488 23V15.9541H96.8018V16.5547H93.2129V19.0938H96.626V19.6895H93.2129V22.3994H96.8018V23H92.5488ZM104.278 23V16.5547H101.915V15.9541H107.306V16.5547H104.942V23H104.278ZM112.639 23V15.9541H113.303V23H112.639ZM120.999 23V16.5547H118.636V15.9541H124.026V16.5547H121.663V23H120.999ZM129.359 23V15.9541H130.023V23H129.359ZM138.74 23.1465C138.076 23.1465 137.507 22.9967 137.031 22.6973C136.556 22.3978 136.19 21.9746 135.933 21.4277C135.675 20.8776 135.547 20.2282 135.547 19.4795V19.4697C135.547 18.7178 135.675 18.0684 135.933 17.5215C136.193 16.9746 136.561 16.5531 137.036 16.2568C137.515 15.9574 138.083 15.8076 138.74 15.8076C139.398 15.8076 139.964 15.9574 140.439 16.2568C140.918 16.5531 141.286 16.9762 141.543 17.5264C141.8 18.0732 141.929 18.721 141.929 19.4697V19.4795C141.929 20.2282 141.8 20.876 141.543 21.4229C141.286 21.9697 140.918 22.3945 140.439 22.6973C139.964 22.9967 139.398 23.1465 138.74 23.1465ZM138.74 22.5312C139.255 22.5312 139.699 22.4059 140.073 22.1553C140.448 21.9014 140.737 21.5465 140.942 21.0908C141.147 20.6318 141.25 20.0947 141.25 19.4795V19.4697C141.25 18.848 141.147 18.3092 140.942 17.8535C140.737 17.3978 140.448 17.0462 140.073 16.7988C139.699 16.5482 139.255 16.4229 138.74 16.4229C138.226 16.4229 137.78 16.5482 137.402 16.7988C137.028 17.0462 136.738 17.3978 136.533 17.8535C136.328 18.3092 136.226 18.848 136.226 19.4697V19.4795C136.226 20.0947 136.326 20.6318 136.528 21.0908C136.73 21.5465 137.018 21.9014 137.393 22.1553C137.77 22.4059 138.219 22.5312 138.74 22.5312ZM147.457 23V15.9541H148.116L152.394 22.0527L151.935 21.8086H152.286V15.9541H152.94V23H152.301L148.004 16.8965L148.468 17.1406H148.116V23H147.457ZM165.447 23V15.9541H169.627V16.5547H166.111V19.2061H169.344V19.7969H166.111V23H165.447ZM177.992 23.1465C177.328 23.1465 176.758 22.9967 176.283 22.6973C175.808 22.3978 175.442 21.9746 175.185 21.4277C174.927 20.8776 174.799 20.2282 174.799 19.4795V19.4697C174.799 18.7178 174.927 18.0684 175.185 17.5215C175.445 16.9746 175.813 16.5531 176.288 16.2568C176.767 15.9574 177.335 15.8076 177.992 15.8076C178.65 15.8076 179.216 15.9574 179.691 16.2568C180.17 16.5531 180.538 16.9762 180.795 17.5264C181.052 18.0732 181.181 18.721 181.181 19.4697V19.4795C181.181 20.2282 181.052 20.876 180.795 21.4229C180.538 21.9697 180.17 22.3945 179.691 22.6973C179.216 22.9967 178.65 23.1465 177.992 23.1465ZM177.992 22.5312C178.507 22.5312 178.951 22.4059 179.325 22.1553C179.7 21.9014 179.989 21.5465 180.194 21.0908C180.399 20.6318 180.502 20.0947 180.502 19.4795V19.4697C180.502 18.848 180.399 18.3092 180.194 17.8535C179.989 17.3978 179.7 17.0462 179.325 16.7988C178.951 16.5482 178.507 16.4229 177.992 16.4229C177.478 16.4229 177.032 16.5482 176.654 16.7988C176.28 17.0462 175.99 17.3978 175.785 17.8535C175.58 18.3092 175.478 18.848 175.478 19.4697V19.4795C175.478 20.0947 175.578 20.6318 175.78 21.0908C175.982 21.5465 176.27 21.9014 176.645 22.1553C177.022 22.4059 177.471 22.5312 177.992 22.5312ZM186.709 23V15.9541H189.229C189.688 15.9541 190.085 16.0387 190.42 16.208C190.758 16.3773 191.021 16.6149 191.206 16.9209C191.392 17.2269 191.484 17.5898 191.484 18.0098V18.0195C191.484 18.5143 191.349 18.9391 191.079 19.2939C190.812 19.6455 190.443 19.8831 189.971 20.0068L191.68 23H190.903L189.282 20.1094C189.263 20.1126 189.24 20.1143 189.214 20.1143C189.191 20.1143 189.167 20.1143 189.141 20.1143H187.373V23H186.709ZM187.373 19.5234H189.175C189.689 19.5234 190.088 19.3932 190.371 19.1328C190.658 18.8724 190.801 18.5078 190.801 18.0391V18.0293C190.801 17.5671 190.654 17.2057 190.361 16.9453C190.068 16.6816 189.665 16.5498 189.15 16.5498H187.373V19.5234ZM197.11 23V15.9541H197.872L200.47 22.126H200.533L203.131 15.9541H203.893V23H203.272V17.248H202.936L203.707 16.1055L200.792 23H200.211L197.301 16.1055L198.067 17.248H197.73V23H197.11ZM209.167 23L211.804 15.9541H212.316V16.8281H212.102L209.865 23H209.167ZM210.305 20.8369L210.51 20.2656H213.762L213.967 20.8369H210.305ZM214.396 23L212.16 16.8281V15.9541H212.463L215.1 23H214.396ZM221.448 23V16.5547H219.085V15.9541H224.476V16.5547H222.112V23H221.448Z" fill="black" fill-opacity="0.6"/>
<path d="M259 22.5L254 17.5L249 22.5" stroke="black" stroke-opacity="0.6" stroke-width="2" stroke-linecap="round" stroke-linejoin="round"/>
</svg>
