<svg width="280" height="40" viewBox="0 0 280 40" fill="none" xmlns="http://www.w3.org/2000/svg">
<path d="M63.6221 23.1465C63.124 23.1465 62.6862 23.0635 62.3086 22.8975C61.9342 22.7314 61.6348 22.5036 61.4102 22.2139C61.1855 21.9242 61.0553 21.5921 61.0195 21.2178L61.0146 21.1641H61.6787L61.6836 21.2178C61.7096 21.4749 61.8105 21.7028 61.9863 21.9014C62.1621 22.0999 62.3932 22.2546 62.6797 22.3652C62.9694 22.4759 63.2949 22.5312 63.6562 22.5312C64.0111 22.5312 64.3252 22.4727 64.5986 22.3555C64.8721 22.235 65.0869 22.0723 65.2432 21.8672C65.3994 21.6589 65.4775 21.4229 65.4775 21.1592V21.1543C65.4775 20.8255 65.3555 20.5505 65.1113 20.3291C64.8672 20.1045 64.4733 19.9303 63.9297 19.8066L63.207 19.6455C62.4974 19.486 61.9847 19.2533 61.6689 18.9473C61.3532 18.638 61.1953 18.2409 61.1953 17.7559V17.751C61.1953 17.3766 61.2979 17.0446 61.5029 16.7549C61.708 16.4619 61.9912 16.2308 62.3525 16.0615C62.7171 15.8923 63.1338 15.8076 63.6025 15.8076C64.0615 15.8076 64.4668 15.889 64.8184 16.0518C65.1732 16.2145 65.4548 16.4326 65.6631 16.7061C65.8747 16.9762 65.9935 17.2806 66.0195 17.6191L66.0244 17.6777H65.3604L65.3506 17.624C65.318 17.3962 65.2253 17.1927 65.0723 17.0137C64.9193 16.8314 64.7158 16.6865 64.4619 16.5791C64.2113 16.4717 63.9183 16.4196 63.583 16.4229C63.2575 16.4229 62.9661 16.4782 62.709 16.5889C62.4518 16.6963 62.2467 16.8493 62.0938 17.0479C61.944 17.2432 61.8691 17.4727 61.8691 17.7363V17.7412C61.8691 18.0505 61.9863 18.3076 62.2207 18.5127C62.4551 18.7178 62.8392 18.8805 63.373 19.001L64.0957 19.167C64.5872 19.2777 64.9827 19.4193 65.2822 19.5918C65.585 19.7643 65.8063 19.9727 65.9463 20.2168C66.0863 20.4609 66.1562 20.7458 66.1562 21.0713V21.0762C66.1562 21.4928 66.0505 21.8558 65.8389 22.165C65.6273 22.4743 65.3311 22.7152 64.9502 22.8877C64.5693 23.0602 64.1266 23.1465 63.6221 23.1465ZM74.5361 23.1465C73.8753 23.1465 73.3057 22.9967 72.8271 22.6973C72.3519 22.3978 71.9857 21.973 71.7285 21.4229C71.4714 20.8727 71.3428 20.2249 71.3428 19.4795V19.4697C71.3428 18.721 71.473 18.0732 71.7334 17.5264C71.9938 16.9795 72.3617 16.5579 72.8369 16.2617C73.3154 15.9622 73.8802 15.8125 74.5312 15.8125C75.1888 15.8125 75.7552 15.9622 76.2305 16.2617C76.709 16.5579 77.0768 16.9811 77.334 17.5312C77.5944 18.0781 77.7246 18.7243 77.7246 19.4697V19.4795C77.7246 20.2249 77.596 20.8727 77.3389 21.4229C77.0817 21.9697 76.7139 22.3945 76.2354 22.6973C75.7601 22.9967 75.1937 23.1465 74.5361 23.1465ZM74.5361 22.5312C75.0537 22.5312 75.4997 22.4059 75.874 22.1553C76.2484 21.9014 76.5365 21.5465 76.7383 21.0908C76.9434 20.6318 77.0459 20.0947 77.0459 19.4795V19.4697C77.0459 18.848 76.9434 18.3109 76.7383 17.8584C76.5365 17.4027 76.2467 17.0495 75.8691 16.7988C75.4948 16.5482 75.0488 16.4229 74.5312 16.4229C74.0202 16.4229 73.5758 16.5482 73.1982 16.7988C72.8239 17.0495 72.5342 17.4027 72.3291 17.8584C72.124 18.3109 72.0215 18.848 72.0215 19.4697V19.4795C72.0215 20.0947 72.1224 20.6318 72.3242 21.0908C72.526 21.5498 72.8141 21.9046 73.1885 22.1553C73.5661 22.4059 74.0153 22.5312 74.5361 22.5312ZM76.5576 23.8301L74.5508 21.0713H75.2979L77.3047 23.8301H76.5576ZM85.9727 23.1465C85.4095 23.1465 84.9245 23.0391 84.5176 22.8242C84.1107 22.6061 83.7965 22.305 83.5752 21.9209C83.3571 21.5335 83.248 21.0843 83.248 20.5732V15.9541H83.9121V20.5342C83.9121 20.9313 83.9935 21.2796 84.1562 21.5791C84.3223 21.8786 84.5583 22.113 84.8643 22.2822C85.1735 22.4482 85.543 22.5312 85.9727 22.5312C86.4056 22.5312 86.7751 22.4482 87.0811 22.2822C87.3903 22.113 87.6263 21.8786 87.7891 21.5791C87.9518 21.2796 88.0332 20.9313 88.0332 20.5342V15.9541H88.6973V20.5732C88.6973 21.0843 88.5882 21.5335 88.3701 21.9209C88.152 22.3083 87.8395 22.6094 87.4326 22.8242C87.0257 23.0391 86.5391 23.1465 85.9727 23.1465ZM93.791 23L96.4277 15.9541H96.9404V16.8281H96.7256L94.4893 23H93.791ZM94.9287 20.8369L95.1338 20.2656H98.3857L98.5908 20.8369H94.9287ZM99.0205 23L96.7842 16.8281V15.9541H97.0869L99.7236 23H99.0205ZM104.993 23V15.9541H107.312C108.029 15.9541 108.634 16.0957 109.129 16.3789C109.627 16.6621 110.005 17.0658 110.262 17.5898C110.522 18.1139 110.652 18.7406 110.652 19.4697V19.4795C110.652 20.2087 110.522 20.8369 110.262 21.3643C110.005 21.8883 109.629 22.292 109.134 22.5752C108.639 22.8584 108.032 23 107.312 23H104.993ZM105.657 22.3994H107.273C107.85 22.3994 108.338 22.2839 108.738 22.0527C109.142 21.8184 109.45 21.4831 109.661 21.0469C109.873 20.6107 109.979 20.0898 109.979 19.4844V19.4746C109.979 18.8691 109.871 18.3483 109.656 17.9121C109.445 17.4759 109.137 17.1406 108.733 16.9062C108.333 16.6719 107.846 16.5547 107.273 16.5547H105.657V22.3994ZM118.446 23.1465C117.948 23.1465 117.51 23.0635 117.133 22.8975C116.758 22.7314 116.459 22.5036 116.234 22.2139C116.01 21.9242 115.88 21.5921 115.844 21.2178L115.839 21.1641H116.503L116.508 21.2178C116.534 21.4749 116.635 21.7028 116.811 21.9014C116.986 22.0999 117.217 22.2546 117.504 22.3652C117.794 22.4759 118.119 22.5312 118.48 22.5312C118.835 22.5312 119.149 22.4727 119.423 22.3555C119.696 22.235 119.911 22.0723 120.067 21.8672C120.224 21.6589 120.302 21.4229 120.302 21.1592V21.1543C120.302 20.8255 120.18 20.5505 119.936 20.3291C119.691 20.1045 119.298 19.9303 118.754 19.8066L118.031 19.6455C117.322 19.486 116.809 19.2533 116.493 18.9473C116.177 18.638 116.02 18.2409 116.02 17.7559V17.751C116.02 17.3766 116.122 17.0446 116.327 16.7549C116.532 16.4619 116.815 16.2308 117.177 16.0615C117.541 15.8923 117.958 15.8076 118.427 15.8076C118.886 15.8076 119.291 15.889 119.643 16.0518C119.997 16.2145 120.279 16.4326 120.487 16.7061C120.699 16.9762 120.818 17.2806 120.844 17.6191L120.849 17.6777H120.185L120.175 17.624C120.142 17.3962 120.049 17.1927 119.896 17.0137C119.743 16.8314 119.54 16.6865 119.286 16.5791C119.035 16.4717 118.743 16.4196 118.407 16.4229C118.082 16.4229 117.79 16.4782 117.533 16.5889C117.276 16.6963 117.071 16.8493 116.918 17.0479C116.768 17.2432 116.693 17.4727 116.693 17.7363V17.7412C116.693 18.0505 116.811 18.3076 117.045 18.5127C117.279 18.7178 117.663 18.8805 118.197 19.001L118.92 19.167C119.411 19.2777 119.807 19.4193 120.106 19.5918C120.409 19.7643 120.631 19.9727 120.771 20.2168C120.91 20.4609 120.98 20.7458 120.98 21.0713V21.0762C120.98 21.4928 120.875 21.8558 120.663 22.165C120.451 22.4743 120.155 22.7152 119.774 22.8877C119.394 23.0602 118.951 23.1465 118.446 23.1465Z" fill="black" fill-opacity="0.6"/>
<path d="M259 22.5L254 17.5L249 22.5" stroke="black" stroke-opacity="0.6" stroke-width="2" stroke-linecap="round" stroke-linejoin="round"/>
</svg>
