<svg width="280" height="40" viewBox="0 0 280 40" fill="none" xmlns="http://www.w3.org/2000/svg">
<path d="M48.916 23V19.9531L46.3867 15.9541H47.1484L49.2188 19.2744H49.2773L51.3428 15.9541H52.1045L49.5801 19.9531V23H48.916ZM59.9424 23.1465C59.2783 23.1465 58.7087 22.9967 58.2334 22.6973C57.7581 22.3978 57.3919 21.9746 57.1348 21.4277C56.8776 20.8776 56.749 20.2282 56.749 19.4795V19.4697C56.749 18.7178 56.8776 18.0684 57.1348 17.5215C57.3952 16.9746 57.763 16.5531 58.2383 16.2568C58.7168 15.9574 59.2848 15.8076 59.9424 15.8076C60.5999 15.8076 61.1663 15.9574 61.6416 16.2568C62.1201 16.5531 62.488 16.9762 62.7451 17.5264C63.0023 18.0732 63.1309 18.721 63.1309 19.4697V19.4795C63.1309 20.2282 63.0023 20.876 62.7451 21.4229C62.488 21.9697 62.1201 22.3945 61.6416 22.6973C61.1663 22.9967 60.5999 23.1465 59.9424 23.1465ZM59.9424 22.5312C60.4567 22.5312 60.901 22.4059 61.2754 22.1553C61.6497 21.9014 61.9395 21.5465 62.1445 21.0908C62.3496 20.6318 62.4521 20.0947 62.4521 19.4795V19.4697C62.4521 18.848 62.3496 18.3092 62.1445 17.8535C61.9395 17.3978 61.6497 17.0462 61.2754 16.7988C60.901 16.5482 60.4567 16.4229 59.9424 16.4229C59.4281 16.4229 58.9821 16.5482 58.6045 16.7988C58.2301 17.0462 57.9404 17.3978 57.7354 17.8535C57.5303 18.3092 57.4277 18.848 57.4277 19.4697V19.4795C57.4277 20.0947 57.5286 20.6318 57.7305 21.0908C57.9323 21.5465 58.2204 21.9014 58.5947 22.1553C58.9723 22.4059 59.4215 22.5312 59.9424 22.5312ZM71.3789 23.1465C70.8158 23.1465 70.3307 23.0391 69.9238 22.8242C69.5169 22.6061 69.2028 22.305 68.9814 21.9209C68.7633 21.5335 68.6543 21.0843 68.6543 20.5732V15.9541H69.3184V20.5342C69.3184 20.9313 69.3997 21.2796 69.5625 21.5791C69.7285 21.8786 69.9645 22.113 70.2705 22.2822C70.5798 22.4482 70.9492 22.5312 71.3789 22.5312C71.8118 22.5312 72.1813 22.4482 72.4873 22.2822C72.7965 22.113 73.0326 21.8786 73.1953 21.5791C73.3581 21.2796 73.4395 20.9313 73.4395 20.5342V15.9541H74.1035V20.5732C74.1035 21.0843 73.9945 21.5335 73.7764 21.9209C73.5583 22.3083 73.2458 22.6094 72.8389 22.8242C72.432 23.0391 71.9453 23.1465 71.3789 23.1465ZM79.9053 23V15.9541H82.4248C82.8838 15.9541 83.2809 16.0387 83.6162 16.208C83.9548 16.3773 84.2168 16.6149 84.4023 16.9209C84.5879 17.2269 84.6807 17.5898 84.6807 18.0098V18.0195C84.6807 18.5143 84.5456 18.9391 84.2754 19.2939C84.0085 19.6455 83.639 19.8831 83.167 20.0068L84.876 23H84.0996L82.4785 20.1094C82.459 20.1126 82.4362 20.1143 82.4102 20.1143C82.3874 20.1143 82.363 20.1143 82.3369 20.1143H80.5693V23H79.9053ZM80.5693 19.5234H82.3711C82.8854 19.5234 83.2842 19.3932 83.5674 19.1328C83.8538 18.8724 83.9971 18.5078 83.9971 18.0391V18.0293C83.9971 17.5671 83.8506 17.2057 83.5576 16.9453C83.2646 16.6816 82.861 16.5498 82.3467 16.5498H80.5693V19.5234ZM96.9971 23V15.9541H97.6611V23H96.9971ZM103.468 23V15.9541H104.127L108.404 22.0527L107.945 21.8086H108.297V15.9541H108.951V23H108.312L104.015 16.8965L104.479 17.1406H104.127V23H103.468ZM116.652 23V16.5547H114.289V15.9541H119.68V16.5547H117.316V23H116.652ZM125.013 23V15.9541H129.266V16.5547H125.677V19.0938H129.09V19.6895H125.677V22.3994H129.266V23H125.013ZM134.853 23V15.9541H137.372C137.831 15.9541 138.228 16.0387 138.563 16.208C138.902 16.3773 139.164 16.6149 139.35 16.9209C139.535 17.2269 139.628 17.5898 139.628 18.0098V18.0195C139.628 18.5143 139.493 18.9391 139.223 19.2939C138.956 19.6455 138.586 19.8831 138.114 20.0068L139.823 23H139.047L137.426 20.1094C137.406 20.1126 137.383 20.1143 137.357 20.1143C137.335 20.1143 137.31 20.1143 137.284 20.1143H135.517V23H134.853ZM135.517 19.5234H137.318C137.833 19.5234 138.231 19.3932 138.515 19.1328C138.801 18.8724 138.944 18.5078 138.944 18.0391V18.0293C138.944 17.5671 138.798 17.2057 138.505 16.9453C138.212 16.6816 137.808 16.5498 137.294 16.5498H135.517V19.5234ZM145.249 23V15.9541H149.502V16.5547H145.913V19.0938H149.326V19.6895H145.913V22.3994H149.502V23H145.249ZM157.354 23.1465C156.856 23.1465 156.419 23.0635 156.041 22.8975C155.667 22.7314 155.367 22.5036 155.143 22.2139C154.918 21.9242 154.788 21.5921 154.752 21.2178L154.747 21.1641H155.411L155.416 21.2178C155.442 21.4749 155.543 21.7028 155.719 21.9014C155.895 22.0999 156.126 22.2546 156.412 22.3652C156.702 22.4759 157.027 22.5312 157.389 22.5312C157.743 22.5312 158.058 22.4727 158.331 22.3555C158.604 22.235 158.819 22.0723 158.976 21.8672C159.132 21.6589 159.21 21.4229 159.21 21.1592V21.1543C159.21 20.8255 159.088 20.5505 158.844 20.3291C158.6 20.1045 158.206 19.9303 157.662 19.8066L156.939 19.6455C156.23 19.486 155.717 19.2533 155.401 18.9473C155.086 18.638 154.928 18.2409 154.928 17.7559V17.751C154.928 17.3766 155.03 17.0446 155.235 16.7549C155.44 16.4619 155.724 16.2308 156.085 16.0615C156.45 15.8923 156.866 15.8076 157.335 15.8076C157.794 15.8076 158.199 15.889 158.551 16.0518C158.906 16.2145 159.187 16.4326 159.396 16.7061C159.607 16.9762 159.726 17.2806 159.752 17.6191L159.757 17.6777H159.093L159.083 17.624C159.05 17.3962 158.958 17.1927 158.805 17.0137C158.652 16.8314 158.448 16.6865 158.194 16.5791C157.944 16.4717 157.651 16.4196 157.315 16.4229C156.99 16.4229 156.699 16.4782 156.441 16.5889C156.184 16.6963 155.979 16.8493 155.826 17.0479C155.676 17.2432 155.602 17.4727 155.602 17.7363V17.7412C155.602 18.0505 155.719 18.3076 155.953 18.5127C156.188 18.7178 156.572 18.8805 157.105 19.001L157.828 19.167C158.32 19.2777 158.715 19.4193 159.015 19.5918C159.317 19.7643 159.539 19.9727 159.679 20.2168C159.819 20.4609 159.889 20.7458 159.889 21.0713V21.0762C159.889 21.4928 159.783 21.8558 159.571 22.165C159.36 22.4743 159.063 22.7152 158.683 22.8877C158.302 23.0602 157.859 23.1465 157.354 23.1465ZM167.248 23V16.5547H164.885V15.9541H170.275V16.5547H167.912V23H167.248ZM177.874 23.1465C177.376 23.1465 176.938 23.0635 176.561 22.8975C176.186 22.7314 175.887 22.5036 175.662 22.2139C175.438 21.9242 175.307 21.5921 175.271 21.2178L175.267 21.1641H175.931L175.936 21.2178C175.962 21.4749 176.062 21.7028 176.238 21.9014C176.414 22.0999 176.645 22.2546 176.932 22.3652C177.221 22.4759 177.547 22.5312 177.908 22.5312C178.263 22.5312 178.577 22.4727 178.851 22.3555C179.124 22.235 179.339 22.0723 179.495 21.8672C179.651 21.6589 179.729 21.4229 179.729 21.1592V21.1543C179.729 20.8255 179.607 20.5505 179.363 20.3291C179.119 20.1045 178.725 19.9303 178.182 19.8066L177.459 19.6455C176.749 19.486 176.237 19.2533 175.921 18.9473C175.605 18.638 175.447 18.2409 175.447 17.7559V17.751C175.447 17.3766 175.55 17.0446 175.755 16.7549C175.96 16.4619 176.243 16.2308 176.604 16.0615C176.969 15.8923 177.386 15.8076 177.854 15.8076C178.313 15.8076 178.719 15.889 179.07 16.0518C179.425 16.2145 179.707 16.4326 179.915 16.7061C180.127 16.9762 180.245 17.2806 180.271 17.6191L180.276 17.6777H179.612L179.603 17.624C179.57 17.3962 179.477 17.1927 179.324 17.0137C179.171 16.8314 178.968 16.6865 178.714 16.5791C178.463 16.4717 178.17 16.4196 177.835 16.4229C177.509 16.4229 177.218 16.4782 176.961 16.5889C176.704 16.6963 176.499 16.8493 176.346 17.0479C176.196 17.2432 176.121 17.4727 176.121 17.7363V17.7412C176.121 18.0505 176.238 18.3076 176.473 18.5127C176.707 18.7178 177.091 18.8805 177.625 19.001L178.348 19.167C178.839 19.2777 179.235 19.4193 179.534 19.5918C179.837 19.7643 180.058 19.9727 180.198 20.2168C180.338 20.4609 180.408 20.7458 180.408 21.0713V21.0762C180.408 21.4928 180.302 21.8558 180.091 22.165C179.879 22.4743 179.583 22.7152 179.202 22.8877C178.821 23.0602 178.379 23.1465 177.874 23.1465Z" fill="black" fill-opacity="0.6"/>
<path d="M259 22.5L254 17.5L249 22.5" stroke="black" stroke-opacity="0.6" stroke-width="2" stroke-linecap="round" stroke-linejoin="round"/>
</svg>
