<svg width="280" height="35" viewBox="0 0 280 35" fill="none" xmlns="http://www.w3.org/2000/svg">
<path d="M61.3036 19.427V18.1807L65.1635 16.8618V16.6682L61.3036 15.3493V14.103L66.3856 15.9785V17.5515L61.3036 19.427ZM70.7067 21V13.4254H70.5131L69.1216 16.281H67.7785L69.654 12.53H71.9772V21H70.7067ZM76.7515 21.1694C75.7674 21.1694 74.9809 20.8911 74.392 20.3345C73.8112 19.7698 73.5208 18.9228 73.5208 17.7935V15.7365C73.5208 14.6314 73.8112 13.7924 74.392 13.2197C74.9809 12.647 75.7674 12.3606 76.7515 12.3606C77.7437 12.3606 78.5302 12.647 79.111 13.2197C79.6999 13.7924 79.9943 14.6314 79.9943 15.7365V17.7935C79.9943 18.9228 79.6999 19.7698 79.111 20.3345C78.5302 20.8911 77.7437 21.1694 76.7515 21.1694ZM76.7515 20.032C77.4211 20.032 77.9172 19.8424 78.2398 19.4633C78.5625 19.0761 78.7238 18.5356 78.7238 17.8419V15.6639C78.7238 14.9702 78.5504 14.4378 78.2035 14.0667C77.8567 13.6876 77.3727 13.498 76.7515 13.498C76.1223 13.498 75.6383 13.6916 75.2995 14.0788C74.9607 14.4579 74.7913 14.9863 74.7913 15.6639V17.8419C74.7913 18.5518 74.9527 19.0963 75.2753 19.4754C75.6061 19.8465 76.0981 20.032 76.7515 20.032ZM82.3603 21.1573L81.5859 20.5281L88.2046 12.3727L88.979 13.0019L82.3603 21.1573ZM87.5996 21.1331C87.0026 21.1331 86.5307 20.9677 86.1839 20.637C85.837 20.2982 85.6636 19.8424 85.6636 19.2697V19.1971C85.6636 18.6163 85.837 18.1605 86.1839 17.8298C86.5307 17.491 87.0026 17.3216 87.5996 17.3216C88.1884 17.3216 88.6603 17.491 89.0153 17.8298C89.3702 18.1605 89.5477 18.6163 89.5477 19.1971V19.2697C89.5477 19.8424 89.3702 20.2982 89.0153 20.637C88.6684 20.9677 88.1965 21.1331 87.5996 21.1331ZM87.5996 20.2861C87.89 20.2861 88.1158 20.1974 88.2772 20.0199C88.4466 19.8424 88.5313 19.6085 88.5313 19.3181V19.1487C88.5313 18.8502 88.4466 18.6123 88.2772 18.4348C88.1158 18.2573 87.89 18.1686 87.5996 18.1686C87.3172 18.1686 87.0914 18.2573 86.922 18.4348C86.7606 18.6123 86.68 18.8502 86.68 19.1487V19.3181C86.68 19.6085 86.7606 19.8424 86.922 20.0199C87.0914 20.1974 87.3172 20.2861 87.5996 20.2861ZM82.9653 16.2084C82.3683 16.2084 81.8924 16.043 81.5375 15.7123C81.1906 15.3735 81.0172 14.9177 81.0172 14.345V14.2603C81.0172 13.6795 81.1906 13.2237 81.5375 12.893C81.8924 12.5623 82.3683 12.3969 82.9653 12.3969C83.5541 12.3969 84.022 12.5623 84.3689 12.893C84.7238 13.2237 84.9013 13.6795 84.9013 14.2603V14.345C84.9013 14.9177 84.7278 15.3735 84.381 15.7123C84.0341 16.043 83.5622 16.2084 82.9653 16.2084ZM82.9653 15.3614C83.2476 15.3614 83.4694 15.2727 83.6308 15.0952C83.8002 14.9097 83.8849 14.6717 83.8849 14.3813V14.2119C83.8849 13.9215 83.8002 13.6876 83.6308 13.5101C83.4694 13.3326 83.2476 13.2439 82.9653 13.2439C82.6749 13.2439 82.445 13.3326 82.2756 13.5101C82.1142 13.6876 82.0336 13.9215 82.0336 14.2119V14.3813C82.0336 14.6717 82.1142 14.9097 82.2756 15.0952C82.445 15.2727 82.6749 15.3614 82.9653 15.3614Z" fill="black"/>
<path d="M237.333 12H246.667C246.9 12.0001 247.087 12.0771 247.255 12.2451C247.423 12.4131 247.5 12.6002 247.5 12.833V22.167C247.5 22.3998 247.423 22.5869 247.255 22.7549C247.087 22.9229 246.9 22.9999 246.667 23H237.333C237.1 22.9999 236.913 22.9229 236.745 22.7549C236.577 22.5869 236.5 22.3998 236.5 22.167V12.833C236.5 12.6002 236.577 12.4131 236.745 12.2451C236.913 12.0771 237.1 12.0001 237.333 12ZM236.833 22.667H247.167V12.333H236.833V22.667Z" fill="#1D1B20" stroke="black"/>
</svg>
