<svg width="280" height="35" viewBox="0 0 280 35" fill="none" xmlns="http://www.w3.org/2000/svg">
<path d="M61.2626 21V12.53H66.5987V13.7158H62.5694V16.1479H66.2599V17.3337H62.5694V19.8142H66.6592V21H61.2626ZM70.8288 21.1694C70.256 21.1694 69.7357 21.0484 69.2679 20.8064C68.8081 20.5644 68.441 20.2135 68.1668 19.7537C67.9006 19.2939 67.7675 18.7413 67.7675 18.096V17.9387C67.7675 17.2934 67.9006 16.7448 68.1668 16.2931C68.441 15.8333 68.8081 15.4824 69.2679 15.2404C69.7357 14.9903 70.256 14.8653 70.8288 14.8653C71.4015 14.8653 71.8895 14.9702 72.2929 15.1799C72.6962 15.3896 73.0189 15.6679 73.2609 16.0148C73.5109 16.3617 73.6723 16.7448 73.7449 17.1643L72.5349 17.4184C72.4945 17.1522 72.4098 16.9102 72.2808 16.6924C72.1517 16.4746 71.9702 16.3012 71.7363 16.1721C71.5023 16.043 71.2079 15.9785 70.853 15.9785C70.5061 15.9785 70.1915 16.0592 69.9092 16.2205C69.6349 16.3738 69.4171 16.5996 69.2558 16.8981C69.0944 17.1885 69.0138 17.5434 69.0138 17.9629V18.0718C69.0138 18.4913 69.0944 18.8502 69.2558 19.1487C69.4171 19.4472 69.6349 19.673 69.9092 19.8263C70.1915 19.9796 70.5061 20.0562 70.853 20.0562C71.3773 20.0562 71.7766 19.9231 72.0509 19.6569C72.3251 19.3826 72.4986 19.0358 72.5712 18.6163L73.7812 18.8946C73.6844 19.306 73.5109 19.6851 73.2609 20.032C73.0189 20.3789 72.6962 20.6572 72.2929 20.8669C71.8895 21.0686 71.4015 21.1694 70.8288 21.1694ZM78.0137 21.1694C77.4168 21.1694 76.8844 21.0484 76.4165 20.8064C75.9567 20.5563 75.5937 20.2014 75.3275 19.7416C75.0613 19.2818 74.9282 18.7373 74.9282 18.1081V17.9266C74.9282 17.2974 75.0613 16.7569 75.3275 16.3052C75.5937 15.8454 75.9567 15.4905 76.4165 15.2404C76.8844 14.9903 77.4168 14.8653 78.0137 14.8653C78.6107 14.8653 79.1431 14.9903 79.6109 15.2404C80.0788 15.4905 80.4458 15.8454 80.712 16.3052C80.9782 16.7569 81.1113 17.2974 81.1113 17.9266V18.1081C81.1113 18.7373 80.9782 19.2818 80.712 19.7416C80.4458 20.2014 80.0788 20.5563 79.6109 20.8064C79.1431 21.0484 78.6107 21.1694 78.0137 21.1694ZM78.0137 20.0562C78.5623 20.0562 79.0059 19.8828 79.3447 19.5359C79.6916 19.181 79.865 18.6929 79.865 18.0718V17.9629C79.865 17.3418 79.6956 16.8578 79.3568 16.5109C79.018 16.156 78.5703 15.9785 78.0137 15.9785C77.4733 15.9785 77.0296 16.156 76.6827 16.5109C76.3439 16.8578 76.1745 17.3418 76.1745 17.9629V18.0718C76.1745 18.6929 76.3439 19.181 76.6827 19.5359C77.0296 19.8828 77.4733 20.0562 78.0137 20.0562ZM82.663 21V15.0347H83.8851V15.9301H84.0787C84.1916 15.6881 84.3933 15.4622 84.6837 15.2525C84.9741 15.0428 85.4056 14.9379 85.9784 14.9379C86.4301 14.9379 86.8294 15.0387 87.1763 15.2404C87.5312 15.4421 87.8095 15.7284 88.0112 16.0995C88.2128 16.4625 88.3137 16.9021 88.3137 17.4184V21H87.0674V17.5152C87.0674 16.9989 86.9383 16.6198 86.6802 16.3778C86.422 16.1277 86.0671 16.0027 85.6154 16.0027C85.0991 16.0027 84.6837 16.1721 84.3691 16.5109C84.0625 16.8497 83.9093 17.3418 83.9093 17.9871V21H82.663ZM92.9024 21.1694C92.3055 21.1694 91.7731 21.0484 91.3052 20.8064C90.8454 20.5563 90.4824 20.2014 90.2162 19.7416C89.95 19.2818 89.8169 18.7373 89.8169 18.1081V17.9266C89.8169 17.2974 89.95 16.7569 90.2162 16.3052C90.4824 15.8454 90.8454 15.4905 91.3052 15.2404C91.7731 14.9903 92.3055 14.8653 92.9024 14.8653C93.4993 14.8653 94.0317 14.9903 94.4996 15.2404C94.9675 15.4905 95.3345 15.8454 95.6007 16.3052C95.8669 16.7569 96 17.2974 96 17.9266V18.1081C96 18.7373 95.8669 19.2818 95.6007 19.7416C95.3345 20.2014 94.9675 20.5563 94.4996 20.8064C94.0317 21.0484 93.4993 21.1694 92.9024 21.1694ZM92.9024 20.0562C93.4509 20.0562 93.8946 19.8828 94.2334 19.5359C94.5803 19.181 94.7537 18.6929 94.7537 18.0718V17.9629C94.7537 17.3418 94.5843 16.8578 94.2455 16.5109C93.9067 16.156 93.459 15.9785 92.9024 15.9785C92.3619 15.9785 91.9183 16.156 91.5714 16.5109C91.2326 16.8578 91.0632 17.3418 91.0632 17.9629V18.0718C91.0632 18.6929 91.2326 19.181 91.5714 19.5359C91.9183 19.8828 92.3619 20.0562 92.9024 20.0562ZM97.5516 21V15.0347H98.7737V15.7365H98.9673C99.0803 15.5268 99.2618 15.3412 99.5118 15.1799C99.7619 15.0186 100.101 14.9379 100.528 14.9379C100.972 14.9379 101.327 15.0307 101.593 15.2162C101.867 15.3937 102.073 15.6236 102.21 15.9059H102.404C102.541 15.6316 102.738 15.4017 102.997 15.2162C103.263 15.0307 103.638 14.9379 104.122 14.9379C104.509 14.9379 104.852 15.0186 105.15 15.1799C105.449 15.3332 105.687 15.5671 105.864 15.8817C106.042 16.1882 106.131 16.5714 106.131 17.0312V21H104.884V17.128C104.884 16.765 104.783 16.4867 104.582 16.2931C104.388 16.0914 104.11 15.9906 103.747 15.9906C103.36 15.9906 103.049 16.1156 102.815 16.3657C102.581 16.6158 102.464 16.9747 102.464 17.4426V21H101.218V17.128C101.218 16.765 101.117 16.4867 100.915 16.2931C100.722 16.0914 100.444 15.9906 100.081 15.9906C99.6933 15.9906 99.3828 16.1156 99.1488 16.3657C98.9149 16.6158 98.7979 16.9747 98.7979 17.4426V21H97.5516ZM107.926 21V15.0347H109.173V21H107.926ZM108.556 14.224C108.314 14.224 108.108 14.1474 107.939 13.9941C107.777 13.8328 107.697 13.6271 107.697 13.377C107.697 13.1269 107.777 12.9253 107.939 12.772C108.108 12.6107 108.314 12.53 108.556 12.53C108.806 12.53 109.011 12.6107 109.173 12.772C109.334 12.9253 109.415 13.1269 109.415 13.377C109.415 13.6271 109.334 13.8328 109.173 13.9941C109.011 14.1474 108.806 14.224 108.556 14.224ZM113.793 21.1694C113.221 21.1694 112.7 21.0484 112.232 20.8064C111.773 20.5644 111.406 20.2135 111.131 19.7537C110.865 19.2939 110.732 18.7413 110.732 18.096V17.9387C110.732 17.2934 110.865 16.7448 111.131 16.2931C111.406 15.8333 111.773 15.4824 112.232 15.2404C112.7 14.9903 113.221 14.8653 113.793 14.8653C114.366 14.8653 114.854 14.9702 115.257 15.1799C115.661 15.3896 115.983 15.6679 116.225 16.0148C116.475 16.3617 116.637 16.7448 116.709 17.1643L115.499 17.4184C115.459 17.1522 115.374 16.9102 115.245 16.6924C115.116 16.4746 114.935 16.3012 114.701 16.1721C114.467 16.043 114.172 15.9785 113.817 15.9785C113.471 15.9785 113.156 16.0592 112.874 16.2205C112.599 16.3738 112.382 16.5996 112.22 16.8981C112.059 17.1885 111.978 17.5434 111.978 17.9629V18.0718C111.978 18.4913 112.059 18.8502 112.22 19.1487C112.382 19.4472 112.599 19.673 112.874 19.8263C113.156 19.9796 113.471 20.0562 113.817 20.0562C114.342 20.0562 114.741 19.9231 115.015 19.6569C115.29 19.3826 115.463 19.0358 115.536 18.6163L116.746 18.8946C116.649 19.306 116.475 19.6851 116.225 20.032C115.983 20.3789 115.661 20.6572 115.257 20.8669C114.854 21.0686 114.366 21.1694 113.793 21.1694ZM120.627 21.1694C119.869 21.1694 119.24 21 118.74 20.6612C118.24 20.3224 117.933 19.8102 117.82 19.1245L118.982 18.8462C119.046 19.1769 119.155 19.4391 119.308 19.6327C119.462 19.8263 119.651 19.9634 119.877 20.0441C120.111 20.1248 120.361 20.1651 120.627 20.1651C121.023 20.1651 121.325 20.0885 121.535 19.9352C121.753 19.7819 121.861 19.5843 121.861 19.3423C121.861 19.1003 121.761 18.9228 121.559 18.8099C121.357 18.697 121.059 18.6042 120.664 18.5316L120.252 18.459C119.849 18.3864 119.482 18.2815 119.151 18.1444C118.82 18.0073 118.558 17.8177 118.365 17.5757C118.171 17.3337 118.074 17.0231 118.074 16.644C118.074 16.0793 118.284 15.6437 118.703 15.3372C119.123 15.0226 119.679 14.8653 120.373 14.8653C121.043 14.8653 121.591 15.0186 122.019 15.3251C122.454 15.6236 122.737 16.0309 122.866 16.5472L121.704 16.8739C121.632 16.5109 121.478 16.2568 121.244 16.1116C121.01 15.9583 120.72 15.8817 120.373 15.8817C120.034 15.8817 119.768 15.9462 119.575 16.0753C119.381 16.1963 119.284 16.3697 119.284 16.5956C119.284 16.8376 119.377 17.0151 119.562 17.128C119.756 17.2409 120.014 17.3256 120.337 17.3821L120.76 17.4547C121.188 17.5273 121.579 17.6281 121.934 17.7572C122.289 17.8863 122.567 18.0718 122.769 18.3138C122.979 18.5558 123.084 18.8785 123.084 19.2818C123.084 19.8787 122.862 20.3426 122.418 20.6733C121.974 21.004 121.377 21.1694 120.627 21.1694Z" fill="black"/>
<path d="M151 17.3075L154.71 10.8937L156.224 11.7687L151.647 19.6875L145.951 16.4062L141.777 23.625H156.25V25.375H138.75V9.625H140.5V22.3475L145.312 14L151 17.3075Z" fill="black"/>
<path d="M237.333 12H246.667C246.9 12.0001 247.087 12.0771 247.255 12.2451C247.423 12.4131 247.5 12.6002 247.5 12.833V22.167C247.5 22.3998 247.423 22.5869 247.255 22.7549C247.087 22.9229 246.9 22.9999 246.667 23H237.333C237.1 22.9999 236.913 22.9229 236.745 22.7549C236.577 22.5869 236.5 22.3998 236.5 22.167V12.833C236.5 12.6002 236.577 12.4131 236.745 12.2451C236.913 12.0771 237.1 12.0001 237.333 12ZM236.833 22.667H247.167V12.333H236.833V22.667Z" fill="#1D1B20" stroke="black"/>
</svg>
