<svg width="280" height="35" viewBox="0 0 280 35" fill="none" xmlns="http://www.w3.org/2000/svg">
<path d="M61.255 21V12.53H63.7113L65.5626 20.1288H65.7562L67.6075 12.53H70.0638V21H68.7933V13.4496H68.5997L66.7605 21H64.5583L62.7191 13.4496H62.5255V21H61.255ZM74.6016 21.1694C73.9966 21.1694 73.4682 21.0444 73.0165 20.7943C72.5648 20.5362 72.2098 20.1772 71.9517 19.7174C71.7016 19.2495 71.5766 18.7091 71.5766 18.096V17.9508C71.5766 17.3297 71.7016 16.7892 71.9517 16.3294C72.2018 15.8615 72.5486 15.5026 72.9923 15.2525C73.444 14.9944 73.9643 14.8653 74.5532 14.8653C75.1259 14.8653 75.6261 14.9944 76.0536 15.2525C76.4892 15.5026 76.828 15.8535 77.07 16.3052C77.312 16.7569 77.433 17.2853 77.433 17.8903V18.3622H72.8471C72.8632 18.8865 73.0367 19.306 73.3674 19.6206C73.7062 19.9271 74.1257 20.0804 74.6258 20.0804C75.0937 20.0804 75.4446 19.9755 75.6785 19.7658C75.9205 19.5561 76.106 19.3141 76.2351 19.0398L77.2636 19.5722C77.1507 19.7981 76.9853 20.036 76.7675 20.2861C76.5578 20.5362 76.2795 20.7459 75.9326 20.9153C75.5857 21.0847 75.1421 21.1694 74.6016 21.1694ZM72.8592 17.4063H76.1625C76.1302 16.9546 75.9689 16.6037 75.6785 16.3536C75.3881 16.0955 75.009 15.9664 74.5411 15.9664C74.0732 15.9664 73.6901 16.0955 73.3916 16.3536C73.1012 16.6037 72.9237 16.9546 72.8592 17.4063ZM81.4016 21.1694C80.9096 21.1694 80.4538 21.0484 80.0343 20.8064C79.6149 20.5644 79.2761 20.2175 79.0179 19.7658C78.7679 19.306 78.6428 18.7534 78.6428 18.1081V17.9266C78.6428 17.2893 78.7679 16.7408 79.0179 16.281C79.268 15.8212 79.6028 15.4703 80.0222 15.2283C80.4417 14.9863 80.9015 14.8653 81.4016 14.8653C81.7888 14.8653 82.1115 14.9137 82.3696 15.0105C82.6358 15.1073 82.8536 15.2323 83.023 15.3856C83.1924 15.5308 83.3215 15.6841 83.4102 15.8454H83.6038V12.53H84.8501V21H83.628V20.153H83.4344C83.2812 20.4111 83.0472 20.6451 82.7326 20.8548C82.4261 21.0645 81.9824 21.1694 81.4016 21.1694ZM81.7525 20.0804C82.293 20.0804 82.7367 19.907 83.0835 19.5601C83.4385 19.2132 83.6159 18.7171 83.6159 18.0718V17.9629C83.6159 17.3256 83.4425 16.8336 83.0956 16.4867C82.7488 16.1398 82.3011 15.9664 81.7525 15.9664C81.2201 15.9664 80.7765 16.1398 80.4215 16.4867C80.0747 16.8336 79.9012 17.3256 79.9012 17.9629V18.0718C79.9012 18.7171 80.0747 19.2132 80.4215 19.5601C80.7765 19.907 81.2201 20.0804 81.7525 20.0804ZM86.6848 21V15.0347H87.9311V21H86.6848ZM87.314 14.224C87.072 14.224 86.8663 14.1474 86.6969 13.9941C86.5356 13.8328 86.4549 13.6271 86.4549 13.377C86.4549 13.1269 86.5356 12.9253 86.6969 12.772C86.8663 12.6107 87.072 12.53 87.314 12.53C87.5641 12.53 87.7698 12.6107 87.9311 12.772C88.0924 12.9253 88.1731 13.1269 88.1731 13.377C88.1731 13.6271 88.0924 13.8328 87.9311 13.9941C87.7698 14.1474 87.5641 14.224 87.314 14.224ZM92.5516 21.1694C91.9789 21.1694 91.4586 21.0484 90.9907 20.8064C90.5309 20.5644 90.1639 20.2135 89.8896 19.7537C89.6234 19.2939 89.4903 18.7413 89.4903 18.096V17.9387C89.4903 17.2934 89.6234 16.7448 89.8896 16.2931C90.1639 15.8333 90.5309 15.4824 90.9907 15.2404C91.4586 14.9903 91.9789 14.8653 92.5516 14.8653C93.1243 14.8653 93.6124 14.9702 94.0157 15.1799C94.419 15.3896 94.7417 15.6679 94.9837 16.0148C95.2338 16.3617 95.3951 16.7448 95.4677 17.1643L94.2577 17.4184C94.2174 17.1522 94.1327 16.9102 94.0036 16.6924C93.8745 16.4746 93.693 16.3012 93.4591 16.1721C93.2252 16.043 92.9307 15.9785 92.5758 15.9785C92.2289 15.9785 91.9143 16.0592 91.632 16.2205C91.3577 16.3738 91.1399 16.5996 90.9786 16.8981C90.8173 17.1885 90.7366 17.5434 90.7366 17.9629V18.0718C90.7366 18.4913 90.8173 18.8502 90.9786 19.1487C91.1399 19.4472 91.3577 19.673 91.632 19.8263C91.9143 19.9796 92.2289 20.0562 92.5758 20.0562C93.1001 20.0562 93.4994 19.9231 93.7737 19.6569C94.048 19.3826 94.2214 19.0358 94.294 18.6163L95.504 18.8946C95.4072 19.306 95.2338 19.6851 94.9837 20.032C94.7417 20.3789 94.419 20.6572 94.0157 20.8669C93.6124 21.0686 93.1243 21.1694 92.5516 21.1694ZM96.9414 21V15.0347H98.1877V21H96.9414ZM97.5706 14.224C97.3286 14.224 97.1229 14.1474 96.9535 13.9941C96.7922 13.8328 96.7115 13.6271 96.7115 13.377C96.7115 13.1269 96.7922 12.9253 96.9535 12.772C97.1229 12.6107 97.3286 12.53 97.5706 12.53C97.8207 12.53 98.0264 12.6107 98.1877 12.772C98.3491 12.9253 98.4297 13.1269 98.4297 13.377C98.4297 13.6271 98.3491 13.8328 98.1877 13.9941C98.0264 14.1474 97.8207 14.224 97.5706 14.224ZM100.037 21V15.0347H101.259V15.9301H101.453C101.566 15.6881 101.768 15.4622 102.058 15.2525C102.348 15.0428 102.78 14.9379 103.353 14.9379C103.804 14.9379 104.204 15.0387 104.551 15.2404C104.906 15.4421 105.184 15.7284 105.386 16.0995C105.587 16.4625 105.688 16.9021 105.688 17.4184V21H104.442V17.5152C104.442 16.9989 104.313 16.6198 104.055 16.3778C103.796 16.1277 103.441 16.0027 102.99 16.0027C102.473 16.0027 102.058 16.1721 101.743 16.5109C101.437 16.8497 101.284 17.3418 101.284 17.9871V21H100.037ZM110.216 21.1694C109.611 21.1694 109.083 21.0444 108.631 20.7943C108.179 20.5362 107.824 20.1772 107.566 19.7174C107.316 19.2495 107.191 18.7091 107.191 18.096V17.9508C107.191 17.3297 107.316 16.7892 107.566 16.3294C107.816 15.8615 108.163 15.5026 108.607 15.2525C109.059 14.9944 109.579 14.8653 110.168 14.8653C110.741 14.8653 111.241 14.9944 111.668 15.2525C112.104 15.5026 112.443 15.8535 112.685 16.3052C112.927 16.7569 113.048 17.2853 113.048 17.8903V18.3622H108.462C108.478 18.8865 108.651 19.306 108.982 19.6206C109.321 19.9271 109.74 20.0804 110.24 20.0804C110.708 20.0804 111.059 19.9755 111.293 19.7658C111.535 19.5561 111.721 19.3141 111.85 19.0398L112.878 19.5722C112.765 19.7981 112.6 20.036 112.382 20.2861C112.172 20.5362 111.894 20.7459 111.547 20.9153C111.2 21.0847 110.757 21.1694 110.216 21.1694ZM108.474 17.4063H111.777C111.745 16.9546 111.584 16.6037 111.293 16.3536C111.003 16.0955 110.624 15.9664 110.156 15.9664C109.688 15.9664 109.305 16.0955 109.006 16.3536C108.716 16.6037 108.538 16.9546 108.474 17.4063Z" fill="black"/>
<path d="M158 25.25L149.792 17L141.583 8.75L140.5 9.83333L146.25 15.5833L143 18.8333L144.75 20.5833L142.167 23.1667V25.5L145.917 21.75L147.667 23.5L150.917 20.25L156.917 26.25L158 25.25ZM148.917 20L147.75 21.1667L145.417 18.8333L147.5 16.75L148.667 17.9167L147.75 18.8333L148.917 20ZM149.5 14.5833L148.333 13.4167L151.25 10.5833L153 12.3333L154.167 11.1667L153 10L154.167 8.83333L157.75 12.3333L156.583 13.5L155.333 12.3333L154.167 13.5L155.917 15.25L153.083 18.1667L150.75 15.8333L151.25 15.25L152.417 16.4167L153.583 15.25L151.25 12.9167L149.5 14.5833Z" fill="black"/>
<path d="M237.333 12H246.667C246.9 12.0001 247.087 12.0771 247.255 12.2451C247.423 12.4131 247.5 12.6002 247.5 12.833V22.167C247.5 22.3998 247.423 22.5869 247.255 22.7549C247.087 22.9229 246.9 22.9999 246.667 23H237.333C237.1 22.9999 236.913 22.9229 236.745 22.7549C236.577 22.5869 236.5 22.3998 236.5 22.167V12.833C236.5 12.6002 236.577 12.4131 236.745 12.2451C236.913 12.0771 237.1 12.0001 237.333 12ZM236.833 22.667H247.167V12.333H236.833V22.667Z" fill="#1D1B20" stroke="black"/>
</svg>
