<svg width="280" height="35" viewBox="0 0 280 35" fill="none" xmlns="http://www.w3.org/2000/svg">
<path d="M64.2728 21.1694C63.2403 21.1694 62.4215 20.879 61.8165 20.2982C61.2115 19.7093 60.909 18.8623 60.909 17.7572V15.7728C60.909 14.6677 61.2115 13.8247 61.8165 13.2439C62.4215 12.655 63.2403 12.3606 64.2728 12.3606C65.2892 12.3606 66.0717 12.6429 66.6202 13.2076C67.1768 13.7723 67.4551 14.5426 67.4551 15.5187V15.5913H66.1604V15.4824C66.1604 14.9097 66.0031 14.4418 65.6885 14.0788C65.382 13.7158 64.9101 13.5343 64.2728 13.5343C63.6275 13.5343 63.1233 13.7319 62.7603 14.1272C62.3973 14.5144 62.2158 15.0549 62.2158 15.7486V17.7814C62.2158 18.4671 62.3973 19.0075 62.7603 19.4028C63.1233 19.7981 63.6275 19.9957 64.2728 19.9957C64.9101 19.9957 65.382 19.8142 65.6885 19.4512C66.0031 19.0801 66.1604 18.6123 66.1604 18.0476V17.8419H67.4551V18.0113C67.4551 18.9874 67.1768 19.7577 66.6202 20.3224C66.0717 20.8871 65.2892 21.1694 64.2728 21.1694ZM70.7896 21.1694C70.3621 21.1694 69.9789 21.0968 69.6401 20.9516C69.3094 20.8064 69.0432 20.5926 68.8415 20.3103C68.6479 20.028 68.5511 19.6851 68.5511 19.2818C68.5511 18.8704 68.6479 18.5316 68.8415 18.2654C69.0432 17.9911 69.3134 17.7854 69.6522 17.6483C69.9991 17.5112 70.3903 17.4426 70.8259 17.4426H72.6409V17.0554C72.6409 16.7085 72.536 16.4302 72.3263 16.2205C72.1166 16.0108 71.7939 15.9059 71.3583 15.9059C70.9308 15.9059 70.6041 16.0067 70.3782 16.2084C70.1523 16.4101 70.0031 16.6722 69.9305 16.9949L68.7689 16.6198C68.8657 16.2971 69.019 16.0067 69.2287 15.7486C69.4465 15.4824 69.7329 15.2686 70.0878 15.1073C70.4427 14.946 70.8703 14.8653 71.3704 14.8653C72.1448 14.8653 72.7538 15.0629 73.1975 15.4582C73.6412 15.8535 73.863 16.4141 73.863 17.1401V19.5964C73.863 19.8384 73.9759 19.9594 74.2018 19.9594H74.71V21H73.7783C73.496 21 73.2661 20.9274 73.0886 20.7822C72.9111 20.637 72.8224 20.4394 72.8224 20.1893V20.153H72.6409C72.5764 20.274 72.4796 20.4152 72.3505 20.5765C72.2214 20.7378 72.0319 20.879 71.7818 21C71.5317 21.1129 71.201 21.1694 70.7896 21.1694ZM70.9711 20.1409C71.4712 20.1409 71.8746 19.9997 72.1811 19.7174C72.4876 19.427 72.6409 19.0317 72.6409 18.5316V18.4106H70.8985C70.5678 18.4106 70.3016 18.4832 70.0999 18.6284C69.8982 18.7655 69.7974 18.9712 69.7974 19.2455C69.7974 19.5198 69.9023 19.7376 70.112 19.8989C70.3217 20.0602 70.6081 20.1409 70.9711 20.1409ZM78.3187 21.1694C77.5605 21.1694 76.9313 21 76.4311 20.6612C75.931 20.3224 75.6245 19.8102 75.5115 19.1245L76.6731 18.8462C76.7377 19.1769 76.8466 19.4391 76.9998 19.6327C77.1531 19.8263 77.3427 19.9634 77.5685 20.0441C77.8025 20.1248 78.0525 20.1651 78.3187 20.1651C78.714 20.1651 79.0165 20.0885 79.2262 19.9352C79.444 19.7819 79.5529 19.5843 79.5529 19.3423C79.5529 19.1003 79.4521 18.9228 79.2504 18.8099C79.0488 18.697 78.7503 18.6042 78.355 18.5316L77.9436 18.459C77.5403 18.3864 77.1733 18.2815 76.8425 18.1444C76.5118 18.0073 76.2496 17.8177 76.056 17.5757C75.8624 17.3337 75.7656 17.0231 75.7656 16.644C75.7656 16.0793 75.9754 15.6437 76.3948 15.3372C76.8143 15.0226 77.3709 14.8653 78.0646 14.8653C78.7342 14.8653 79.2827 15.0186 79.7102 15.3251C80.1458 15.6236 80.4282 16.0309 80.5572 16.5472L79.3956 16.8739C79.323 16.5109 79.1698 16.2568 78.9358 16.1116C78.7019 15.9583 78.4115 15.8817 78.0646 15.8817C77.7258 15.8817 77.4596 15.9462 77.266 16.0753C77.0724 16.1963 76.9756 16.3697 76.9756 16.5956C76.9756 16.8376 77.0684 17.0151 77.2539 17.128C77.4475 17.2409 77.7057 17.3256 78.0283 17.3821L78.4518 17.4547C78.8794 17.5273 79.2706 17.6281 79.6255 17.7572C79.9805 17.8863 80.2588 18.0718 80.4604 18.3138C80.6702 18.5558 80.775 18.8785 80.775 19.2818C80.775 19.8787 80.5532 20.3426 80.1095 20.6733C79.6659 21.004 79.0689 21.1694 78.3187 21.1694ZM82.2318 21V12.53H83.4781V15.8817H83.6717C83.7523 15.7284 83.8653 15.5792 84.0105 15.434C84.1637 15.2888 84.3614 15.1718 84.6034 15.0831C84.8534 14.9863 85.168 14.9379 85.5472 14.9379C85.9989 14.9379 86.3982 15.0387 86.7451 15.2404C87.1 15.4421 87.3783 15.7284 87.58 16.0995C87.7816 16.4625 87.8825 16.9021 87.8825 17.4184V21H86.6362V17.5152C86.6362 16.9989 86.5071 16.6198 86.249 16.3778C85.9908 16.1277 85.6359 16.0027 85.1842 16.0027C84.6679 16.0027 84.2525 16.1721 83.9379 16.5109C83.6313 16.8497 83.4781 17.3418 83.4781 17.9871V21H82.2318Z" fill="black"/>
<g clip-path="url(#clip0_396_466)">
<path d="M153.86 17.5004C153.231 16.9729 152.431 16.6929 151.61 16.7129H146.334C146.093 16.7189 145.854 16.6764 145.63 16.5878C145.406 16.4992 145.203 16.3664 145.031 16.1973C144.86 16.0282 144.725 15.8263 144.634 15.6037C144.542 15.381 144.497 15.1422 144.5 14.9016C144.494 14.808 144.494 14.714 144.5 14.6204C144.571 14.1904 144.796 13.8011 145.134 13.5256C145.472 13.2501 145.898 13.1073 146.334 13.1241H151.531C151.955 13.1237 152.365 13.274 152.689 13.548C153.012 13.8221 153.228 14.2021 153.297 14.6204H154.985C154.914 13.7529 154.52 12.9438 153.88 12.3539C153.24 11.764 152.401 11.4366 151.531 11.4366H149.754V8.84912H148.347V11.4366H146.334C145.463 11.4366 144.625 11.764 143.985 12.3539C143.345 12.9438 142.95 13.7529 142.88 14.6204C142.874 14.714 142.874 14.808 142.88 14.9016C142.88 15.3552 142.969 15.8043 143.143 16.2233C143.316 16.6423 143.571 17.0231 143.891 17.3438C144.539 17.9915 145.418 18.3554 146.334 18.3554H151.666C151.905 18.3494 152.142 18.3912 152.364 18.4784C152.587 18.5656 152.789 18.6964 152.96 18.8631C153.131 19.0298 153.267 19.229 153.36 19.449C153.452 19.669 153.5 19.9054 153.5 20.1441C153.511 20.2714 153.511 20.3994 153.5 20.5266C153.411 20.9225 153.189 21.2762 152.872 21.5297C152.556 21.7831 152.162 21.9214 151.756 21.9216H146.469C146.063 21.9214 145.669 21.7831 145.352 21.5297C145.035 21.2762 144.814 20.9225 144.725 20.5266H143.026C143.123 21.3719 143.527 22.1521 144.162 22.7184C144.797 23.2848 145.618 23.5979 146.469 23.5979H148.347V26.1516H149.754V23.5979H151.666C152.517 23.5979 153.338 23.2848 153.973 22.7184C154.608 22.1521 155.012 21.3719 155.109 20.5266V20.1441C155.107 19.6388 154.995 19.14 154.779 18.6831C154.563 18.2262 154.249 17.8224 153.86 17.5004Z" fill="black"/>
</g>
<path d="M237.333 12H246.667C246.9 12.0001 247.087 12.0771 247.255 12.2451C247.423 12.4131 247.5 12.6002 247.5 12.833V22.167C247.5 22.3998 247.423 22.5869 247.255 22.7549C247.087 22.9229 246.9 22.9999 246.667 23H237.333C237.1 22.9999 236.913 22.9229 236.745 22.7549C236.577 22.5869 236.5 22.3998 236.5 22.167V12.833C236.5 12.6002 236.577 12.4131 236.745 12.2451C236.913 12.0771 237.1 12.0001 237.333 12ZM236.833 22.667H247.167V12.333H236.833V22.667Z" fill="#1D1B20" stroke="black"/>
<defs>
<clipPath id="clip0_396_466">
<rect width="18" height="18" fill="white" transform="translate(140 8.5)"/>
</clipPath>
</defs>
</svg>
