<svg width="280" height="35" viewBox="0 0 280 35" fill="none" xmlns="http://www.w3.org/2000/svg">
<path d="M60.6136 21L63.0336 12.53H65.3326L67.7405 21H66.3974L65.8408 19.0035H62.5254L61.9688 21H60.6136ZM62.8521 17.7935H65.5141L64.2799 13.3407H64.0863L62.8521 17.7935ZM71.3927 21.1694C70.9007 21.1694 70.4449 21.0484 70.0254 20.8064C69.606 20.5644 69.2672 20.2175 69.009 19.7658C68.759 19.306 68.6339 18.7534 68.6339 18.1081V17.9266C68.6339 17.2893 68.759 16.7408 69.009 16.281C69.2591 15.8212 69.5939 15.4703 70.0133 15.2283C70.4328 14.9863 70.8926 14.8653 71.3927 14.8653C71.7799 14.8653 72.1026 14.9137 72.3607 15.0105C72.6269 15.1073 72.8447 15.2323 73.0141 15.3856C73.1835 15.5308 73.3126 15.6841 73.4013 15.8454H73.5949V12.53H74.8412V21H73.6191V20.153H73.4255C73.2723 20.4111 73.0383 20.6451 72.7237 20.8548C72.4172 21.0645 71.9735 21.1694 71.3927 21.1694ZM71.7436 20.0804C72.2841 20.0804 72.7278 19.907 73.0746 19.5601C73.4296 19.2132 73.607 18.7171 73.607 18.0718V17.9629C73.607 17.3256 73.4336 16.8336 73.0867 16.4867C72.7399 16.1398 72.2922 15.9664 71.7436 15.9664C71.2112 15.9664 70.7676 16.1398 70.4126 16.4867C70.0658 16.8336 69.8923 17.3256 69.8923 17.9629V18.0718C69.8923 18.7171 70.0658 19.2132 70.4126 19.5601C70.7676 19.907 71.2112 20.0804 71.7436 20.0804ZM79.1443 21.1694C78.6522 21.1694 78.1965 21.0484 77.777 20.8064C77.3575 20.5644 77.0187 20.2175 76.7606 19.7658C76.5105 19.306 76.3855 18.7534 76.3855 18.1081V17.9266C76.3855 17.2893 76.5105 16.7408 76.7606 16.281C77.0107 15.8212 77.3454 15.4703 77.7649 15.2283C78.1844 14.9863 78.6442 14.8653 79.1443 14.8653C79.5315 14.8653 79.8542 14.9137 80.1123 15.0105C80.3785 15.1073 80.5963 15.2323 80.7657 15.3856C80.9351 15.5308 81.0642 15.6841 81.1529 15.8454H81.3465V12.53H82.5928V21H81.3707V20.153H81.1771C81.0238 20.4111 80.7899 20.6451 80.4753 20.8548C80.1688 21.0645 79.7251 21.1694 79.1443 21.1694ZM79.4952 20.0804C80.0357 20.0804 80.4793 19.907 80.8262 19.5601C81.1811 19.2132 81.3586 18.7171 81.3586 18.0718V17.9629C81.3586 17.3256 81.1852 16.8336 80.8383 16.4867C80.4914 16.1398 80.0437 15.9664 79.4952 15.9664C78.9628 15.9664 78.5191 16.1398 78.1642 16.4867C77.8173 16.8336 77.6439 17.3256 77.6439 17.9629V18.0718C77.6439 18.7171 77.8173 19.2132 78.1642 19.5601C78.5191 19.907 78.9628 20.0804 79.4952 20.0804ZM87.4752 21V12.53H88.782V21H87.4752ZM90.5838 21V15.0347H91.8059V15.9301H91.9995C92.1124 15.6881 92.3141 15.4622 92.6045 15.2525C92.8949 15.0428 93.3265 14.9379 93.8992 14.9379C94.3509 14.9379 94.7502 15.0387 95.0971 15.2404C95.452 15.4421 95.7303 15.7284 95.932 16.0995C96.1337 16.4625 96.2345 16.9021 96.2345 17.4184V21H94.9882V17.5152C94.9882 16.9989 94.8591 16.6198 94.601 16.3778C94.3429 16.1277 93.9879 16.0027 93.5362 16.0027C93.0199 16.0027 92.6045 16.1721 92.2899 16.5109C91.9834 16.8497 91.8301 17.3418 91.8301 17.9871V21H90.5838ZM100.101 21C99.7382 21 99.4478 20.8911 99.23 20.6733C99.0203 20.4555 98.9154 20.1651 98.9154 19.8021V16.0874H97.2698V15.0347H98.9154V13.0624H100.162V15.0347H101.94V16.0874H100.162V19.5843C100.162 19.8263 100.275 19.9473 100.501 19.9473H101.747V21H100.101ZM105.927 21.1694C105.322 21.1694 104.793 21.0444 104.341 20.7943C103.89 20.5362 103.535 20.1772 103.277 19.7174C103.027 19.2495 102.902 18.7091 102.902 18.096V17.9508C102.902 17.3297 103.027 16.7892 103.277 16.3294C103.527 15.8615 103.874 15.5026 104.317 15.2525C104.769 14.9944 105.289 14.8653 105.878 14.8653C106.451 14.8653 106.951 14.9944 107.379 15.2525C107.814 15.5026 108.153 15.8535 108.395 16.3052C108.637 16.7569 108.758 17.2853 108.758 17.8903V18.3622H104.172C104.188 18.8865 104.362 19.306 104.692 19.6206C105.031 19.9271 105.451 20.0804 105.951 20.0804C106.419 20.0804 106.769 19.9755 107.003 19.7658C107.245 19.5561 107.431 19.3141 107.56 19.0398L108.589 19.5722C108.476 19.7981 108.31 20.036 108.092 20.2861C107.883 20.5362 107.604 20.7459 107.258 20.9153C106.911 21.0847 106.467 21.1694 105.927 21.1694ZM104.184 17.4063H107.487C107.455 16.9546 107.294 16.6037 107.003 16.3536C106.713 16.0955 106.334 15.9664 105.866 15.9664C105.398 15.9664 105.015 16.0955 104.717 16.3536C104.426 16.6037 104.249 16.9546 104.184 17.4063ZM110.258 21V15.0347H111.48V15.7365H111.674C111.771 15.4864 111.924 15.3049 112.134 15.192C112.351 15.071 112.618 15.0105 112.932 15.0105H113.646V16.1358H112.884C112.48 16.1358 112.15 16.2487 111.892 16.4746C111.633 16.6924 111.504 17.0312 111.504 17.491V21H110.258ZM117.459 21.1694C116.854 21.1694 116.326 21.0444 115.874 20.7943C115.422 20.5362 115.068 20.1772 114.809 19.7174C114.559 19.2495 114.434 18.7091 114.434 18.096V17.9508C114.434 17.3297 114.559 16.7892 114.809 16.3294C115.059 15.8615 115.406 15.5026 115.85 15.2525C116.302 14.9944 116.822 14.8653 117.411 14.8653C117.984 14.8653 118.484 14.9944 118.911 15.2525C119.347 15.5026 119.686 15.8535 119.928 16.3052C120.17 16.7569 120.291 17.2853 120.291 17.8903V18.3622H115.705C115.721 18.8865 115.894 19.306 116.225 19.6206C116.564 19.9271 116.983 20.0804 117.484 20.0804C117.951 20.0804 118.302 19.9755 118.536 19.7658C118.778 19.5561 118.964 19.3141 119.093 19.0398L120.121 19.5722C120.008 19.7981 119.843 20.036 119.625 20.2861C119.415 20.5362 119.137 20.7459 118.79 20.9153C118.443 21.0847 118 21.1694 117.459 21.1694ZM115.717 17.4063H119.02C118.988 16.9546 118.827 16.6037 118.536 16.3536C118.246 16.0955 117.867 15.9664 117.399 15.9664C116.931 15.9664 116.548 16.0955 116.249 16.3536C115.959 16.6037 115.781 16.9546 115.717 17.4063ZM124.235 21.1694C123.477 21.1694 122.848 21 122.348 20.6612C121.847 20.3224 121.541 19.8102 121.428 19.1245L122.59 18.8462C122.654 19.1769 122.763 19.4391 122.916 19.6327C123.07 19.8263 123.259 19.9634 123.485 20.0441C123.719 20.1248 123.969 20.1651 124.235 20.1651C124.63 20.1651 124.933 20.0885 125.143 19.9352C125.36 19.7819 125.469 19.5843 125.469 19.3423C125.469 19.1003 125.369 18.9228 125.167 18.8099C124.965 18.697 124.667 18.6042 124.271 18.5316L123.86 18.459C123.457 18.3864 123.09 18.2815 122.759 18.1444C122.428 18.0073 122.166 17.8177 121.972 17.5757C121.779 17.3337 121.682 17.0231 121.682 16.644C121.682 16.0793 121.892 15.6437 122.311 15.3372C122.731 15.0226 123.287 14.8653 123.981 14.8653C124.651 14.8653 125.199 15.0186 125.627 15.3251C126.062 15.6236 126.345 16.0309 126.474 16.5472L125.312 16.8739C125.239 16.5109 125.086 16.2568 124.852 16.1116C124.618 15.9583 124.328 15.8817 123.981 15.8817C123.642 15.8817 123.376 15.9462 123.182 16.0753C122.989 16.1963 122.892 16.3697 122.892 16.5956C122.892 16.8376 122.985 17.0151 123.17 17.128C123.364 17.2409 123.622 17.3256 123.945 17.3821L124.368 17.4547C124.796 17.5273 125.187 17.6281 125.542 17.7572C125.897 17.8863 126.175 18.0718 126.377 18.3138C126.587 18.5558 126.691 18.8785 126.691 19.2818C126.691 19.8787 126.47 20.3426 126.026 20.6733C125.582 21.004 124.985 21.1694 124.235 21.1694ZM130.257 21C129.894 21 129.603 20.8911 129.385 20.6733C129.176 20.4555 129.071 20.1651 129.071 19.8021V16.0874H127.425V15.0347H129.071V13.0624H130.317V15.0347H132.096V16.0874H130.317V19.5843C130.317 19.8263 130.43 19.9473 130.656 19.9473H131.902V21H130.257Z" fill="black"/>
<path d="M240 11.6665V23.3332M234.167 17.4998H245.833" stroke="#1E1E1E" stroke-width="2" stroke-linecap="round" stroke-linejoin="round"/>
</svg>
