<svg width="280" height="35" viewBox="0 0 280 35" fill="none" xmlns="http://www.w3.org/2000/svg">
<path d="M61.2307 21V12.53H62.5375V21H61.2307ZM64.3393 21V15.0347H65.5614V15.9301H65.755C65.8679 15.6881 66.0696 15.4622 66.36 15.2525C66.6504 15.0428 67.0819 14.9379 67.6547 14.9379C68.1064 14.9379 68.5057 15.0387 68.8526 15.2404C69.2075 15.4421 69.4858 15.7284 69.6875 16.0995C69.8891 16.4625 69.99 16.9021 69.99 17.4184V21H68.7437V17.5152C68.7437 16.9989 68.6146 16.6198 68.3565 16.3778C68.0983 16.1277 67.7434 16.0027 67.2917 16.0027C66.7754 16.0027 66.36 16.1721 66.0454 16.5109C65.7388 16.8497 65.5856 17.3418 65.5856 17.9871V21H64.3393ZM74.252 21.1694C73.7599 21.1694 73.3042 21.0484 72.8847 20.8064C72.4652 20.5644 72.1264 20.2175 71.8683 19.7658C71.6182 19.306 71.4932 18.7534 71.4932 18.1081V17.9266C71.4932 17.2893 71.6182 16.7408 71.8683 16.281C72.1184 15.8212 72.4531 15.4703 72.8726 15.2283C73.2921 14.9863 73.7519 14.8653 74.252 14.8653C74.6392 14.8653 74.9619 14.9137 75.22 15.0105C75.4862 15.1073 75.704 15.2323 75.8734 15.3856C76.0428 15.5308 76.1719 15.6841 76.2606 15.8454H76.4542V12.53H77.7005V21H76.4784V20.153H76.2848C76.1315 20.4111 75.8976 20.6451 75.583 20.8548C75.2765 21.0645 74.8328 21.1694 74.252 21.1694ZM74.6029 20.0804C75.1434 20.0804 75.587 19.907 75.9339 19.5601C76.2888 19.2132 76.4663 18.7171 76.4663 18.0718V17.9629C76.4663 17.3256 76.2929 16.8336 75.946 16.4867C75.5991 16.1398 75.1514 15.9664 74.6029 15.9664C74.0705 15.9664 73.6268 16.1398 73.2719 16.4867C72.925 16.8336 72.7516 17.3256 72.7516 17.9629V18.0718C72.7516 18.7171 72.925 19.2132 73.2719 19.5601C73.6268 19.907 74.0705 20.0804 74.6029 20.0804ZM79.5352 21V15.0347H80.7815V21H79.5352ZM80.1644 14.224C79.9224 14.224 79.7167 14.1474 79.5473 13.9941C79.3859 13.8328 79.3053 13.6271 79.3053 13.377C79.3053 13.1269 79.3859 12.9253 79.5473 12.772C79.7167 12.6107 79.9224 12.53 80.1644 12.53C80.4144 12.53 80.6201 12.6107 80.7815 12.772C80.9428 12.9253 81.0235 13.1269 81.0235 13.377C81.0235 13.6271 80.9428 13.8328 80.7815 13.9941C80.6201 14.1474 80.4144 14.224 80.1644 14.224ZM84.0105 21L82.0019 15.0347H83.3208L84.9059 20.0804H85.0995L86.6846 15.0347H88.0035L85.9949 21H84.0105ZM89.2128 21V15.0347H90.4591V21H89.2128ZM89.842 14.224C89.6 14.224 89.3943 14.1474 89.2249 13.9941C89.0636 13.8328 88.9829 13.6271 88.9829 13.377C88.9829 13.1269 89.0636 12.9253 89.2249 12.772C89.3943 12.6107 89.6 12.53 89.842 12.53C90.0921 12.53 90.2978 12.6107 90.4591 12.772C90.6204 12.9253 90.7011 13.1269 90.7011 13.377C90.7011 13.6271 90.6204 13.8328 90.4591 13.9941C90.2978 14.1474 90.0921 14.224 89.842 14.224ZM94.7771 21.1694C94.285 21.1694 93.8293 21.0484 93.4098 20.8064C92.9903 20.5644 92.6515 20.2175 92.3934 19.7658C92.1433 19.306 92.0183 18.7534 92.0183 18.1081V17.9266C92.0183 17.2893 92.1433 16.7408 92.3934 16.281C92.6435 15.8212 92.9782 15.4703 93.3977 15.2283C93.8172 14.9863 94.277 14.8653 94.7771 14.8653C95.1643 14.8653 95.487 14.9137 95.7451 15.0105C96.0113 15.1073 96.2291 15.2323 96.3985 15.3856C96.5679 15.5308 96.697 15.6841 96.7857 15.8454H96.9793V12.53H98.2256V21H97.0035V20.153H96.8099C96.6566 20.4111 96.4227 20.6451 96.1081 20.8548C95.8016 21.0645 95.3579 21.1694 94.7771 21.1694ZM95.128 20.0804C95.6685 20.0804 96.1121 19.907 96.459 19.5601C96.8139 19.2132 96.9914 18.7171 96.9914 18.0718V17.9629C96.9914 17.3256 96.818 16.8336 96.4711 16.4867C96.1242 16.1398 95.6765 15.9664 95.128 15.9664C94.5956 15.9664 94.1519 16.1398 93.797 16.4867C93.4501 16.8336 93.2767 17.3256 93.2767 17.9629V18.0718C93.2767 18.7171 93.4501 19.2132 93.797 19.5601C94.1519 19.907 94.5956 20.0804 95.128 20.0804ZM102.347 21.1089C101.895 21.1089 101.492 21.0081 101.137 20.8064C100.782 20.6047 100.504 20.3184 100.302 19.9473C100.101 19.5762 99.9998 19.1326 99.9998 18.6163V15.0347H101.246V18.5316C101.246 19.0479 101.375 19.431 101.633 19.6811C101.891 19.9231 102.25 20.0441 102.71 20.0441C103.218 20.0441 103.626 19.8747 103.932 19.5359C104.247 19.189 104.404 18.6929 104.404 18.0476V15.0347H105.65V21H104.428V20.1046H104.235C104.122 20.3466 103.92 20.5765 103.63 20.7943C103.339 21.004 102.912 21.1089 102.347 21.1089ZM109.344 21.1694C108.917 21.1694 108.533 21.0968 108.195 20.9516C107.864 20.8064 107.598 20.5926 107.396 20.3103C107.202 20.028 107.106 19.6851 107.106 19.2818C107.106 18.8704 107.202 18.5316 107.396 18.2654C107.598 17.9911 107.868 17.7854 108.207 17.6483C108.554 17.5112 108.945 17.4426 109.38 17.4426H111.195V17.0554C111.195 16.7085 111.091 16.4302 110.881 16.2205C110.671 16.0108 110.348 15.9059 109.913 15.9059C109.485 15.9059 109.159 16.0067 108.933 16.2084C108.707 16.4101 108.558 16.6722 108.485 16.9949L107.323 16.6198C107.42 16.2971 107.573 16.0067 107.783 15.7486C108.001 15.4824 108.287 15.2686 108.642 15.1073C108.997 14.946 109.425 14.8653 109.925 14.8653C110.699 14.8653 111.308 15.0629 111.752 15.4582C112.196 15.8535 112.417 16.4141 112.417 17.1401V19.5964C112.417 19.8384 112.53 19.9594 112.756 19.9594H113.264V21H112.333C112.05 21 111.821 20.9274 111.643 20.7822C111.466 20.637 111.377 20.4394 111.377 20.1893V20.153H111.195C111.131 20.274 111.034 20.4152 110.905 20.5765C110.776 20.7378 110.586 20.879 110.336 21C110.086 21.1129 109.755 21.1694 109.344 21.1694ZM109.526 20.1409C110.026 20.1409 110.429 19.9997 110.736 19.7174C111.042 19.427 111.195 19.0317 111.195 18.5316V18.4106H109.453C109.122 18.4106 108.856 18.4832 108.654 18.6284C108.453 18.7655 108.352 18.9712 108.352 19.2455C108.352 19.5198 108.457 19.7376 108.666 19.8989C108.876 20.0602 109.163 20.1409 109.526 20.1409ZM114.476 21V12.53H115.723V21H114.476Z" fill="black"/>
<path d="M237.333 12H246.667C246.9 12.0001 247.087 12.0771 247.255 12.2451C247.423 12.4131 247.5 12.6002 247.5 12.833V22.167C247.5 22.3998 247.423 22.5869 247.255 22.7549C247.087 22.9229 246.9 22.9999 246.667 23H237.333C237.1 22.9999 236.913 22.9229 236.745 22.7549C236.577 22.5869 236.5 22.3998 236.5 22.167V12.833C236.5 12.6002 236.577 12.4131 236.745 12.2451C236.913 12.0771 237.1 12.0001 237.333 12ZM236.833 22.667H247.167V12.333H236.833V22.667Z" fill="#1D1B20" stroke="black"/>
</svg>
