<svg width="280" height="35" viewBox="0 0 280 35" fill="none" xmlns="http://www.w3.org/2000/svg">
<path d="M62.1061 21L60.8598 12.53H62.1666L63.183 20.1167H63.3766L64.6834 12.53H66.9703L68.2771 20.1167H68.4707L69.475 12.53H70.7818L69.5355 21H67.2486L65.9176 13.3044H65.724L64.4051 21H62.1061ZM74.7863 21.1694C74.1894 21.1694 73.657 21.0484 73.1891 20.8064C72.7293 20.5563 72.3663 20.2014 72.1001 19.7416C71.8339 19.2818 71.7008 18.7373 71.7008 18.1081V17.9266C71.7008 17.2974 71.8339 16.7569 72.1001 16.3052C72.3663 15.8454 72.7293 15.4905 73.1891 15.2404C73.657 14.9903 74.1894 14.8653 74.7863 14.8653C75.3833 14.8653 75.9157 14.9903 76.3835 15.2404C76.8514 15.4905 77.2184 15.8454 77.4846 16.3052C77.7508 16.7569 77.8839 17.2974 77.8839 17.9266V18.1081C77.8839 18.7373 77.7508 19.2818 77.4846 19.7416C77.2184 20.2014 76.8514 20.5563 76.3835 20.8064C75.9157 21.0484 75.3833 21.1694 74.7863 21.1694ZM74.7863 20.0562C75.3349 20.0562 75.7785 19.8828 76.1173 19.5359C76.4642 19.181 76.6376 18.6929 76.6376 18.0718V17.9629C76.6376 17.3418 76.4682 16.8578 76.1294 16.5109C75.7906 16.156 75.3429 15.9785 74.7863 15.9785C74.2459 15.9785 73.8022 16.156 73.4553 16.5109C73.1165 16.8578 72.9471 17.3418 72.9471 17.9629V18.0718C72.9471 18.6929 73.1165 19.181 73.4553 19.5359C73.8022 19.8828 74.2459 20.0562 74.7863 20.0562ZM79.4356 21V15.0347H80.6577V15.7365H80.8513C80.9481 15.4864 81.1013 15.3049 81.3111 15.192C81.5289 15.071 81.7951 15.0105 82.1097 15.0105H82.8236V16.1358H82.0613C81.6579 16.1358 81.3272 16.2487 81.0691 16.4746C80.8109 16.6924 80.6819 17.0312 80.6819 17.491V21H79.4356ZM84.1149 21V12.53H85.3612V21H84.1149ZM89.6792 21.1694C89.1871 21.1694 88.7313 21.0484 88.3119 20.8064C87.8924 20.5644 87.5536 20.2175 87.2955 19.7658C87.0454 19.306 86.9204 18.7534 86.9204 18.1081V17.9266C86.9204 17.2893 87.0454 16.7408 87.2955 16.281C87.5455 15.8212 87.8803 15.4703 88.2998 15.2283C88.7192 14.9863 89.179 14.8653 89.6792 14.8653C90.0664 14.8653 90.389 14.9137 90.6472 15.0105C90.9134 15.1073 91.1312 15.2323 91.3006 15.3856C91.47 15.5308 91.599 15.6841 91.6878 15.8454H91.8814V12.53H93.1277V21H91.9056V20.153H91.712C91.5587 20.4111 91.3248 20.6451 91.0102 20.8548C90.7036 21.0645 90.26 21.1694 89.6792 21.1694ZM90.0301 20.0804C90.5705 20.0804 91.0142 19.907 91.3611 19.5601C91.716 19.2132 91.8935 18.7171 91.8935 18.0718V17.9629C91.8935 17.3256 91.72 16.8336 91.3732 16.4867C91.0263 16.1398 90.5786 15.9664 90.0301 15.9664C89.4977 15.9664 89.054 16.1398 88.6991 16.4867C88.3522 16.8336 88.1788 17.3256 88.1788 17.9629V18.0718C88.1788 18.7171 88.3522 19.2132 88.6991 19.5601C89.054 19.907 89.4977 20.0804 90.0301 20.0804ZM95.6157 21L94.5993 15.0347H95.8456L96.5958 20.1651H96.7894L97.83 15.0347H99.8507L100.879 20.1651H101.073L101.823 15.0347H103.069L102.053 21H99.9596L98.9311 15.8817H98.7375L97.709 21H95.6157ZM104.545 21V15.0347H105.792V21H104.545ZM105.175 14.224C104.933 14.224 104.727 14.1474 104.558 13.9941C104.396 13.8328 104.316 13.6271 104.316 13.377C104.316 13.1269 104.396 12.9253 104.558 12.772C104.727 12.6107 104.933 12.53 105.175 12.53C105.425 12.53 105.63 12.6107 105.792 12.772C105.953 12.9253 106.034 13.1269 106.034 13.377C106.034 13.6271 105.953 13.8328 105.792 13.9941C105.63 14.1474 105.425 14.224 105.175 14.224ZM110.11 21.1694C109.618 21.1694 109.162 21.0484 108.742 20.8064C108.323 20.5644 107.984 20.2175 107.726 19.7658C107.476 19.306 107.351 18.7534 107.351 18.1081V17.9266C107.351 17.2893 107.476 16.7408 107.726 16.281C107.976 15.8212 108.311 15.4703 108.73 15.2283C109.15 14.9863 109.61 14.8653 110.11 14.8653C110.497 14.8653 110.82 14.9137 111.078 15.0105C111.344 15.1073 111.562 15.2323 111.731 15.3856C111.901 15.5308 112.03 15.6841 112.118 15.8454H112.312V12.53H113.558V21H112.336V20.153H112.143C111.989 20.4111 111.755 20.6451 111.441 20.8548C111.134 21.0645 110.691 21.1694 110.11 21.1694ZM110.461 20.0804C111.001 20.0804 111.445 19.907 111.792 19.5601C112.147 19.2132 112.324 18.7171 112.324 18.0718V17.9629C112.324 17.3256 112.151 16.8336 111.804 16.4867C111.457 16.1398 111.009 15.9664 110.461 15.9664C109.928 15.9664 109.485 16.1398 109.13 16.4867C108.783 16.8336 108.609 17.3256 108.609 17.9629V18.0718C108.609 18.7171 108.783 19.2132 109.13 19.5601C109.485 19.907 109.928 20.0804 110.461 20.0804ZM118.127 21.1694C117.522 21.1694 116.994 21.0444 116.542 20.7943C116.091 20.5362 115.736 20.1772 115.478 19.7174C115.228 19.2495 115.102 18.7091 115.102 18.096V17.9508C115.102 17.3297 115.228 16.7892 115.478 16.3294C115.728 15.8615 116.075 15.5026 116.518 15.2525C116.97 14.9944 117.49 14.8653 118.079 14.8653C118.652 14.8653 119.152 14.9944 119.579 15.2525C120.015 15.5026 120.354 15.8535 120.596 16.3052C120.838 16.7569 120.959 17.2853 120.959 17.8903V18.3622H116.373C116.389 18.8865 116.563 19.306 116.893 19.6206C117.232 19.9271 117.652 20.0804 118.152 20.0804C118.62 20.0804 118.97 19.9755 119.204 19.7658C119.446 19.5561 119.632 19.3141 119.761 19.0398L120.789 19.5722C120.677 19.7981 120.511 20.036 120.293 20.2861C120.084 20.5362 119.805 20.7459 119.458 20.9153C119.112 21.0847 118.668 21.1694 118.127 21.1694ZM116.385 17.4063H119.688C119.656 16.9546 119.495 16.6037 119.204 16.3536C118.914 16.0955 118.535 15.9664 118.067 15.9664C117.599 15.9664 117.216 16.0955 116.917 16.3536C116.627 16.6037 116.45 16.9546 116.385 17.4063Z" fill="black"/>
<path d="M151.9 22.89C151.059 22.8948 150.89 21.5 150 21.5C149.609 21.5 149.37 21.6235 149 21.5C147.889 21.1295 149 19.6716 149 18.5C149 18.2348 148.895 17.9804 148.707 17.7929C148.52 17.6054 148.265 17.5 148 17.5C145.657 17.5 142.741 19.7229 142 17.5C141.753 16.759 141.448 16.0523 142 15.5C142.552 14.9477 143.219 15.5 144 15.5C144.265 15.5 144.52 15.3946 144.707 15.2071C144.895 15.0196 145 14.7652 145 14.5C145 13.719 144.448 13.0523 145 12.5C145.552 11.9477 146.219 12.5 147 12.5C147.53 12.5 148.039 12.2893 148.414 11.9142C148.789 11.5391 149 11.0304 149 10.5C149 10.3399 148.851 10.0301 149 10.09C150.196 10.5724 151.064 9.72333 151.9 10.7057C152.736 11.688 154.261 12.5286 154.761 15.5286C155.261 18.5286 154.978 19.3799 154.646 20.6267C154.315 21.8735 153.19 22.8826 151.9 22.89ZM145 26.7388C141.05 26.2488 136.761 22.1086 136.761 18.0286C136.761 17.4086 137.261 16.5286 138.21 15.71C140.213 13.9824 142.751 17.8663 143 20.5C143.037 20.8888 143 21.1095 143 21.5C143 22.0304 143.211 22.5391 143.586 22.9142C143.961 23.2893 144.47 23.5 145 23.5M146 7.5C144.687 7.5 143.386 7.75866 142.173 8.2612C140.96 8.76375 139.858 9.50035 138.929 10.4289C137.054 12.3043 136 14.8478 136 17.5C136 20.1522 137.054 22.6957 138.929 24.5711C139.858 25.4997 140.96 26.2362 142.173 26.7388C143.386 27.2413 144.687 27.5 146 27.5C148.652 27.5 151.196 26.4464 153.071 24.5711C154.946 22.6957 156 20.1522 156 17.5C156 16.1868 155.741 14.8864 155.239 13.6732C154.736 12.4599 154 11.3575 153.071 10.4289C152.142 9.50035 151.04 8.76375 149.827 8.2612C148.614 7.75866 147.313 7.5 146 7.5Z" fill="black"/>
<path d="M237.333 12H246.667C246.9 12.0001 247.087 12.0771 247.255 12.2451C247.423 12.4131 247.5 12.6002 247.5 12.833V22.167C247.5 22.3998 247.423 22.5869 247.255 22.7549C247.087 22.9229 246.9 22.9999 246.667 23H237.333C237.1 22.9999 236.913 22.9229 236.745 22.7549C236.577 22.5869 236.5 22.3998 236.5 22.167V12.833C236.5 12.6002 236.577 12.4131 236.745 12.2451C236.913 12.0771 237.1 12.0001 237.333 12ZM236.833 22.667H247.167V12.333H236.833V22.667Z" fill="#1D1B20" stroke="black"/>
</svg>
