<svg width="280" height="35" viewBox="0 0 280 35" fill="none" xmlns="http://www.w3.org/2000/svg">
<path d="M61.1388 21V12.53H63.5951L65.4464 20.1288H65.64L67.4913 12.53H69.9476V21H68.6771V13.4496H68.4835L66.6443 21H64.4421L62.6029 13.4496H62.4093V21H61.1388ZM73.6021 21.1694C73.1745 21.1694 72.7914 21.0968 72.4526 20.9516C72.1218 20.8064 71.8556 20.5926 71.654 20.3103C71.4604 20.028 71.3636 19.6851 71.3636 19.2818C71.3636 18.8704 71.4604 18.5316 71.654 18.2654C71.8556 17.9911 72.1259 17.7854 72.4647 17.6483C72.8115 17.5112 73.2028 17.4426 73.6384 17.4426H75.4534V17.0554C75.4534 16.7085 75.3485 16.4302 75.1388 16.2205C74.929 16.0108 74.6064 15.9059 74.1708 15.9059C73.7432 15.9059 73.4165 16.0067 73.1907 16.2084C72.9648 16.4101 72.8156 16.6722 72.743 16.9949L71.5814 16.6198C71.6782 16.2971 71.8314 16.0067 72.0412 15.7486C72.259 15.4824 72.5453 15.2686 72.9003 15.1073C73.2552 14.946 73.6827 14.8653 74.1829 14.8653C74.9573 14.8653 75.5663 15.0629 76.01 15.4582C76.4536 15.8535 76.6755 16.4141 76.6755 17.1401V19.5964C76.6755 19.8384 76.7884 19.9594 77.0143 19.9594H77.5225V21H76.5908C76.3084 21 76.0785 20.9274 75.9011 20.7822C75.7236 20.637 75.6349 20.4394 75.6349 20.1893V20.153H75.4534C75.3888 20.274 75.292 20.4152 75.163 20.5765C75.0339 20.7378 74.8443 20.879 74.5943 21C74.3442 21.1129 74.0135 21.1694 73.6021 21.1694ZM73.7836 20.1409C74.2837 20.1409 74.687 19.9997 74.9936 19.7174C75.3001 19.427 75.4534 19.0317 75.4534 18.5316V18.4106H73.711C73.3802 18.4106 73.114 18.4832 72.9124 18.6284C72.7107 18.7655 72.6099 18.9712 72.6099 19.2455C72.6099 19.5198 72.7147 19.7376 72.9245 19.8989C73.1342 20.0602 73.4206 20.1409 73.7836 20.1409ZM80.5592 21C80.1962 21 79.9058 20.8911 79.688 20.6733C79.4782 20.4555 79.3734 20.1651 79.3734 19.8021V16.0874H77.7278V15.0347H79.3734V13.0624H80.6197V15.0347H82.3984V16.0874H80.6197V19.5843C80.6197 19.8263 80.7326 19.9473 80.9585 19.9473H82.2048V21H80.5592ZM83.8626 21V12.53H85.1089V15.8817H85.3025C85.3831 15.7284 85.4961 15.5792 85.6413 15.434C85.7945 15.2888 85.9922 15.1718 86.2342 15.0831C86.4842 14.9863 86.7988 14.9379 87.178 14.9379C87.6297 14.9379 88.029 15.0387 88.3759 15.2404C88.7308 15.4421 89.0091 15.7284 89.2108 16.0995C89.4124 16.4625 89.5133 16.9021 89.5133 17.4184V21H88.267V17.5152C88.267 16.9989 88.1379 16.6198 87.8798 16.3778C87.6216 16.1277 87.2667 16.0027 86.815 16.0027C86.2987 16.0027 85.8833 16.1721 85.5687 16.5109C85.2621 16.8497 85.1089 17.3418 85.1089 17.9871V21H83.8626ZM93.7511 21.1694C92.9928 21.1694 92.3636 21 91.8635 20.6612C91.3634 20.3224 91.0568 19.8102 90.9439 19.1245L92.1055 18.8462C92.17 19.1769 92.2789 19.4391 92.4322 19.6327C92.5855 19.8263 92.775 19.9634 93.0009 20.0441C93.2348 20.1248 93.4849 20.1651 93.7511 20.1651C94.1464 20.1651 94.4489 20.0885 94.6586 19.9352C94.8764 19.7819 94.9853 19.5843 94.9853 19.3423C94.9853 19.1003 94.8845 18.9228 94.6828 18.8099C94.4811 18.697 94.1827 18.6042 93.7874 18.5316L93.376 18.459C92.9727 18.3864 92.6056 18.2815 92.2749 18.1444C91.9442 18.0073 91.682 17.8177 91.4884 17.5757C91.2948 17.3337 91.198 17.0231 91.198 16.644C91.198 16.0793 91.4077 15.6437 91.8272 15.3372C92.2467 15.0226 92.8033 14.8653 93.497 14.8653C94.1665 14.8653 94.7151 15.0186 95.1426 15.3251C95.5782 15.6236 95.8605 16.0309 95.9896 16.5472L94.828 16.8739C94.7554 16.5109 94.6021 16.2568 94.3682 16.1116C94.1343 15.9583 93.8439 15.8817 93.497 15.8817C93.1582 15.8817 92.892 15.9462 92.6984 16.0753C92.5048 16.1963 92.408 16.3697 92.408 16.5956C92.408 16.8376 92.5008 17.0151 92.6863 17.128C92.8799 17.2409 93.138 17.3256 93.4607 17.3821L93.8842 17.4547C94.3117 17.5273 94.703 17.6281 95.0579 17.7572C95.4128 17.8863 95.6911 18.0718 95.8928 18.3138C96.1025 18.5558 96.2074 18.8785 96.2074 19.2818C96.2074 19.8787 95.9856 20.3426 95.5419 20.6733C95.0982 21.004 94.5013 21.1694 93.7511 21.1694Z" fill="black"/>
<path d="M144.988 9.67999C144.852 9.56353 144.679 9.49951 144.5 9.49951C144.321 9.49951 144.148 9.56353 144.012 9.67999L142.262 11.18C142.187 11.2441 142.126 11.3223 142.081 11.4101C142.036 11.498 142.009 11.5938 142.002 11.692C141.994 11.7903 142.006 11.889 142.037 11.9827C142.067 12.0764 142.116 12.1631 142.18 12.238C142.244 12.3128 142.322 12.3743 142.41 12.419C142.498 12.4636 142.594 12.4905 142.692 12.4981C142.79 12.5057 142.889 12.4939 142.983 12.4633C143.076 12.4328 143.163 12.3841 143.238 12.32L144.5 11.237L145.762 12.318C145.914 12.4399 146.107 12.4979 146.301 12.4799C146.495 12.4619 146.674 12.3691 146.801 12.2214C146.928 12.0736 146.992 11.8823 146.98 11.688C146.968 11.4936 146.882 11.3115 146.738 11.18L144.988 9.67999ZM147.56 15.043C147.646 14.9696 147.746 14.9165 147.855 14.8875C147.964 14.8585 148.078 14.8544 148.189 14.8756C148.3 14.8967 148.404 14.9425 148.495 15.0096C148.585 15.0767 148.66 15.1633 148.712 15.263L149.907 17.533L146.22 21.22C146.146 21.2887 146.087 21.3715 146.046 21.4635C146.005 21.5555 145.983 21.6548 145.981 21.7555C145.98 21.8562 145.998 21.9562 146.036 22.0496C146.074 22.143 146.13 22.2278 146.201 22.299C146.272 22.3702 146.357 22.4264 146.45 22.4641C146.544 22.5018 146.644 22.5204 146.745 22.5186C146.845 22.5168 146.945 22.4948 147.037 22.4538C147.129 22.4128 147.211 22.3537 147.28 22.28L150.638 18.923L151.96 21.435C152.117 21.7341 152.34 21.994 152.612 22.1952C152.884 22.3964 153.197 22.5338 153.529 22.5972C153.861 22.6606 154.203 22.6484 154.53 22.5615C154.857 22.4745 155.159 22.3151 155.416 22.095L155.738 21.819C155.816 21.7561 155.881 21.678 155.929 21.5894C155.977 21.5009 156.006 21.4037 156.015 21.3036C156.025 21.2035 156.014 21.1025 155.983 21.0067C155.953 20.9109 155.903 20.8222 155.838 20.7459C155.772 20.6695 155.692 20.6072 155.602 20.5624C155.512 20.5177 155.414 20.4915 155.314 20.4855C155.213 20.4794 155.113 20.4936 155.018 20.5272C154.923 20.5608 154.836 20.6131 154.762 20.681L154.44 20.957C154.354 21.0304 154.254 21.0835 154.145 21.1125C154.036 21.1415 153.922 21.1455 153.811 21.1244C153.7 21.1033 153.596 21.0575 153.505 20.9904C153.415 20.9233 153.34 20.8367 153.288 20.737L151.748 17.812L154.78 14.78C154.912 14.6378 154.985 14.4498 154.981 14.2555C154.978 14.0612 154.899 13.8758 154.762 13.7384C154.624 13.601 154.439 13.5222 154.245 13.5188C154.05 13.5154 153.862 13.5875 153.72 13.72L151.017 16.422L150.04 14.565C149.883 14.2658 149.66 14.006 149.388 13.8048C149.116 13.6036 148.803 13.4662 148.471 13.4027C148.139 13.3393 147.797 13.3516 147.47 13.4385C147.143 13.5255 146.841 13.6849 146.584 13.905L146.262 14.181C146.184 14.2439 146.119 14.322 146.071 14.4105C146.023 14.4991 145.994 14.5963 145.985 14.6964C145.975 14.7965 145.986 14.8975 146.017 14.9933C146.047 15.0891 146.097 15.1778 146.162 15.2541C146.228 15.3304 146.308 15.3928 146.398 15.4376C146.488 15.4823 146.586 15.5085 146.686 15.5145C146.787 15.5206 146.887 15.5064 146.982 15.4728C147.077 15.4392 147.164 15.3869 147.238 15.319L147.56 15.043ZM137.586 18.97C138.512 18.957 139.478 18.906 140.346 18.718C141.396 18.492 142.433 18.04 143.063 17.087C143.627 16.235 143.644 15.216 143.12 14.455C142.587 13.681 141.61 13.333 140.52 13.58C139.759 13.7502 139.048 14.0961 138.445 14.59C137.62 15.26 136.817 16.322 136.292 17.999C135.902 19.243 135.905 20.329 136.285 21.198C136.672 22.081 137.405 22.635 138.253 22.868C139.903 23.324 141.98 22.594 143.307 20.918C143.423 20.7615 143.474 20.5658 143.448 20.3726C143.423 20.1794 143.323 20.0037 143.17 19.8828C143.017 19.7619 142.823 19.7052 142.629 19.7249C142.435 19.7445 142.257 19.8389 142.131 19.988C141.112 21.274 139.626 21.692 138.652 21.423C138.187 21.294 137.844 21.018 137.659 20.596C137.503 20.239 137.432 19.709 137.586 18.97ZM141.885 15.305C142.024 15.508 142.077 15.859 141.812 16.259C141.495 16.738 140.912 17.061 140.03 17.252C139.451 17.377 138.798 17.433 138.107 17.457C138.5 16.63 138.964 16.101 139.39 15.755C139.815 15.4062 140.316 15.1622 140.852 15.043C141.443 14.909 141.755 15.117 141.885 15.305Z" fill="black"/>
<path d="M237.333 12H246.667C246.9 12.0001 247.087 12.0771 247.255 12.2451C247.423 12.4131 247.5 12.6002 247.5 12.833V22.167C247.5 22.3998 247.423 22.5869 247.255 22.7549C247.087 22.9229 246.9 22.9999 246.667 23H237.333C237.1 22.9999 236.913 22.9229 236.745 22.7549C236.577 22.5869 236.5 22.3998 236.5 22.167V12.833C236.5 12.6002 236.577 12.4131 236.745 12.2451C236.913 12.0771 237.1 12.0001 237.333 12ZM236.833 22.667H247.167V12.333H236.833V22.667Z" fill="#1D1B20" stroke="black"/>
</svg>
