<svg width="280" height="35" viewBox="0 0 280 35" fill="none" xmlns="http://www.w3.org/2000/svg">
<path d="M61.703 19.427V18.1807L65.5629 16.8618V16.6682L61.703 15.3493V14.103L66.785 15.9785V17.5515L61.703 19.427ZM71.1061 21V13.4254H70.9125L69.521 16.281H68.1779L70.0534 12.53H72.3766V21H71.1061ZM74.9608 21.1573L74.1864 20.5281L80.8051 12.3727L81.5795 13.0019L74.9608 21.1573ZM80.2001 21.1331C79.6032 21.1331 79.1313 20.9677 78.7844 20.637C78.4376 20.2982 78.2641 19.8424 78.2641 19.2697V19.1971C78.2641 18.6163 78.4376 18.1605 78.7844 17.8298C79.1313 17.491 79.6032 17.3216 80.2001 17.3216C80.789 17.3216 81.2609 17.491 81.6158 17.8298C81.9708 18.1605 82.1482 18.6163 82.1482 19.1971V19.2697C82.1482 19.8424 81.9708 20.2982 81.6158 20.637C81.269 20.9677 80.7971 21.1331 80.2001 21.1331ZM80.2001 20.2861C80.4905 20.2861 80.7164 20.1974 80.8777 20.0199C81.0471 19.8424 81.1318 19.6085 81.1318 19.3181V19.1487C81.1318 18.8502 81.0471 18.6123 80.8777 18.4348C80.7164 18.2573 80.4905 18.1686 80.2001 18.1686C79.9178 18.1686 79.6919 18.2573 79.5225 18.4348C79.3612 18.6123 79.2805 18.8502 79.2805 19.1487V19.3181C79.2805 19.6085 79.3612 19.8424 79.5225 20.0199C79.6919 20.1974 79.9178 20.2861 80.2001 20.2861ZM75.5658 16.2084C74.9689 16.2084 74.493 16.043 74.138 15.7123C73.7912 15.3735 73.6177 14.9177 73.6177 14.345V14.2603C73.6177 13.6795 73.7912 13.2237 74.138 12.893C74.493 12.5623 74.9689 12.3969 75.5658 12.3969C76.1547 12.3969 76.6226 12.5623 76.9694 12.893C77.3244 13.2237 77.5018 13.6795 77.5018 14.2603V14.345C77.5018 14.9177 77.3284 15.3735 76.9815 15.7123C76.6347 16.043 76.1628 16.2084 75.5658 16.2084ZM75.5658 15.3614C75.8482 15.3614 76.07 15.2727 76.2313 15.0952C76.4007 14.9097 76.4854 14.6717 76.4854 14.3813V14.2119C76.4854 13.9215 76.4007 13.6876 76.2313 13.5101C76.07 13.3326 75.8482 13.2439 75.5658 13.2439C75.2754 13.2439 75.0455 13.3326 74.8761 13.5101C74.7148 13.6876 74.6341 13.9215 74.6341 14.2119V14.3813C74.6341 14.6717 74.7148 14.9097 74.8761 15.0952C75.0455 15.2727 75.2754 15.3614 75.5658 15.3614Z" fill="black"/>
<path d="M237.333 12H246.667C246.9 12.0001 247.087 12.0771 247.255 12.2451C247.423 12.4131 247.5 12.6002 247.5 12.833V22.167C247.5 22.3998 247.423 22.5869 247.255 22.7549C247.087 22.9229 246.9 22.9999 246.667 23H237.333C237.1 22.9999 236.913 22.9229 236.745 22.7549C236.577 22.5869 236.5 22.3998 236.5 22.167V12.833C236.5 12.6002 236.577 12.4131 236.745 12.2451C236.913 12.0771 237.1 12.0001 237.333 12ZM236.833 22.667H247.167V12.333H236.833V22.667Z" fill="#1D1B20" stroke="black"/>
</svg>
