<svg width="280" height="35" viewBox="0 0 280 35" fill="none" xmlns="http://www.w3.org/2000/svg">
<path d="M64.3399 21.1694C63.3074 21.1694 62.4886 20.879 61.8836 20.2982C61.2786 19.7093 60.9761 18.8623 60.9761 17.7572V15.7728C60.9761 14.6677 61.2786 13.8247 61.8836 13.2439C62.4886 12.655 63.3074 12.3606 64.3399 12.3606C65.3563 12.3606 66.1388 12.6429 66.6873 13.2076C67.2439 13.7723 67.5222 14.5426 67.5222 15.5187V15.5913H66.2275V15.4824C66.2275 14.9097 66.0702 14.4418 65.7556 14.0788C65.4491 13.7158 64.9772 13.5343 64.3399 13.5343C63.6946 13.5343 63.1904 13.7319 62.8274 14.1272C62.4644 14.5144 62.2829 15.0549 62.2829 15.7486V17.7814C62.2829 18.4671 62.4644 19.0075 62.8274 19.4028C63.1904 19.7981 63.6946 19.9957 64.3399 19.9957C64.9772 19.9957 65.4491 19.8142 65.7556 19.4512C66.0702 19.0801 66.2275 18.6123 66.2275 18.0476V17.8419H67.5222V18.0113C67.5222 18.9874 67.2439 19.7577 66.6873 20.3224C66.1388 20.8871 65.3563 21.1694 64.3399 21.1694ZM71.74 21.1694C71.135 21.1694 70.6066 21.0444 70.1549 20.7943C69.7032 20.5362 69.3482 20.1772 69.0901 19.7174C68.84 19.2495 68.715 18.7091 68.715 18.096V17.9508C68.715 17.3297 68.84 16.7892 69.0901 16.3294C69.3402 15.8615 69.687 15.5026 70.1307 15.2525C70.5824 14.9944 71.1027 14.8653 71.6916 14.8653C72.2643 14.8653 72.7645 14.9944 73.192 15.2525C73.6276 15.5026 73.9664 15.8535 74.2084 16.3052C74.4504 16.7569 74.5714 17.2853 74.5714 17.8903V18.3622H69.9855C70.0016 18.8865 70.1751 19.306 70.5058 19.6206C70.8446 19.9271 71.2641 20.0804 71.7642 20.0804C72.2321 20.0804 72.583 19.9755 72.8169 19.7658C73.0589 19.5561 73.2444 19.3141 73.3735 19.0398L74.402 19.5722C74.2891 19.7981 74.1237 20.036 73.9059 20.2861C73.6962 20.5362 73.4179 20.7459 73.071 20.9153C72.7241 21.0847 72.2805 21.1694 71.74 21.1694ZM69.9976 17.4063H73.3009C73.2686 16.9546 73.1073 16.6037 72.8169 16.3536C72.5265 16.0955 72.1474 15.9664 71.6795 15.9664C71.2116 15.9664 70.8285 16.0955 70.53 16.3536C70.2396 16.6037 70.0621 16.9546 69.9976 17.4063ZM76.0716 21V15.0347H77.2937V15.7365H77.4873C77.5841 15.4864 77.7374 15.3049 77.9471 15.192C78.1649 15.071 78.4311 15.0105 78.7457 15.0105H79.4596V16.1358H78.6973C78.294 16.1358 77.9632 16.2487 77.7051 16.4746C77.447 16.6924 77.3179 17.0312 77.3179 17.491V21H76.0716ZM82.9894 21C82.6264 21 82.336 20.8911 82.1182 20.6733C81.9085 20.4555 81.8036 20.1651 81.8036 19.8021V16.0874H80.158V15.0347H81.8036V13.0624H83.0499V15.0347H84.8286V16.0874H83.0499V19.5843C83.0499 19.8263 83.1628 19.9473 83.3887 19.9473H84.635V21H82.9894ZM86.2928 21V15.0347H87.5391V21H86.2928ZM86.922 14.224C86.68 14.224 86.4743 14.1474 86.3049 13.9941C86.1436 13.8328 86.0629 13.6271 86.0629 13.377C86.0629 13.1269 86.1436 12.9253 86.3049 12.772C86.4743 12.6107 86.68 12.53 86.922 12.53C87.1721 12.53 87.3778 12.6107 87.5391 12.772C87.7004 12.9253 87.7811 13.1269 87.7811 13.377C87.7811 13.6271 87.7004 13.8328 87.5391 13.9941C87.3778 14.1474 87.1721 14.224 86.922 14.224ZM90.4656 21V16.0874H88.7958V15.0347H90.4656V13.7279C90.4656 13.3649 90.5745 13.0745 90.7923 12.8567C91.0101 12.6389 91.3005 12.53 91.6635 12.53H93.2002V13.5827H92.0628C91.8289 13.5827 91.7119 13.7037 91.7119 13.9457V15.0347H93.4301V16.0874H91.7119V21H90.4656ZM94.387 21V15.0347H95.6333V21H94.387ZM95.0162 14.224C94.7742 14.224 94.5685 14.1474 94.3991 13.9941C94.2378 13.8328 94.1571 13.6271 94.1571 13.377C94.1571 13.1269 94.2378 12.9253 94.3991 12.772C94.5685 12.6107 94.7742 12.53 95.0162 12.53C95.2663 12.53 95.472 12.6107 95.6333 12.772C95.7947 12.9253 95.8753 13.1269 95.8753 13.377C95.8753 13.6271 95.7947 13.8328 95.6333 13.9941C95.472 14.1474 95.2663 14.224 95.0162 14.224ZM100.254 21.1694C99.6811 21.1694 99.1608 21.0484 98.6929 20.8064C98.2331 20.5644 97.8661 20.2135 97.5918 19.7537C97.3256 19.2939 97.1925 18.7413 97.1925 18.096V17.9387C97.1925 17.2934 97.3256 16.7448 97.5918 16.2931C97.8661 15.8333 98.2331 15.4824 98.6929 15.2404C99.1608 14.9903 99.6811 14.8653 100.254 14.8653C100.827 14.8653 101.315 14.9702 101.718 15.1799C102.121 15.3896 102.444 15.6679 102.686 16.0148C102.936 16.3617 103.097 16.7448 103.17 17.1643L101.96 17.4184C101.92 17.1522 101.835 16.9102 101.706 16.6924C101.577 16.4746 101.395 16.3012 101.161 16.1721C100.927 16.043 100.633 15.9785 100.278 15.9785C99.9312 15.9785 99.6166 16.0592 99.3342 16.2205C99.06 16.3738 98.8422 16.5996 98.6808 16.8981C98.5195 17.1885 98.4388 17.5434 98.4388 17.9629V18.0718C98.4388 18.4913 98.5195 18.8502 98.6808 19.1487C98.8422 19.4472 99.06 19.673 99.3342 19.8263C99.6166 19.9796 99.9312 20.0562 100.278 20.0562C100.802 20.0562 101.202 19.9231 101.476 19.6569C101.75 19.3826 101.924 19.0358 101.996 18.6163L103.206 18.8946C103.109 19.306 102.936 19.6851 102.686 20.032C102.444 20.3789 102.121 20.6572 101.718 20.8669C101.315 21.0686 100.827 21.1694 100.254 21.1694ZM106.495 21.1694C106.067 21.1694 105.684 21.0968 105.345 20.9516C105.015 20.8064 104.749 20.5926 104.547 20.3103C104.353 20.028 104.256 19.6851 104.256 19.2818C104.256 18.8704 104.353 18.5316 104.547 18.2654C104.749 17.9911 105.019 17.7854 105.358 17.6483C105.704 17.5112 106.096 17.4426 106.531 17.4426H108.346V17.0554C108.346 16.7085 108.241 16.4302 108.032 16.2205C107.822 16.0108 107.499 15.9059 107.064 15.9059C106.636 15.9059 106.309 16.0067 106.084 16.2084C105.858 16.4101 105.708 16.6722 105.636 16.9949L104.474 16.6198C104.571 16.2971 104.724 16.0067 104.934 15.7486C105.152 15.4824 105.438 15.2686 105.793 15.1073C106.148 14.946 106.576 14.8653 107.076 14.8653C107.85 14.8653 108.459 15.0629 108.903 15.4582C109.347 15.8535 109.568 16.4141 109.568 17.1401V19.5964C109.568 19.8384 109.681 19.9594 109.907 19.9594H110.415V21H109.484C109.201 21 108.971 20.9274 108.794 20.7822C108.617 20.637 108.528 20.4394 108.528 20.1893V20.153H108.346C108.282 20.274 108.185 20.4152 108.056 20.5765C107.927 20.7378 107.737 20.879 107.487 21C107.237 21.1129 106.906 21.1694 106.495 21.1694ZM106.676 20.1409C107.177 20.1409 107.58 19.9997 107.886 19.7174C108.193 19.427 108.346 19.0317 108.346 18.5316V18.4106H106.604C106.273 18.4106 106.007 18.4832 105.805 18.6284C105.604 18.7655 105.503 18.9712 105.503 19.2455C105.503 19.5198 105.608 19.7376 105.817 19.8989C106.027 20.0602 106.313 20.1409 106.676 20.1409ZM113.452 21C113.089 21 112.799 20.8911 112.581 20.6733C112.371 20.4555 112.266 20.1651 112.266 19.8021V16.0874H110.621V15.0347H112.266V13.0624H113.513V15.0347H115.291V16.0874H113.513V19.5843C113.513 19.8263 113.626 19.9473 113.851 19.9473H115.098V21H113.452ZM119.277 21.1694C118.672 21.1694 118.144 21.0444 117.692 20.7943C117.241 20.5362 116.886 20.1772 116.627 19.7174C116.377 19.2495 116.252 18.7091 116.252 18.096V17.9508C116.252 17.3297 116.377 16.7892 116.627 16.3294C116.878 15.8615 117.224 15.5026 117.668 15.2525C118.12 14.9944 118.64 14.8653 119.229 14.8653C119.802 14.8653 120.302 14.9944 120.729 15.2525C121.165 15.5026 121.504 15.8535 121.746 16.3052C121.988 16.7569 122.109 17.2853 122.109 17.8903V18.3622H117.523C117.539 18.8865 117.712 19.306 118.043 19.6206C118.382 19.9271 118.801 20.0804 119.302 20.0804C119.769 20.0804 120.12 19.9755 120.354 19.7658C120.596 19.5561 120.782 19.3141 120.911 19.0398L121.939 19.5722C121.826 19.7981 121.661 20.036 121.443 20.2861C121.234 20.5362 120.955 20.7459 120.608 20.9153C120.262 21.0847 119.818 21.1694 119.277 21.1694ZM117.535 17.4063H120.838C120.806 16.9546 120.645 16.6037 120.354 16.3536C120.064 16.0955 119.685 15.9664 119.217 15.9664C118.749 15.9664 118.366 16.0955 118.067 16.3536C117.777 16.6037 117.6 16.9546 117.535 17.4063Z" fill="black"/>
<g clip-path="url(#clip0_396_473)">
<path d="M143.217 17.5005H146.696M143.217 20.9787H153.652M150.174 10.5439H153.652V15.3266L151.913 14.0222L150.174 15.3266V10.5439Z" stroke="black" stroke-width="1.30435" stroke-linecap="square"/>
<path d="M157.13 10.5439V24.457H139.739V10.5439H157.13Z" stroke="black" stroke-width="1.30435" stroke-linecap="square"/>
</g>
<path d="M237.333 12H246.667C246.9 12.0001 247.087 12.0771 247.255 12.2451C247.423 12.4131 247.5 12.6002 247.5 12.833V22.167C247.5 22.3998 247.423 22.5869 247.255 22.7549C247.087 22.9229 246.9 22.9999 246.667 23H237.333C237.1 22.9999 236.913 22.9229 236.745 22.7549C236.577 22.5869 236.5 22.3998 236.5 22.167V12.833C236.5 12.6002 236.577 12.4131 236.745 12.2451C236.913 12.0771 237.1 12.0001 237.333 12ZM236.833 22.667H247.167V12.333H236.833V22.667Z" fill="#1D1B20" stroke="black"/>
<defs>
<clipPath id="clip0_396_473">
<rect width="20" height="20" fill="white" transform="translate(138 7.5)"/>
</clipPath>
</defs>
</svg>
