<svg width="280" height="35" viewBox="0 0 280 35" fill="none" xmlns="http://www.w3.org/2000/svg">
<path d="M61.2104 19.427V18.1807L65.0703 16.8618V16.6682L61.2104 15.3493V14.103L66.2924 15.9785V17.5515L61.2104 19.427ZM71.1581 21.1694C70.5208 21.1694 69.9682 21.0524 69.5004 20.8185C69.0325 20.5846 68.6695 20.2538 68.4114 19.8263C68.1613 19.3988 68.0363 18.9027 68.0363 18.338V18.2049H69.331V18.3259C69.331 18.8422 69.4883 19.2576 69.8029 19.5722C70.1255 19.8787 70.5732 20.032 71.146 20.032C71.7348 20.032 72.1906 19.8707 72.5133 19.548C72.8359 19.2253 72.9973 18.7897 72.9973 18.2412V18.1323C72.9973 17.608 72.8359 17.1885 72.5133 16.8739C72.1987 16.5593 71.7953 16.402 71.3033 16.402C71.029 16.402 70.7991 16.4464 70.6136 16.5351C70.4361 16.6158 70.2909 16.7166 70.178 16.8376C70.0731 16.9586 69.9844 17.0756 69.9118 17.1885H68.3025V12.53H73.9774V13.6795H69.573V16.1721H69.7666C69.8472 16.035 69.9602 15.9059 70.1054 15.7849C70.2586 15.6558 70.4563 15.551 70.6983 15.4703C70.9403 15.3896 71.2307 15.3493 71.5695 15.3493C72.0696 15.3493 72.5213 15.4582 72.9247 15.676C73.3361 15.8857 73.6628 16.2003 73.9048 16.6198C74.1468 17.0312 74.2678 17.5313 74.2678 18.1202V18.2533C74.2678 18.8422 74.1427 19.3544 73.8927 19.79C73.6426 20.2256 73.2836 20.5644 72.8158 20.8064C72.356 21.0484 71.8034 21.1694 71.1581 21.1694ZM76.4534 21.1573L75.679 20.5281L82.2977 12.3727L83.0721 13.0019L76.4534 21.1573ZM81.6927 21.1331C81.0958 21.1331 80.6239 20.9677 80.277 20.637C79.9301 20.2982 79.7567 19.8424 79.7567 19.2697V19.1971C79.7567 18.6163 79.9301 18.1605 80.277 17.8298C80.6239 17.491 81.0958 17.3216 81.6927 17.3216C82.2816 17.3216 82.7535 17.491 83.1084 17.8298C83.4633 18.1605 83.6408 18.6163 83.6408 19.1971V19.2697C83.6408 19.8424 83.4633 20.2982 83.1084 20.637C82.7615 20.9677 82.2896 21.1331 81.6927 21.1331ZM81.6927 20.2861C81.9831 20.2861 82.209 20.1974 82.3703 20.0199C82.5397 19.8424 82.6244 19.6085 82.6244 19.3181V19.1487C82.6244 18.8502 82.5397 18.6123 82.3703 18.4348C82.209 18.2573 81.9831 18.1686 81.6927 18.1686C81.4104 18.1686 81.1845 18.2573 81.0151 18.4348C80.8538 18.6123 80.7731 18.8502 80.7731 19.1487V19.3181C80.7731 19.6085 80.8538 19.8424 81.0151 20.0199C81.1845 20.1974 81.4104 20.2861 81.6927 20.2861ZM77.0584 16.2084C76.4615 16.2084 75.9855 16.043 75.6306 15.7123C75.2837 15.3735 75.1103 14.9177 75.1103 14.345V14.2603C75.1103 13.6795 75.2837 13.2237 75.6306 12.893C75.9855 12.5623 76.4615 12.3969 77.0584 12.3969C77.6473 12.3969 78.1151 12.5623 78.462 12.893C78.8169 13.2237 78.9944 13.6795 78.9944 14.2603V14.345C78.9944 14.9177 78.821 15.3735 78.4741 15.7123C78.1272 16.043 77.6553 16.2084 77.0584 16.2084ZM77.0584 15.3614C77.3407 15.3614 77.5626 15.2727 77.7239 15.0952C77.8933 14.9097 77.978 14.6717 77.978 14.3813V14.2119C77.978 13.9215 77.8933 13.6876 77.7239 13.5101C77.5626 13.3326 77.3407 13.2439 77.0584 13.2439C76.768 13.2439 76.5381 13.3326 76.3687 13.5101C76.2074 13.6876 76.1267 13.9215 76.1267 14.2119V14.3813C76.1267 14.6717 76.2074 14.9097 76.3687 15.0952C76.5381 15.2727 76.768 15.3614 77.0584 15.3614Z" fill="black"/>
<path d="M237.333 12H246.667C246.9 12.0001 247.087 12.0771 247.255 12.2451C247.423 12.4131 247.5 12.6002 247.5 12.833V22.167C247.5 22.3998 247.423 22.5869 247.255 22.7549C247.087 22.9229 246.9 22.9999 246.667 23H237.333C237.1 22.9999 236.913 22.9229 236.745 22.7549C236.577 22.5869 236.5 22.3998 236.5 22.167V12.833C236.5 12.6002 236.577 12.4131 236.745 12.2451C236.913 12.0771 237.1 12.0001 237.333 12ZM236.833 22.667H247.167V12.333H236.833V22.667Z" fill="#1D1B20" stroke="black"/>
</svg>
