<svg width="280" height="35" viewBox="0 0 280 35" fill="none" xmlns="http://www.w3.org/2000/svg">
<path d="M60.727 21L63.147 12.53H65.446L67.8539 21H66.5108L65.9542 19.0035H62.6388L62.0822 21H60.727ZM62.9655 17.7935H65.6275L64.3933 13.3407H64.1997L62.9655 17.7935ZM71.5061 21.1694C71.014 21.1694 70.5583 21.0484 70.1388 20.8064C69.7193 20.5644 69.3805 20.2175 69.1224 19.7658C68.8723 19.306 68.7473 18.7534 68.7473 18.1081V17.9266C68.7473 17.2893 68.8723 16.7408 69.1224 16.281C69.3725 15.8212 69.7072 15.4703 70.1267 15.2283C70.5462 14.9863 71.006 14.8653 71.5061 14.8653C71.8933 14.8653 72.216 14.9137 72.4741 15.0105C72.7403 15.1073 72.9581 15.2323 73.1275 15.3856C73.2969 15.5308 73.426 15.6841 73.5147 15.8454H73.7083V12.53H74.9546V21H73.7325V20.153H73.5389C73.3856 20.4111 73.1517 20.6451 72.8371 20.8548C72.5306 21.0645 72.0869 21.1694 71.5061 21.1694ZM71.857 20.0804C72.3975 20.0804 72.8411 19.907 73.188 19.5601C73.5429 19.2132 73.7204 18.7171 73.7204 18.0718V17.9629C73.7204 17.3256 73.547 16.8336 73.2001 16.4867C72.8532 16.1398 72.4055 15.9664 71.857 15.9664C71.3246 15.9664 70.8809 16.1398 70.526 16.4867C70.1791 16.8336 70.0057 17.3256 70.0057 17.9629V18.0718C70.0057 18.7171 70.1791 19.2132 70.526 19.5601C70.8809 19.907 71.3246 20.0804 71.857 20.0804ZM79.2577 21.1694C78.7656 21.1694 78.3098 21.0484 77.8904 20.8064C77.4709 20.5644 77.1321 20.2175 76.874 19.7658C76.6239 19.306 76.4989 18.7534 76.4989 18.1081V17.9266C76.4989 17.2893 76.6239 16.7408 76.874 16.281C77.124 15.8212 77.4588 15.4703 77.8783 15.2283C78.2977 14.9863 78.7575 14.8653 79.2577 14.8653C79.6449 14.8653 79.9675 14.9137 80.2257 15.0105C80.4919 15.1073 80.7097 15.2323 80.8791 15.3856C81.0485 15.5308 81.1775 15.6841 81.2663 15.8454H81.4599V12.53H82.7062V21H81.4841V20.153H81.2905C81.1372 20.4111 80.9033 20.6451 80.5887 20.8548C80.2821 21.0645 79.8385 21.1694 79.2577 21.1694ZM79.6086 20.0804C80.149 20.0804 80.5927 19.907 80.9396 19.5601C81.2945 19.2132 81.472 18.7171 81.472 18.0718V17.9629C81.472 17.3256 81.2985 16.8336 80.9517 16.4867C80.6048 16.1398 80.1571 15.9664 79.6086 15.9664C79.0762 15.9664 78.6325 16.1398 78.2776 16.4867C77.9307 16.8336 77.7573 17.3256 77.7573 17.9629V18.0718C77.7573 18.7171 77.9307 19.2132 78.2776 19.5601C78.6325 19.907 79.0762 20.0804 79.6086 20.0804ZM90.7346 21.1694C89.7021 21.1694 88.8833 20.879 88.2783 20.2982C87.6733 19.7093 87.3708 18.8623 87.3708 17.7572V15.7728C87.3708 14.6677 87.6733 13.8247 88.2783 13.2439C88.8833 12.655 89.7021 12.3606 90.7346 12.3606C91.751 12.3606 92.5335 12.6429 93.082 13.2076C93.6386 13.7723 93.9169 14.5426 93.9169 15.5187V15.5913H92.6222V15.4824C92.6222 14.9097 92.4649 14.4418 92.1503 14.0788C91.8438 13.7158 91.3719 13.5343 90.7346 13.5343C90.0893 13.5343 89.5851 13.7319 89.2221 14.1272C88.8591 14.5144 88.6776 15.0549 88.6776 15.7486V17.7814C88.6776 18.4671 88.8591 19.0075 89.2221 19.4028C89.5851 19.7981 90.0893 19.9957 90.7346 19.9957C91.3719 19.9957 91.8438 19.8142 92.1503 19.4512C92.4649 19.0801 92.6222 18.6123 92.6222 18.0476V17.8419H93.9169V18.0113C93.9169 18.9874 93.6386 19.7577 93.082 20.3224C92.5335 20.8871 91.751 21.1694 90.7346 21.1694ZM98.1952 21.1694C97.5983 21.1694 97.0659 21.0484 96.598 20.8064C96.1382 20.5563 95.7752 20.2014 95.509 19.7416C95.2428 19.2818 95.1097 18.7373 95.1097 18.1081V17.9266C95.1097 17.2974 95.2428 16.7569 95.509 16.3052C95.7752 15.8454 96.1382 15.4905 96.598 15.2404C97.0659 14.9903 97.5983 14.8653 98.1952 14.8653C98.7922 14.8653 99.3246 14.9903 99.7924 15.2404C100.26 15.4905 100.627 15.8454 100.894 16.3052C101.16 16.7569 101.293 17.2974 101.293 17.9266V18.1081C101.293 18.7373 101.16 19.2818 100.894 19.7416C100.627 20.2014 100.26 20.5563 99.7924 20.8064C99.3246 21.0484 98.7922 21.1694 98.1952 21.1694ZM98.1952 20.0562C98.7438 20.0562 99.1874 19.8828 99.5262 19.5359C99.8731 19.181 100.047 18.6929 100.047 18.0718V17.9629C100.047 17.3418 99.8771 16.8578 99.5383 16.5109C99.1995 16.156 98.7518 15.9785 98.1952 15.9785C97.6548 15.9785 97.2111 16.156 96.8642 16.5109C96.5254 16.8578 96.356 17.3418 96.356 17.9629V18.0718C96.356 18.6929 96.5254 19.181 96.8642 19.5359C97.2111 19.8828 97.6548 20.0562 98.1952 20.0562ZM102.844 21V15.0347H104.067V15.7365H104.26C104.373 15.5268 104.555 15.3412 104.805 15.1799C105.055 15.0186 105.394 14.9379 105.821 14.9379C106.265 14.9379 106.62 15.0307 106.886 15.2162C107.16 15.3937 107.366 15.6236 107.503 15.9059H107.697C107.834 15.6316 108.031 15.4017 108.289 15.2162C108.556 15.0307 108.931 14.9379 109.415 14.9379C109.802 14.9379 110.145 15.0186 110.443 15.1799C110.742 15.3332 110.98 15.5671 111.157 15.8817C111.335 16.1882 111.423 16.5714 111.423 17.0312V21H110.177V17.128C110.177 16.765 110.076 16.4867 109.875 16.2931C109.681 16.0914 109.403 15.9906 109.04 15.9906C108.652 15.9906 108.342 16.1156 108.108 16.3657C107.874 16.6158 107.757 16.9747 107.757 17.4426V21H106.511V17.128C106.511 16.765 106.41 16.4867 106.208 16.2931C106.015 16.0914 105.736 15.9906 105.373 15.9906C104.986 15.9906 104.676 16.1156 104.442 16.3657C104.208 16.6158 104.091 16.9747 104.091 17.4426V21H102.844ZM113.219 21V15.0347H114.441V15.7365H114.635C114.748 15.5268 114.929 15.3412 115.179 15.1799C115.43 15.0186 115.768 14.9379 116.196 14.9379C116.64 14.9379 116.994 15.0307 117.261 15.2162C117.535 15.3937 117.741 15.6236 117.878 15.9059H118.071C118.208 15.6316 118.406 15.4017 118.664 15.2162C118.93 15.0307 119.306 14.9379 119.79 14.9379C120.177 14.9379 120.52 15.0186 120.818 15.1799C121.117 15.3332 121.354 15.5671 121.532 15.8817C121.709 16.1882 121.798 16.5714 121.798 17.0312V21H120.552V17.128C120.552 16.765 120.451 16.4867 120.249 16.2931C120.056 16.0914 119.777 15.9906 119.414 15.9906C119.027 15.9906 118.717 16.1156 118.483 16.3657C118.249 16.6158 118.132 16.9747 118.132 17.4426V21H116.886V17.128C116.886 16.765 116.785 16.4867 116.583 16.2931C116.389 16.0914 116.111 15.9906 115.748 15.9906C115.361 15.9906 115.05 16.1156 114.816 16.3657C114.583 16.6158 114.466 16.9747 114.466 17.4426V21H113.219ZM125.786 21.1089C125.335 21.1089 124.931 21.0081 124.576 20.8064C124.221 20.6047 123.943 20.3184 123.742 19.9473C123.54 19.5762 123.439 19.1326 123.439 18.6163V15.0347H124.685V18.5316C124.685 19.0479 124.814 19.431 125.073 19.6811C125.331 19.9231 125.69 20.0441 126.149 20.0441C126.658 20.0441 127.065 19.8747 127.372 19.5359C127.686 19.189 127.843 18.6929 127.843 18.0476V15.0347H129.09V21H127.868V20.1046H127.674C127.561 20.3466 127.359 20.5765 127.069 20.7943C126.779 21.004 126.351 21.1089 125.786 21.1089ZM130.932 21V15.0347H132.154V15.9301H132.348C132.461 15.6881 132.662 15.4622 132.953 15.2525C133.243 15.0428 133.675 14.9379 134.247 14.9379C134.699 14.9379 135.098 15.0387 135.445 15.2404C135.8 15.4421 136.079 15.7284 136.28 16.0995C136.482 16.4625 136.583 16.9021 136.583 17.4184V21H135.336V17.5152C135.336 16.9989 135.207 16.6198 134.949 16.3778C134.691 16.1277 134.336 16.0027 133.884 16.0027C133.368 16.0027 132.953 16.1721 132.638 16.5109C132.332 16.8497 132.178 17.3418 132.178 17.9871V21H130.932ZM138.376 21V15.0347H139.623V21H138.376ZM139.006 14.224C138.764 14.224 138.558 14.1474 138.388 13.9941C138.227 13.8328 138.146 13.6271 138.146 13.377C138.146 13.1269 138.227 12.9253 138.388 12.772C138.558 12.6107 138.764 12.53 139.006 12.53C139.256 12.53 139.461 12.6107 139.623 12.772C139.784 12.9253 139.865 13.1269 139.865 13.377C139.865 13.6271 139.784 13.8328 139.623 13.9941C139.461 14.1474 139.256 14.224 139.006 14.224ZM143.711 21C143.348 21 143.057 20.8911 142.84 20.6733C142.63 20.4555 142.525 20.1651 142.525 19.8021V16.0874H140.879V15.0347H142.525V13.0624H143.771V15.0347H145.55V16.0874H143.771V19.5843C143.771 19.8263 143.884 19.9473 144.11 19.9473H145.356V21H143.711ZM147.704 23.42V22.331H151.031C151.257 22.331 151.37 22.21 151.37 21.968V20.1288H151.177C151.104 20.2901 150.991 20.4474 150.838 20.6007C150.693 20.7459 150.495 20.8669 150.245 20.9637C149.995 21.0605 149.68 21.1089 149.301 21.1089C148.849 21.1089 148.446 21.0081 148.091 20.8064C147.736 20.6047 147.458 20.3184 147.256 19.9473C147.055 19.5762 146.954 19.1366 146.954 18.6284V15.0347H148.2V18.5316C148.2 19.0479 148.329 19.431 148.587 19.6811C148.845 19.9231 149.204 20.0441 149.664 20.0441C150.172 20.0441 150.58 19.8747 150.886 19.5359C151.201 19.1971 151.358 18.705 151.358 18.0597V15.0347H152.604V22.2221C152.604 22.5851 152.495 22.8755 152.278 23.0933C152.068 23.3111 151.778 23.42 151.406 23.42H147.704Z" fill="black"/>
<path d="M240 11.6665V23.3332M234.167 17.4998H245.833" stroke="#1E1E1E" stroke-width="2" stroke-linecap="round" stroke-linejoin="round"/>
</svg>
