<svg width="280" height="35" viewBox="0 0 280 35" fill="none" xmlns="http://www.w3.org/2000/svg">
<path d="M61.109 21V12.53H62.4158V16.16H65.9732V12.53H67.28V21H65.9732V17.3458H62.4158V21H61.109ZM71.881 21.1694C71.2841 21.1694 70.7517 21.0484 70.2838 20.8064C69.824 20.5563 69.461 20.2014 69.1948 19.7416C68.9286 19.2818 68.7955 18.7373 68.7955 18.1081V17.9266C68.7955 17.2974 68.9286 16.7569 69.1948 16.3052C69.461 15.8454 69.824 15.4905 70.2838 15.2404C70.7517 14.9903 71.2841 14.8653 71.881 14.8653C72.4779 14.8653 73.0103 14.9903 73.4782 15.2404C73.9461 15.4905 74.3131 15.8454 74.5793 16.3052C74.8455 16.7569 74.9786 17.2974 74.9786 17.9266V18.1081C74.9786 18.7373 74.8455 19.2818 74.5793 19.7416C74.3131 20.2014 73.9461 20.5563 73.4782 20.8064C73.0103 21.0484 72.4779 21.1694 71.881 21.1694ZM71.881 20.0562C72.4295 20.0562 72.8732 19.8828 73.212 19.5359C73.5589 19.181 73.7323 18.6929 73.7323 18.0718V17.9629C73.7323 17.3418 73.5629 16.8578 73.2241 16.5109C72.8853 16.156 72.4376 15.9785 71.881 15.9785C71.3405 15.9785 70.8969 16.156 70.55 16.5109C70.2112 16.8578 70.0418 17.3418 70.0418 17.9629V18.0718C70.0418 18.6929 70.2112 19.181 70.55 19.5359C70.8969 19.8828 71.3405 20.0562 71.881 20.0562ZM76.5302 21V15.0347H77.7523V15.9301H77.9459C78.0589 15.6881 78.2605 15.4622 78.5509 15.2525C78.8413 15.0428 79.2729 14.9379 79.8456 14.9379C80.2974 14.9379 80.6967 15.0387 81.0435 15.2404C81.3985 15.4421 81.6768 15.7284 81.8784 16.0995C82.0801 16.4625 82.1809 16.9021 82.1809 17.4184V21H80.9346V17.5152C80.9346 16.9989 80.8056 16.6198 80.5474 16.3778C80.2893 16.1277 79.9344 16.0027 79.4826 16.0027C78.9664 16.0027 78.5509 16.1721 78.2363 16.5109C77.9298 16.8497 77.7765 17.3418 77.7765 17.9871V21H76.5302ZM83.6842 18.0476V17.8661C83.6842 17.2369 83.8092 16.7005 84.0593 16.2568C84.3174 15.8131 84.6562 15.4703 85.0757 15.2283C85.4951 14.9863 85.9549 14.8653 86.4551 14.8653C87.0359 14.8653 87.4795 14.9742 87.7861 15.192C88.1007 15.4098 88.3306 15.6437 88.4758 15.8938H88.6694V15.0347H89.8794V22.2221C89.8794 22.5851 89.7705 22.8755 89.5527 23.0933C89.3429 23.3111 89.0525 23.42 88.6815 23.42H84.6643V22.331H88.2943C88.5282 22.331 88.6452 22.21 88.6452 21.968V20.0683H88.4516C88.3628 20.2135 88.2378 20.3627 88.0765 20.516C87.9151 20.6693 87.7014 20.7943 87.4352 20.8911C87.177 20.9879 86.8503 21.0363 86.4551 21.0363C85.9549 21.0363 85.4911 20.9193 85.0636 20.6854C84.6441 20.4434 84.3093 20.1006 84.0593 19.6569C83.8092 19.2052 83.6842 18.6687 83.6842 18.0476ZM86.7939 19.9473C87.3343 19.9473 87.778 19.7779 88.1249 19.4391C88.4798 19.0922 88.6573 18.6163 88.6573 18.0113V17.9024C88.6573 17.2813 88.4838 16.8053 88.137 16.4746C87.7901 16.1358 87.3424 15.9664 86.7939 15.9664C86.2615 15.9664 85.8178 16.1358 85.4629 16.4746C85.116 16.8053 84.9426 17.2813 84.9426 17.9024V18.0113C84.9426 18.6163 85.116 19.0922 85.4629 19.4391C85.8178 19.7779 86.2615 19.9473 86.7939 19.9473ZM94.7621 21V12.53H96.0689V16.0511H96.2625L99.4206 12.53H101.127L97.3031 16.7045L101.26 21H99.5053L96.2625 17.4063H96.0689V21H94.7621ZM104.861 21.1694C104.264 21.1694 103.731 21.0484 103.263 20.8064C102.804 20.5563 102.441 20.2014 102.174 19.7416C101.908 19.2818 101.775 18.7373 101.775 18.1081V17.9266C101.775 17.2974 101.908 16.7569 102.174 16.3052C102.441 15.8454 102.804 15.4905 103.263 15.2404C103.731 14.9903 104.264 14.8653 104.861 14.8653C105.458 14.8653 105.99 14.9903 106.458 15.2404C106.926 15.4905 107.293 15.8454 107.559 16.3052C107.825 16.7569 107.958 17.2974 107.958 17.9266V18.1081C107.958 18.7373 107.825 19.2818 107.559 19.7416C107.293 20.2014 106.926 20.5563 106.458 20.8064C105.99 21.0484 105.458 21.1694 104.861 21.1694ZM104.861 20.0562C105.409 20.0562 105.853 19.8828 106.192 19.5359C106.538 19.181 106.712 18.6929 106.712 18.0718V17.9629C106.712 17.3418 106.542 16.8578 106.204 16.5109C105.865 16.156 105.417 15.9785 104.861 15.9785C104.32 15.9785 103.876 16.156 103.53 16.5109C103.191 16.8578 103.021 17.3418 103.021 17.9629V18.0718C103.021 18.6929 103.191 19.181 103.53 19.5359C103.876 19.8828 104.32 20.0562 104.861 20.0562ZM109.51 21V15.0347H110.732V15.9301H110.926C111.038 15.6881 111.24 15.4622 111.531 15.2525C111.821 15.0428 112.252 14.9379 112.825 14.9379C113.277 14.9379 113.676 15.0387 114.023 15.2404C114.378 15.4421 114.656 15.7284 114.858 16.0995C115.06 16.4625 115.161 16.9021 115.161 17.4184V21H113.914V17.5152C113.914 16.9989 113.785 16.6198 113.527 16.3778C113.269 16.1277 112.914 16.0027 112.462 16.0027C111.946 16.0027 111.531 16.1721 111.216 16.5109C110.909 16.8497 110.756 17.3418 110.756 17.9871V21H109.51ZM116.664 18.0476V17.8661C116.664 17.2369 116.789 16.7005 117.039 16.2568C117.297 15.8131 117.636 15.4703 118.055 15.2283C118.475 14.9863 118.935 14.8653 119.435 14.8653C120.015 14.8653 120.459 14.9742 120.766 15.192C121.08 15.4098 121.31 15.6437 121.455 15.8938H121.649V15.0347H122.859V22.2221C122.859 22.5851 122.75 22.8755 122.532 23.0933C122.323 23.3111 122.032 23.42 121.661 23.42H117.644V22.331H121.274C121.508 22.331 121.625 22.21 121.625 21.968V20.0683H121.431C121.342 20.2135 121.217 20.3627 121.056 20.516C120.895 20.6693 120.681 20.7943 120.415 20.8911C120.157 20.9879 119.83 21.0363 119.435 21.0363C118.935 21.0363 118.471 20.9193 118.043 20.6854C117.624 20.4434 117.289 20.1006 117.039 19.6569C116.789 19.2052 116.664 18.6687 116.664 18.0476ZM119.773 19.9473C120.314 19.9473 120.758 19.7779 121.104 19.4391C121.459 19.0922 121.637 18.6163 121.637 18.0113V17.9024C121.637 17.2813 121.463 16.8053 121.117 16.4746C120.77 16.1358 120.322 15.9664 119.773 15.9664C119.241 15.9664 118.797 16.1358 118.442 16.4746C118.096 16.8053 117.922 17.2813 117.922 17.9024V18.0113C117.922 18.6163 118.096 19.0922 118.442 19.4391C118.797 19.7779 119.241 19.9473 119.773 19.9473Z" fill="black"/>
<path d="M146.75 6.25C140.537 6.25 135.5 11.287 135.5 17.5C135.5 23.713 140.537 28.75 146.75 28.75C152.963 28.75 158 23.713 158 17.5C158 11.287 152.963 6.25 146.75 6.25ZM151.232 16.8359C150.824 16.8209 150.202 17.284 149.794 17.2697C148.855 17.2386 148.56 16.6784 147.839 16.6529C147.206 16.6307 146.771 16.9829 146.439 17.5217C147.987 17.0916 149.601 17.9699 150.044 19.4879C150.489 21.0085 149.592 22.594 148.041 23.0312C148.041 23.0312 148.841 22.6484 148.586 21.7769C148.473 21.3929 147.832 20.9556 147.719 20.5697C147.461 19.6866 147.912 19.2385 147.714 18.5579C147.539 17.9605 147.065 17.6665 146.439 17.5217C147.334 18.8324 146.979 20.6069 145.644 21.49C144.306 22.3731 142.49 22.0278 141.587 20.7164C141.587 20.7164 142.205 21.3441 142.972 20.8371C143.311 20.6144 143.537 19.8809 143.875 19.6574C144.653 19.1429 145.227 19.4271 145.826 19.03C146.351 18.6828 146.492 18.1491 146.439 17.5217C145.444 18.7622 143.611 18.9801 142.342 18.0074C141.07 17.0339 140.844 15.2343 141.838 13.9878C141.838 13.9878 141.42 14.7576 142.149 15.316C142.471 15.562 143.252 15.5463 143.573 15.7926C144.313 16.3593 144.215 16.9818 144.784 17.4179C145.284 17.8004 145.845 17.7659 146.439 17.5217C144.927 16.9769 144.149 15.3374 144.7 13.8542C145.253 12.3678 146.93 11.6013 148.446 12.142C148.446 12.142 147.569 11.9905 147.253 12.8429C147.114 13.2182 147.369 13.9412 147.23 14.3177C146.909 15.1818 146.274 15.2838 146.028 15.949C145.811 16.5329 146.018 17.0451 146.439 17.5217C146.5 15.9456 147.851 14.7137 149.46 14.7692C151.073 14.8251 152.336 16.1507 152.279 17.7321C152.279 17.7321 152.154 16.8674 151.232 16.8359Z" fill="black"/>
<path d="M237.333 12H246.667C246.9 12.0001 247.087 12.0771 247.255 12.2451C247.423 12.4131 247.5 12.6002 247.5 12.833V22.167C247.5 22.3998 247.423 22.5869 247.255 22.7549C247.087 22.9229 246.9 22.9999 246.667 23H237.333C237.1 22.9999 236.913 22.9229 236.745 22.7549C236.577 22.5869 236.5 22.3998 236.5 22.167V12.833C236.5 12.6002 236.577 12.4131 236.745 12.2451C236.913 12.0771 237.1 12.0001 237.333 12ZM236.833 22.667H247.167V12.333H236.833V22.667Z" fill="#1D1B20" stroke="black"/>
</svg>
