<svg width="280" height="35" viewBox="0 0 280 35" fill="none" xmlns="http://www.w3.org/2000/svg">
<path d="M61.3169 19.427V18.1807L65.1768 16.8618V16.6682L61.3169 15.3493V14.103L66.3989 15.9785V17.5515L61.3169 19.427ZM68.1912 21V20.0441C68.1912 19.4552 68.292 18.9712 68.4937 18.5921C68.6953 18.213 68.9817 17.9064 69.3528 17.6725C69.7319 17.4305 70.1877 17.2288 70.7201 17.0675L71.4582 16.8376C71.7889 16.7327 72.0712 16.6037 72.3052 16.4504C72.5472 16.2971 72.7327 16.1076 72.8618 15.8817C72.9908 15.6478 73.0554 15.3775 73.0554 15.071V15.0226C73.0554 14.5467 72.894 14.1756 72.5714 13.9094C72.2487 13.6351 71.8252 13.498 71.3009 13.498C70.7604 13.498 70.3208 13.6432 69.982 13.9336C69.6512 14.224 69.4859 14.6515 69.4859 15.2162V15.4098H68.2275V15.2283C68.2275 14.6152 68.3606 14.099 68.6268 13.6795C68.893 13.252 69.26 12.9253 69.7279 12.6994C70.1957 12.4735 70.7201 12.3606 71.3009 12.3606C71.8817 12.3606 72.3979 12.4695 72.8497 12.6873C73.3095 12.9051 73.6684 13.2116 73.9266 13.6069C74.1928 14.0022 74.3259 14.466 74.3259 14.9984V15.1073C74.3259 15.6558 74.217 16.1116 73.9992 16.4746C73.7814 16.8376 73.4789 17.1361 73.0917 17.37C72.7125 17.6039 72.2729 17.8016 71.7728 17.9629L71.0589 18.1807C70.6797 18.2936 70.3732 18.4187 70.1393 18.5558C69.9134 18.6849 69.744 18.8422 69.6311 19.0277C69.5262 19.2132 69.4738 19.4512 69.4738 19.7416V19.8626H74.2533V21H68.1912ZM78.7382 21.1694C77.7541 21.1694 76.9676 20.8911 76.3787 20.3345C75.7979 19.7698 75.5075 18.9228 75.5075 17.7935V15.7365C75.5075 14.6314 75.7979 13.7924 76.3787 13.2197C76.9676 12.647 77.7541 12.3606 78.7382 12.3606C79.7304 12.3606 80.5169 12.647 81.0977 13.2197C81.6866 13.7924 81.981 14.6314 81.981 15.7365V17.7935C81.981 18.9228 81.6866 19.7698 81.0977 20.3345C80.5169 20.8911 79.7304 21.1694 78.7382 21.1694ZM78.7382 20.032C79.4077 20.032 79.9038 19.8424 80.2265 19.4633C80.5492 19.0761 80.7105 18.5356 80.7105 17.8419V15.6639C80.7105 14.9702 80.5371 14.4378 80.1902 14.0667C79.8433 13.6876 79.3593 13.498 78.7382 13.498C78.109 13.498 77.625 13.6916 77.2862 14.0788C76.9474 14.4579 76.778 14.9863 76.778 15.6639V17.8419C76.778 18.5518 76.9393 19.0963 77.262 19.4754C77.5927 19.8465 78.0848 20.032 78.7382 20.032ZM84.3469 21.1573L83.5725 20.5281L90.1912 12.3727L90.9656 13.0019L84.3469 21.1573ZM89.5862 21.1331C88.9893 21.1331 88.5174 20.9677 88.1705 20.637C87.8237 20.2982 87.6502 19.8424 87.6502 19.2697V19.1971C87.6502 18.6163 87.8237 18.1605 88.1705 17.8298C88.5174 17.491 88.9893 17.3216 89.5862 17.3216C90.1751 17.3216 90.647 17.491 91.0019 17.8298C91.3569 18.1605 91.5343 18.6163 91.5343 19.1971V19.2697C91.5343 19.8424 91.3569 20.2982 91.0019 20.637C90.6551 20.9677 90.1832 21.1331 89.5862 21.1331ZM89.5862 20.2861C89.8766 20.2861 90.1025 20.1974 90.2638 20.0199C90.4332 19.8424 90.5179 19.6085 90.5179 19.3181V19.1487C90.5179 18.8502 90.4332 18.6123 90.2638 18.4348C90.1025 18.2573 89.8766 18.1686 89.5862 18.1686C89.3039 18.1686 89.078 18.2573 88.9086 18.4348C88.7473 18.6123 88.6666 18.8502 88.6666 19.1487V19.3181C88.6666 19.6085 88.7473 19.8424 88.9086 20.0199C89.078 20.1974 89.3039 20.2861 89.5862 20.2861ZM84.9519 16.2084C84.355 16.2084 83.8791 16.043 83.5241 15.7123C83.1773 15.3735 83.0038 14.9177 83.0038 14.345V14.2603C83.0038 13.6795 83.1773 13.2237 83.5241 12.893C83.8791 12.5623 84.355 12.3969 84.9519 12.3969C85.5408 12.3969 86.0087 12.5623 86.3555 12.893C86.7105 13.2237 86.8879 13.6795 86.8879 14.2603V14.345C86.8879 14.9177 86.7145 15.3735 86.3676 15.7123C86.0208 16.043 85.5489 16.2084 84.9519 16.2084ZM84.9519 15.3614C85.2343 15.3614 85.4561 15.2727 85.6174 15.0952C85.7868 14.9097 85.8715 14.6717 85.8715 14.3813V14.2119C85.8715 13.9215 85.7868 13.6876 85.6174 13.5101C85.4561 13.3326 85.2343 13.2439 84.9519 13.2439C84.6615 13.2439 84.4316 13.3326 84.2622 13.5101C84.1009 13.6876 84.0202 13.9215 84.0202 14.2119V14.3813C84.0202 14.6717 84.1009 14.9097 84.2622 15.0952C84.4316 15.2727 84.6615 15.3614 84.9519 15.3614Z" fill="black"/>
<path d="M237.333 12H246.667C246.9 12.0001 247.087 12.0771 247.255 12.2451C247.423 12.4131 247.5 12.6002 247.5 12.833V22.167C247.5 22.3998 247.423 22.5869 247.255 22.7549C247.087 22.9229 246.9 22.9999 246.667 23H237.333C237.1 22.9999 236.913 22.9229 236.745 22.7549C236.577 22.5869 236.5 22.3998 236.5 22.167V12.833C236.5 12.6002 236.577 12.4131 236.745 12.2451C236.913 12.0771 237.1 12.0001 237.333 12ZM236.833 22.667H247.167V12.333H236.833V22.667Z" fill="#1D1B20" stroke="black"/>
</svg>
