<svg width="280" height="35" viewBox="0 0 280 35" fill="none" xmlns="http://www.w3.org/2000/svg">
<path d="M63.9128 21.1694C63.2755 21.1694 62.7109 21.0565 62.2188 20.8306C61.7267 20.6047 61.3395 20.274 61.0572 19.8384C60.7829 19.3947 60.6458 18.8583 60.6458 18.2291V17.9266H61.9405V18.2291C61.9405 18.826 62.118 19.2737 62.4729 19.5722C62.8359 19.8707 63.3159 20.0199 63.9128 20.0199C64.5178 20.0199 64.9736 19.8949 65.2801 19.6448C65.5866 19.3867 65.7399 19.0559 65.7399 18.6526C65.7399 18.3864 65.6673 18.1686 65.5221 17.9992C65.3769 17.8298 65.1712 17.6967 64.905 17.5999C64.6388 17.495 64.3202 17.3982 63.9491 17.3095L63.5014 17.2006C62.9609 17.0715 62.489 16.9142 62.0857 16.7287C61.6904 16.5351 61.3839 16.281 61.1661 15.9664C60.9483 15.6518 60.8394 15.2485 60.8394 14.7564C60.8394 14.2563 60.9604 13.8287 61.2024 13.4738C61.4525 13.1189 61.7953 12.8446 62.2309 12.651C62.6665 12.4574 63.1787 12.3606 63.7676 12.3606C64.3565 12.3606 64.8808 12.4614 65.3406 12.6631C65.8085 12.8648 66.1755 13.1632 66.4417 13.5585C66.7079 13.9538 66.841 14.4499 66.841 15.0468V15.4824H65.5463V15.0468C65.5463 14.6838 65.4697 14.3894 65.3164 14.1635C65.1712 13.9376 64.9655 13.7723 64.6993 13.6674C64.4331 13.5625 64.1225 13.5101 63.7676 13.5101C63.2513 13.5101 62.848 13.619 62.5576 13.8368C62.2753 14.0465 62.1341 14.341 62.1341 14.7201C62.1341 14.9782 62.1946 15.192 62.3156 15.3614C62.4447 15.5227 62.6302 15.6558 62.8722 15.7607C63.1142 15.8656 63.4167 15.9583 63.7797 16.039L64.2274 16.1479C64.7759 16.2689 65.2599 16.4262 65.6794 16.6198C66.0989 16.8053 66.4296 17.0594 66.6716 17.3821C66.9136 17.7048 67.0346 18.1202 67.0346 18.6284C67.0346 19.1366 66.9055 19.5803 66.6474 19.9594C66.3973 20.3385 66.0384 20.637 65.5705 20.8548C65.1026 21.0645 64.5501 21.1694 63.9128 21.1694ZM71.2136 21.1694C70.6409 21.1694 70.1206 21.0484 69.6527 20.8064C69.1929 20.5644 68.8259 20.2135 68.5516 19.7537C68.2854 19.2939 68.1523 18.7413 68.1523 18.096V17.9387C68.1523 17.2934 68.2854 16.7448 68.5516 16.2931C68.8259 15.8333 69.1929 15.4824 69.6527 15.2404C70.1206 14.9903 70.6409 14.8653 71.2136 14.8653C71.7864 14.8653 72.2744 14.9702 72.6777 15.1799C73.0811 15.3896 73.4037 15.6679 73.6457 16.0148C73.8958 16.3617 74.0571 16.7448 74.1297 17.1643L72.9197 17.4184C72.8794 17.1522 72.7947 16.9102 72.6656 16.6924C72.5366 16.4746 72.3551 16.3012 72.1211 16.1721C71.8872 16.043 71.5928 15.9785 71.2378 15.9785C70.891 15.9785 70.5764 16.0592 70.294 16.2205C70.0198 16.3738 69.802 16.5996 69.6406 16.8981C69.4793 17.1885 69.3986 17.5434 69.3986 17.9629V18.0718C69.3986 18.4913 69.4793 18.8502 69.6406 19.1487C69.802 19.4472 70.0198 19.673 70.294 19.8263C70.5764 19.9796 70.891 20.0562 71.2378 20.0562C71.7622 20.0562 72.1615 19.9231 72.4357 19.6569C72.71 19.3826 72.8834 19.0358 72.956 18.6163L74.166 18.8946C74.0692 19.306 73.8958 19.6851 73.6457 20.032C73.4037 20.3789 73.0811 20.6572 72.6777 20.8669C72.2744 21.0686 71.7864 21.1694 71.2136 21.1694ZM75.6035 21V12.53H76.8498V15.8817H77.0434C77.1241 15.7284 77.237 15.5792 77.3822 15.434C77.5355 15.2888 77.7331 15.1718 77.9751 15.0831C78.2252 14.9863 78.5398 14.9379 78.9189 14.9379C79.3706 14.9379 79.7699 15.0387 80.1168 15.2404C80.4717 15.4421 80.75 15.7284 80.9517 16.0995C81.1534 16.4625 81.2542 16.9021 81.2542 17.4184V21H80.0079V17.5152C80.0079 16.9989 79.8788 16.6198 79.6207 16.3778C79.3626 16.1277 79.0076 16.0027 78.5559 16.0027C78.0396 16.0027 77.6242 16.1721 77.3096 16.5109C77.0031 16.8497 76.8498 17.3418 76.8498 17.9871V21H75.6035ZM85.8429 21.1694C85.246 21.1694 84.7136 21.0484 84.2457 20.8064C83.7859 20.5563 83.4229 20.2014 83.1567 19.7416C82.8905 19.2818 82.7574 18.7373 82.7574 18.1081V17.9266C82.7574 17.2974 82.8905 16.7569 83.1567 16.3052C83.4229 15.8454 83.7859 15.4905 84.2457 15.2404C84.7136 14.9903 85.246 14.8653 85.8429 14.8653C86.4399 14.8653 86.9723 14.9903 87.4401 15.2404C87.908 15.4905 88.275 15.8454 88.5412 16.3052C88.8074 16.7569 88.9405 17.2974 88.9405 17.9266V18.1081C88.9405 18.7373 88.8074 19.2818 88.5412 19.7416C88.275 20.2014 87.908 20.5563 87.4401 20.8064C86.9723 21.0484 86.4399 21.1694 85.8429 21.1694ZM85.8429 20.0562C86.3915 20.0562 86.8351 19.8828 87.1739 19.5359C87.5208 19.181 87.6942 18.6929 87.6942 18.0718V17.9629C87.6942 17.3418 87.5248 16.8578 87.186 16.5109C86.8472 16.156 86.3995 15.9785 85.8429 15.9785C85.3025 15.9785 84.8588 16.156 84.5119 16.5109C84.1731 16.8578 84.0037 17.3418 84.0037 17.9629V18.0718C84.0037 18.6929 84.1731 19.181 84.5119 19.5359C84.8588 19.8828 85.3025 20.0562 85.8429 20.0562ZM90.4922 21V12.53H91.7385V21H90.4922ZM95.4394 21.1694C95.0118 21.1694 94.6287 21.0968 94.2899 20.9516C93.9591 20.8064 93.6929 20.5926 93.4913 20.3103C93.2977 20.028 93.2009 19.6851 93.2009 19.2818C93.2009 18.8704 93.2977 18.5316 93.4913 18.2654C93.6929 17.9911 93.9632 17.7854 94.302 17.6483C94.6488 17.5112 95.0401 17.4426 95.4757 17.4426H97.2907V17.0554C97.2907 16.7085 97.1858 16.4302 96.9761 16.2205C96.7663 16.0108 96.4437 15.9059 96.0081 15.9059C95.5805 15.9059 95.2538 16.0067 95.028 16.2084C94.8021 16.4101 94.6529 16.6722 94.5803 16.9949L93.4187 16.6198C93.5155 16.2971 93.6687 16.0067 93.8785 15.7486C94.0963 15.4824 94.3826 15.2686 94.7376 15.1073C95.0925 14.946 95.52 14.8653 96.0202 14.8653C96.7946 14.8653 97.4036 15.0629 97.8473 15.4582C98.2909 15.8535 98.5128 16.4141 98.5128 17.1401V19.5964C98.5128 19.8384 98.6257 19.9594 98.8516 19.9594H99.3598V21H98.4281C98.1457 21 97.9158 20.9274 97.7384 20.7822C97.5609 20.637 97.4722 20.4394 97.4722 20.1893V20.153H97.2907C97.2261 20.274 97.1293 20.4152 97.0003 20.5765C96.8712 20.7378 96.6816 20.879 96.4316 21C96.1815 21.1129 95.8508 21.1694 95.4394 21.1694ZM95.6209 20.1409C96.121 20.1409 96.5243 19.9997 96.8309 19.7174C97.1374 19.427 97.2907 19.0317 97.2907 18.5316V18.4106H95.5483C95.2175 18.4106 94.9513 18.4832 94.7497 18.6284C94.548 18.7655 94.4472 18.9712 94.4472 19.2455C94.4472 19.5198 94.552 19.7376 94.7618 19.8989C94.9715 20.0602 95.2579 20.1409 95.6209 20.1409ZM100.572 21V15.0347H101.794V15.7365H101.987C102.084 15.4864 102.237 15.3049 102.447 15.192C102.665 15.071 102.931 15.0105 103.246 15.0105H103.96V16.1358H103.197C102.794 16.1358 102.463 16.2487 102.205 16.4746C101.947 16.6924 101.818 17.0312 101.818 17.491V21H100.572ZM107.565 21.1694C106.807 21.1694 106.178 21 105.677 20.6612C105.177 20.3224 104.871 19.8102 104.758 19.1245L105.919 18.8462C105.984 19.1769 106.093 19.4391 106.246 19.6327C106.399 19.8263 106.589 19.9634 106.815 20.0441C107.049 20.1248 107.299 20.1651 107.565 20.1651C107.96 20.1651 108.263 20.0885 108.473 19.9352C108.69 19.7819 108.799 19.5843 108.799 19.3423C108.799 19.1003 108.698 18.9228 108.497 18.8099C108.295 18.697 107.997 18.6042 107.601 18.5316L107.19 18.459C106.787 18.3864 106.42 18.2815 106.089 18.1444C105.758 18.0073 105.496 17.8177 105.302 17.5757C105.109 17.3337 105.012 17.0231 105.012 16.644C105.012 16.0793 105.222 15.6437 105.641 15.3372C106.061 15.0226 106.617 14.8653 107.311 14.8653C107.981 14.8653 108.529 15.0186 108.957 15.3251C109.392 15.6236 109.675 16.0309 109.804 16.5472L108.642 16.8739C108.569 16.5109 108.416 16.2568 108.182 16.1116C107.948 15.9583 107.658 15.8817 107.311 15.8817C106.972 15.8817 106.706 15.9462 106.512 16.0753C106.319 16.1963 106.222 16.3697 106.222 16.5956C106.222 16.8376 106.315 17.0151 106.5 17.128C106.694 17.2409 106.952 17.3256 107.275 17.3821L107.698 17.4547C108.126 17.5273 108.517 17.6281 108.872 17.7572C109.227 17.8863 109.505 18.0718 109.707 18.3138C109.917 18.5558 110.021 18.8785 110.021 19.2818C110.021 19.8787 109.8 20.3426 109.356 20.6733C108.912 21.004 108.315 21.1694 107.565 21.1694ZM111.478 21V12.53H112.724V15.8817H112.918C112.999 15.7284 113.112 15.5792 113.257 15.434C113.41 15.2888 113.608 15.1718 113.85 15.0831C114.1 14.9863 114.414 14.9379 114.793 14.9379C115.245 14.9379 115.645 15.0387 115.991 15.2404C116.346 15.4421 116.625 15.7284 116.826 16.0995C117.028 16.4625 117.129 16.9021 117.129 17.4184V21H115.882V17.5152C115.882 16.9989 115.753 16.6198 115.495 16.3778C115.237 16.1277 114.882 16.0027 114.43 16.0027C113.914 16.0027 113.499 16.1721 113.184 16.5109C112.878 16.8497 112.724 17.3418 112.724 17.9871V21H111.478ZM118.922 21V15.0347H120.169V21H118.922ZM119.552 14.224C119.31 14.224 119.104 14.1474 118.935 13.9941C118.773 13.8328 118.693 13.6271 118.693 13.377C118.693 13.1269 118.773 12.9253 118.935 12.772C119.104 12.6107 119.31 12.53 119.552 12.53C119.802 12.53 120.007 12.6107 120.169 12.772C120.33 12.9253 120.411 13.1269 120.411 13.377C120.411 13.6271 120.33 13.8328 120.169 13.9941C120.007 14.1474 119.802 14.224 119.552 14.224ZM122.018 23.42V15.0347H123.24V15.8938H123.434C123.587 15.6276 123.817 15.3896 124.124 15.1799C124.438 14.9702 124.886 14.8653 125.467 14.8653C125.967 14.8653 126.423 14.9863 126.834 15.2283C127.254 15.4703 127.588 15.8212 127.838 16.281C128.097 16.7327 128.226 17.2813 128.226 17.9266V18.1081C128.226 18.7534 128.101 19.306 127.851 19.7658C127.6 20.2175 127.266 20.5644 126.846 20.8064C126.427 21.0484 125.967 21.1694 125.467 21.1694C125.08 21.1694 124.753 21.121 124.487 21.0242C124.221 20.9274 124.007 20.8064 123.845 20.6612C123.684 20.5079 123.555 20.3506 123.458 20.1893H123.265V23.42H122.018ZM125.104 20.0804C125.652 20.0804 126.1 19.907 126.447 19.5601C126.794 19.2132 126.967 18.7171 126.967 18.0718V17.9629C126.967 17.3256 126.79 16.8336 126.435 16.4867C126.088 16.1398 125.644 15.9664 125.104 15.9664C124.571 15.9664 124.128 16.1398 123.773 16.4867C123.426 16.8336 123.253 17.3256 123.253 17.9629V18.0718C123.253 18.7171 123.426 19.2132 123.773 19.5601C124.128 19.907 124.571 20.0804 125.104 20.0804Z" fill="black"/>
<g clip-path="url(#clip0_396_485)">
<path d="M157.482 20.3796V16.3461L157.734 16.2134C157.897 16.1284 158 15.9598 158.002 15.7754C158.004 15.5913 157.904 15.4208 157.743 15.3321L150.22 11.3071C150.07 11.2246 149.888 11.2251 149.736 11.3086L142.255 15.3386C142.096 15.4274 141.997 15.5958 141.998 15.7786C141.999 15.9614 142.1 16.1286 142.261 16.2156L145.548 17.9654C145.507 18.0381 145.482 18.1211 145.482 18.2106V22.4416C145.482 22.5122 145.496 22.5819 145.525 22.6463C145.554 22.7107 145.596 22.7682 145.649 22.8151C145.758 22.9114 146.797 23.7541 149.973 23.7541C153.139 23.7541 154.206 22.9576 154.317 22.8669C154.433 22.7721 154.501 22.6301 154.501 22.4796V18.1401C154.501 18.0699 154.486 18.0031 154.46 17.9426L156.482 16.8744V20.3824C156.186 20.5559 155.985 20.8741 155.985 21.2421C155.985 21.7944 156.432 22.2421 156.985 22.2421C157.537 22.2421 157.985 21.7944 157.985 21.2421C157.985 20.8719 157.781 20.5524 157.482 20.3796ZM153.5 22.1931C153.107 22.3821 152.067 22.7541 149.973 22.7541C147.866 22.7541 146.849 22.3581 146.481 22.1676V18.4624L149.728 20.1909C149.801 20.2303 149.883 20.2509 149.966 20.2509C150.046 20.2509 150.126 20.2313 150.197 20.1936L153.5 18.4489V22.1931ZM149.97 19.1844L143.538 15.7694L149.981 12.3166L156.443 15.7594L149.97 19.1844Z" fill="black"/>
</g>
<path d="M237.333 12H246.667C246.9 12.0001 247.087 12.0771 247.255 12.2451C247.423 12.4131 247.5 12.6002 247.5 12.833V22.167C247.5 22.3998 247.423 22.5869 247.255 22.7549C247.087 22.9229 246.9 22.9999 246.667 23H237.333C237.1 22.9999 236.913 22.9229 236.745 22.7549C236.577 22.5869 236.5 22.3998 236.5 22.167V12.833C236.5 12.6002 236.577 12.4131 236.745 12.2451C236.913 12.0771 237.1 12.0001 237.333 12ZM236.833 22.667H247.167V12.333H236.833V22.667Z" fill="#1D1B20" stroke="black"/>
<defs>
<clipPath id="clip0_396_485">
<rect width="16" height="16" fill="white" transform="translate(142 9.5)"/>
</clipPath>
</defs>
</svg>
