<?xml version="1.0" encoding="UTF-8"?>
<svg version="1.1" xmlns="http://www.w3.org/2000/svg" width="1400" height="1356">
<path d="M0 0 C462 0 924 0 1400 0 C1400 447.48 1400 894.96 1400 1356 C938 1356 476 1356 0 1356 C0 908.52 0 461.04 0 0 Z " fill="#EA4359" transform="translate(0,0)"/>
<path d="M0 0 C2.64776619 -0.00435287 5.29552115 -0.00947456 7.94328308 -0.01548767 C14.36267267 -0.02817169 20.7820203 -0.03003613 27.20142031 -0.02768741 C32.42735984 -0.02589636 37.65328675 -0.02767067 42.87922478 -0.03191185 C43.62616299 -0.03250704 44.37310121 -0.03310223 45.14267392 -0.03371545 C46.66067609 -0.03492736 48.17867825 -0.03614149 49.69668042 -0.03735783 C63.9021211 -0.04820993 78.10753799 -0.04608243 92.31297999 -0.03997298 C105.26331871 -0.03481058 118.21358205 -0.04604555 131.16390587 -0.0650712 C144.506514 -0.08452062 157.84908661 -0.09269292 171.19170898 -0.08894795 C178.66431054 -0.08704604 186.13684806 -0.0894236 193.60943794 -0.10366249 C199.97398773 -0.11566858 206.33843409 -0.11687951 212.70298553 -0.10487232 C215.94011216 -0.09904637 219.17701475 -0.0993822 222.41413498 -0.10987473 C240.83059109 -0.16521346 259.85133901 0.02538193 277.40014648 6.3371582 C278.2522168 6.63388428 279.10428711 6.93061035 279.98217773 7.23632812 C294.70798284 12.5831331 307.8589431 20.13528952 319.77514648 30.2746582 C321.11125977 31.38454102 321.11125977 31.38454102 322.47436523 32.5168457 C344.6834925 51.63097974 359.7219436 80.32518894 363.77514648 109.2746582 C363.92784543 112.24272039 363.9423648 115.20736689 363.95214844 118.17895508 C363.96200523 119.49252991 363.96200523 119.49252991 363.97206116 120.8326416 C363.99170568 123.71956485 364.00343958 126.60643617 364.01342773 129.4934082 C364.01750326 130.4854274 364.02157879 131.47744659 364.02577782 132.49952698 C364.04660507 137.75464669 364.0609189 143.00974058 364.0703125 148.26489258 C364.08134489 153.66003602 364.11571794 159.05476342 364.1554842 164.44976044 C364.1817857 168.62626853 364.19001648 172.8026797 364.19359398 176.97926331 C364.19842827 178.96613868 364.20995064 180.95301065 364.22863197 182.93980408 C364.4075153 203.23218012 360.82515762 220.83235674 346.20092773 235.99731445 C333.90229897 247.54337012 317.78151977 254.47881635 300.77514648 254.2746582 C300.57707348 268.85424702 300.46204358 283.43262358 300.44092751 298.01358032 C300.42926494 304.78690355 300.39230715 311.55817513 300.29174805 318.33081055 C300.19712319 324.88687911 300.17306604 331.43999533 300.19468307 337.99667358 C300.19108805 340.47780996 300.16352389 342.95904996 300.10972977 345.43960571 C299.73398162 363.82845269 303.69914095 375.69910911 314.13717461 390.85681534 C316.32515465 394.0865362 318.22142264 397.41975581 320.11499023 400.8293457 C320.7144043 401.8812207 321.31381836 402.9330957 321.93139648 404.0168457 C322.51920898 405.05067383 323.10702148 406.08450195 323.71264648 407.1496582 C325.06465452 409.5225429 326.41779012 411.89478329 327.77124023 414.2668457 C328.10582245 414.853349 328.44040466 415.43985229 328.78512573 416.04412842 C332.26097364 422.13300939 335.76673378 428.20450331 339.27514648 434.2746582 C344.49157134 443.29996667 349.67429624 452.34393623 354.83764648 461.3996582 C360.3303687 471.0323976 365.88323547 480.62803603 371.48632812 490.19702148 C376.31325884 498.45284104 381.06024663 506.75304655 385.79364014 515.06265259 C390.44477319 523.22609091 395.14669825 531.35774309 399.90014648 539.4621582 C405.2268026 548.54880687 410.40082752 557.71257002 415.5234375 566.91552734 C420.10795487 575.13230935 424.82491669 583.26531732 429.58666992 591.38037109 C433.63345752 598.28729002 437.60093056 605.23493818 441.52514648 612.2121582 C445.55811979 619.3800889 449.64430625 626.50879517 453.83349609 633.58642578 C462.507344 648.25688017 470.97778781 663.04837375 479.33764648 677.8996582 C484.28056297 686.67875533 489.32057659 695.39688951 494.40869141 704.0925293 C504.30787419 721.0115292 514.06557278 738.01189277 523.78082275 755.03701782 C529.29559772 764.70069011 534.84570781 774.34360596 540.41186523 783.9777832 C544.70261166 791.40721517 548.96713776 798.85113715 553.2175293 806.30371094 C557.8527005 814.42453707 562.52916827 822.52134944 567.20654297 830.61791992 C571.10365035 837.36718942 574.97995366 844.12779695 578.83764648 850.8996582 C583.08009576 858.34553133 587.38290848 865.75423522 591.71264648 873.1496582 C596.30072237 880.98780457 600.82328985 888.85836389 605.27514648 896.7746582 C610.2335887 905.58975015 615.28828844 914.34376875 620.39746094 923.07226562 C624.78029633 930.56135298 629.12998994 938.06893504 633.46264648 945.5871582 C634.09033936 946.67577148 634.71803223 947.76438477 635.36474609 948.88598633 C637.70293808 952.94175234 640.04073816 956.99773823 642.37475586 961.0559082 C643.81914362 963.56723699 645.26533411 966.07751395 646.71264648 968.5871582 C647.15745361 969.35970947 647.60226074 970.13226074 648.06054688 970.92822266 C650.57789011 975.27894635 653.19483907 979.53864639 655.90014648 983.7746582 C670.7328092 1007.75615591 680.45154898 1036.97785437 680.77514648 1065.2746582 C680.80366699 1066.75240723 680.80366699 1066.75240723 680.83276367 1068.26000977 C681.81122884 1123.03801892 663.95826066 1171.96062676 625.75878906 1211.62573242 C590.39763981 1247.64296957 541.52728893 1267.29828638 491.24719429 1267.77522945 C486.16912596 1267.81247498 481.0915808 1267.80207966 476.01346144 1267.78232706 C471.9557249 1267.77109837 467.89804053 1267.78349258 463.84030807 1267.79263455 C456.75558602 1267.80544087 449.67098957 1267.80365445 442.58626747 1267.79185486 C432.05078643 1267.77435669 421.51540278 1267.78001406 410.97991646 1267.79002177 C392.15746822 1267.80715406 373.3350785 1267.80171133 354.51263152 1267.78666458 C338.04400834 1267.77358507 321.57540541 1267.76842219 305.10677719 1267.77098274 C304.01209392 1267.77114316 302.91741065 1267.77130357 301.78955516 1267.77146885 C297.34534494 1267.77213249 292.90113473 1267.77283491 288.45692453 1267.77359419 C246.81935535 1267.78060872 205.1818218 1267.76515779 163.54426168 1267.73897073 C126.58345169 1267.71584818 89.62268083 1267.71047211 52.66186523 1267.72070312 C43.19249028 1267.72330532 33.72311532 1267.72589038 24.25374031 1267.72830105 C22.50483215 1267.72874722 22.50483215 1267.72874722 20.72059251 1267.7292024 C-10.2053995 1267.73682242 -41.13138831 1267.73040074 -72.05737889 1267.71960503 C-75.38610112 1267.71845727 -78.71482336 1267.7173141 -82.0435456 1267.7161782 C-84.25153128 1267.71542296 -86.45951696 1267.71465732 -88.66750264 1267.7138812 C-105.12653258 1267.70823138 -121.58555239 1267.70954698 -138.04458237 1267.71410942 C-156.76134185 1267.71922411 -175.47806348 1267.7133334 -194.19481353 1267.69321512 C-204.65981613 1267.6822548 -215.12474427 1267.67941147 -225.58974909 1267.68850366 C-232.59004131 1267.69374335 -239.59027011 1267.68797296 -246.59054905 1267.67345031 C-250.57197035 1267.66548708 -254.55324176 1267.66205388 -258.53466199 1267.67202287 C-278.62067293 1267.71832058 -297.95182005 1266.90775866 -317.47485352 1261.7121582 C-318.87803833 1261.341875 -318.87803833 1261.341875 -320.30957031 1260.96411133 C-334.53398533 1257.00822988 -348.49443006 1251.38922804 -361.05664062 1243.60913086 C-363.5112663 1242.09837938 -366.03259576 1240.77071191 -368.59985352 1239.4621582 C-410.41068595 1216.79504961 -438.64317594 1173.2477095 -452.30688477 1128.8996582 C-452.95553825 1126.6940475 -453.59553634 1124.48586371 -454.22485352 1122.2746582 C-454.48057129 1121.3774707 -454.73628906 1120.4802832 -454.99975586 1119.5559082 C-458.73482763 1105.53518985 -458.62899357 1091.1206909 -458.72485352 1076.7121582 C-458.73565948 1075.7681012 -458.74646545 1074.82404419 -458.75759888 1073.85137939 C-459.06354387 1038.22948081 -448.19429725 1005.03454286 -428.95532227 975.1652832 C-425.32437714 969.50338059 -421.9697108 963.70765702 -418.66064453 957.85302734 C-416.91622049 954.76732935 -415.16205877 951.68717261 -413.40844727 948.60668945 C-413.05446869 947.98448517 -412.70049011 947.36228088 -412.33578491 946.72122192 C-409.00881071 940.8802786 -405.62336143 935.07424329 -402.22485352 929.2746582 C-392.09913823 911.97463034 -382.19089586 894.55042859 -372.34985352 877.0871582 C-368.35757445 870.00503466 -364.30997846 862.96195601 -360.16821289 855.96630859 C-351.2092226 840.81854211 -342.49770605 825.52330998 -333.77734375 810.23730469 C-326.68294513 797.80944484 -319.51246531 785.42523313 -312.3527832 773.03491211 C-305.22107392 760.69243578 -298.10721589 748.34015434 -291.03735352 735.9621582 C-290.69989105 735.3713446 -290.36242859 734.78053101 -290.01473999 734.17181396 C-286.68685713 728.34474438 -283.3618168 722.51606224 -280.04125977 716.68481445 C-274.90148657 707.6647106 -269.7172933 698.67303012 -264.47485352 689.7121582 C-259.3607828 680.97050856 -254.30411449 672.19742998 -249.28735352 663.3996582 C-241.03321103 648.92514662 -232.70767974 634.49243966 -224.37036133 620.06567383 C-222.5088268 616.84397545 -220.64786512 613.62194742 -218.78735352 610.3996582 C-218.17182617 609.33360352 -217.55629883 608.26754883 -216.92211914 607.16918945 C-211.97302791 598.58939133 -207.06191822 589.9882874 -202.1555481 581.3840332 C-196.80974467 572.01256662 -191.39925339 562.68027728 -185.95117188 553.36791992 C-182.39107797 547.28145662 -178.87290791 541.17453265 -175.38891602 535.04418945 C-173.08992791 531.02040064 -170.74033046 527.02647364 -168.39672852 523.02856445 C-162.90864837 513.66303637 -157.50458733 504.25932552 -152.22485352 494.7746582 C-144.25995032 480.47502353 -136.01279066 466.34660202 -127.66625977 452.2668457 C-126.79916382 450.80347778 -126.79916382 450.80347778 -125.91455078 449.31054688 C-124.83252462 447.48653311 -123.7485575 445.6636685 -122.66210938 443.84228516 C-119.59471264 438.6786925 -116.66897738 433.45653315 -113.81030273 428.17480469 C-110.87814821 422.81122853 -107.82642564 417.51564436 -104.78735352 412.2121582 C-104.09386475 411.00010885 -103.4004249 409.78803151 -102.70703125 408.57592773 C-97.10818788 398.79415122 -91.47891744 389.02993964 -85.83447266 379.27441406 C-85.2427124 378.250979 -84.65095215 377.22754395 -84.04125977 376.1730957 C-83.51991455 375.27252441 -82.99856934 374.37195313 -82.46142578 373.4440918 C-80.61081051 370.19738553 -80.09510107 368.40140919 -80.06663513 364.66830444 C-80.05684631 363.6979274 -80.0470575 362.72755035 -80.03697205 361.72776794 C-80.03121658 360.65962357 -80.02546112 359.59147919 -80.01953125 358.4909668 C-80.00963165 357.36901413 -79.99973206 356.24706146 -79.98953247 355.09111023 C-79.95784825 351.36846047 -79.93313268 347.64579793 -79.90844727 343.9230957 C-79.88788372 341.34762228 -79.86688741 338.77215229 -79.84547424 336.19668579 C-79.79584756 330.10168678 -79.75059832 324.00666956 -79.70745188 317.91162169 C-79.65809334 310.97334476 -79.60317009 304.03511541 -79.54777229 297.09688449 C-79.43392737 282.82285374 -79.3270938 268.54877655 -79.22485352 254.2746582 C-80.05022614 254.2104921 -80.87559875 254.14632599 -81.72598267 254.08021545 C-82.80793915 253.99364182 -83.88989563 253.90706818 -85.00463867 253.81787109 C-86.07751129 253.73307999 -87.15038391 253.64828888 -88.25576782 253.56092834 C-103.06868064 252.1327127 -116.73459151 244.01315852 -126.75610352 233.3137207 C-139.36874852 217.78739505 -143.01244135 201.17812465 -142.81860352 181.6652832 C-142.81688614 179.80409829 -142.81696443 177.94291095 -142.81872559 176.08172607 C-142.81708354 172.20211267 -142.79860003 168.32308485 -142.7668457 164.44360352 C-142.72728437 159.52785439 -142.72279522 154.61287286 -142.73030853 149.69699478 C-142.73341361 145.85822813 -142.721132 142.01962653 -142.70417786 138.18090057 C-142.69725863 136.37124419 -142.69400947 134.56156913 -142.69487 132.75189972 C-142.66844022 96.17642746 -131.56151867 65.14414651 -106.22485352 38.2746582 C-105.62415039 37.60950195 -105.02344727 36.9443457 -104.40454102 36.2590332 C-76.82638822 6.89009126 -38.45005897 -0.04184659 0 0 Z " fill="#000000" transform="translate(598.224853515625,36.725341796875)"/>
<path d="M0 0 C41.91 0 83.82 0 127 0 C126.8865625 19.67109375 126.773125 39.3421875 126.65625 59.609375 C126.62008236 72.10552312 126.58789721 84.60149318 126.57421875 97.09765625 C126.56681837 103.6681335 126.55841716 110.23860831 126.54833984 116.80908203 C126.5471188 117.63240206 126.54589775 118.45572208 126.54463971 119.3039912 C126.52356045 132.53636439 126.44615564 145.76782447 126.34736067 158.99981973 C126.24698428 172.61449034 126.20849348 186.22835968 126.22555113 199.84339356 C126.23338929 207.47659599 126.21374946 215.10756534 126.12312317 222.74028778 C124.32223976 265.45172566 124.32223976 265.45172566 142.20347404 302.8262167 C144.58487598 305.70769567 146.26186701 308.69874413 148 312 C149.61999357 314.81539976 151.24748304 317.62644336 152.875 320.4375 C153.3491333 321.25677979 153.8232666 322.07605957 154.31176758 322.92016602 C156.95504789 327.48350467 159.60662794 332.04183242 162.26953125 336.59375 C168.56980773 347.36392793 174.82201869 358.15928267 181 369 C186.54000518 378.72116309 192.13374816 388.4089467 197.78344727 398.06689453 C203.93766742 408.59084625 210.02369996 419.15380137 216.10888672 429.71777344 C219.23680148 435.14659942 222.36858448 440.57319281 225.5 446 C226.75001879 448.16665583 228.00001878 450.3333225 229.25 452.5 C230.178125 454.10875 230.178125 454.10875 231.125 455.75 C258 502.33333333 284.875 548.91666667 311.75 595.5 C312.3689917 596.57290283 312.9879834 597.64580566 313.62573242 598.7512207 C314.8733474 600.91378583 316.12090616 603.07638339 317.3684082 605.23901367 C320.52943449 610.71870371 323.69149309 616.19779358 326.85546875 621.67578125 C328.13288995 623.88797611 329.41023413 626.10021545 330.6875 628.3125 C331.31543457 629.40006592 331.94336914 630.48763184 332.59033203 631.6081543 C335.89273715 637.33229438 339.18086149 643.06411451 342.44946289 648.80761719 C347.99896995 658.55893461 353.6529239 668.24596567 359.34066772 677.91699219 C364.68770519 687.01249137 369.96696616 696.14383703 375.1875 705.3125 C380.66424578 714.93078152 386.1954466 724.51448827 391.78417969 734.06811523 C397.93380244 744.58431856 404.01515497 755.13955503 410.09570312 765.69580078 C412.01506662 769.02614252 413.93682353 772.35509148 415.859375 775.68359375 C421.61613159 785.65143316 427.36365676 795.6239207 433.0625 805.625 C437.84756897 814.01932313 442.70413192 822.37039647 447.58056641 830.71191406 C453.7998955 841.35565245 459.95567917 852.03571631 466.10888672 862.71777344 C468.6139981 867.06565847 471.12161102 871.41209746 473.62963867 875.75830078 C474.87113743 877.9100591 476.1121896 880.06207515 477.3527832 882.21435547 C480.25110092 887.24176193 483.15288943 892.26705292 486.06854248 897.28442383 C487.09415628 899.04975211 488.11854664 900.81578471 489.14257812 902.58203125 C490.42271466 904.7891632 491.70510666 906.99498923 492.99023438 909.19921875 C500.63184852 922.38839145 506.60342831 933.71153213 506.4375 949.25 C506.42920166 950.25780518 506.42090332 951.26561035 506.41235352 952.30395508 C506.00861388 970.21648886 498.83965334 984.52843116 486 997 C473.31735731 1008.41214948 458.29983353 1013.63484961 441.37819004 1013.50057125 C440.03789837 1013.50444906 438.69761084 1013.51007842 437.35733292 1013.51728085 C433.69168768 1013.53194944 430.02647311 1013.5219179 426.36084182 1013.50766886 C422.36630709 1013.49657963 418.37183041 1013.50878929 414.3773002 1013.51797634 C407.38204804 1013.53086445 400.38692264 1013.52893052 393.39167023 1013.51719666 C382.98937931 1013.49979574 372.58718787 1013.50532023 362.18489178 1013.51536357 C343.60518462 1013.53255038 325.02553649 1013.52701789 306.44583055 1013.51200638 C290.18578476 1013.49895374 273.92575943 1013.4937588 257.66570854 1013.49632454 C256.58706955 1013.49648495 255.50843056 1013.49664537 254.39710554 1013.49681065 C250.01852853 1013.49747424 245.63995153 1013.49817665 241.26137454 1013.49893599 C200.18725399 1013.50595996 159.11316948 1013.49046915 118.03905811 1013.46431253 C81.55052286 1013.44119915 45.06202724 1013.4358087 8.57348633 1013.44604492 C-0.76965044 1013.44864695 -10.11278721 1013.45123197 -19.45592403 1013.45364285 C-20.60618908 1013.45394029 -21.75645413 1013.45423774 -22.9415757 1013.4545442 C-53.43411488 1013.46216004 -83.92665082 1013.45574602 -114.41918856 1013.44494683 C-117.70047847 1013.44379903 -120.98176839 1013.44265585 -124.2630583 1013.44152 C-126.43976361 1013.44076475 -128.61646891 1013.43999911 -130.7931742 1013.43922299 C-147.04194374 1013.43356561 -163.29070301 1013.434894 -179.53947258 1013.43945122 C-198.01669024 1013.44455979 -216.49386952 1013.4387027 -234.97107761 1013.41855692 C-245.31083896 1013.40757331 -255.65052487 1013.40477488 -265.99028852 1013.41384545 C-272.89866028 1013.4190679 -279.80696752 1013.41335927 -286.71532574 1013.39879211 C-290.65023509 1013.39079423 -294.58499207 1013.38745545 -298.51990055 1013.39736467 C-302.10548802 1013.40629129 -305.69078345 1013.40122423 -309.27634456 1013.38538523 C-311.1610822 1013.38055084 -313.04584045 1013.39027211 -314.93055525 1013.40073386 C-325.8494694 1013.3266171 -336.37244776 1011.51247971 -346.125 1006.4375 C-346.7945874 1006.09380371 -347.4641748 1005.75010742 -348.15405273 1005.39599609 C-363.57481578 997.10629651 -372.01431885 983.71348692 -378.25 967.8125 C-383.29921164 948.87795636 -379.62395652 931.63811165 -370 915 C-367.90827178 911.38848131 -365.79986918 907.78697709 -363.6875 904.1875 C-358.40211533 895.15665597 -353.17952037 886.09178966 -348 877 C-342.39409411 867.16092533 -336.72806319 857.35910123 -331.0078125 847.5859375 C-327.30004548 841.24548659 -323.63372503 834.88314712 -320 828.5 C-315.79743363 821.11760336 -311.54103214 813.768815 -307.25 806.4375 C-302.11136558 797.65614473 -297.03702033 788.83985798 -292 780 C-286.46015296 770.27874793 -280.86625061 760.59105119 -275.21655273 750.93310547 C-270.97382733 743.67788284 -266.76000503 736.40647504 -262.5625 729.125 C-261.94052734 728.04605469 -261.31855469 726.96710937 -260.67773438 725.85546875 C-258.78470874 722.57057008 -256.89224402 719.28534897 -255 716 C-252.47990911 711.62457171 -249.95918127 707.24951193 -247.4375 702.875 C-246.82277832 701.80838135 -246.20805664 700.7417627 -245.57470703 699.64282227 C-240.66566147 691.1336808 -235.7191355 682.64671431 -230.74194336 674.17724609 C-227.52511909 668.68553254 -224.42646205 663.14402428 -221.39575195 657.54760742 C-219.46634637 654.02594445 -217.43197483 650.57317605 -215.375 647.125 C-211.60620776 640.76282379 -207.9072559 634.36439863 -204.25 627.9375 C-199.94052524 620.36931961 -195.58334655 612.83083705 -191.1875 605.3125 C-181.68178928 589.05127448 -172.26465151 572.73930065 -162.9375 556.375 C-155.21943671 542.84145974 -147.37882739 529.37800358 -139.43359375 515.9765625 C-138.5681897 514.51657837 -138.5681897 514.51657837 -137.68530273 513.02709961 C-136.60473993 511.20643817 -135.52238107 509.38684079 -134.43774414 507.56860352 C-131.35834463 502.3844883 -128.42418397 497.14027168 -125.55419922 491.83764648 C-122.80754676 486.8228269 -119.92991207 481.88393802 -117.0625 476.9375 C-116.069933 475.22118622 -115.07736813 473.50487121 -114.08493042 471.78848267 C-113.06369492 470.02265557 -112.04189741 468.25715463 -111.02001953 466.49169922 C-107.84080006 460.9978601 -104.67101878 455.49857494 -101.5 450 C-100.2513254 447.83592404 -99.00262743 445.67186158 -97.75390625 443.5078125 C-95.23930564 439.14934612 -92.72645339 434.78987809 -90.21484375 430.4296875 C-84.19252671 419.97793801 -78.15330663 409.53700452 -72.0625 399.125 C-66.64277153 389.85839326 -61.30085219 380.54903194 -55.98681641 371.22161865 C-50.6534159 361.86206787 -45.24909438 352.54579744 -39.80566406 343.24975586 C-36.20060556 337.08444014 -32.66261613 330.88699019 -29.18310547 324.65014648 C-26.18781057 319.29565799 -23.0809064 314.01121214 -19.95581055 308.73168945 C-15.90637297 301.87595948 -11.95907394 294.96309266 -8.0222168 288.04223633 C-7.54179932 287.19814209 -7.06138184 286.35404785 -6.56640625 285.484375 C-6.14302979 284.73897461 -5.71965332 283.99357422 -5.28344727 283.22558594 C-4 281 -4 281 -2.44470501 279.05335712 C-0.25082031 274.41662268 -0.57807852 269.98928331 -0.60127258 264.92070007 C-0.59462576 263.7893675 -0.58797893 262.65803492 -0.58113068 261.49241954 C-0.56244745 257.6936673 -0.56510964 253.89522856 -0.56762695 250.09643555 C-0.56027277 247.3765076 -0.54841816 244.65660366 -0.53674316 241.93669128 C-0.51394867 236.07687988 -0.5020706 230.21712795 -0.49761391 224.35727501 C-0.49115451 215.8849359 -0.46822085 207.41270435 -0.44127061 198.94040857 C-0.39799255 185.19458112 -0.36803162 171.44875821 -0.34643555 157.70288086 C-0.32542891 144.35031912 -0.29812238 130.99779462 -0.26245117 117.64526367 C-0.25913091 116.3980274 -0.25913091 116.3980274 -0.25574356 115.12559444 C-0.23838318 108.62275635 -0.22065749 102.11991926 -0.20281637 95.61708248 C-0.11546527 63.74474475 -0.05997666 31.8724237 0 0 Z " fill="#EA4359" transform="translate(646,164)"/>
<path d="M0 0 C31.02 0 62.04 0 94 0 C93.979375 14.623125 93.95875 29.24625 93.9375 44.3125 C93.93541816 53.03258948 93.93388843 61.75258792 93.9453125 70.47265625 C93.94667332 71.51829302 93.94803413 72.56392979 93.94943619 73.64125252 C93.97332516 90.12063275 94.00269117 106.59983583 94.26345825 123.07748413 C94.29602207 125.18404124 94.32363001 127.29068108 94.34616089 129.39736938 C94.37844635 132.22896762 94.42973796 135.05946537 94.48828125 137.890625 C94.49467621 138.68911362 94.50107117 139.48760223 94.50765991 140.31028748 C94.57578214 144.38085295 94.57578214 144.38085295 96.44702148 147.87646484 C96.95950439 148.24723145 97.4719873 148.61799805 98 149 C98.9404528 150.4431086 99.85566571 151.90286547 100.75 153.375 C105.15228952 160.05433583 111.1375522 164.25577097 119 166 C128.88291308 167.13501243 136.58126076 164.7604898 145.3125 160.3125 C151.30934923 155.15242043 155.55905515 148.10841888 156.40625 140.21484375 C156.79043216 129.63686359 155.41256745 121.49244709 148.39453125 113.07421875 C141.92030548 106.87680074 134.2253224 104.76389857 125.4375 104.5 C115.93610677 104.79632112 109.75239956 107.5852924 102.796875 113.984375 C99.85154649 117.28826524 97.87957805 121.01493308 96 125 C95.67 125 95.34 125 95 125 C95 115.1 95 105.2 95 95 C126.02 95 157.04 95 189 95 C189 126.02 189 157.04 189 189 C185.68248407 190.65875797 181.97402946 190.12889303 178.32763672 190.11352539 C177.43001617 190.11367142 176.53239563 190.11381744 175.60757446 190.1139679 C172.63158782 190.11326953 169.65566325 190.10548067 166.6796875 190.09765625 C164.61988357 190.0957918 162.56007919 190.09436802 160.50027466 190.09336853 C155.07182598 190.08954548 149.64340395 190.07971699 144.21496582 190.06866455 C138.67847046 190.05844588 133.14197081 190.05386993 127.60546875 190.04882812 C116.73696744 190.03809455 105.86848594 190.02102065 95 190 C95.00222061 191.15987427 95.00444122 192.31974854 95.00672913 193.51477051 C95.02702654 204.46108905 95.04200393 215.40740376 95.05181217 226.35373688 C95.05702423 231.98094977 95.0640914 237.60814743 95.07543945 243.23535156 C95.08632796 248.66886036 95.09228947 254.10235454 95.09487724 259.53587341 C95.09672075 261.60583221 95.10032063 263.67579024 95.10573006 265.7457428 C95.11301964 268.65147615 95.11398761 271.55714956 95.11352539 274.46289062 C95.11712067 275.31309784 95.12071594 276.16330505 95.12442017 277.03927612 C95.11572042 282.11438101 94.72751395 286.97589041 94 292 C90.6270886 290.5366459 88.42490922 288.67212401 85.83648682 286.07699585 C84.60397942 284.84861244 84.60397942 284.84861244 83.34657288 283.59541321 C82.45393234 282.69558212 81.56129181 281.79575104 80.64160156 280.86865234 C79.68578838 279.91227483 78.72953422 278.95633786 77.77287292 278.00080872 C75.1798522 275.40836168 72.59304305 272.80979564 70.00730228 270.21009016 C67.30294243 267.49322558 64.59291562 264.78202584 61.88348389 262.07022095 C56.75490766 256.9354292 51.6314509 251.79556062 46.50981212 246.6538502 C40.67822974 240.79991108 34.84096554 234.95165175 29.00321627 229.10386348 C16.99580913 217.07555271 4.99555963 205.0401258 -7 193 C-9.82130333 196.46785295 -12.20183058 199.87192803 -14.3984375 203.76953125 C-15.03523438 204.89294922 -15.67203125 206.01636719 -16.328125 207.17382812 C-16.66134766 207.76623291 -16.99457031 208.3586377 -17.33789062 208.96899414 C-19.11997861 212.13673104 -20.91650744 215.29627502 -22.7109375 218.45703125 C-23.07419128 219.09778595 -23.43744507 219.73854065 -23.81170654 220.39871216 C-27.15788702 226.29515335 -30.57043543 232.15169511 -34 238 C-39.0569119 246.63461565 -44.04621591 255.30599041 -49 264 C-54.51263835 273.67481219 -60.08424567 283.31282137 -65.7109375 292.921875 C-70.19166146 300.5857377 -74.60506752 308.28678835 -79 316 C-84.51263835 325.67481219 -90.08424567 335.31282137 -95.7109375 344.921875 C-100.19166146 352.5857377 -104.60506752 360.28678835 -109 368 C-114.51263835 377.67481219 -120.08424567 387.31282137 -125.7109375 396.921875 C-130.5371234 405.1766183 -135.28274884 413.47606128 -140.01647949 421.78396606 C-145.2768119 431.01361673 -150.60106771 440.20418822 -155.96801758 449.37231445 C-160.4239889 456.99137607 -164.81885394 464.64394805 -169.18261719 472.31616211 C-169.6418457 473.1231958 -170.10107422 473.93022949 -170.57421875 474.76171875 C-170.97213623 475.46256592 -171.37005371 476.16341309 -171.7800293 476.88549805 C-173.15796933 479.27379875 -174.58138126 481.63563543 -176 484 C-24.2 484 127.6 484 284 484 C284 512.05 284 540.1 284 569 C252.65 569 221.3 569 189 569 C189 582.53 189 596.06 189 610 C143.1357641 610.05073567 97.27152838 610.09912949 51.40727234 610.12702942 C50.72816385 610.12744359 50.04905536 610.12785776 49.34936782 610.12828448 C34.58951648 610.13726379 19.82966484 610.14557425 5.06981273 610.15319599 C-2.1687089 610.15693791 -9.40723044 610.16082758 -16.64575195 610.16479492 C-17.36606111 610.1651872 -18.08637026 610.16557948 -18.82850696 610.16598364 C-42.16402546 610.17876129 -65.49952213 610.20129044 -88.83502741 610.22889166 C-112.82089736 610.25721052 -136.80675523 610.27566122 -160.79264162 610.28174497 C-164.18265662 610.2826094 -167.57267159 610.28358631 -170.96268654 610.28463173 C-171.96346431 610.28493513 -171.96346431 610.28493513 -172.98445982 610.28524467 C-183.04828186 610.28856679 -193.11207039 610.30052871 -203.17587852 610.31719017 C-214.63209394 610.3360881 -226.08826008 610.3449094 -237.54449125 610.34050413 C-243.38903879 610.33858303 -249.23347679 610.34152437 -255.07800484 610.35761642 C-260.4332503 610.37225341 -265.78831292 610.37292764 -271.14356694 610.36269668 C-273.07649439 610.36143285 -275.0094334 610.36520603 -276.94233819 610.37464955 C-290.40577975 610.43657953 -302.91172653 609.79297634 -315.125 603.4375 C-315.7945874 603.09380371 -316.4641748 602.75010742 -317.15405273 602.39599609 C-332.57481578 594.10629651 -341.01431885 580.71348692 -347.25 564.8125 C-352.29921164 545.87795636 -348.62395652 528.63811165 -339 512 C-336.90827178 508.38848131 -334.79986918 504.78697709 -332.6875 501.1875 C-327.40211533 492.15665597 -322.17952037 483.09178966 -317 474 C-311.39409411 464.16092533 -305.72806319 454.35910123 -300.0078125 444.5859375 C-296.30004548 438.24548659 -292.63372503 431.88314712 -289 425.5 C-284.79743363 418.11760336 -280.54103214 410.768815 -276.25 403.4375 C-271.11136558 394.65614473 -266.03702033 385.83985798 -261 377 C-255.46015296 367.27874793 -249.86625061 357.59105119 -244.21655273 347.93310547 C-239.97382733 340.67788284 -235.76000503 333.40647504 -231.5625 326.125 C-230.94052734 325.04605469 -230.31855469 323.96710938 -229.67773438 322.85546875 C-227.78470874 319.57057008 -225.89224402 316.28534897 -224 313 C-221.47990911 308.62457171 -218.95918127 304.24951193 -216.4375 299.875 C-215.82277832 298.80838135 -215.20805664 297.7417627 -214.57470703 296.64282227 C-209.66566147 288.1336808 -204.7191355 279.64671431 -199.74194336 271.17724609 C-196.52511909 265.68553254 -193.42646205 260.14402428 -190.39575195 254.54760742 C-188.46634798 251.02594739 -186.43203588 247.57313742 -184.375 244.125 C-180.58151732 237.72318046 -176.86557026 231.2812465 -173.1875 224.8125 C-168.80355256 217.12680485 -164.39733644 209.45444258 -159.9375 201.8125 C-159.11511841 200.38611206 -159.11511841 200.38611206 -158.27612305 198.9309082 C-157.76090088 198.05265381 -157.24567871 197.17439941 -156.71484375 196.26953125 C-156.26230225 195.49198486 -155.80976074 194.71443848 -155.34350586 193.91333008 C-154 192 -154 192 -151 190 C-148.55122375 189.7215271 -148.55122375 189.7215271 -145.6105957 189.68115234 C-144.49430786 189.66109131 -143.37802002 189.64103027 -142.22790527 189.62036133 C-141.05570435 189.60900146 -139.88350342 189.5976416 -138.67578125 189.5859375 C-137.59760132 189.56829346 -136.51942139 189.55064941 -135.40856934 189.5324707 C-131.37669861 189.4693511 -127.34457667 189.4232008 -123.3125 189.375 C-109.7928125 189.189375 -109.7928125 189.189375 -96 189 C-95.505 142.47 -95.505 142.47 -95 95 C-63.98 94.67 -32.96 94.34 -1 94 C-0.67 62.98 -0.34 31.96 0 0 Z " fill="#EA4359" transform="translate(615,567)"/>
<path d="M0 0 C4.8384342 4.03430562 9.39758418 8.25555864 13.84007263 12.71981812 C14.49125488 13.37014594 15.14243713 14.02047376 15.81335217 14.69050848 C17.97747469 16.85299429 20.13802238 19.01901548 22.29858398 21.18505859 C23.85603205 22.74278895 25.41370077 24.30029871 26.97157288 25.85760498 C31.18814174 30.0738875 35.40162503 34.29324129 39.61455417 38.51316023 C44.02233535 42.92720198 48.43295754 47.33840307 52.84327698 51.74990845 C60.24145068 59.1508349 67.63787737 66.55350349 75.03295898 73.95751953 C82.64734183 81.58109215 90.26278227 89.20360576 97.87963867 96.82470703 C98.58479803 97.53026047 98.58479803 97.53026047 99.30420303 98.25006752 C101.6627746 100.6099442 104.02136802 102.96979905 106.37996948 105.32964587 C125.92314556 124.88326831 145.4627499 144.44045667 165 164 C168.68584374 160.87938836 172.35051824 157.77534298 175.76499939 154.35525513 C176.4225119 153.69911728 177.08002441 153.04297943 177.75746155 152.36695862 C178.45230148 151.66852341 179.14714142 150.9700882 179.86303711 150.25048828 C180.99110779 149.12263664 180.99110779 149.12263664 182.14196777 147.97200012 C184.60613996 145.507136 187.06675951 143.03875789 189.52734375 140.5703125 C191.24347927 138.85231025 192.95983694 137.13452988 194.67640686 135.41696167 C199.17813208 130.91143139 203.67684517 126.40290529 208.17492676 121.89373779 C212.77169509 117.28671199 217.37132077 112.68254087 221.97070312 108.078125 C230.98325932 99.05486698 239.99273182 90.02853652 249 81 C252.51948144 82.17316048 252.70398287 82.7244346 254.42578125 85.84765625 C254.88533203 86.66814453 255.34488281 87.48863281 255.81835938 88.33398438 C256.31142578 89.23439453 256.80449219 90.13480469 257.3125 91.0625 C258.39070473 92.99156913 259.47018157 94.91992767 260.55078125 96.84765625 C261.11490723 97.85844238 261.6790332 98.86922852 262.26025391 99.91064453 C265.11274947 104.97596572 268.05823572 109.98617503 271 115 C275.97095165 123.49451729 280.88160521 132.02089372 285.75097656 140.57397461 C288.70895528 145.76224567 291.70660929 150.92392974 294.75 156.0625 C299.16299225 163.5171236 303.46113821 171.03604608 307.75 178.5625 C313.37300212 188.42911541 319.04813473 198.26268616 324.7824707 208.06518555 C330.93265302 218.58237153 337.01459056 229.13857517 343.09570312 239.69580078 C345.65525775 244.13695621 348.21931298 248.57550668 350.78320312 253.01416016 C353.25858715 257.30165223 355.72998914 261.59143308 358.20117188 265.88134766 C359.99999856 268.9999975 361.80449259 272.11532062 363.609375 275.23046875 C364.71895904 277.15352523 365.82834434 279.07669641 366.9375 281 C367.70936646 282.32704956 367.70936646 282.32704956 368.49682617 283.6809082 C368.96064697 284.4874585 369.42446777 285.29400879 369.90234375 286.125 C370.51323853 287.18074219 370.51323853 287.18074219 371.13647461 288.2578125 C372 290 372 290 372 292 C193.8 292 15.6 292 -168 292 C-166.60210955 288.50527389 -165.28283805 285.55006512 -163.453125 282.32421875 C-162.94547607 281.42678955 -162.43782715 280.52936035 -161.91479492 279.60473633 C-161.3654126 278.64204834 -160.81603027 277.67936035 -160.25 276.6875 C-159.67290283 275.67131592 -159.09580566 274.65513184 -158.5012207 273.6081543 C-153.87474475 265.48295661 -149.17017856 257.4043584 -144.44433594 249.33666992 C-139.91014131 241.58753438 -135.44422786 233.8008922 -131 226 C-125.48753141 216.32509216 -119.91575301 206.68717637 -114.2890625 197.078125 C-109.80833854 189.4142623 -105.39493248 181.71321165 -101 174 C-95.48736165 164.32518781 -89.91575433 154.68717863 -84.2890625 145.078125 C-79.80833854 137.4142623 -75.39493248 129.71321165 -71 122 C-65.48736165 112.32518781 -59.91575433 102.68717863 -54.2890625 93.078125 C-49.80833735 85.41426026 -45.39505776 77.71314165 -41 70 C-35.46842442 60.29329111 -29.88579269 50.61834306 -24.24072266 40.97705078 C-21.11855404 35.6417446 -18.01357876 30.2972336 -14.93359375 24.9375 C-14.42375191 24.05084152 -14.42375191 24.05084152 -13.90361023 23.14627075 C-12.25721416 20.28245409 -10.61312099 17.41737542 -8.97241211 14.55029297 C-6.12315917 9.5905829 -3.26679804 4.69703798 0 0 Z " fill="#000000" transform="translate(607,759)"/>
<path d="M0 0 C41.91 0 83.82 0 127 0 C126.8865625 19.67109375 126.773125 39.3421875 126.65625 59.609375 C126.62008236 72.10552312 126.58789721 84.60149318 126.57421875 97.09765625 C126.56681837 103.6681335 126.55841716 110.23860831 126.54833984 116.80908203 C126.5471188 117.63240206 126.54589775 118.45572208 126.54463971 119.3039912 C126.52356045 132.53636439 126.44615564 145.76782447 126.34736067 158.99981973 C126.24698428 172.61449034 126.20849348 186.22835968 126.22555113 199.84339356 C126.23338929 207.47659581 126.21376255 215.10756558 126.12312317 222.74028778 C124.24754093 265.70284558 124.24754093 265.70284558 142.55951691 303.09407425 C144 305 144 305 144 308 C117.6 308 91.2 308 64 308 C64 339.02 64 370.04 64 402 C94.36 402 124.72 402 156 402 C156 402.33 156 402.66 156 403 C125.64 403 95.28 403 64 403 C64 434.02 64 465.04 64 497 C94.36 497 124.72 497 156 497 C156 497.33 156 497.66 156 498 C125.64 498 95.28 498 64 498 C64.33 507.24 64.66 516.48 65 526 C66.98 523.03 68.96 520.06 71 517 C78.02569241 509.97430759 84.40272451 506.80316542 94.4375 506.5 C103.87796305 506.79265435 111.29561321 509.22687127 118.171875 515.8515625 C125.17576214 524.08262645 127.12315962 532.46054614 126.52734375 542.9921875 C125.98047427 548.3749998 124.06105923 552.57351202 121 557 C120.443125 557.9075 119.88625 558.815 119.3125 559.75 C112.25887982 566.61298179 103.86867917 569.98131599 94.125 570.375 C88.24895331 570.25777214 84.01955433 569.00235025 79 566 C77.95005859 565.38125 77.95005859 565.38125 76.87890625 564.75 C70.56726746 560.55019498 69.2894741 557.1491235 65 550 C64.67 563.53 64.34 577.06 64 591 C63.67 591 63.34 591 63 591 C63 560.31 63 529.62 63 498 C62.34 497.67 61.68 497.34 61 497 C61.66 497 62.32 497 63 497 C63 465.98 63 434.96 63 403 C31.98 403 0.96 403 -31 403 C-30.96038273 433.89051159 -30.96038273 433.89051159 -30.90991211 464.78100586 C-30.90539551 470.74328613 -30.90539551 470.74328613 -30.90455627 473.53077698 C-30.90301648 475.48573534 -30.89949083 477.44069273 -30.89442444 479.39564514 C-30.88714892 482.34963644 -30.88609252 485.3035695 -30.88647461 488.25756836 C-30.8828765 489.13459632 -30.87927839 490.01162428 -30.87557125 490.91522884 C-30.88597366 496.88597366 -30.88597366 496.88597366 -32 498 C-34.92194665 498.09525367 -37.82020329 498.12552736 -40.74243164 498.11352539 C-42.11790413 498.11374443 -42.11790413 498.11374443 -43.52116394 498.1139679 C-46.56751836 498.1132684 -49.61381245 498.10547428 -52.66015625 498.09765625 C-54.76622993 498.0957922 -56.87230403 498.09436824 -58.9783783 498.09336853 C-64.53342883 498.08954231 -70.08845341 498.07971114 -75.64349365 498.06866455 C-81.3072474 498.05845267 -86.97100533 498.05387139 -92.63476562 498.04882812 C-103.75652185 498.03808896 -114.87825877 498.0210113 -126 498 C-125.99777939 499.17541855 -125.99555878 500.3508371 -125.99327087 501.56187439 C-125.97304098 512.61338677 -125.9580286 523.66489542 -125.94818783 534.71642208 C-125.94295861 540.39876512 -125.93586027 546.08109327 -125.92456055 551.76342773 C-125.91373304 557.24229136 -125.90772346 562.72114062 -125.90512276 568.20001411 C-125.90326826 570.29529611 -125.89964718 572.39057728 -125.89426994 574.4858532 C-125.88706132 577.40977584 -125.88600898 580.33363833 -125.88647461 583.25756836 C-125.88287933 584.1329425 -125.87928406 585.00831665 -125.87557983 585.91021729 C-125.88594784 591.88594784 -125.88594784 591.88594784 -127 593 C-128.70730868 593.1178412 -130.41938766 593.16732468 -132.13061523 593.18945312 C-133.22522568 593.20617065 -134.31983612 593.22288818 -135.44761658 593.2401123 C-136.63923904 593.25368774 -137.83086151 593.26726318 -139.05859375 593.28125 C-140.27321793 593.29965942 -141.4878421 593.31806885 -142.73927307 593.33703613 C-146.63863105 593.39600752 -150.53803364 593.44872591 -154.4375 593.5 C-159.56129494 593.56746398 -164.68494339 593.64115463 -169.80859375 593.71875 C-170.99819199 593.73232544 -172.18779022 593.74590088 -173.41343689 593.7598877 C-174.51119949 593.77660522 -175.6089621 593.79332275 -176.73999023 593.81054688 C-178.19440773 593.82933899 -178.19440773 593.82933899 -179.6782074 593.84851074 C-182.0250389 593.85084024 -182.0250389 593.85084024 -184 595 C-182.65619045 590.44332598 -180.81812856 586.7780962 -178.3125 582.75 C-174.04809058 575.79607474 -169.94192476 568.75858806 -165.875 561.6875 C-165.23554443 560.57697266 -164.59608887 559.46644531 -163.93725586 558.32226562 C-161.95710911 554.88211981 -159.9783675 551.4411693 -158 548 C-155.45990982 543.58242397 -152.91850917 539.16560843 -150.375 534.75 C-149.75810303 533.6789502 -149.14120605 532.60790039 -148.50561523 531.50439453 C-143.86041119 523.45499207 -139.15251815 515.44413882 -134.38623047 507.46582031 C-131.32256287 502.31837486 -128.40735548 497.1100069 -125.55639648 491.84204102 C-122.80923934 486.82562433 -119.93073554 481.88535855 -117.0625 476.9375 C-116.069933 475.22118622 -115.07736813 473.50487121 -114.08493042 471.78848267 C-113.06369492 470.02265557 -112.04189741 468.25715463 -111.02001953 466.49169922 C-107.84080006 460.9978601 -104.67101878 455.49857494 -101.5 450 C-100.2513254 447.83592404 -99.00262743 445.67186158 -97.75390625 443.5078125 C-95.23930564 439.14934612 -92.72645339 434.78987809 -90.21484375 430.4296875 C-84.19252671 419.97793801 -78.15330663 409.53700452 -72.0625 399.125 C-66.64277153 389.85839326 -61.30085219 380.54903194 -55.98681641 371.22161865 C-50.6534159 361.86206787 -45.24909438 352.54579744 -39.80566406 343.24975586 C-36.20060556 337.08444014 -32.66261613 330.88699019 -29.18310547 324.65014648 C-26.18781057 319.29565799 -23.0809064 314.01121214 -19.95581055 308.73168945 C-15.90637297 301.87595948 -11.95907394 294.96309266 -8.0222168 288.04223633 C-7.54179932 287.19814209 -7.06138184 286.35404785 -6.56640625 285.484375 C-6.14302979 284.73897461 -5.71965332 283.99357422 -5.28344727 283.22558594 C-4 281 -4 281 -2.44470501 279.05335712 C-0.25082031 274.41662268 -0.57807852 269.98928331 -0.60127258 264.92070007 C-0.59462576 263.7893675 -0.58797893 262.65803492 -0.58113068 261.49241954 C-0.56244745 257.6936673 -0.56510964 253.89522856 -0.56762695 250.09643555 C-0.56027277 247.3765076 -0.54841816 244.65660366 -0.53674316 241.93669128 C-0.51394867 236.07687988 -0.5020706 230.21712795 -0.49761391 224.35727501 C-0.49115451 215.8849359 -0.46822085 207.41270435 -0.44127061 198.94040857 C-0.39799255 185.19458112 -0.36803162 171.44875821 -0.34643555 157.70288086 C-0.32542891 144.35031912 -0.29812238 130.99779462 -0.26245117 117.64526367 C-0.26023766 116.81377282 -0.25802415 115.98228198 -0.25574356 115.12559444 C-0.23838318 108.62275635 -0.22065749 102.11991926 -0.20281637 95.61708248 C-0.11546527 63.74474475 -0.05997666 31.8724237 0 0 Z " fill="#D43D51" transform="translate(646,164)"/>
<path d="M0 0 C41.58 0 83.16 0 126 0 C126 31.02 126 62.04 126 94 C105.21 94 84.42 94 63 94 C63 125.35 63 156.7 63 189 C36.6 189 10.2 189 -17 189 C-16.14845862 184.74229311 -15.47281602 182.68385373 -13.3828125 179.09375 C-12.85816406 178.18496094 -12.33351563 177.27617187 -11.79296875 176.33984375 C-11.24253906 175.40269531 -10.69210937 174.46554687 -10.125 173.5 C-9.58230469 172.56285156 -9.03960938 171.62570312 -8.48046875 170.66015625 C-4.21494747 163.30760734 -4.21494747 163.30760734 -2.43577862 160.76147175 C-0.69415281 157.41175585 -0.61622847 155.16632961 -0.60127258 151.4004364 C-0.59462576 150.750963 -0.58797893 150.10148961 -0.58113068 149.4323352 C-0.56253372 147.26421806 -0.5651036 145.0966544 -0.56762695 142.9284668 C-0.55860773 141.37109093 -0.54828012 139.81372217 -0.53674316 138.25636292 C-0.50916569 134.03363442 -0.49988765 129.81104059 -0.49388909 125.58823371 C-0.48450737 121.17325488 -0.45830414 116.75837672 -0.43388367 112.34346008 C-0.39020943 103.98547827 -0.36166814 95.62751599 -0.33856028 87.26945478 C-0.30645587 75.97359722 -0.25098184 64.67785603 -0.19681454 53.38208675 C-0.11210219 35.58809241 -0.05861981 17.79414372 0 0 Z " fill="#EA4359" transform="translate(646,282)"/>
<path d="M0 0 C41.58 0 83.16 0 126 0 C126 7.26 126 14.52 126 22 C105.21 22 84.42 22 63 22 C63 53.35 63 84.7 63 117 C42.21 117 21.42 117 0 117 C0 78.39 0 39.78 0 0 Z " fill="#EA4359" transform="translate(646,164)"/>
<path d="M0 0 C13.2825 0.4125 26.565 0.825 40.25 1.25 C40.25 32.27 40.25 63.29 40.25 95.25 C9.23 95.25 -21.79 95.25 -53.75 95.25 C-53.9975 83.4525 -54.245 71.655 -54.5 59.5 C-54.60924805 55.81875977 -54.71849609 52.13751953 -54.83105469 48.34472656 C-55.48666419 14.10876157 -55.48666419 14.10876157 -47.01074219 4.44628906 C-35.50985894 -4.50074588 -13.061644 -0.57009107 0 0 Z " fill="#EA4359" transform="translate(668.75,470.75)"/>
<path d="M0 0 C13.86 0 27.72 0 42 0 C42 31.02 42 62.04 42 94 C10.98 94 -20.04 94 -52 94 C-51.18071673 89.0843004 -50.76802899 87.06510195 -48.4453125 83.05078125 C-47.91881104 82.13047119 -47.39230957 81.21016113 -46.84985352 80.26196289 C-46.28065186 79.28864014 -45.7114502 78.31531738 -45.125 77.3125 C-44.53710693 76.2908374 -43.94921387 75.2691748 -43.34350586 74.21655273 C-41.57054188 71.13953748 -39.78583985 68.06955489 -38 65 C-37.06022737 63.37035097 -36.1213451 61.74018798 -35.18359375 60.109375 C-32.47049248 55.39762247 -29.73652808 50.69817424 -27 46 C-26.46262207 45.07606445 -25.92524414 44.15212891 -25.37158203 43.20019531 C-24.52442627 41.74371582 -24.52442627 41.74371582 -23.66015625 40.2578125 C-23.08418701 39.26257568 -22.50821777 38.26733887 -21.91479492 37.24194336 C-20.72087236 35.20440889 -19.50603739 33.1789862 -18.27075195 31.16625977 C-14.6230898 25.16389408 -11.85888107 19.47628098 -9.84423828 12.73364258 C-8.25 9.5 -8.25 9.5 0 0 Z " fill="#EA4359" transform="translate(572,567)"/>
<path d="M0 0 C20.46 0 40.92 0 62 0 C61.9375 30.5625 61.9375 30.5625 61.84741211 40.11547852 C61.86399805 54.86510131 62.19699764 66.29389341 72 78 C72.91149821 79.46434721 73.79527394 80.9469985 74.62890625 82.45703125 C75.93845781 84.72956618 77.25105076 87.00035073 78.56640625 89.26953125 C80 92 80 92 80 94 C53.6 94 27.2 94 0 94 C0 62.98 0 31.96 0 0 Z " fill="#EA4359" transform="translate(710,377)"/>
<path d="M0 0 C20.46 0 40.92 0 62 0 C62 31.02 62 62.04 62 94 C41.54 94 21.08 94 0 94 C0 62.98 0 31.96 0 0 Z " fill="#EB445A" transform="translate(710,187)"/>
<path d="M0 0 C31.02 0 62.04 0 94 0 C94 17.49 94 34.98 94 53 C62.98 53 31.96 53 0 53 C0 35.51 0 18.02 0 0 Z " fill="#000000" transform="translate(615,1178)"/>
<path d="M0 0 C31.02 0 62.04 0 94 0 C94 17.49 94 34.98 94 53 C62.98 53 31.96 53 0 53 C0 35.51 0 18.02 0 0 Z " fill="#000000" transform="translate(520,1178)"/>
<path d="M0 0 C31.02 0 62.04 0 94 0 C94 17.49 94 34.98 94 53 C62.98 53 31.96 53 0 53 C0 35.51 0 18.02 0 0 Z " fill="#000000" transform="translate(425,1178)"/>
<path d="M0 0 C31.02 0 62.04 0 94 0 C94 17.49 94 34.98 94 53 C62.98 53 31.96 53 0 53 C0 35.51 0 18.02 0 0 Z " fill="#000000" transform="translate(330,1178)"/>
<path d="M0 0 C0.91487183 0.00100708 1.82974365 0.00201416 2.77233887 0.00305176 C6.14902014 0.00823437 9.52568337 0.02219512 12.90234375 0.03515625 C20.47171875 0.05578125 28.04109375 0.07640625 35.83984375 0.09765625 C35.83984375 17.58765625 35.83984375 35.07765625 35.83984375 53.09765625 C4.81984375 53.09765625 -26.20015625 53.09765625 -58.16015625 53.09765625 C-58.16015625 40.88765625 -58.16015625 28.67765625 -58.16015625 16.09765625 C-40.18151921 4.8610081 -21.11441288 -0.11150278 0 0 Z " fill="#000000" transform="translate(578.16015625,37.90234375)"/>
<path d="M0 0 C6.93 0 13.86 0 21 0 C21 31.02 21 62.04 21 94 C-3.42 94 -27.84 94 -53 94 C-51.57181199 89.71543596 -50.48701477 86.8089992 -48.26953125 83.078125 C-47.72176025 82.14887207 -47.17398926 81.21961914 -46.60961914 80.26220703 C-46.01656982 79.26817871 -45.42352051 78.27415039 -44.8125 77.25 C-43.53580222 75.08632451 -42.25978329 72.92224834 -40.984375 70.7578125 C-40.32501953 69.64180664 -39.66566406 68.52580078 -38.98632812 67.37597656 C-35.81074633 61.97873651 -32.68625235 56.55234987 -29.5625 51.125 C-28.31382464 48.95832034 -27.06512655 46.79165377 -25.81640625 44.625 C-25.19266113 43.5421875 -24.56891602 42.459375 -23.92626953 41.34375 C-21.26965984 36.73222575 -18.61170443 32.1214786 -15.95288086 27.51123047 C-14.69687102 25.33335118 -13.44115061 23.15530494 -12.18579102 20.97705078 C-11.03151828 18.97540872 -9.85658341 16.98552338 -8.66015625 15.00878906 C-6.90349733 12.00583876 -6.90349733 12.00583876 -5.74609375 8.57714844 C-4.375 5.2421875 -4.375 5.2421875 0 0 Z " fill="#000000" transform="translate(498,947)"/>
<path d="M0 0 C14.52 0 29.04 0 44 0 C44 30.03 44 60.06 44 91 C29.48 91 14.96 91 0 91 C0 60.97 0 30.94 0 0 Z " fill="#EB445A" transform="translate(0,0)"/>
<path d="M0 0 C20.46 0 40.92 0 62 0 C60.43126186 4.70621443 58.94657509 8.14396387 56.515625 12.359375 C56.17754822 12.94865784 55.83947144 13.53794067 55.4911499 14.14508057 C54.41580645 16.01634265 53.3329557 17.88313535 52.25 19.75 C51.53858636 20.98670539 50.82764502 22.22368259 50.1171875 23.4609375 C46.57039776 29.62463605 42.9775031 35.75480297 39.2421875 41.80688477 C34.31677753 50.50282772 31.63109133 59.78502868 31.75 69.75 C31.75580078 70.93263428 31.75580078 70.93263428 31.76171875 72.13916016 C31.84079784 77.50225993 32.36435257 82.59404251 33.5625 87.8359375 C34 90 34 90 34 94 C22.78 94 11.56 94 0 94 C0 62.98 0 31.96 0 0 Z " fill="#000000" transform="translate(235,1042)"/>
<path d="M0 0 C31.02 0 62.04 0 94 0 C94 13.2 94 26.4 94 40 C62.98 40 31.96 40 0 40 C0 26.8 0 13.6 0 0 Z " fill="#EB445A" transform="translate(330,1137)"/>
<path d="M0 0 C4.29 0 8.58 0 13 0 C13 31.02 13 62.04 13 94 C-8.78 94 -30.56 94 -53 94 C-45.05461356 78.10922713 -45.05461356 78.10922713 -41.5625 72.375 C-37.02382928 64.78629225 -32.62398712 57.12186826 -28.25 49.4375 C-22.46422959 39.27805558 -16.62158598 29.15460122 -10.69238281 19.07788086 C-6.99989348 12.7843751 -3.46786248 6.42023189 0 0 Z " fill="#000000" transform="translate(316,757)"/>
<path d="M0 0 C3.96 0 7.92 0 12 0 C19.3849119 12.77504875 26.75650916 25.55696937 34.06518555 38.37579346 C39.49705241 47.90283583 44.96516838 57.40726854 50.5 66.875 C51.07516357 67.85952148 51.65032715 68.84404297 52.24291992 69.85839844 C55.30944964 75.10750365 55.30944964 75.10750365 58.37792969 80.35546875 C59.54810112 82.35942105 60.7126603 84.36649833 61.875 86.375 C62.49117187 87.43460938 63.10734375 88.49421875 63.7421875 89.5859375 C65 92 65 92 65 94 C43.55 94 22.1 94 0 94 C0 62.98 0 31.96 0 0 Z " fill="#010000" transform="translate(1090,757)"/>
<path d="M0 0 C7.87530015 6.75025727 7.87530015 6.75025727 10.76499939 9.63801575 C11.4225119 10.29270844 12.08002441 10.94740112 12.75746155 11.62193298 C13.45230148 12.31879715 14.14714142 13.01566132 14.86303711 13.73364258 C15.61508423 14.48393738 16.36713135 15.23423218 17.14196777 16.00726318 C19.60626714 18.46719052 22.06692567 20.93072231 24.52734375 23.39453125 C26.24355193 25.11006549 27.95990851 26.82545128 29.67640686 28.54069519 C33.26124061 32.12405864 36.84426896 35.70921499 40.42602539 39.2956543 C45.02857354 43.90392523 49.63563097 48.50765789 54.24402523 53.11008167 C57.78269177 56.64514658 61.31898786 60.18257498 64.85455513 63.72073936 C66.55357925 65.42043252 68.2533519 67.11937778 69.95387077 68.81757545 C72.31924218 71.1804241 74.68141301 73.54642523 77.04272461 75.91333008 C77.75173416 76.6203154 78.46074371 77.32730072 79.1912384 78.05570984 C79.82901215 78.69630341 80.46678589 79.33689697 81.12388611 79.99690247 C81.96198523 80.83556713 81.96198523 80.83556713 82.81701565 81.69117451 C84 83 84 83 84 84 C56.28 84 28.56 84 0 84 C0 56.28 0 28.56 0 0 Z " fill="#000000" transform="translate(615,767)"/>
<path d="M0 0 C10.23 0 20.46 0 31 0 C31 31.02 31 62.04 31 94 C11.86 94 -7.28 94 -27 94 C-23.89912854 89.34869281 -22.61453336 87.67446585 -18.640625 84.5234375 C-6.36998456 73.12927138 -1.09674821 54.5755418 -0.46809387 38.35740662 C-0.33667065 33.09242733 -0.28428269 27.82887895 -0.25 22.5625 C-0.22178187 20.36651355 -0.19184651 18.17054846 -0.16015625 15.97460938 C-0.08382552 10.64953657 -0.04265814 5.32586889 0 0 Z " fill="#EA4359" transform="translate(963,187)"/>
<path d="M0 0 C9.9 0 19.8 0 30 0 C30.04898437 2.96484375 30.09796875 5.9296875 30.1484375 8.984375 C30.20263085 11.89376358 30.25986578 14.80307779 30.31738281 17.71240234 C30.35538566 19.71592542 30.39028543 21.71951008 30.421875 23.72314453 C30.78723475 46.61521628 33.14554345 68.38285835 50.1875 85.5 C51.78382697 87.00834044 53.38745849 88.50900685 55 90 C56.32 91.32 57.64 92.64 59 94 C39.53 94 20.06 94 0 94 C0 62.98 0 31.96 0 0 Z " fill="#EA4359" transform="translate(425,187)"/>
<path d="M0 0 C7.1361967 4.59945173 11.5242773 10.89763481 14 19 C15.58145397 28.81204331 14.74688012 37.68964274 9 46 C8.443125 46.9075 7.88625 47.815 7.3125 48.75 C0.25887982 55.61298179 -8.13132083 58.98131599 -17.875 59.375 C-23.75104669 59.25777214 -27.98044567 58.00235025 -33 55 C-34.04994141 54.38125 -34.04994141 54.38125 -35.12109375 53.75 C-41.56017139 49.46539635 -45.56651636 43.30045093 -48 36 C-49.40544247 16.06279471 -49.40544247 16.06279471 -43 8 C-31.75763795 -4.43835801 -15.16892039 -8.99396165 0 0 Z " fill="#010000" transform="translate(758,675)"/>
<path d="M0 0 C6.44114279 4.33181305 6.44114279 4.33181305 7.64568901 7.92737961 C7.85924908 10.16983413 7.86708533 12.32409425 7.79467773 14.57568359 C7.79569992 15.41536682 7.79672211 16.25505005 7.79777527 17.12017822 C7.79291888 19.88091046 7.73857543 22.63828718 7.68359375 25.3984375 C7.67053049 27.31798496 7.66056975 29.23755583 7.65357971 31.15713501 C7.62691131 36.19819092 7.55819948 41.23782458 7.48065186 46.27832031 C7.39629397 52.33204253 7.36428516 58.38624158 7.3234787 64.44038391 C7.25570241 73.62791036 7.12155059 82.81231917 7 92 C-12.47 92 -31.94 92 -52 92 C-51.02375781 87.11878906 -49.41525669 83.94832275 -46.875 79.8125 C-45.95830195 78.28725898 -45.0430296 76.76116051 -44.12890625 75.234375 C-43.37697998 73.98237305 -43.37697998 73.98237305 -42.60986328 72.70507812 C-39.62429928 67.68838884 -36.72326435 62.62282739 -33.8125 57.5625 C-32.52346487 55.32550506 -31.23440197 53.08852613 -29.9453125 50.8515625 C-28.63011891 48.56775983 -27.31501519 46.2839054 -26 44 C-11.21545912 18.32235542 -11.21545912 18.32235542 -5.125 7.9375 C-4.71403076 7.23488037 -4.30306152 6.53226074 -3.87963867 5.80834961 C-1.12047717 1.12047717 -1.12047717 1.12047717 0 0 Z " fill="#010000" transform="translate(607,759)"/>
<path d="M0 0 C2.83721587 2.83721587 4.33227051 5.11061289 6.25 8.5859375 C6.8584375 9.68164062 7.466875 10.77734375 8.09375 11.90625 C8.7228125 13.0509375 9.351875 14.195625 10 15.375 C11.24940326 17.63314277 12.49938252 19.89096697 13.75 22.1484375 C14.30171875 23.15052246 14.8534375 24.15260742 15.421875 25.18505859 C16.4736364 27.06111197 17.56793704 28.91394226 18.703125 30.74072266 C20 33 20 33 20 35 C13.73 35 7.46 35 1 35 C1 66.02 1 97.04 1 129 C25.42 128.67 49.84 128.34 75 128 C76.65 131.3 78.3 134.6 80 138 C-8.77 138 -97.54 138 -189 138 C-189 135.36 -189 132.72 -189 130 C-157.98 129.67 -126.96 129.34 -95 129 C-95 97.65 -95 66.3 -95 34 C-63.65 34 -32.3 34 0 34 C0 22.78 0 11.56 0 0 Z M-94 35 C-94 66.02 -94 97.04 -94 129 C-62.98 129 -31.96 129 0 129 C0 97.98 0 66.96 0 35 C-31.02 35 -62.04 35 -94 35 Z " fill="#262526" transform="translate(899,912)"/>
<path d="M0 0 C10.23 0 20.46 0 31 0 C31 31.02 31 62.04 31 94 C20.77 94 10.54 94 0 94 C0 62.98 0 31.96 0 0 Z " fill="#000000" transform="translate(615,282)"/>
<path d="M0 0 C10.23 0 20.46 0 31 0 C31 31.02 31 62.04 31 94 C20.77 94 10.54 94 0 94 C0 62.98 0 31.96 0 0 Z " fill="#000000" transform="translate(773,187)"/>
<path d="M0 0 C10.23 0 20.46 0 31 0 C31 31.02 31 62.04 31 94 C20.77 94 10.54 94 0 94 C0 62.98 0 31.96 0 0 Z " fill="#000000" transform="translate(615,187)"/>
<path d="M0 0 C18.48 0 36.96 0 56 0 C56 31.02 56 62.04 56 94 C51.59425258 91.79712629 50.98131764 90.81602985 48.671875 86.6640625 C48.04522949 85.5512793 47.41858398 84.43849609 46.77294922 83.29199219 C46.09856269 82.06970014 45.42424826 80.84736832 44.75 79.625 C44.04168729 78.36035223 43.33219495 77.09636451 42.62158203 75.83300781 C41.14377521 73.20342296 39.67111128 70.57105843 38.20214844 67.93652344 C35.12921666 62.43309289 32.00188746 56.96090751 28.87091064 51.49035645 C27.87442276 49.74899127 26.87925265 48.00687823 25.88427734 46.26464844 C21.41555515 38.44796973 16.91103731 30.6528017 12.375 22.875 C11.81925293 21.92206055 11.26350586 20.96912109 10.69091797 19.98730469 C7.55200274 14.61858507 4.36144409 9.28872236 1.08837891 4.00048828 C0 2 0 2 0 0 Z " fill="#EA4359" transform="translate(938,472)"/>
<path d="M0 0 C31.02 0 62.04 0 94 0 C94 9.57 94 19.14 94 29 C62.98 29 31.96 29 0 29 C0 19.43 0 9.86 0 0 Z " fill="#EB445A" transform="translate(45,1327)"/>
<path d="M0 0 C0.33 0 0.66 0 1 0 C1 31.02 1 62.04 1 94 C-17.15 94 -35.3 94 -54 94 C-53.04664429 90.18657716 -51.87618999 87.76998905 -49.9296875 84.3984375 C-49.28829834 83.28194824 -48.64690918 82.16545898 -47.98608398 81.01513672 C-47.28248634 79.80170155 -46.57878903 78.58832417 -45.875 77.375 C-45.14808856 76.11369191 -44.42161372 74.85213211 -43.69555664 73.59033203 C-41.82844338 70.34800635 -39.95576507 67.10893174 -38.08172607 63.87060547 C-36.42723579 61.00953126 -34.7781529 58.14534923 -33.12890625 55.28125 C-30.67298781 51.01737267 -28.21303163 46.75586577 -25.75 42.49609375 C-23.47969861 38.56796944 -21.21611511 34.63614902 -18.96177673 30.69885254 C-17.94496469 28.92319185 -16.92688487 27.14826391 -15.90844727 25.37353516 C-14.63562761 23.15457518 -13.36511548 20.93428925 -12.09741211 18.71240234 C-3.17120504 3.17120504 -3.17120504 3.17120504 0 0 Z " fill="#E94359" transform="translate(518,662)"/>
<path d="M0 0 C18.15 0 36.3 0 55 0 C53.57788545 4.26634366 52.51358575 7.14454638 50.3046875 10.8515625 C49.76207275 11.77050293 49.21945801 12.68944336 48.66040039 13.63623047 C48.07121826 14.62252441 47.48203613 15.60881836 46.875 16.625 C45.59906743 18.78575431 44.32437705 20.94724252 43.05078125 23.109375 C42.3851416 24.23794922 41.71950195 25.36652344 41.03369141 26.52929688 C37.65487671 32.27945459 34.36259179 38.07946096 31.0625 43.875 C29.72318876 46.22426225 28.38319712 48.57313585 27.04296875 50.921875 C26.5449324 51.79477173 26.5449324 51.79477173 26.03683472 52.68530273 C22.33250258 59.17458476 18.60668305 65.65141597 14.875 72.125 C14.27179932 73.17284668 13.66859863 74.22069336 13.04711914 75.30029297 C11.91352491 77.26506256 10.77657434 79.22790077 9.63574219 81.18847656 C8.51912098 83.10773177 7.41074078 85.03179936 6.30957031 86.95996094 C5.5105127 88.33716309 5.5105127 88.33716309 4.6953125 89.7421875 C4.22367676 90.56315918 3.75204102 91.38413086 3.26611328 92.22998047 C2.8482959 92.81408691 2.43047852 93.39819336 2 94 C1.34 94 0.68 94 0 94 C0 62.98 0 31.96 0 0 Z " fill="#EA4359" transform="translate(425,472)"/>
<path d="M0 0 C10.23 0 20.46 0 31 0 C31 31.02 31 62.04 31 94 C26.71 94 22.42 94 18 94 C15.23302378 90.81054392 13.82110558 88.64129722 12 85 C10.96132602 83.5495244 9.89950862 82.11534764 8.81542969 80.69848633 C-1.77105841 65.49029127 -1.48454414 50.61882959 -0.82397461 32.89007568 C-0.69900456 29.16912354 -0.64528502 25.44709065 -0.5859375 21.72460938 C-0.46538957 14.47766938 -0.23055561 7.24755826 0 0 Z " fill="#000000" transform="translate(773,377)"/>
<path d="M0 0 C10.23 0 20.46 0 31 0 C34.05601162 69.52426447 34.05601162 69.52426447 15 91 C14.34 91.99 13.68 92.98 13 94 C8.71 94 4.42 94 0 94 C0 62.98 0 31.96 0 0 Z " fill="#010000" transform="translate(615,377)"/>
<path d="M0 0 C0.33 0 0.66 0 1 0 C1 30.03 1 60.06 1 91 C0.67 91 0.34 91 0 91 C0 60.97 0 30.94 0 0 Z M-95 0 C-94.67 0 -94.34 0 -94 0 C-94 30.03 -94 60.06 -94 91 C-62.98 91 -31.96 91 0 91 C0 91.33 0 91.66 0 92 C-31.02 92 -62.04 92 -94 92 C-94 123.02 -94 154.04 -94 186 C-63.64 186 -33.28 186 -2 186 C-2 186.33 -2 186.66 -2 187 C-32.36 187 -62.72 187 -94 187 C-94 218.02 -94 249.04 -94 281 C-63.64 281 -33.28 281 -2 281 C-2 281.33 -2 281.66 -2 282 C-32.36 282 -62.72 282 -94 282 C-94 313.02 -94 344.04 -94 376 C-63.64 376 -33.28 376 -2 376 C-2 376.33 -2 376.66 -2 377 C-32.36 377 -62.72 377 -94 377 C-94 408.02 -94 439.04 -94 471 C-63.64 471 -33.28 471 -2 471 C-2 471.33 -2 471.66 -2 472 C-32.36 472 -62.72 472 -94 472 C-93.98839844 478.77402344 -93.97679687 485.54804688 -93.96484375 492.52734375 C-93.9597371 496.80664158 -93.95492333 501.08593567 -93.95117188 505.36523438 C-93.94518303 512.16464005 -93.93808162 518.96403232 -93.92456055 525.76342773 C-93.91373304 531.24229136 -93.90772346 536.72114062 -93.90512276 542.20001411 C-93.90326826 544.29529611 -93.89964718 546.39057728 -93.89426994 548.4858532 C-93.88706132 551.40977584 -93.88600898 554.33363833 -93.88647461 557.25756836 C-93.88287933 558.1329425 -93.87928406 559.00831665 -93.87557983 559.91021729 C-93.88594784 565.88594784 -93.88594784 565.88594784 -95 567 C-97.92194665 567.09525367 -100.82020329 567.12552736 -103.74243164 567.11352539 C-105.11790413 567.11374443 -105.11790413 567.11374443 -106.52116394 567.1139679 C-109.56751836 567.1132684 -112.61381245 567.10547428 -115.66015625 567.09765625 C-117.76622993 567.0957922 -119.87230403 567.09436824 -121.9783783 567.09336853 C-127.53342883 567.08954231 -133.08845341 567.07971114 -138.64349365 567.06866455 C-144.3072474 567.05845267 -149.97100533 567.05387139 -155.63476562 567.04882812 C-166.75652185 567.03808896 -177.87825877 567.0210113 -189 567 C-189.33 568.32 -189.66 569.64 -190 571 C-190.66 569.35 -191.32 567.7 -192 566 C-191.34 566 -190.68 566 -190 566 C-190 534.98 -190 503.96 -190 472 C-208.81 472 -227.62 472 -247 472 C-247 471.67 -247 471.34 -247 471 C-228.19 471 -209.38 471 -190 471 C-190 439.98 -190 408.96 -190 377 C-221.02 377 -252.04 377 -284 377 C-284 386.57 -284 396.14 -284 406 C-284.33 406 -284.66 406 -285 406 C-285 368.05 -285 330.1 -285 291 C-284.67 291 -284.34 291 -284 291 C-284 319.05 -284 347.1 -284 376 C-252.98 376 -221.96 376 -190 376 C-190 344.98 -190 313.96 -190 282 C-210.46 282 -230.92 282 -252 282 C-250.02 280.02 -250.02 280.02 -248 278 C-247.34 278.33 -246.68 278.66 -246 279 C-246.33 279.33 -246.66 279.66 -247 280 C-228.19 280.33 -209.38 280.66 -190 281 C-190 249.98 -190 218.96 -190 187 C-200.23 187 -210.46 187 -221 187 C-221 202.51 -221 218.02 -221 234 C-221.33 234 -221.66 234 -222 234 C-222 207.93 -222 181.86 -222 155 C-221.67 155 -221.34 155 -221 155 C-221 165.23 -221 175.46 -221 186 C-210.77 186 -200.54 186 -190 186 C-190 154.65 -190 123.3 -190 91 C-158.65 91 -127.3 91 -95 91 C-95 60.97 -95 30.94 -95 0 Z M-189 92 C-189 123.02 -189 154.04 -189 186 C-157.98 186 -126.96 186 -95 186 C-95 154.98 -95 123.96 -95 92 C-126.02 92 -157.04 92 -189 92 Z M-189 187 C-189 218.02 -189 249.04 -189 281 C-157.98 281 -126.96 281 -95 281 C-95 249.98 -95 218.96 -95 187 C-126.02 187 -157.04 187 -189 187 Z M-189 282 C-189 313.02 -189 344.04 -189 376 C-157.98 376 -126.96 376 -95 376 C-95 344.98 -95 313.96 -95 282 C-126.02 282 -157.04 282 -189 282 Z M-189 377 C-189 408.02 -189 439.04 -189 471 C-157.98 471 -126.96 471 -95 471 C-95 439.98 -95 408.96 -95 377 C-126.02 377 -157.04 377 -189 377 Z M-189 472 C-189 503.02 -189 534.04 -189 566 C-157.98 566 -126.96 566 -95 566 C-95 534.98 -95 503.96 -95 472 C-126.02 472 -157.04 472 -189 472 Z " fill="#D13C50" transform="translate(1184,0)"/>
<path d="M0 0 C17.16 0 34.32 0 52 0 C52 29.7 52 59.4 52 90 C49.29728312 87.29728312 47.81657039 85.20507241 45.953125 81.93359375 C45.36337891 80.90427734 44.77363281 79.87496094 44.16601562 78.81445312 C43.53373047 77.70005859 42.90144531 76.58566406 42.25 75.4375 C41.58058653 74.26598539 40.91065574 73.09476624 40.24023438 71.92382812 C38.84760003 69.49056166 37.45720253 67.05603768 36.06835938 64.62060547 C32.89970231 59.06842402 29.69819867 53.53519743 26.5 48 C25.26417227 45.85815983 24.02849612 43.71623219 22.79296875 41.57421875 C20.49750542 37.59537568 18.20176586 33.61669227 15.90567017 29.63821411 C14.87326522 27.84933082 13.84092044 26.06041283 12.80859375 24.27148438 C11.51314052 22.02662364 10.2175743 19.7818281 8.921875 17.53710938 C7.7780992 15.55498363 6.63558177 13.57213093 5.49462891 11.58837891 C4.56706888 9.98204251 3.63304926 8.37939541 2.68896484 6.78271484 C0 2.20923675 0 2.20923675 0 0 Z " fill="#000000" transform="translate(847,567)"/>
<path d="M0 0 C17.16 0 34.32 0 52 0 C45.1718463 13.65630741 45.1718463 13.65630741 41.375 19.9375 C40.50138693 21.40292086 39.62904874 22.8691023 38.7578125 24.3359375 C38.30696289 25.09487305 37.85611328 25.85380859 37.39160156 26.63574219 C34.96797505 30.75335608 32.61160893 34.90911049 30.25 39.0625 C23.58751409 50.75953899 16.81917982 62.39368114 10 74 C9.26861816 75.24571777 9.26861816 75.24571777 8.52246094 76.51660156 C7.24900398 78.68066381 5.96991108 80.84123503 4.6875 83 C4.32052002 83.62310059 3.95354004 84.24620117 3.57543945 84.88818359 C2.74541796 86.27620783 1.87740754 87.64143349 1 89 C0.67 89 0.34 89 0 89 C0 59.63 0 30.26 0 0 Z " fill="#010000" transform="translate(520,567)"/>
<path d="M0 0 C8.25 0 16.5 0 25 0 C25 31.02 25 62.04 25 94 C16.75 94 8.5 94 0 94 C0 62.98 0 31.96 0 0 Z " fill="#EB445A" transform="translate(1375,187)"/>
<path d="M0 0 C8.25 0 16.5 0 25 0 C25 31.02 25 62.04 25 94 C16.75 94 8.5 94 0 94 C0 62.98 0 31.96 0 0 Z " fill="#EB445A" transform="translate(1375,92)"/>
<path d="M0 0 C0.33 0 0.66 0 1 0 C1 29.37 1 58.74 1 89 C-15.83 89 -32.66 89 -50 89 C-49.10360206 85.41440824 -48.11761713 83.15394339 -46.33203125 79.984375 C-45.77596191 78.99332764 -45.21989258 78.00228027 -44.64697266 76.98120117 C-43.73890869 75.38175659 -43.73890869 75.38175659 -42.8125 73.75 C-41.86963135 72.07804565 -41.86963135 72.07804565 -40.90771484 70.37231445 C-36.1500779 61.9619368 -31.30332723 53.60471167 -26.41357422 45.27050781 C-21.00119594 36.03842872 -15.69739392 26.74595861 -10.41650391 17.43823242 C-3.66016414 5.56181367 -3.66016414 5.56181367 0 0 Z " fill="#010000" transform="translate(423,572)"/>
<path d="M0 0 C2.85209841 2.85209841 4.40522232 5.19935277 6.37109375 8.6796875 C7.3468335 10.39816895 7.3468335 10.39816895 8.34228516 12.15136719 C9.04072739 13.39255715 9.73913144 14.63376859 10.4375 15.875 C11.16143654 17.15295835 11.88588809 18.43062509 12.61083984 19.70800781 C14.06661145 22.27441072 15.52002665 24.84212221 16.97119141 27.41113281 C19.6759571 32.19827556 22.39808548 36.97544523 25.125 41.75 C25.59429932 42.57346924 26.06359863 43.39693848 26.54711914 44.24536133 C29.21536986 48.91695301 31.91445726 53.5689778 34.640625 58.20703125 C35.26179199 59.2650293 35.88295898 60.32302734 36.52294922 61.41308594 C37.71371145 63.43797821 38.90777772 65.46093307 40.10595703 67.48144531 C44.06910998 74.21938558 47.48475138 80.96950276 51 88 C34.17 88 17.34 88 0 88 C0 58.96 0 29.92 0 0 Z " fill="#010000" transform="translate(995,573)"/>
<path d="M0 0 C8.25 0 16.5 0 25 0 C25 30.03 25 60.06 25 91 C16.75 91 8.5 91 0 91 C0 60.97 0 30.94 0 0 Z " fill="#EB445A" transform="translate(1375,0)"/>
<path d="M0 0 C31.02 0 62.04 0 94 0 C94 7.26 94 14.52 94 22 C62.98 22 31.96 22 0 22 C0 14.74 0 7.48 0 0 Z " fill="#EB445A" transform="translate(330,1304)"/>
<path d="M0 0 C0.33 0 0.66 0 1 0 C1 17.82 1 35.64 1 54 C0.67 54 0.34 54 0 54 C0 36.18 0 18.36 0 0 Z M-95 -31 C-94.67 -31 -94.34 -31 -94 -31 C-94 -2.95 -94 25.1 -94 54 C-62.98 54 -31.96 54 0 54 C0 54.33 0 54.66 0 55 C-31.02 55 -62.04 55 -94 55 C-94 86.02 -94 117.04 -94 149 C-63.64 149 -33.28 149 -2 149 C-2 149.33 -2 149.66 -2 150 C-32.36 150 -62.72 150 -94 150 C-94 152.64 -94 155.28 -94 158 C-5.23 158 83.54 158 175 158 C175 158.33 175 158.66 175 159 C-3.2 159 -181.4 159 -365 159 C-364.505 158.01 -364.505 158.01 -364 157 C-277.87 157.495 -277.87 157.495 -190 158 C-190 155.36 -190 152.72 -190 150 C-190.66 149.67 -191.32 149.34 -192 149 C-191.34 149 -190.68 149 -190 149 C-190 117.65 -190 86.3 -190 54 C-158.65 54 -127.3 54 -95 54 C-95 25.95 -95 -2.1 -95 -31 Z M-189 55 C-189 86.02 -189 117.04 -189 149 C-157.98 149 -126.96 149 -95 149 C-95 117.98 -95 86.96 -95 55 C-126.02 55 -157.04 55 -189 55 Z " fill="#3B2024" transform="translate(804,892)"/>
<path d="M0 0 C19.14 0 38.28 0 58 0 C58 13.2 58 26.4 58 40 C40.50672772 40 24.87865111 33.84191462 12.33984375 21.5859375 C0 7.94824708 0 7.94824708 0 0 Z " fill="#E94359" transform="translate(271,1137)"/>
<path d="M0 0 C18.81 0 37.62 0 57 0 C54.93675853 12.3794488 46.11582071 21.3699001 36.51171875 28.96875 C31.17935126 32.65852174 25.54772922 35.18525146 19.5 37.4375 C18.82445068 37.69692383 18.14890137 37.95634766 17.45288086 38.22363281 C11.11871232 40.4209085 7.33704756 40 0 40 C0 26.8 0 13.6 0 0 Z " fill="#E94359" transform="translate(1090,1137)"/>
<path d="M0 0 C13.53 0 27.06 0 41 0 C41 23.43 41 46.86 41 71 C40.34 71 39.68 71 39 71 C38.6189209 70.30777344 38.2378418 69.61554688 37.84521484 68.90234375 C30.91149575 56.32345449 23.93893684 43.77447275 16.6875 31.375 C16.11483398 30.39571533 15.54216797 29.41643066 14.95214844 28.4074707 C12.29057849 23.86910367 9.61077066 19.34259371 6.90234375 14.83203125 C6.43030518 14.04199707 5.9582666 13.25196289 5.47192383 12.43798828 C4.60143675 10.98354749 3.72534493 9.53244 2.8425293 8.08544922 C0 3.33439046 0 3.33439046 0 0 Z " fill="#E94359" transform="translate(1048,662)"/>
<path d="M0 0 C13.53 0 27.06 0 41 0 C39.46301267 3.84246832 37.91356329 7.07655624 35.8671875 10.62890625 C35.23345215 11.73322998 34.5997168 12.83755371 33.94677734 13.9753418 C33.25628508 15.17111906 32.56569006 16.36683698 31.875 17.5625 C31.16196585 18.801663 30.44924296 20.04100515 29.73681641 21.28051758 C28.62658282 23.21207898 27.51610266 25.14349382 26.40438843 27.07420349 C23.78439909 31.62615931 21.18411509 36.18894379 18.59375 40.7578125 C17.52980571 42.6314301 16.46563494 44.50491891 15.40142822 46.37838745 C14.72602199 47.56881251 14.0516364 48.75981733 13.37835693 49.95144653 C5.11361253 64.57306824 5.11361253 64.57306824 1 70 C0.67 70 0.34 70 0 70 C0 46.9 0 23.8 0 0 Z " fill="#E94359" transform="translate(330,662)"/>
<path d="M0 0 C0.33 0 0.66 0 1 0 C1 29.7 1 59.4 1 90 C-11.87 90 -24.74 90 -38 90 C-36.43283899 86.08209748 -35.35693843 83.9076982 -32.9375 80.6875 C-17.48098788 59.02910257 -8.80085081 34.79647974 -2.91577148 9.06298828 C-2.67930908 8.03028809 -2.44284668 6.99758789 -2.19921875 5.93359375 C-1.99127686 5.00603271 -1.78333496 4.07847168 -1.5690918 3.12280273 C-1 1 -1 1 0 0 Z " fill="#E94359" transform="translate(1278,1141)"/>
<path d="M0 0 C0 22.44 0 44.88 0 68 C-13.2 68 -26.4 68 -40 68 C-39.21703284 64.08516422 -38.87306517 62.37256675 -36.98828125 59.19921875 C-36.56740234 58.48185547 -36.14652344 57.76449219 -35.71289062 57.02539062 C-35.25076172 56.25388672 -34.78863281 55.48238281 -34.3125 54.6875 C-33.30856797 52.9830881 -32.30466303 51.27866025 -31.30078125 49.57421875 C-30.76533691 48.67106934 -30.22989258 47.76791992 -29.67822266 46.83740234 C-27.36034746 42.91852751 -25.0686734 38.98458902 -22.77709961 35.05029297 C-21.5933339 33.01842474 -20.40795168 30.98749743 -19.22094727 28.95751953 C-16.36920255 24.07950406 -13.53265115 19.19406883 -10.734375 14.28515625 C-10.2290625 13.40150391 -9.72375 12.51785156 -9.203125 11.60742188 C-8.25591268 9.94852718 -7.31298736 8.28717503 -6.375 6.62304688 C-5.95734375 5.89279297 -5.5396875 5.16253906 -5.109375 4.41015625 C-4.74811523 3.77215088 -4.38685547 3.13414551 -4.01464844 2.47680664 C-2.92909509 0.89679889 -2.02764847 0 0 0 Z " fill="#E94359" transform="translate(614,498)"/>
<path d="M0 0 C17.49 0 34.98 0 53 0 C53 15.18 53 30.36 53 46 C48.26128897 44.10451559 44.70553806 41.99314161 40.5625 39.125 C39.86020264 38.6388623 39.15790527 38.15272461 38.43432617 37.65185547 C24.31549093 27.71161055 10.61956731 15.67878212 0 2 C0 1.34 0 0.68 0 0 Z " fill="#010000" transform="translate(181,1232)"/>
<path d="M0 0 C0.66 0 1.32 0 2 0 C2.1959375 0.8765625 2.391875 1.753125 2.59375 2.65625 C8.91293068 29.45829218 18.35487807 55.74332361 34.91796875 77.98828125 C37 81 37 81 38 85 C25.46 85 12.92 85 0 85 C0 56.95 0 28.9 0 0 Z " fill="#E84358" transform="translate(140,1146)"/>
<path d="M0 0 C17.16 0 34.32 0 52 0 C42.88971215 18.2205757 20.0815425 36.15323672 2 45 C1.34 45 0.68 45 0 45 C0 30.15 0 15.3 0 0 Z " fill="#010000" transform="translate(1185,1232)"/>
<path d="M0 0 C14.52 0 29.04 0 44 0 C44 9.57 44 19.14 44 29 C29.48 29 14.96 29 0 29 C0 19.43 0 9.86 0 0 Z " fill="#EB445A" transform="translate(0,1327)"/>
<path d="M0 0 C12.54 0 25.08 0 38 0 C38 21.45 38 42.9 38 65 C35.09376706 61.36720883 32.88279307 58.28033488 30.63671875 54.30078125 C30.00403076 53.18590332 29.37134277 52.07102539 28.71948242 50.92236328 C28.04210946 49.71910113 27.36478307 48.51581275 26.6875 47.3125 C25.624921 45.43562693 24.56079531 43.55963666 23.49653625 41.68371582 C22.7661417 40.39614919 22.03623701 39.10830456 21.30680847 37.82019043 C18.79905478 33.39484472 16.26781032 28.98370289 13.71875 24.58203125 C13.37705276 23.99180679 13.03535553 23.40158234 12.68330383 22.79347229 C11.05293368 19.97868466 9.42030581 17.16522292 7.78588867 14.3527832 C7.2004126 13.34175537 6.61493652 12.33072754 6.01171875 11.2890625 C5.50084717 10.40943848 4.98997559 9.52981445 4.46362305 8.62353516 C2.88669291 5.79689775 1.44752117 2.89504234 0 0 Z " fill="#010000" transform="translate(956,757)"/>
<path d="M0 0 C0.33 0 0.66 0 1 0 C1 21.12 1 42.24 1 64 C-11.21 64 -23.42 64 -36 64 C-34.34687251 59.04061752 -32.4857043 55.13660454 -29.8125 50.75 C-28.91273403 49.24819095 -28.01439276 47.74552776 -27.1171875 46.2421875 C-26.6231543 45.41557617 -26.12912109 44.58896484 -25.62011719 43.73730469 C-22.50820398 38.47950317 -19.4806311 33.17279557 -16.4375 27.875 C-12.20162704 20.52106127 -7.96572246 13.16770305 -3.625 5.875 C-3.26204834 5.25995605 -2.89909668 4.64491211 -2.52514648 4.01123047 C-1.71247322 2.65630554 -0.861211 1.32460372 0 0 Z " fill="#010000" transform="translate(518,407)"/>
<path d="M0 0 C12.21 0 24.42 0 37 0 C35.60210955 3.49472611 34.28283805 6.44993488 32.453125 9.67578125 C31.69056396 11.02385864 31.69056396 11.02385864 30.91259766 12.39916992 C30.08961182 13.84126831 30.08961182 13.84126831 29.25 15.3125 C28.67942871 16.31708252 28.10885742 17.32166504 27.52099609 18.35668945 C21.65309074 28.6610506 15.68450493 38.90701221 9.67675781 49.13037109 C8.46386886 51.20612776 7.2613991 53.28798426 6.06542969 55.37353516 C5.43282227 56.47358887 4.80021484 57.57364258 4.1484375 58.70703125 C3.57013184 59.71870361 2.99182617 60.73037598 2.39599609 61.77270508 C1.93531738 62.5077124 1.47463867 63.24271973 1 64 C0.67 64 0.34 64 0 64 C0 42.88 0 21.76 0 0 Z " fill="#010000" transform="translate(425,757)"/>
<path d="M0 0 C3.94209538 1.31403179 4.30057532 2.78856653 6.30078125 6.37890625 C6.94184814 7.51706787 7.58291504 8.65522949 8.2434082 9.82788086 C8.93313393 11.07273814 9.62283055 12.31761154 10.3125 13.5625 C11.38317459 15.47088475 12.45715408 17.377386 13.53117371 19.28388977 C14.26419636 20.58576295 14.99612948 21.88825016 15.727005 23.19132996 C19.35100528 29.64862218 23.07114257 36.04744686 26.8125 42.4375 C27.68225464 43.92648804 27.68225464 43.92648804 28.56958008 45.44555664 C31.55211639 50.57023974 31.55211639 50.57023974 34.67456055 55.60961914 C36 58 36 58 36 61 C24.12 61 12.24 61 0 61 C0 40.87 0 20.74 0 0 Z " fill="#020000" transform="translate(900,410)"/>
<path d="M0 0 C10.89 0 21.78 0 33 0 C33 18.81 33 37.62 33 57 C30.03368691 54.03368691 28.42989772 52.37240871 26.51171875 48.9296875 C25.83375244 47.72675049 25.83375244 47.72675049 25.14208984 46.49951172 C24.6620752 45.63342285 24.18206055 44.76733398 23.6875 43.875 C22.63222944 41.99959523 21.57620222 40.12461609 20.51953125 38.25 C19.9570166 37.24839844 19.39450195 36.24679687 18.81494141 35.21484375 C15.8695557 29.99762031 12.87699568 24.80777146 9.88150024 19.61920166 C8.88665975 17.89520561 7.89387894 16.17002153 6.90112305 14.44482422 C6.29179932 13.3879541 5.68247559 12.33108398 5.0546875 11.2421875 C4.51312012 10.3022998 3.97155273 9.36241211 3.41357422 8.39404297 C2.33171175 6.56179023 1.18029677 4.77044515 0 3 C0 2.01 0 1.02 0 0 Z " fill="#E94359" transform="translate(866,852)"/>
<path d="M0 0 C10.89 0 21.78 0 33 0 C24.99810606 16.00378788 24.99810606 16.00378788 21.4375 21.875 C20.5915477 23.28852413 19.74655865 24.70262503 18.90234375 26.1171875 C18.44714355 26.87870117 17.99194336 27.64021484 17.52294922 28.42480469 C15.76465434 31.39795223 14.03925137 34.38898702 12.31640625 37.3828125 C11.68484619 38.4773877 11.05328613 39.57196289 10.40258789 40.69970703 C9.14670498 42.87820378 7.89450946 45.05883095 6.64624023 47.24169922 C6.07204346 48.23443848 5.49784668 49.22717773 4.90625 50.25 C4.39384766 51.14203125 3.88144531 52.0340625 3.35351562 52.953125 C2 55 2 55 0 56 C0 37.52 0 19.04 0 0 Z " fill="#E94359" transform="translate(520,852)"/>
<path d="M0 0 C0.33 0 0.66 0 1 0 C1 30.03 1 60.06 1 91 C31.36 91 61.72 91 93 91 C93 91.33 93 91.66 93 92 C62.64 92 32.28 92 1 92 C1 123.02 1 154.04 1 186 C13.54 186 26.08 186 39 186 C39 186.33 39 186.66 39 187 C26.46 187 13.92 187 1 187 C1 208.45 1 229.9 1 252 C0.67 252 0.34 252 0 252 C0 230.55 0 209.1 0 187 C-31.02 187 -62.04 187 -94 187 C-94 218.02 -94 249.04 -94 281 C-68.26 281 -42.52 281 -16 281 C-16.33 281.66 -16.66 282.32 -17 283 C-28.62498841 283.03107833 -40.2499758 283.0511429 -51.875 283.0625 C-52.74492836 283.06335602 -53.61485672 283.06421204 -54.51114655 283.06509399 C-80.63655567 283.08776266 -106.75307571 282.93263706 -132.875 282.5 C-133.59744652 282.48804218 -134.31989304 282.47608437 -135.06423187 282.46376419 C-143.7096835 282.31972942 -152.35493435 282.16569543 -161 282 C-161 281.67 -161 281.34 -161 281 C-139.22 281 -117.44 281 -95 281 C-95 249.98 -95 218.96 -95 187 C-98.96 187 -102.92 187 -107 187 C-105.01810645 182.04526614 -102.64550312 177.75701588 -99.9375 173.1875 C-99.24817383 172.00510742 -99.24817383 172.00510742 -98.54492188 170.79882812 C-98.10599609 170.05439453 -97.66707031 169.30996094 -97.21484375 168.54296875 C-96.81386475 167.86258545 -96.41288574 167.18220215 -95.99975586 166.48120117 C-95.66983643 165.99240479 -95.33991699 165.5036084 -95 165 C-94.67 165 -94.34 165 -94 165 C-94 171.93 -94 178.86 -94 186 C-62.98 186 -31.96 186 0 186 C0 154.98 0 123.96 0 92 C-17.16 92 -34.32 92 -52 92 C-51.67 91.34 -51.34 90.68 -51 90 C-34.17 90.33 -17.34 90.66 0 91 C-0.08378906 84.51472656 -0.16757812 78.02945313 -0.25390625 71.34765625 C-0.30459189 67.2506562 -0.35498135 63.15365684 -0.40429688 59.05664062 C-0.48268246 52.54691559 -0.56219253 46.03721736 -0.64819336 39.52758789 C-0.71742364 34.28219179 -0.78178238 29.03675691 -0.84269524 23.79125786 C-0.86685903 21.78527068 -0.89280876 19.77930423 -0.92053413 17.77336311 C-0.95892701 14.97402314 -0.99109448 12.17467821 -1.02172852 9.37524414 C-1.04114754 8.11828735 -1.04114754 8.11828735 -1.06095886 6.8359375 C-1.0790096 4.89060262 -1.04524918 2.94489232 -1 1 C-0.67 0.67 -0.34 0.34 0 0 Z " fill="#272626" transform="translate(424,570)"/>
<path d="M0 0 C0 11.88 0 23.76 0 36 C-12.87 36 -25.74 36 -39 36 C-37.1337054 31.3342635 -35.17600853 28.64339213 -31.8125 25.125 C-31.31202148 24.59398682 -30.81154297 24.06297363 -30.29589844 23.51586914 C-29.30483571 22.46762972 -28.3106293 21.42235172 -27.31298828 20.38037109 C-26.27302812 19.28703998 -25.25539501 18.17247686 -24.24609375 17.05078125 C-19.25495986 11.66869692 -7.51262638 0 0 0 Z " fill="#020000" transform="translate(519,55)"/>
<path d="M0 0 C7.51907965 3.75953982 12.74043145 7.60906972 19 13 C19.78761719 13.65226562 20.57523438 14.30453125 21.38671875 14.9765625 C28.39496082 20.92072593 34.86853891 27.73707782 39 36 C26.13 36 13.26 36 0 36 C0 24.12 0 12.24 0 0 Z " fill="#020000" transform="translate(900,55)"/>
<path d="M0 0 C0 16.17 0 32.34 0 49 C-9.9 49 -19.8 49 -30 49 C-28.56867617 45.42169044 -27.19002658 42.3869441 -25.3125 39.078125 C-24.78325928 38.14266846 -24.25401855 37.20721191 -23.70874023 36.2434082 C-23.14485596 35.2555835 -22.58097168 34.26775879 -22 33.25 C-21.4212915 32.23317139 -20.84258301 31.21634277 -20.24633789 30.16870117 C-18.50193849 27.10993945 -16.75150672 24.05469616 -15 21 C-14.49710449 20.11844238 -13.99420898 19.23688477 -13.47607422 18.32861328 C-12.13735256 15.98550452 -10.78954293 13.64794128 -9.4375 11.3125 C-9.04498047 10.62510742 -8.65246094 9.93771484 -8.24804688 9.22949219 C-2.85521954 0 -2.85521954 0 0 0 Z " fill="#E94359" transform="translate(329,992)"/>
<path d="M0 0 C12.54 0 25.08 0 38 0 C36.30599279 3.38801441 35.24557637 5.00634434 32.68359375 7.57519531 C32.00949463 8.25559875 31.33539551 8.9360022 30.64086914 9.63702393 C29.91375732 10.36008728 29.18664551 11.08315063 28.4375 11.828125 C27.31686157 12.95163361 27.31686157 12.95163361 26.17358398 14.09783936 C24.59572081 15.67706204 23.01533501 17.25376774 21.43261719 18.828125 C19.00222035 21.24778946 16.58269939 23.67796189 14.1640625 26.109375 C12.63084948 27.64126697 11.09701648 29.17253872 9.5625 30.703125 C8.83538818 31.43428528 8.10827637 32.16544556 7.35913086 32.91876221 C6.68503174 33.58655701 6.01093262 34.25435181 5.31640625 34.94238281 C4.42610718 35.8302951 4.42610718 35.8302951 3.51782227 36.73614502 C2 38 2 38 0 38 C0 25.46 0 12.92 0 0 Z " fill="#E94359" transform="translate(805,852)"/>
<path d="M0 0 C3.72877966 1.24292655 4.02347773 2.26161421 5.93359375 5.609375 C6.49481934 6.58245605 7.05604492 7.55553711 7.63427734 8.55810547 C8.22934082 9.61143066 8.8244043 10.66475586 9.4375 11.75 C10.05061035 12.82008301 10.6637207 13.89016602 11.29541016 14.99267578 C12.56928687 17.21794124 13.83941571 19.44535603 15.10595703 21.67480469 C16.91874812 24.85735362 18.7503843 28.02811909 20.58984375 31.1953125 C21.68520772 33.08836124 22.78027416 34.98158217 23.875 36.875 C24.65121704 38.21062988 24.65121704 38.21062988 25.44311523 39.57324219 C25.91305908 40.39211914 26.38300293 41.21099609 26.8671875 42.0546875 C27.28081543 42.77124512 27.69444336 43.48780273 28.12060547 44.22607422 C29 46 29 46 29 48 C19.43 48 9.86 48 0 48 C0 32.16 0 16.32 0 0 Z " fill="#E84359" transform="translate(1090,993)"/>
<path d="M0 0 C31.02 0 62.04 0 94 0 C94 2.64 94 5.28 94 8 C62.98 8 31.96 8 0 8 C0 5.36 0 2.72 0 0 Z " fill="#000000" transform="translate(805,1042)"/>
<path d="M0 0 C31.02 0 62.04 0 94 0 C94 2.64 94 5.28 94 8 C62.98 8 31.96 8 0 8 C0 5.36 0 2.72 0 0 Z " fill="#000000" transform="translate(710,1042)"/>
<path d="M0 0 C31.02 0 62.04 0 94 0 C94 2.64 94 5.28 94 8 C62.98 8 31.96 8 0 8 C0 5.36 0 2.72 0 0 Z " fill="#000000" transform="translate(615,1042)"/>
<path d="M0 0 C31.02 0 62.04 0 94 0 C94 2.64 94 5.28 94 8 C62.98 8 31.96 8 0 8 C0 5.36 0 2.72 0 0 Z " fill="#000000" transform="translate(520,1042)"/>
<path d="M0 0 C8.25 0 16.5 0 25 0 C25 9.57 25 19.14 25 29 C16.75 29 8.5 29 0 29 C0 19.43 0 9.86 0 0 Z " fill="#EB445A" transform="translate(1375,1327)"/>
<path d="M0 0 C8.91 0 17.82 0 27 0 C27 15.18 27 30.36 27 46 C26.34 46 25.68 46 25 46 C24.44054688 44.9790625 23.88109375 43.958125 23.3046875 42.90625 C17.56732926 32.48819105 11.64891307 22.19184971 5.56005859 11.97460938 C4.9820752 10.99556641 4.4040918 10.01652344 3.80859375 9.0078125 C3.29095459 8.13785645 2.77331543 7.26790039 2.23999023 6.37158203 C1 4 1 4 0 0 Z " fill="#E94359" transform="translate(1157,852)"/>
<path d="M0 0 C2 2 2 2 2.20254517 5.58132935 C2.19054217 7.15605883 2.16718265 8.73072426 2.13525391 10.30517578 C2.12579239 11.16378204 2.11633087 12.02238831 2.10658264 12.90701294 C2.07282569 15.75332577 2.02473234 18.59921005 1.9765625 21.4453125 C1.95040354 23.4154243 1.92513588 25.38554812 1.90072632 27.35568237 C1.83399533 32.54753804 1.75511991 37.73914173 1.67376709 42.93078613 C1.57871784 49.15645253 1.49865971 55.38232733 1.41610718 61.60816956 C1.2889278 71.07232331 1.14263448 80.53600966 1 90 C17.83 90 34.66 90 52 90 C52 90.33 52 90.66 52 91 C35.17 91 18.34 91 1 91 C1 122.02 1 153.04 1 185 C32.02 185 63.04 185 95 185 C95 185.33 95 185.66 95 186 C63.98 186 32.96 186 1 186 C1 208.11 1 230.22 1 253 C0.67 253 0.34 253 0 253 C0 230.89 0 208.78 0 186 C-12.54 186 -25.08 186 -38 186 C-38 185.67 -38 185.34 -38 185 C-25.46 185 -12.92 185 0 185 C0 153.98 0 122.96 0 91 C-46.035 91.495 -46.035 91.495 -93 92 C-93 91.34 -93 90.68 -93 90 C-62.31 90 -31.62 90 0 90 C0 60.3 0 30.6 0 0 Z M95 165 C97.9678123 168.70976538 100.37199265 172.07019259 102.75 176.125 C103.36359375 177.15882813 103.9771875 178.19265625 104.609375 179.2578125 C106 182 106 182 106 185 C102.37 185 98.74 185 95 185 C95 178.4 95 171.8 95 165 Z " fill="#262526" transform="translate(994,571)"/>
<path d="M0 0 C8.58 0 17.16 0 26 0 C25.12003292 4.39983539 24.36810163 6.47201801 22.15625 10.17578125 C21.57311035 11.16191406 20.9899707 12.14804687 20.38916016 13.1640625 C19.7657373 14.20304688 19.14231445 15.24203125 18.5 16.3125 C17.22557257 18.46425775 15.95213785 20.61660376 14.6796875 22.76953125 C14.05416992 23.82479004 13.42865234 24.88004883 12.78417969 25.96728516 C10.34396861 30.11510973 7.97226325 34.2990432 5.625 38.5 C5.25052734 39.16942627 4.87605469 39.83885254 4.49023438 40.52856445 C3.65842957 42.01808004 2.82889625 43.50886389 2 45 C1.34 45 0.68 45 0 45 C0 30.15 0 15.3 0 0 Z " fill="#E84359" transform="translate(235,852)"/>
<path d="M0 0 C0.33 0 0.66 0 1 0 C1 91.08 1 182.16 1 276 C0.67 276 0.34 276 0 276 C0 255.21 0 234.42 0 213 C-20.79 213.33 -41.58 213.66 -63 214 C-63 213.34 -63 212.68 -63 212 C-42.21 212 -21.42 212 0 212 C0 180.98 0 149.96 0 118 C-13.6434375 118.2784375 -13.6434375 118.2784375 -27.5625 118.5625 C-51.20020877 118.98915079 -74.80027479 118.99597662 -98.4375 118.5625 C-99.13691334 118.54968616 -99.83632668 118.53687233 -100.55693436 118.5236702 C-109.03833671 118.36670182 -117.51933064 118.19261545 -126 118 C-126 117.67 -126 117.34 -126 117 C-105.21 117 -84.42 117 -63 117 C-63 85.65 -63 54.3 -63 22 C-42.21 22 -21.42 22 0 22 C0 14.74 0 7.48 0 0 Z M-62 23 C-62 54.02 -62 85.04 -62 117 C-41.54 117 -21.08 117 0 117 C0 85.98 0 54.96 0 23 C-20.46 23 -40.92 23 -62 23 Z " fill="#AB3141" transform="translate(772,164)"/>
<path d="M0 0 C25.08 0 50.16 0 76 0 C76 2.64 76 5.28 76 8 C49.93 8 23.86 8 -3 8 C-1 2 -1 2 0 0 Z " fill="#000000" transform="translate(443,1042)"/>
<path d="M0 0 C24.75 0 49.5 0 75 0 C76.32 2.64 77.64 5.28 79 8 C52.93 8 26.86 8 0 8 C0 5.36 0 2.72 0 0 Z " fill="#000000" transform="translate(900,1042)"/>
<path d="M0 0 C0.33 0 0.66 0 1 0 C1 14.52 1 29.04 1 44 C-7.25 44 -15.5 44 -24 44 C-23.07873956 40.31495822 -21.99712405 37.93846377 -20.15625 34.66796875 C-19.28166138 33.10840454 -19.28166138 33.10840454 -18.3894043 31.51733398 C-17.76590088 30.41848877 -17.14239746 29.31964355 -16.5 28.1875 C-15.86940674 27.06996338 -15.23881348 25.95242676 -14.58911133 24.80102539 C-11.01049917 18.48080454 -7.40330507 12.17820712 -3.6875 5.9375 C-3.32140625 5.31963623 -2.9553125 4.70177246 -2.578125 4.06518555 C-1.74880519 2.69152378 -0.87946428 1.3421105 0 0 Z " fill="#020001" transform="translate(233,902)"/>
<path d="M0 0 C10.56 0 21.12 0 32 0 C32 0.33 32 0.66 32 1 C21.77 1 11.54 1 1 1 C1 32.02 1 63.04 1 95 C11.23 95 21.46 95 32 95 C32 95.33 32 95.66 32 96 C21.77 96 11.54 96 1 96 C1.00523682 98.84230225 1.01047363 101.68460449 1.01586914 104.61303711 C1.03240365 113.98082832 1.04347066 123.34862016 1.05181217 132.71642208 C1.05704139 138.39876512 1.06413973 144.08109327 1.07543945 149.76342773 C1.08626696 155.24229136 1.09227654 160.72114062 1.09487724 166.20001411 C1.09673174 168.29529611 1.10035282 170.39057728 1.10573006 172.4858532 C1.11293868 175.40977584 1.11399102 178.33363833 1.11352539 181.25756836 C1.11712067 182.1329425 1.12071594 183.00831665 1.12442017 183.91021729 C1.11405216 189.88594784 1.11405216 189.88594784 0 191 C-2.92194665 191.09525367 -5.82020329 191.12552736 -8.74243164 191.11352539 C-10.11790413 191.11374443 -10.11790413 191.11374443 -11.52116394 191.1139679 C-14.56751836 191.1132684 -17.61381245 191.10547428 -20.66015625 191.09765625 C-22.76622993 191.0957922 -24.87230403 191.09436824 -26.9783783 191.09336853 C-32.53342883 191.08954231 -38.08845341 191.07971114 -43.64349365 191.06866455 C-49.3072474 191.05845267 -54.97100533 191.05387139 -60.63476562 191.04882812 C-71.75652369 191.03808896 -82.87825563 191.02049132 -94 191 C-94 200.9 -94 210.8 -94 221 C-94.66 220.67 -95.32 220.34 -96 220 C-95.67 182.05 -95.34 144.1 -95 105 C-96.98 105 -98.96 105 -101 105 C-101 104.67 -101 104.34 -101 104 C-99.02 104 -97.04 104 -95 104 C-95 101.03 -95 98.06 -95 95 C-63.65 95 -32.3 95 0 95 C0 63.65 0 32.3 0 0 Z M-94 96 C-94 127.02 -94 158.04 -94 190 C-62.98 190 -31.96 190 0 190 C0 158.98 0 127.96 0 96 C-31.02 96 -62.04 96 -94 96 Z " fill="#2C2728" transform="translate(614,186)"/>
<path d="M0 0 C3.45890967 3.45890967 5.3521644 5.99970529 7.71484375 10.1640625 C8.05246231 10.75617523 8.39008087 11.34828796 8.7379303 11.95834351 C9.44935412 13.20894012 10.15766961 14.46130953 10.86303711 15.71533203 C11.92455882 17.60199934 12.99551749 19.48303271 14.06835938 21.36328125 C17.92589904 28.15994379 21.49817243 34.99634485 25 42 C16.75 42 8.5 42 0 42 C0 28.14 0 14.28 0 0 Z " fill="#020001" transform="translate(1185,904)"/>
<path d="M0 0 C7.59 0 15.18 0 23 0 C23 12.87 23 25.74 23 39 C20.57031006 36.57031006 19.2516435 34.96405687 17.6171875 32.078125 C16.95553589 30.92074829 16.95553589 30.92074829 16.28051758 29.73999023 C15.81669678 28.91829346 15.35287598 28.09659668 14.875 27.25 C13.89828663 25.53710347 12.92040488 23.82487268 11.94140625 22.11328125 C11.45172363 21.25686035 10.96204102 20.40043945 10.45751953 19.51806641 C7.92832147 15.14852724 5.29849069 10.83913869 2.64208984 6.54589844 C0 2.21584055 0 2.21584055 0 0 Z " fill="#020000" transform="translate(1066,947)"/>
<path d="M0 0 C7.26 0 14.52 0 22 0 C20.50714809 4.47855574 19.24583549 7.60610169 16.91796875 11.5546875 C16.31533203 12.58207031 15.71269531 13.60945312 15.09179688 14.66796875 C14.46337891 15.72628906 13.83496094 16.78460937 13.1875 17.875 C12.57068359 18.92558594 11.95386719 19.97617187 11.31835938 21.05859375 C4.54373533 32.56321567 4.54373533 32.56321567 1 38 C0.67 38 0.34 38 0 38 C0 25.46 0 12.92 0 0 Z " fill="#020001" transform="translate(330,947)"/>
<path d="M0 0 C0.33 0 0.66 0 1 0 C1 30.03 1 60.06 1 91 C31.36 91 61.72 91 93 91 C93 91.33 93 91.66 93 92 C62.64 92 32.28 92 1 92 C1 123.02 1 154.04 1 186 C13.54 186 26.08 186 39 186 C39 186.33 39 186.66 39 187 C26.46 187 13.92 187 1 187 C1 208.45 1 229.9 1 252 C0.67 252 0.34 252 0 252 C0 230.55 0 209.1 0 187 C-0.66 186.67 -1.32 186.34 -2 186 C-1.34 186 -0.68 186 0 186 C0 154.98 0 123.96 0 92 C-17.16 92 -34.32 92 -52 92 C-51.505 91.01 -51.505 91.01 -51 90 C-34.17 90.33 -17.34 90.66 0 91 C-0.08378906 84.51472656 -0.16757812 78.02945313 -0.25390625 71.34765625 C-0.30459189 67.2506562 -0.35498135 63.15365684 -0.40429688 59.05664062 C-0.48268246 52.54691559 -0.56219253 46.03721736 -0.64819336 39.52758789 C-0.71742364 34.28219179 -0.78178238 29.03675691 -0.84269524 23.79125786 C-0.86685903 21.78527068 -0.89280876 19.77930423 -0.92053413 17.77336311 C-0.95892701 14.97402314 -0.99109448 12.17467821 -1.02172852 9.37524414 C-1.03467453 8.53727295 -1.04762054 7.69930176 -1.06095886 6.8359375 C-1.0790096 4.89060262 -1.04524918 2.94489232 -1 1 C-0.67 0.67 -0.34 0.34 0 0 Z " fill="#262626" transform="translate(424,570)"/>
<path d="M0 0 C30.69 0 61.38 0 93 0 C93 0.33 93 0.66 93 1 C62.64 1 32.28 1 1 1 C1 32.02 1 63.04 1 95 C32.02 95 63.04 95 95 95 C95 95.33 95 95.66 95 96 C63.98 96 32.96 96 1 96 C1 127.02 1 158.04 1 190 C0.67 190 0.34 190 0 190 C0 158.98 0 127.96 0 96 C-10.23 96 -20.46 96 -31 96 C-31 95.67 -31 95.34 -31 95 C-20.77 95 -10.54 95 0 95 C0 63.65 0 32.3 0 0 Z M-14 189 C-7.07 189.495 -7.07 189.495 0 190 C0 190.33 0 190.66 0 191 C-6.435 191.495 -6.435 191.495 -13 192 C-13.33 191.01 -13.66 190.02 -14 189 Z " fill="#262626" transform="translate(804,281)"/>
<path d="M0 0 C30.69 0 61.38 0 93 0 C93 0.33 93 0.66 93 1 C62.64 1 32.28 1 1 1 C1 32.02 1 63.04 1 95 C0.67 95 0.34 95 0 95 C0 63.65 0 32.3 0 0 Z M-32 95 C-21.44 95 -10.88 95 0 95 C0 97.97 0 100.94 0 104 C-11.69467147 104.75857328 -22.12582983 102.4296922 -32 96 C-32 95.67 -32 95.34 -32 95 Z " fill="#262525" transform="translate(519,186)"/>
<path d="M0 0 C20.79 0 41.58 0 63 0 C63 0.33 63 0.66 63 1 C42.54 1 22.08 1 1 1 C1 32.02 1 63.04 1 95 C11.56 95 22.12 95 33 95 C31.35808886 98.28382229 27.79069142 98.80492645 24.5 100 C23.77111572 100.2676416 23.04223145 100.5352832 22.29125977 100.81103516 C14.86769647 103.48632708 7.95578047 105.33854385 0 105 C0 102.03 0 99.06 0 96 C-0.66 95.67 -1.32 95.34 -2 95 C-1.34 95 -0.68 95 0 95 C0 63.65 0 32.3 0 0 Z " fill="#292626" transform="translate(899,186)"/>
<path d="M0 0 C0.33 0 0.66 0 1 0 C1 10.89 1 21.78 1 33 C-5.27 33 -11.54 33 -18 33 C-16.43994613 28.31983839 -14.98794064 24.93842884 -12.55859375 20.76171875 C-12.23085464 20.19548294 -11.90311554 19.62924713 -11.56544495 19.04585266 C-10.87798401 17.86037498 -10.1879195 16.67640359 -9.49536133 15.49389648 C-8.43204117 13.67817853 -7.37650471 11.85811228 -6.32226562 10.03710938 C-1.17138732 1.17138732 -1.17138732 1.17138732 0 0 Z " fill="#030001" transform="translate(518,913)"/>
<path d="M0 0 C0.33 0 0.66 0 1 0 C1 12.21 1 24.42 1 37 C31.36 37 61.72 37 93 37 C93 37.33 93 37.66 93 38 C62.64 38 32.28 38 1 38 C1 69.02 1 100.04 1 132 C0.67 132 0.34 132 0 132 C0 100.98 0 69.96 0 38 C-13.2 38 -26.4 38 -40 38 C-39.67 37.34 -39.34 36.68 -39 36 C-19.695 36.495 -19.695 36.495 0 37 C0 24.79 0 12.58 0 0 Z M-63 132 C-42.21 132 -21.42 132 0 132 C0 132.33 0 132.66 0 133 C-20.79 133 -41.58 133 -63 133 C-63 132.67 -63 132.34 -63 132 Z " fill="#262526" transform="translate(519,54)"/>
<path d="M0 0 C2.92811603 2.92811603 4.7891425 5.82534144 6.79296875 9.3828125 C7.14386063 9.99768524 7.4947525 10.61255798 7.85627747 11.24606323 C8.59389648 12.54083105 9.32917752 13.83693326 10.06225586 15.13427734 C11.1890847 17.12780357 12.32340485 19.11691666 13.45898438 21.10546875 C14.17492046 22.36433246 14.89043037 23.62343867 15.60546875 24.8828125 C15.94603806 25.48070587 16.28660736 26.07859924 16.63749695 26.6946106 C19 30.88364677 19 30.88364677 19 32 C12.73 32 6.46 32 0 32 C0 21.44 0 10.88 0 0 Z " fill="#030101" transform="translate(900,914)"/>
<path d="M0 0 C4.62 0 9.24 0 14 0 C14 16.83 14 33.66 14 51 C13.67 51 13.34 51 13 51 C12.87471924 50.32646484 12.74943848 49.65292969 12.62036133 48.95898438 C10.1230508 35.66717651 7.34969133 22.80991571 3 10 C2.38643642 8.00286277 1.7809402 6.00320895 1.1875 4 C0.795625 2.68 0.40375 1.36 0 0 Z " fill="#E84359" transform="translate(1265,1042)"/>
<path d="M0 0 C10.56 0 21.12 0 32 0 C32 0.33 32 0.66 32 1 C21.77 1 11.54 1 1 1 C1 32.02 1 63.04 1 95 C4.96 95 8.92 95 13 95 C11.50528426 100.41514158 8.93142616 104.69143234 5.9375 109.375 C5.47794922 110.11105469 5.01839844 110.84710938 4.54492188 111.60546875 C3.39575079 113.42456776 2.2018385 115.21525923 1 117 C0.67 117 0.34 117 0 117 C0 110.07 0 103.14 0 96 C-0.66 95.67 -1.32 95.34 -2 95 C-1.34 95 -0.68 95 0 95 C0 63.65 0 32.3 0 0 Z " fill="#262626" transform="translate(614,376)"/>
<path d="M0 0 C2.9678123 3.70976538 5.37199265 7.07019259 7.75 11.125 C8.36359375 12.15882813 8.9771875 13.19265625 9.609375 14.2578125 C11 17 11 17 11 20 C7.37 20 3.74 20 0 20 C0 13.4 0 6.8 0 0 Z M-95 20 C-63.65 20 -32.3 20 0 20 C0 20.33 0 20.66 0 21 C-31.02 21 -62.04 21 -94 21 C-94 43.11 -94 65.22 -94 88 C-94.33 88 -94.66 88 -95 88 C-95 65.56 -95 43.12 -95 20 Z " fill="#262525" transform="translate(1089,736)"/>
<path d="M0 0 C4.29 0 8.58 0 13 0 C12.27635893 4.34184642 11.77615844 6.91065974 10.1015625 10.71484375 C7.95201365 15.90230514 6.59691547 21.09201658 5.375 26.5625 C5.06949219 27.88411133 5.06949219 27.88411133 4.7578125 29.23242188 C3.47255861 34.81421359 2.23772902 40.4075088 1 46 C0.67 46 0.34 46 0 46 C0 30.82 0 15.64 0 0 Z " fill="#E84359" transform="translate(140,1042)"/>
<path d="M0 0 C1.06670803 0.00085602 2.13341606 0.00171204 3.23244858 0.00259399 C16.55081552 0.01406816 29.86915844 0.03426405 43.1875 0.0625 C43.1875 0.7225 43.1875 1.3825 43.1875 2.0625 C12.8275 2.0625 -17.5325 2.0625 -48.8125 2.0625 C-48.8125 32.4225 -48.8125 62.7825 -48.8125 94.0625 C-50.8125 92.0625 -50.8125 92.0625 -51.01504517 88.40524292 C-51.00304046 86.79462731 -50.97967856 85.18407439 -50.94775391 83.57373047 C-50.93829239 82.69561707 -50.92883087 81.81750366 -50.91908264 80.91278076 C-50.8853233 78.00154154 -50.83723055 75.09072109 -50.7890625 72.1796875 C-50.76290379 70.16473495 -50.73763611 68.14977064 -50.71322632 66.13479614 C-50.64649289 60.82457645 -50.56761799 55.51460303 -50.48626709 50.20458984 C-50.39122083 43.83708502 -50.31116065 37.46937651 -50.22860718 31.10169983 C-50.10142452 21.42176104 -49.95513314 11.74227905 -49.8125 2.0625 C-67.3025 2.3925 -84.7925 2.7225 -102.8125 3.0625 C-102.8125 2.4025 -102.8125 1.7425 -102.8125 1.0625 C-68.53974735 0.13427447 -34.28337769 -0.02770654 0 0 Z " fill="#272526" transform="translate(948.8125,564.9375)"/>
<path d="M0 0 C3.6607519 1.22025063 3.92339441 2.126491 5.6875 5.4375 C6.12449219 6.24058594 6.56148437 7.04367187 7.01171875 7.87109375 C8 10 8 10 8 12 C6.94570801 11.83943115 5.89141602 11.6788623 4.80517578 11.51342773 C-3.09538897 10.84085506 -8.96864864 11.70773158 -15.23535156 16.83251953 C-20.83610714 21.95095284 -25.97903591 27.49372781 -31.125 33.0625 C-32.9611328 34.993773 -34.81088265 36.9113137 -36.66015625 38.83007812 C-41.1541004 43.51016426 -45.59588932 48.23536413 -50 53 C-50 50 -50 50 -48.10180664 47.74104309 C-47.21356201 46.8594603 -46.32531738 45.9778775 -45.41015625 45.06958008 C-44.67863846 44.33740517 -44.67863846 44.33740517 -43.93234253 43.59043884 C-42.31606996 41.97625895 -40.68942515 40.37296808 -39.0625 38.76953125 C-37.94083581 37.6534613 -36.81983145 36.53672785 -35.69946289 35.4193573 C-32.74684447 32.47820112 -29.7853282 29.54616407 -26.82189941 26.61590576 C-23.80034335 23.62502077 -20.78724696 20.62564038 -17.7734375 17.62695312 C-11.85722734 11.74293145 -5.93159485 5.86851206 0 0 Z " fill="#12080A" transform="translate(856,840)"/>
<path d="M0 0 C0 7.92 0 15.84 0 24 C-4.95 24 -9.9 24 -15 24 C-13.66308818 19.98926454 -12.72721787 17.20654332 -10.6875 13.73046875 C-10.25179688 12.98732422 -9.81609375 12.24417969 -9.3671875 11.47851562 C-8.91601562 10.72248047 -8.46484375 9.96644531 -8 9.1875 C-7.54882812 8.41212891 -7.09765625 7.63675781 -6.6328125 6.83789062 C-2.58870571 0 -2.58870571 0 0 0 Z " fill="#E84358" transform="translate(424,827)"/>
<path d="M0 0 C4.0106115 4.0106115 6.44140348 7.72501908 9.25 12.5625 C9.70890625 13.33013672 10.1678125 14.09777344 10.640625 14.88867188 C11.07375 15.62794922 11.506875 16.36722656 11.953125 17.12890625 C12.34661133 17.79994385 12.74009766 18.47098145 13.14550781 19.16235352 C14 21 14 21 14 24 C9.38 24 4.76 24 0 24 C0 16.08 0 8.16 0 0 Z " fill="#E64258" transform="translate(995,827)"/>
<path d="M0 0 C9.9 0 19.8 0 30 0 C30 2.64 30 5.28 30 8 C19.27139894 8.69590926 9.07895241 7.1027949 0 1 C0 0.67 0 0.34 0 0 Z " fill="#040101" transform="translate(489,282)"/>
<path d="M0 0 C9.9 0 19.8 0 30 0 C26.59259968 2.55555024 24.45262354 3.75455426 20.5625 5.125 C19.17224609 5.62386719 19.17224609 5.62386719 17.75390625 6.1328125 C13.30944037 7.53234644 9.34586555 8.12461154 4.6875 8.0625 C3.80449219 8.05347656 2.92148437 8.04445313 2.01171875 8.03515625 C1.34785156 8.02355469 0.68398438 8.01195312 0 8 C0 5.36 0 2.72 0 0 Z " fill="#020000" transform="translate(900,282)"/>
<path d="M0 0 C3.96 0 7.92 0 12 0 C12 6.93 12 13.86 12 21 C9.62035172 18.62035172 8.32408665 17.09431401 6.73828125 14.27734375 C6.34189453 13.57416016 5.94550781 12.87097656 5.53710938 12.14648438 C5.13298828 11.41751953 4.72886719 10.68855469 4.3125 9.9375 C3.68891602 8.83825195 3.68891602 8.83825195 3.05273438 7.71679688 C0 2.25796644 0 2.25796644 0 0 Z " fill="#040101" transform="translate(792,472)"/>
<path d="M0 0 C3.96 0 7.92 0 12 0 C8.67050953 6.85483331 5.25979264 13.66423247 1 20 C0.67 20 0.34 20 0 20 C0 13.4 0 6.8 0 0 Z " fill="#050101" transform="translate(615,472)"/>
<path d="M0 0 C0.33 0 0.66 0 1 0 C1 6.27 1 12.54 1 19 C-2.63 19 -6.26 19 -10 19 C-8.74835013 15.87087533 -7.69858563 13.28626875 -6.0546875 10.44921875 C-5.70019531 9.83369141 -5.34570312 9.21816406 -4.98046875 8.58398438 C-4.61566406 7.95814453 -4.25085938 7.33230469 -3.875 6.6875 C-3.50246094 6.04232422 -3.12992187 5.39714844 -2.74609375 4.73242188 C-1.83367787 3.15324055 -0.91724491 1.57638136 0 0 Z " fill="#060102" transform="translate(328,737)"/>
<path d="M0 0 C4.04578824 1.34859608 4.5970333 3.21997017 6.6875 6.875 C7.31011719 7.94492187 7.93273438 9.01484375 8.57421875 10.1171875 C10 13 10 13 10 16 C6.7 16 3.4 16 0 16 C0 10.72 0 5.44 0 0 Z " fill="#060102" transform="translate(1090,740)"/>
<path d="M0 0 C1.65 3.3 3.3 6.6 5 10 C-0.28 10 -5.56 10 -11 10 C-2.50943396 0 -2.50943396 0 0 0 Z " fill="#040101" transform="translate(859,841)"/>
<path d="M0 0 C2.31 0 4.62 0 7 0 C7 2.31 7 4.62 7 7 C4.13302508 5.71480435 2.02392288 4.42870746 0 2 C0 1.34 0 0.68 0 0 Z " fill="#E54258" transform="translate(702,852)"/>
</svg>
