<svg width="16" height="16" viewBox="0 0 16 16" fill="none" xmlns="http://www.w3.org/2000/svg">
<g clip-path="url(#clip0_1579_2285)">
<path d="M15.5 11V10H14.45C14.385 9.68709 14.2606 9.38955 14.0835 9.1235L14.8285 8.3785L14.1215 7.6715L13.3765 8.4165C13.1104 8.23961 12.8129 8.11537 12.5 8.0505V7H11.5V8.0505C11.1871 8.11537 10.8896 8.23961 10.6235 8.4165L9.8785 7.6715L9.1715 8.3785L9.9165 9.1235C9.73943 9.38955 9.61502 9.68709 9.55 10H8.5V11H9.55C9.615 11.3185 9.742 11.6145 9.916 11.8765L9.171 12.6215L9.878 13.3285L10.623 12.5835C10.8892 12.7606 11.1869 12.885 11.5 12.95V14H12.5V12.95C12.8129 12.8851 13.1104 12.7609 13.3765 12.584L14.1215 13.329L14.8285 12.622L14.0835 11.877C14.2606 11.6108 14.385 11.3131 14.45 11H15.5ZM12 12C11.6022 12 11.2206 11.842 10.9393 11.5607C10.658 11.2794 10.5 10.8978 10.5 10.5C10.5 10.1022 10.658 9.72064 10.9393 9.43934C11.2206 9.15804 11.6022 9 12 9C12.3978 9 12.7794 9.15804 13.0607 9.43934C13.342 9.72064 13.5 10.1022 13.5 10.5C13.5 10.8978 13.342 11.2794 13.0607 11.5607C12.7794 11.842 12.3978 12 12 12Z" fill="black"/>
<path d="M10.5 3C10.5 1.6215 9.3785 0.5 8 0.5C7.11 0.5 6.2805 0.979 5.835 1.75C5.67576 2.0271 5.56898 2.33118 5.52 2.647C4.9304 2.22639 4.22425 2.00021 3.5 2C1.57 2 0 3.57 0 5.5C0.000633091 6.14078 0.177164 6.76909 0.51035 7.31643C0.843535 7.86378 1.32059 8.30915 1.8895 8.604C1.35 9.063 1 9.738 1 10.5C1 11.8785 2.1215 13 3.5 13C3.867 13 4.2135 12.916 4.5275 12.773C4.666 14.0215 5.715 15 7 15C7.32845 15.0009 7.65381 14.9366 7.95728 14.811C8.26075 14.6854 8.5363 14.5008 8.768 14.268L8.0605 13.5605C7.92157 13.7002 7.75631 13.811 7.57428 13.8865C7.39224 13.9619 7.19705 14.0005 7 14C6.173 14 5.5 13.327 5.5 12.5C5.5 11.673 6.173 11 7 11V10C6.6325 10 6.2865 10.0845 5.9725 10.227C5.9019 9.59633 5.59409 9.01611 5.1115 8.604C5.68023 8.30901 6.15707 7.86358 6.49008 7.31625C6.82308 6.76891 6.99946 6.14068 7 5.5C7 5.4265 6.993 5.3545 6.9885 5.282C7.2985 5.42 7.6395 5.5 8 5.5C9.3785 5.5 10.5 4.3785 10.5 3ZM6.7 2.25C6.83212 2.02217 7.02172 1.833 7.24984 1.70139C7.47797 1.56978 7.73663 1.50034 8 1.5C8.827 1.5 9.5 2.173 9.5 3C9.5 3.827 8.827 4.5 8 4.5C7.173 4.5 6.5 3.827 6.5 3H6.485C6.503 2.712 6.571 2.474 6.7 2.25ZM5 10.5C5 11.327 4.327 12 3.5 12C2.673 12 2 11.327 2 10.5C2 9.673 2.673 9 3.5 9C4.327 9 5 9.673 5 10.5ZM3.5 8C2.1215 8 1 6.8785 1 5.5C1 4.1215 2.1215 3 3.5 3C4.8785 3 6 4.1215 6 5.5C6 6.8785 4.8785 8 3.5 8Z" fill="black"/>
</g>
<defs>
<clipPath id="clip0_1579_2285">
<rect width="16" height="16" fill="white"/>
</clipPath>
</defs>
</svg>
