<svg width="15" height="15" viewBox="0 0 15 15" fill="none" xmlns="http://www.w3.org/2000/svg">
<path d="M1.00019 1.00031V0.300293C0.814533 0.300293 0.63648 0.374045 0.505201 0.505324C0.373923 0.636602 0.300171 0.814655 0.300171 1.00031H1.00019ZM11.7056 8.90562L11.0679 8.61721C11.0092 8.74682 10.9915 8.89121 11.017 9.03115C11.0425 9.17109 11.1101 9.29993 11.2107 9.40053L11.7056 8.90562ZM13.6005 10.8006L14.0954 11.2955C14.2267 11.1642 14.3004 10.9862 14.3004 10.8006C14.3004 10.6149 14.2267 10.4369 14.0954 10.3057L13.6005 10.8006ZM10.8004 13.6006L10.3055 14.0956C10.4368 14.2268 10.6148 14.3005 10.8004 14.3005C10.9861 14.3005 11.1641 14.2268 11.2954 14.0956L10.8004 13.6006ZM8.90549 11.7057L9.40041 11.2108C9.29976 11.1101 9.17078 11.0424 9.0307 11.0169C8.89062 10.9914 8.74609 11.0092 8.61639 11.068L8.90549 11.7057ZM6.60033 0.300293H1.00019V1.70033H6.60033V0.300293ZM12.9005 6.60046C12.9005 5.77311 12.7375 4.95386 12.4209 4.18949C12.1043 3.42512 11.6402 2.73059 11.0552 2.14557C10.4702 1.56054 9.77567 1.09648 9.0113 0.779864C8.24693 0.463251 7.42768 0.300293 6.60033 0.300293V1.70033C7.89993 1.70033 9.1463 2.21659 10.0652 3.13554C10.9842 4.0545 11.5005 5.30086 11.5005 6.60046H12.9005ZM12.3433 9.19402C12.711 8.37885 12.9009 7.49473 12.9005 6.60046H11.5005C11.5009 7.29555 11.3534 7.98348 11.0679 8.61721L12.3433 9.19402ZM11.2107 9.40053L13.1056 11.2955L14.0954 10.3057L12.2005 8.4107L11.2107 9.40053ZM13.1056 10.3057L10.3055 13.1057L11.2954 14.0956L14.0954 11.2955L13.1056 10.3057ZM11.2954 13.1057L9.40041 11.2108L8.41058 12.2006L10.3055 14.0956L11.2954 13.1057ZM6.60033 12.9006C7.49461 12.9011 8.37872 12.7111 9.1939 12.3434L8.61639 11.068C7.98244 11.3536 7.29566 11.5011 6.60033 11.5006V12.9006ZM0.300171 6.60046C0.300171 8.27136 0.963936 9.87383 2.14545 11.0553C3.32696 12.2369 4.92943 12.9006 6.60033 12.9006V11.5006C5.30074 11.5006 4.05437 10.9843 3.13542 10.0654C2.21647 9.14642 1.70021 7.90005 1.70021 6.60046H0.300171ZM0.300171 1.00031V6.60046H1.70021V1.00031H0.300171Z" fill="black"/>
<path d="M6.60009 5.20017C5.82687 5.20017 5.20005 5.82699 5.20005 6.60021C5.20005 7.37343 5.82687 8.00024 6.60009 8.00024C7.3733 8.00024 8.00012 7.37343 8.00012 6.60021C8.00012 5.82699 7.3733 5.20017 6.60009 5.20017Z" fill="black"/>
<path d="M1 1L6.60015 6.60015" stroke="black" stroke-width="2" stroke-linecap="round" stroke-linejoin="round"/>
</svg>
