<svg width="20" height="20" viewBox="0 0 20 20" fill="none" xmlns="http://www.w3.org/2000/svg">
<path d="M9.15671 3.48341C9.04345 3.38635 8.89921 3.33301 8.75005 3.33301C8.60089 3.33301 8.45665 3.38635 8.34338 3.48341L6.88505 4.73341C6.82267 4.78681 6.77142 4.85198 6.73423 4.92519C6.69704 4.9984 6.67463 5.07822 6.66828 5.16009C6.66194 5.24196 6.67178 5.32428 6.69725 5.40234C6.72271 5.48041 6.76331 5.55269 6.81671 5.61507C6.87012 5.67745 6.93529 5.7287 7.0085 5.76589C7.08171 5.80308 7.16152 5.82549 7.24339 5.83184C7.32527 5.83818 7.40758 5.82834 7.48565 5.80287C7.56372 5.7774 7.636 5.73681 7.69838 5.68341L8.75005 4.78091L9.80171 5.68174C9.92824 5.7833 10.0893 5.83168 10.2508 5.81665C10.4124 5.80163 10.5617 5.72437 10.6674 5.60122C10.773 5.47807 10.8266 5.31867 10.8168 5.15673C10.8071 4.99478 10.7347 4.84298 10.615 4.73341L9.15671 3.48341ZM11.3 7.95257C11.3713 7.89144 11.4555 7.84715 11.5462 7.82299C11.6369 7.79884 11.732 7.79545 11.8242 7.81306C11.9164 7.83067 12.0035 7.86885 12.079 7.92474C12.1544 7.98063 12.2163 8.05281 12.26 8.13591L13.2559 10.0276L10.1834 13.1001C10.122 13.1573 10.0727 13.2263 10.0386 13.303C10.0044 13.3796 9.98603 13.4624 9.98455 13.5463C9.98307 13.6302 9.99851 13.7136 10.0299 13.7914C10.0614 13.8692 10.1082 13.9399 10.1675 13.9993C10.2269 14.0586 10.2976 14.1054 10.3754 14.1368C10.4532 14.1683 10.5366 14.1837 10.6205 14.1822C10.7044 14.1807 10.7872 14.1624 10.8638 14.1282C10.9405 14.0941 11.0095 14.0448 11.0667 13.9834L13.865 11.1859L14.9667 13.2792C15.0979 13.5285 15.2836 13.7451 15.5099 13.9127C15.7363 14.0804 15.9976 14.1949 16.2743 14.2478C16.551 14.3006 16.836 14.2904 17.1083 14.218C17.3805 14.1455 17.6329 14.0126 17.8467 13.8292L18.115 13.5992C18.1804 13.5468 18.2345 13.4817 18.2742 13.408C18.3139 13.3342 18.3384 13.2531 18.3461 13.1697C18.3539 13.0863 18.3448 13.0022 18.3194 12.9223C18.294 12.8425 18.2528 12.7686 18.1982 12.705C18.1437 12.6414 18.0769 12.5894 18.0019 12.5521C17.9268 12.5148 17.8451 12.493 17.7614 12.488C17.6778 12.4829 17.594 12.4948 17.515 12.5227C17.436 12.5507 17.3635 12.5943 17.3017 12.6509L17.0334 12.8809C16.9621 12.942 16.878 12.9863 16.7872 13.0105C16.6965 13.0346 16.6015 13.038 16.5092 13.0204C16.417 13.0028 16.3299 12.9646 16.2545 12.9087C16.179 12.8528 16.1171 12.7807 16.0734 12.6976L14.79 10.2601L17.3167 7.73341C17.4271 7.61493 17.4872 7.45822 17.4844 7.2963C17.4815 7.13439 17.4159 6.9799 17.3014 6.86539C17.1869 6.75088 17.0324 6.68528 16.8705 6.68243C16.7086 6.67957 16.5519 6.73967 16.4334 6.85007L14.1809 9.10174L13.3667 7.55424C13.2355 7.30494 13.0498 7.08841 12.8235 6.92074C12.5971 6.75306 12.3359 6.63855 12.0592 6.5857C11.7825 6.53286 11.4974 6.54305 11.2252 6.6155C10.9529 6.68796 10.7005 6.82083 10.4867 7.00424L10.2184 7.23424C10.153 7.28669 10.0989 7.35174 10.0592 7.42553C10.0195 7.49931 9.99506 7.58033 9.9873 7.66375C9.97954 7.74718 9.98864 7.83132 10.014 7.91116C10.0395 7.991 10.0807 8.06492 10.1352 8.12852C10.1897 8.19212 10.2565 8.2441 10.3316 8.28138C10.4066 8.31866 10.4884 8.34046 10.572 8.34551C10.6556 8.35055 10.7394 8.33872 10.8184 8.31073C10.8974 8.28274 10.9699 8.23916 11.0317 8.18257L11.3 7.95257ZM2.98838 11.2251C3.76005 11.2142 4.56505 11.1717 5.28838 11.0151C6.16338 10.8267 7.02755 10.4501 7.55255 9.65591C8.02255 8.94591 8.03671 8.09674 7.60005 7.46257C7.15588 6.81757 6.34171 6.52757 5.43338 6.73341C4.79925 6.87529 4.20709 7.16352 3.70421 7.57507C3.01671 8.13341 2.34755 9.01841 1.91005 10.4159C1.58505 11.4526 1.58755 12.3576 1.90421 13.0817C2.22671 13.8176 2.83755 14.2792 3.54421 14.4734C4.91921 14.8534 6.65005 14.2451 7.75588 12.8484C7.85268 12.718 7.89488 12.555 7.87356 12.3939C7.85224 12.2329 7.76906 12.0865 7.64165 11.9857C7.51424 11.885 7.35261 11.8378 7.191 11.8541C7.02939 11.8705 6.8805 11.9492 6.77588 12.0734C5.92671 13.1451 4.68838 13.4934 3.87671 13.2692C3.48921 13.1617 3.20338 12.9317 3.04921 12.5801C2.91921 12.2826 2.86005 11.8409 2.98838 11.2251ZM6.57088 8.17091C6.68671 8.34007 6.73088 8.63257 6.51005 8.96591C6.24588 9.36507 5.76005 9.63424 5.02505 9.79341C4.54255 9.89757 3.99838 9.94424 3.42255 9.96424C3.75005 9.27507 4.13671 8.83424 4.49171 8.54591C4.84561 8.25522 5.26299 8.05196 5.71005 7.95257C6.20255 7.84091 6.46255 8.01424 6.57088 8.17091Z" fill="black"/>
</svg>
