<svg width="16" height="16" viewBox="0 0 16 16" fill="none" xmlns="http://www.w3.org/2000/svg">
<g clip-path="url(#clip0_1579_2298)">
<path d="M12.6667 11.2668C13.4768 11.1023 14.1969 10.6427 14.6872 9.9771C15.1774 9.31155 15.4029 8.48757 15.3198 7.66512C15.2368 6.84267 14.8511 6.08043 14.2376 5.52637C13.6241 4.97231 12.8267 4.66595 12 4.66679H11.16C10.9392 3.81166 10.5094 3.02478 9.9093 2.37678C9.30921 1.72877 8.55759 1.23994 7.72192 0.95416C6.88625 0.668382 5.99269 0.594606 5.12146 0.739457C4.25023 0.884307 3.42862 1.24325 2.73037 1.78406C2.03213 2.32487 1.47912 3.03061 1.12099 3.83793C0.762865 4.64524 0.610831 5.52886 0.678539 6.40945C0.746248 7.29003 1.03158 8.14002 1.50892 8.8831C1.98626 9.62617 2.64066 10.2391 3.41337 10.6668M8.6667 7.33345L6.00004 11.3335H10L7.33337 15.3335" stroke="#1E1E1E" stroke-width="1.5" stroke-linecap="round" stroke-linejoin="round"/>
</g>
<defs>
<clipPath id="clip0_1579_2298">
<rect width="16" height="16" fill="white"/>
</clipPath>
</defs>
</svg>
